<svg width="230" height="40" viewBox="0 0 230 40" fill="none" xmlns="http://www.w3.org/2000/svg">
<path d="M13.6892 38.2C12.1426 38.2 10.3959 38.0667 8.44924 37.8C7.38257 37.6667 6.64924 37.3867 6.24924 36.96C5.84924 36.5333 5.67591 35.84 5.72924 34.88C5.91591 32.24 6.35591 28.9867 7.04924 25.12C7.74257 21.2267 8.58257 17.48 9.56924 13.88C9.75591 13.2133 10.1292 12.7467 10.6892 12.48C11.2492 12.2133 11.9826 12.08 12.8892 12.08C14.5159 12.08 15.3292 12.5333 15.3292 13.44C15.3292 13.8133 15.2492 14.24 15.0892 14.72C14.3959 16.8533 13.7026 19.72 13.0092 23.32C12.3159 26.8933 11.8226 30.3067 11.5292 33.56C12.3292 33.64 13.2359 33.68 14.2492 33.68C18.9159 33.68 22.3959 32.2667 24.6892 29.44C27.0092 26.6133 28.1692 22.84 28.1692 18.12C28.1692 14.9467 27.2626 12.4933 25.4492 10.76C23.6359 9.02666 21.0759 8.16 17.7692 8.16C15.6359 8.16 13.5159 8.49333 11.4092 9.16C9.32924 9.82667 7.44924 10.7067 5.76924 11.8C5.42257 12.04 5.04924 12.16 4.64924 12.16C4.19591 12.16 3.83591 11.9733 3.56924 11.6C3.30257 11.2 3.16924 10.72 3.16924 10.16C3.16924 9.52 3.27591 9 3.48924 8.6C3.70257 8.17333 4.06257 7.78666 4.56924 7.44C6.40924 6.18666 8.56924 5.24 11.0492 4.6C13.5292 3.93333 15.9159 3.6 18.2092 3.6C21.4626 3.6 24.2759 4.17333 26.6492 5.32C29.0226 6.44 30.8492 8.09333 32.1292 10.28C33.4092 12.4667 34.0492 15.1067 34.0492 18.2C34.0492 22.2267 33.2492 25.7467 31.6492 28.76C30.0492 31.7467 27.7159 34.0667 24.6492 35.72C21.5826 37.3733 17.9292 38.2 13.6892 38.2ZM54.5667 29.08C54.9134 29.08 55.1801 29.24 55.3667 29.56C55.5801 29.88 55.6867 30.32 55.6867 30.88C55.6867 31.9467 55.4334 32.7733 54.9267 33.36C53.9401 34.56 52.5401 35.6667 50.7267 36.68C48.9401 37.6933 47.0201 38.2 44.9667 38.2C42.1667 38.2 39.9934 37.44 38.4467 35.92C36.9001 34.4 36.1267 32.32 36.1267 29.68C36.1267 27.84 36.5134 26.1333 37.2867 24.56C38.0601 22.96 39.1267 21.6933 40.4867 20.76C41.8734 19.8267 43.4334 19.36 45.1667 19.36C46.7134 19.36 47.9534 19.8267 48.8867 20.76C49.8201 21.6667 50.2867 22.9067 50.2867 24.48C50.2867 26.32 49.6201 27.9067 48.2867 29.24C46.9801 30.5467 44.7534 31.5867 41.6067 32.36C42.2734 33.5867 43.5401 34.2 45.4067 34.2C46.6067 34.2 47.9667 33.7867 49.4867 32.96C51.0334 32.1067 52.3667 31 53.4867 29.64C53.8067 29.2667 54.1667 29.08 54.5667 29.08ZM44.4867 23.28C43.5001 23.28 42.6601 23.8533 41.9667 25C41.3001 26.1467 40.9667 27.5333 40.9667 29.16V29.24C42.5401 28.8667 43.7801 28.3067 44.6867 27.56C45.5934 26.8133 46.0467 25.9467 46.0467 24.96C46.0467 24.4533 45.9001 24.0533 45.6067 23.76C45.3401 23.44 44.9667 23.28 44.4867 23.28ZM59.8699 39.08C58.4832 39.08 57.4165 38.76 56.6699 38.12C55.9499 37.48 55.5899 36.76 55.5899 35.96C55.5899 35.2667 55.8432 34.6667 56.3499 34.16C56.8565 33.6533 57.6032 33.4 58.5899 33.4C58.9365 33.4 59.3365 33.44 59.7899 33.52C60.2699 33.5733 60.6299 33.6133 60.8699 33.64C60.8432 32.9467 60.6832 32.2933 60.3899 31.68C60.1232 31.0667 59.7765 30.48 59.3499 29.92C58.9232 29.3333 58.5232 28.8267 58.1499 28.4C57.3232 29.9733 56.4965 31.28 55.6699 32.32C54.8699 33.36 53.9899 34.3467 53.0299 35.28C52.5499 35.76 52.0432 36 51.5099 36C51.0832 36 50.7365 35.8533 50.4699 35.56C50.2032 35.24 50.0699 34.8533 50.0699 34.4C50.0699 33.8667 50.2565 33.3733 50.6299 32.92L51.1499 32.28C52.6165 30.4667 53.7232 28.9733 54.4699 27.8C54.9232 27.0267 55.4565 26 56.0699 24.72C56.6832 23.4133 57.2832 22.0667 57.8699 20.68C58.3765 19.5067 59.4299 18.92 61.0299 18.92C61.7765 18.92 62.2965 18.9867 62.5899 19.12C62.8832 19.2533 63.0299 19.4667 63.0299 19.76C63.0299 19.92 62.9765 20.1733 62.8699 20.52C62.7632 20.8667 62.6165 21.2133 62.4299 21.56C61.9499 22.52 61.7099 23.3333 61.7099 24C61.7099 24.4 61.8432 24.84 62.1099 25.32C62.4032 25.8 62.8432 26.4 63.4299 27.12C64.2832 28.24 64.9232 29.2 65.3499 30C65.8032 30.7733 66.0299 31.6267 66.0299 32.56C66.0299 32.8267 66.0032 33.2 65.9499 33.68C67.2565 33.1733 68.7899 31.8267 70.5499 29.64C70.8699 29.2667 71.2299 29.08 71.6299 29.08C71.9765 29.08 72.2432 29.24 72.4299 29.56C72.6432 29.88 72.7499 30.32 72.7499 30.88C72.7499 31.8933 72.4965 32.72 71.9899 33.36C70.6565 35.0133 69.3765 36.1467 68.1499 36.76C66.9499 37.3467 65.4565 37.6667 63.6699 37.72C62.6032 38.6267 61.3365 39.08 59.8699 39.08ZM75.0202 16.72C73.9002 16.72 73.0602 16.4667 72.5002 15.96C71.9402 15.4267 71.6602 14.6933 71.6602 13.76C71.6602 12.8267 72.0202 12.0533 72.7402 11.44C73.4868 10.8 74.4068 10.48 75.5002 10.48C76.4868 10.48 77.2868 10.72 77.9002 11.2C78.5135 11.68 78.8202 12.36 78.8202 13.24C78.8202 14.3067 78.4735 15.16 77.7802 15.8C77.0868 16.4133 76.1668 16.72 75.0202 16.72ZM71.1802 38.2C70.3268 38.2 69.7402 38.0267 69.4202 37.68C69.1002 37.3333 68.9402 36.7867 68.9402 36.04C68.9402 35.8267 68.9668 35.4533 69.0202 34.92C69.4468 30.04 70.1535 25.6 71.1402 21.6C71.3535 20.7733 71.7002 20.2 72.1802 19.88C72.6868 19.5333 73.4868 19.36 74.5802 19.36C75.7268 19.36 76.3002 19.8267 76.3002 20.76C76.3002 20.8933 76.2735 21.1467 76.2202 21.52C75.0202 27.2267 74.3002 32.0133 74.0602 35.88C74.0068 36.7333 73.7535 37.3333 73.3002 37.68C72.8468 38.0267 72.1402 38.2 71.1802 38.2ZM99.3533 38.2C97.8066 38.2 96.06 38.0667 94.1133 37.8C93.0466 37.6667 92.3133 37.3867 91.9133 36.96C91.5133 36.5333 91.34 35.84 91.3933 34.88C91.58 32.24 92.02 28.9867 92.7133 25.12C93.4066 21.2267 94.2466 17.48 95.2333 13.88C95.42 13.2133 95.7933 12.7467 96.3533 12.48C96.9133 12.2133 97.6466 12.08 98.5533 12.08C100.18 12.08 100.993 12.5333 100.993 13.44C100.993 13.8133 100.913 14.24 100.753 14.72C100.06 16.8533 99.3666 19.72 98.6733 23.32C97.98 26.8933 97.4866 30.3067 97.1933 33.56C97.9933 33.64 98.9 33.68 99.9133 33.68C104.58 33.68 108.06 32.2667 110.353 29.44C112.673 26.6133 113.833 22.84 113.833 18.12C113.833 14.9467 112.927 12.4933 111.113 10.76C109.3 9.02666 106.74 8.16 103.433 8.16C101.3 8.16 99.18 8.49333 97.0733 9.16C94.9933 9.82667 93.1133 10.7067 91.4333 11.8C91.0866 12.04 90.7133 12.16 90.3133 12.16C89.86 12.16 89.5 11.9733 89.2333 11.6C88.9666 11.2 88.8333 10.72 88.8333 10.16C88.8333 9.52 88.94 9 89.1533 8.6C89.3666 8.17333 89.7266 7.78666 90.2333 7.44C92.0733 6.18666 94.2333 5.24 96.7133 4.6C99.1933 3.93333 101.58 3.6 103.873 3.6C107.127 3.6 109.94 4.17333 112.313 5.32C114.687 6.44 116.513 8.09333 117.793 10.28C119.073 12.4667 119.713 15.1067 119.713 18.2C119.713 22.2267 118.913 25.7467 117.313 28.76C115.713 31.7467 113.38 34.0667 110.313 35.72C107.247 37.3733 103.593 38.2 99.3533 38.2ZM126.08 38.2C124.88 38.2 123.894 37.6533 123.12 36.56C122.374 35.44 122 34.0533 122 32.4C122 30.4 122.134 28.5733 122.4 26.92C122.667 25.24 123.107 23.4667 123.72 21.6C123.987 20.8 124.36 20.2267 124.84 19.88C125.32 19.5333 126.08 19.36 127.12 19.36C127.707 19.36 128.107 19.4533 128.32 19.64C128.56 19.8267 128.68 20.1067 128.68 20.48C128.68 20.6933 128.534 21.4133 128.24 22.64C127.974 23.6267 127.76 24.52 127.6 25.32C127.067 28.12 126.8 29.9867 126.8 30.92C126.8 31.48 126.867 31.88 127 32.12C127.134 32.3333 127.347 32.44 127.64 32.44C128.04 32.44 128.534 32.04 129.12 31.24C129.734 30.44 130.374 29.2267 131.04 27.6C131.734 25.9733 132.4 23.9733 133.04 21.6C133.254 20.8 133.574 20.2267 134 19.88C134.454 19.5333 135.12 19.36 136 19.36C136.614 19.36 137.04 19.44 137.28 19.6C137.52 19.7333 137.64 20 137.64 20.4C137.64 21.0667 137.307 22.8933 136.64 25.88C135.894 29.2933 135.52 31.4 135.52 32.2C135.52 32.7067 135.627 33.1067 135.84 33.4C136.054 33.6667 136.334 33.8 136.68 33.8C137.214 33.8 137.84 33.48 138.56 32.84C139.307 32.1733 140.294 31.1067 141.52 29.64C141.84 29.2667 142.2 29.08 142.6 29.08C142.947 29.08 143.214 29.24 143.4 29.56C143.614 29.88 143.72 30.32 143.72 30.88C143.72 31.9467 143.467 32.7733 142.96 33.36C141.814 34.7733 140.574 35.9333 139.24 36.84C137.934 37.7467 136.44 38.2 134.76 38.2C133.48 38.2 132.534 37.7067 131.92 36.72C131.334 35.7333 131.04 34.3467 131.04 32.56C130.587 34.3733 129.907 35.7733 129 36.76C128.094 37.72 127.12 38.2 126.08 38.2ZM163.597 29.08C163.943 29.08 164.21 29.24 164.397 29.56C164.61 29.88 164.717 30.32 164.717 30.88C164.717 31.9467 164.463 32.7733 163.957 33.36C162.757 34.8267 161.543 36 160.317 36.88C159.09 37.76 157.637 38.2 155.957 38.2C153.903 38.2 152.25 37.6133 150.997 36.44C149.743 35.2667 149.117 33.7067 149.117 31.76C149.117 30.72 149.65 29.9733 150.717 29.52C151.89 29.0133 152.73 28.48 153.237 27.92C153.743 27.3333 153.997 26.6267 153.997 25.8C153.997 25.32 153.89 24.96 153.677 24.72C153.49 24.48 153.25 24.36 152.957 24.36C152.237 24.36 151.437 24.88 150.557 25.92C149.703 26.96 148.903 28.3067 148.157 29.96C147.41 31.5867 146.823 33.2667 146.397 35C146.103 36.2533 145.757 37.1067 145.357 37.56C144.983 37.9867 144.383 38.2 143.557 38.2C142.73 38.2 142.117 37.9067 141.717 37.32C141.343 36.7067 141.09 35.7733 140.957 34.52C140.823 33.2667 140.757 31.4267 140.757 29C140.757 24.8933 141.17 20.6133 141.997 16.16C142.85 11.7067 144.09 7.97333 145.717 4.96C147.37 1.92 149.343 0.399998 151.637 0.399998C152.863 0.399998 153.85 0.933331 154.597 2C155.37 3.04 155.757 4.4 155.757 6.08C155.757 8.77333 154.97 11.5733 153.397 14.48C151.823 17.36 149.263 20.7333 145.717 24.6C145.637 25.9867 145.597 27.4133 145.597 28.88C146.877 25.5467 148.343 23.1333 149.997 21.64C151.65 20.12 153.197 19.36 154.637 19.36C155.97 19.36 157.037 19.8133 157.837 20.72C158.663 21.6267 159.077 22.7467 159.077 24.08C159.077 25.5467 158.703 26.8933 157.957 28.12C157.21 29.3467 155.93 30.44 154.117 31.4C154.223 32.12 154.543 32.7067 155.077 33.16C155.637 33.5867 156.303 33.8 157.077 33.8C157.903 33.8 158.703 33.48 159.477 32.84C160.25 32.2 161.263 31.1333 162.517 29.64C162.837 29.2667 163.197 29.08 163.597 29.08ZM150.797 4.36C150.317 4.36 149.783 5.05333 149.197 6.44C148.61 7.8 148.037 9.65333 147.477 12C146.943 14.32 146.503 16.8533 146.157 19.6C147.81 17.6533 149.17 15.5333 150.237 13.24C151.33 10.9467 151.877 8.86667 151.877 7C151.877 6.14667 151.783 5.49333 151.597 5.04C151.41 4.58667 151.143 4.36 150.797 4.36ZM166.412 38.2C164.759 38.2 163.439 37.6 162.452 36.4C161.466 35.2 160.972 33.6267 160.972 31.68C160.972 29.5467 161.466 27.5333 162.452 25.64C163.439 23.72 164.746 22.1867 166.372 21.04C168.026 19.8667 169.772 19.28 171.612 19.28C172.199 19.28 172.586 19.4 172.772 19.64C172.986 19.8533 173.159 20.2533 173.292 20.84C173.852 20.7333 174.439 20.68 175.052 20.68C176.359 20.68 177.012 21.1467 177.012 22.08C177.012 22.64 176.812 23.9733 176.412 26.08C175.799 29.1467 175.492 31.28 175.492 32.48C175.492 32.88 175.586 33.2 175.772 33.44C175.986 33.68 176.252 33.8 176.572 33.8C177.079 33.8 177.692 33.48 178.412 32.84C179.132 32.1733 180.106 31.1067 181.332 29.64C181.652 29.2667 182.012 29.08 182.412 29.08C182.759 29.08 183.026 29.24 183.212 29.56C183.426 29.88 183.532 30.32 183.532 30.88C183.532 31.9467 183.279 32.7733 182.772 33.36C181.679 34.72 180.519 35.8667 179.292 36.8C178.066 37.7333 176.879 38.2 175.732 38.2C174.852 38.2 174.039 37.9067 173.292 37.32C172.572 36.7067 172.026 35.88 171.652 34.84C170.266 37.08 168.519 38.2 166.412 38.2ZM167.852 34.16C168.439 34.16 168.999 33.8133 169.532 33.12C170.066 32.4267 170.452 31.5067 170.692 30.36L172.172 23C171.052 23.0267 170.012 23.4533 169.052 24.28C168.119 25.08 167.372 26.1467 166.812 27.48C166.252 28.8133 165.972 30.2267 165.972 31.72C165.972 32.5467 166.132 33.16 166.452 33.56C166.799 33.96 167.266 34.16 167.852 34.16ZM185.201 38.2C183.548 38.2 182.228 37.6 181.241 36.4C180.255 35.2 179.761 33.6267 179.761 31.68C179.761 29.5467 180.255 27.5333 181.241 25.64C182.228 23.72 183.535 22.1867 185.161 21.04C186.815 19.8667 188.561 19.28 190.401 19.28C190.988 19.28 191.375 19.4 191.561 19.64C191.775 19.8533 191.948 20.2533 192.081 20.84C192.641 20.7333 193.228 20.68 193.841 20.68C195.148 20.68 195.801 21.1467 195.801 22.08C195.801 22.64 195.601 23.9733 195.201 26.08C194.588 29.1467 194.281 31.28 194.281 32.48C194.281 32.88 194.375 33.2 194.561 33.44C194.775 33.68 195.041 33.8 195.361 33.8C195.868 33.8 196.481 33.48 197.201 32.84C197.921 32.1733 198.895 31.1067 200.121 29.64C200.441 29.2667 200.801 29.08 201.201 29.08C201.548 29.08 201.815 29.24 202.001 29.56C202.215 29.88 202.321 30.32 202.321 30.88C202.321 31.9467 202.068 32.7733 201.561 33.36C200.468 34.72 199.308 35.8667 198.081 36.8C196.855 37.7333 195.668 38.2 194.521 38.2C193.641 38.2 192.828 37.9067 192.081 37.32C191.361 36.7067 190.815 35.88 190.441 34.84C189.055 37.08 187.308 38.2 185.201 38.2ZM186.641 34.16C187.228 34.16 187.788 33.8133 188.321 33.12C188.855 32.4267 189.241 31.5067 189.481 30.36L190.961 23C189.841 23.0267 188.801 23.4533 187.841 24.28C186.908 25.08 186.161 26.1467 185.601 27.48C185.041 28.8133 184.761 30.2267 184.761 31.72C184.761 32.5467 184.921 33.16 185.241 33.56C185.588 33.96 186.055 34.16 186.641 34.16ZM201.91 38.2C200.897 38.2 200.177 37.6667 199.75 36.6C199.35 35.5333 199.15 33.8267 199.15 31.48C199.15 28.0133 199.644 24.72 200.63 21.6C200.87 20.8267 201.257 20.2667 201.79 19.92C202.35 19.5467 203.124 19.36 204.11 19.36C204.644 19.36 205.017 19.4267 205.23 19.56C205.444 19.6933 205.55 19.9467 205.55 20.32C205.55 20.7467 205.35 21.7067 204.95 23.2C204.684 24.2667 204.47 25.2 204.31 26C204.15 26.8 204.017 27.7867 203.91 28.96C204.79 26.6667 205.777 24.8 206.87 23.36C207.964 21.92 209.03 20.8933 210.07 20.28C211.137 19.6667 212.11 19.36 212.99 19.36C213.844 19.36 214.484 19.5867 214.91 20.04C215.364 20.4667 215.59 21.1067 215.59 21.96C215.59 22.6533 215.444 23.96 215.15 25.88C214.884 27.5067 214.67 29.0533 214.51 30.52C214.35 31.96 214.27 33.5733 214.27 35.36C214.27 36.3733 214.057 37.1067 213.63 37.56C213.23 37.9867 212.564 38.2 211.63 38.2C210.75 38.2 210.11 37.9733 209.71 37.52C209.31 37.0667 209.11 36.3867 209.11 35.48C209.11 34.4133 209.297 32.6533 209.67 30.2C209.99 28.0667 210.15 26.7067 210.15 26.12C210.15 25.6933 210.004 25.48 209.71 25.48C209.364 25.48 208.87 25.9333 208.23 26.84C207.617 27.72 206.977 28.8933 206.31 30.36C205.67 31.8267 205.15 33.3733 204.75 35C204.457 36.2533 204.11 37.1067 203.71 37.56C203.337 37.9867 202.737 38.2 201.91 38.2Z" fill="url(#paint0_linear_1_4)"/>
<defs>
<linearGradient id="paint0_linear_1_4" x1="11.5" y1="4.00005" x2="207.5" y2="38" gradientUnits="userSpaceOnUse">
<stop stop-color="#42D392"/>
<stop offset="1" stop-color="#647EFF"/>
</linearGradient>
</defs>
</svg>
