<svg width="170" height="64" viewBox="0 0 170 64" fill="none" xmlns="http://www.w3.org/2000/svg">
<rect x="16.9274" y="5.41296" width="40.174" height="53.5654" rx="17.2971" stroke="white" stroke-width="1.11594"/>
<path d="M30.5302 16.1126C30.554 16.1007 30.7147 16.0947 31.0123 16.0947C31.2861 16.1066 31.4587 16.1245 31.5301 16.1483C31.8872 16.2435 32.1193 16.4221 32.2265 16.6839C32.3098 16.8268 32.3574 17.0053 32.3693 17.2196C32.3812 17.5291 32.2979 17.916 32.1193 18.3802C31.8932 19.023 31.6372 19.5705 31.3516 20.0229C31.1135 20.3919 30.7385 20.6478 30.2267 20.7906C30.0958 20.8263 29.9708 20.8442 29.8517 20.8442C29.7684 20.8442 29.7029 20.8263 29.6553 20.7906C29.5601 20.7311 29.5125 20.6537 29.5125 20.5585C29.5125 20.499 29.578 20.3323 29.7089 20.0586C29.9351 19.6181 30.1136 19.2372 30.2445 18.9158C30.3517 18.5944 30.4052 18.3385 30.4052 18.1481C30.4052 17.9219 30.3695 17.7672 30.2981 17.6838C30.2624 17.6362 30.2029 17.5946 30.1196 17.5589C29.9648 17.5112 29.7387 17.4934 29.4411 17.5053C28.7864 17.5648 28.2448 17.7314 27.8163 18.0052C27.4472 18.2671 27.1139 18.5825 26.8164 18.9516C26.1141 19.8324 25.6022 20.9394 25.2808 22.2726C24.8285 24.1057 24.9356 25.546 25.6022 26.5935C25.7808 26.8792 26.001 27.1113 26.2629 27.2899C26.6438 27.5875 27.1318 27.7363 27.727 27.7363C27.7984 27.7363 27.8639 27.7303 27.9234 27.7184C28.6733 27.6351 29.3042 27.2185 29.816 26.4686C29.9827 26.2305 30.1672 26.04 30.3695 25.8972C30.7147 25.6591 31.0599 25.5401 31.4051 25.5401C31.5361 25.5401 31.6313 25.5937 31.6908 25.7008C31.7384 25.7722 31.7384 25.8793 31.6908 26.0222C31.6432 26.1174 31.4944 26.3376 31.2444 26.6828C30.3755 27.7541 29.2804 28.4921 27.9591 28.8969C27.6972 28.9802 27.4353 29.0397 27.1735 29.0754C26.7687 29.1468 26.3878 29.1587 26.0307 29.1111C25.6736 29.0754 25.3106 28.9683 24.9416 28.7897C24.4178 28.5278 24.0072 28.1588 23.7096 27.6827C23.2572 26.9804 23.043 26.0519 23.0668 24.8973C23.0787 24.2783 23.1739 23.6117 23.3525 22.8975C23.8524 20.8978 24.7392 19.3146 26.0129 18.1481C26.8342 17.3505 27.7924 16.7792 28.8876 16.434C29.3637 16.2673 29.9113 16.1602 30.5302 16.1126Z" fill="white"/>
<path d="M41.6601 16.3447C41.7196 16.309 41.7851 16.2911 41.8565 16.2911C41.9755 16.3149 42.0708 16.3804 42.1422 16.4875L42.1779 16.559V28.4148L42.1422 28.4862C42.0708 28.5933 41.9755 28.6588 41.8565 28.6826C41.7851 28.6826 41.7196 28.6647 41.6601 28.629C41.5887 28.6052 41.5411 28.5576 41.5173 28.4862L41.4637 28.3969V22.844H33.536L33.4467 22.7904C33.3753 22.7666 33.3277 22.719 33.3039 22.6476C33.2444 22.5404 33.2444 22.4333 33.3039 22.3262C33.3277 22.2547 33.3753 22.2071 33.4467 22.1833L33.536 22.1298H41.4637V16.5768L41.5173 16.4875C41.5411 16.4161 41.5887 16.3685 41.6601 16.3447Z" fill="white"/>
<path d="M47.5224 14.952C47.5582 14.9163 47.5998 14.8984 47.6474 14.8984C47.7546 14.8984 47.82 14.958 47.8438 15.077L47.8974 15.3627C48.064 16.1483 48.3973 16.8565 48.8973 17.4874C49.0996 17.7731 49.3437 18.0171 49.6293 18.2195C50.2007 18.6718 50.8137 18.9813 51.4684 19.148C51.6351 19.1956 51.7243 19.2253 51.7363 19.2372C51.7839 19.2848 51.8077 19.392 51.8077 19.5586C51.8077 19.7491 51.7601 19.8622 51.6648 19.8979C51.6172 19.9098 51.516 19.8979 51.3613 19.8622C50.0162 19.4932 48.9568 18.7492 48.1831 17.6303C48.1593 17.6065 48.1414 17.5827 48.1295 17.5589L48.0045 17.3803V31.0573L48.1295 30.8788C48.6771 30.0455 49.421 29.4027 50.3614 28.9504C50.9804 28.6528 51.4149 28.5159 51.6648 28.5398C51.7601 28.5636 51.8077 28.6766 51.8077 28.879C51.8077 29.0456 51.7839 29.1528 51.7363 29.2004C51.7243 29.2123 51.6351 29.2421 51.4684 29.2897C50.8137 29.4563 50.2007 29.7658 49.6293 30.2181C49.3437 30.4205 49.0996 30.6645 48.8973 30.9502C48.3973 31.5811 48.064 32.2893 47.8974 33.075L47.8438 33.3606C47.82 33.4797 47.7546 33.5392 47.6474 33.5392C47.5998 33.5392 47.5582 33.5213 47.5224 33.4856C47.4748 33.438 47.4332 33.3011 47.3975 33.075C47.2546 32.3131 46.9213 31.6049 46.3976 30.9502C46.1952 30.6645 45.9512 30.4205 45.6655 30.2181C45.0941 29.7658 44.4811 29.4563 43.8264 29.2897C43.6598 29.2421 43.5705 29.2123 43.5586 29.2004C43.511 29.1528 43.4872 29.0456 43.4872 28.879C43.4872 28.6885 43.5348 28.5755 43.63 28.5398C43.6776 28.5278 43.7788 28.5398 43.9336 28.5755C45.2787 28.9445 46.3381 29.6884 47.1118 30.8074C47.1356 30.8312 47.1534 30.855 47.1653 30.8788L47.2903 31.0573V17.3803L47.1653 17.5589C46.6178 18.3921 45.8798 19.0349 44.9513 19.4872C44.2966 19.7967 43.8562 19.9336 43.63 19.8979C43.5348 19.8741 43.4872 19.761 43.4872 19.5586C43.4872 19.392 43.511 19.2848 43.5586 19.2372C43.5705 19.2253 43.6598 19.1956 43.8264 19.148C44.4811 18.9813 45.0941 18.6718 45.6655 18.2195C45.9512 18.0171 46.1952 17.7731 46.3976 17.4874C46.9213 16.8327 47.2546 16.1185 47.3975 15.3448C47.4332 15.1306 47.4748 14.9996 47.5224 14.952Z" fill="white"/>
<path d="M31.075 32.8518C31.2893 32.8161 31.4857 32.8458 31.6642 32.941C31.9499 33.072 32.0928 33.3339 32.0928 33.7267C32.0928 34.0838 32.0213 34.7444 31.8785 35.7086C31.8309 35.9943 31.7654 36.4704 31.6821 37.137V37.2977L31.7892 37.262C31.8368 37.262 32.0154 37.2144 32.3249 37.1191C32.7415 36.9882 33.0748 36.9168 33.3248 36.9049C33.5509 36.9049 33.7235 36.9406 33.8426 37.012C34.1044 37.1429 34.2413 37.381 34.2532 37.7262C34.2532 38.0476 34.1163 38.2857 33.8426 38.4404C33.7235 38.5118 33.5509 38.5475 33.3248 38.5475C33.0748 38.5356 32.7415 38.4642 32.3249 38.3333C32.0154 38.2381 31.8368 38.1904 31.7892 38.1904L31.6821 38.1547L31.6999 38.244C31.7238 38.4107 31.7773 38.7678 31.8606 39.3153C32.0154 40.0533 32.0928 40.7497 32.0928 41.4044C32.0928 43.6303 31.9856 45.9693 31.7714 48.4214C31.7357 48.9214 31.6999 49.1892 31.6642 49.2249L31.6107 49.2785H30.9322L30.8786 49.2249C30.8429 49.1892 30.8072 48.9214 30.7715 48.4214C30.5572 45.9693 30.4501 43.6303 30.4501 41.4044C30.4501 40.7497 30.5275 40.0533 30.6822 39.3153C30.7655 38.7678 30.8191 38.4107 30.8429 38.244L30.8608 38.1547L30.7536 38.1904C30.706 38.1904 30.5275 38.2381 30.218 38.3333C29.8014 38.4642 29.4681 38.5356 29.2181 38.5475C28.9919 38.5475 28.8193 38.5118 28.7003 38.4404C28.4384 38.3095 28.3015 38.0714 28.2896 37.7262C28.2896 37.4048 28.4265 37.1667 28.7003 37.012C28.8193 36.9406 28.9919 36.9049 29.2181 36.9049C29.4681 36.9168 29.8014 36.9882 30.218 37.1191C30.5275 37.2144 30.706 37.262 30.7536 37.262L30.8608 37.2977V37.137C30.7774 36.4704 30.712 35.9943 30.6644 35.7086C30.462 34.4349 30.4025 33.6731 30.4858 33.4231C30.5572 33.1374 30.7536 32.947 31.075 32.8518Z" fill="white"/>
<path d="M41.9726 32.6732C42.0441 32.6494 42.1393 32.6375 42.2583 32.6375C42.9368 32.6375 43.3772 33.0898 43.5796 33.9945C43.7105 34.542 43.6986 34.9587 43.5439 35.2443C43.3891 35.53 43.1154 35.6848 42.7226 35.7086C42.3655 35.7086 42.0917 35.5538 41.9012 35.2443C41.8179 35.1015 41.7762 34.9408 41.7762 34.7623C41.7762 34.5837 41.8179 34.423 41.9012 34.2802C42.0203 34.0421 42.2345 33.8933 42.544 33.8338C42.6154 33.8219 42.6511 33.7981 42.6511 33.7624L42.5797 33.6552L42.5619 33.6374C42.4309 33.4469 42.2583 33.4172 42.0441 33.5481C41.9964 33.5719 41.9548 33.6076 41.9191 33.6552C41.681 33.929 41.4906 34.6611 41.3477 35.8514C41.2882 36.3157 41.2227 36.9406 41.1513 37.7262C40.9251 40.0236 40.5383 42.6542 39.9907 45.6182C39.9074 46.0586 39.83 46.4693 39.7586 46.8502C39.4134 48.1834 38.848 48.9749 38.0624 49.2249C37.8124 49.2844 37.5862 49.2963 37.3839 49.2606C36.8363 49.1297 36.4792 48.6833 36.3126 47.9215C36.1816 47.3739 36.1935 46.9573 36.3483 46.6716C36.503 46.3859 36.7768 46.2312 37.1696 46.2074C37.5267 46.2074 37.8005 46.3621 37.9909 46.6716C38.0743 46.8145 38.1159 46.9752 38.1159 47.1537C38.1159 47.3323 38.0743 47.493 37.9909 47.6358C37.8719 47.8739 37.6577 48.0227 37.3482 48.0822C37.2767 48.0941 37.241 48.1179 37.241 48.1536C37.2886 48.2726 37.366 48.356 37.4731 48.4036C37.5684 48.4631 37.6815 48.4571 37.8124 48.3857C37.9671 48.3143 38.11 48.1298 38.2409 47.8322C38.3957 47.3799 38.5683 46.1598 38.7587 44.1719C38.9849 41.815 39.3658 39.2201 39.9014 36.3871C40.1038 35.2324 40.3121 34.423 40.5264 33.9588C40.5383 33.935 40.5502 33.9112 40.5621 33.8874C40.7406 33.566 40.9013 33.3338 41.0442 33.191C41.2822 32.9172 41.5917 32.7446 41.9726 32.6732Z" fill="white"/>
<path d="M43.9723 35.0301C44.127 35.0063 44.3175 35.0122 44.5436 35.0479C45.1983 35.1432 45.7042 35.4586 46.0613 35.9943C46.5375 36.7085 46.7279 37.5298 46.6327 38.4583C46.6208 38.5892 46.6029 38.7082 46.5791 38.8154C46.4601 39.3748 46.1446 40.1128 45.6328 41.0294C45.1448 41.946 44.8472 42.6483 44.74 43.1363C44.6567 43.6124 44.6627 44.1064 44.7579 44.6183C44.865 45.2254 45.0852 45.6955 45.4185 46.0288C45.6566 46.2669 45.9066 46.3919 46.1685 46.4038C46.3708 46.4157 46.5137 46.4574 46.597 46.5288C46.716 46.6716 46.6624 46.7788 46.4363 46.8502C46.2934 46.9097 46.0792 46.9216 45.7935 46.8859C45.1269 46.7788 44.6151 46.4574 44.258 45.9217C43.7818 45.2075 43.5914 44.3743 43.6866 43.422C43.6985 43.303 43.7163 43.1899 43.7402 43.0827C43.8592 42.5352 44.1746 41.7972 44.6865 40.8687C45.1745 39.976 45.4721 39.2796 45.5792 38.7797C45.6745 38.3035 45.6685 37.8095 45.5614 37.2977C45.4543 36.6906 45.234 36.2204 44.9007 35.8871C44.6627 35.6491 44.4187 35.5241 44.1687 35.5122C43.9068 35.5003 43.7461 35.4348 43.6866 35.3158C43.6747 35.2801 43.6747 35.2444 43.6866 35.2086C43.7223 35.1253 43.8175 35.0658 43.9723 35.0301Z" fill="white"/>
<path d="M68.9974 33.1107C68.9974 31.6466 69.3187 30.37 69.9615 29.2808C70.6222 28.1738 71.4792 27.3078 72.5327 26.6829C73.5861 26.0579 74.7288 25.7455 75.9609 25.7455C76.8536 25.7455 77.666 25.8615 78.3981 26.0937C79.148 26.3258 79.8265 26.6561 80.4336 27.0846C81.0406 27.4953 81.5584 27.9774 81.987 28.5309V25.5312C81.2013 24.8349 80.3443 24.3171 79.4158 23.9778C78.4874 23.6386 77.3357 23.469 75.9609 23.469C74.6574 23.469 73.4344 23.71 72.2916 24.1921C71.1668 24.6563 70.1758 25.3259 69.3187 26.2008C68.4617 27.0578 67.7921 28.0756 67.31 29.254C66.828 30.4324 66.5869 31.718 66.5869 33.1107C66.5869 34.5034 66.828 35.789 67.31 36.9674C67.7921 38.1459 68.4617 39.1725 69.3187 40.0474C70.1758 40.9045 71.1668 41.574 72.2916 42.0561C73.4344 42.5204 74.6574 42.7525 75.9609 42.7525C77.3357 42.7525 78.4874 42.5829 79.4158 42.2436C80.3443 41.9044 81.2013 41.3866 81.987 40.6902V37.6906C81.5584 38.2441 81.0406 38.7351 80.4336 39.1636C79.8265 39.5743 79.148 39.8957 78.3981 40.1278C77.666 40.3599 76.8536 40.476 75.9609 40.476C74.7288 40.476 73.5861 40.1635 72.5327 39.5386C71.4792 38.9136 70.6222 38.0477 69.9615 36.9406C69.3187 35.8336 68.9974 34.557 68.9974 33.1107Z" fill="white"/>
<path d="M86.8231 38.6815C86.8231 38.2351 86.9302 37.8513 87.1445 37.5299C87.3588 37.2085 87.6802 36.9585 88.1087 36.7799C88.5551 36.6014 89.1264 36.5121 89.8228 36.5121C90.5727 36.5121 91.278 36.6103 91.9386 36.8067C92.5992 36.9853 93.242 37.2888 93.867 37.7173V36.4586C93.742 36.2979 93.5009 36.0925 93.1438 35.8426C92.7867 35.5747 92.3046 35.3426 91.6976 35.1462C91.1083 34.9319 90.3674 34.8248 89.4746 34.8248C87.9569 34.8248 86.7695 35.1908 85.9125 35.9229C85.0733 36.6371 84.6537 37.5924 84.6537 38.7886C84.6537 39.6278 84.8501 40.342 85.2429 40.9313C85.6357 41.5205 86.1535 41.9758 86.7963 42.2972C87.457 42.6007 88.1622 42.7525 88.9122 42.7525C89.5907 42.7525 90.2691 42.6275 90.9476 42.3775C91.644 42.1276 92.2243 41.7437 92.6885 41.2259C93.1706 40.7081 93.4116 40.0564 93.4116 39.2707L92.9831 37.6638C92.9831 38.3066 92.8224 38.8779 92.501 39.3779C92.1975 39.86 91.7779 40.2349 91.2423 40.5027C90.7245 40.7706 90.1352 40.9045 89.4746 40.9045C88.9568 40.9045 88.4926 40.8241 88.0819 40.6634C87.6891 40.4849 87.3766 40.226 87.1445 39.8867C86.9302 39.5475 86.8231 39.1457 86.8231 38.6815ZM86.5017 33.0036C86.6981 32.8607 86.966 32.6911 87.3052 32.4947C87.6444 32.2983 88.0551 32.1287 88.5372 31.9858C89.0371 31.843 89.5907 31.7716 90.1977 31.7716C90.5727 31.7716 90.9298 31.8073 91.269 31.8787C91.6083 31.9501 91.9029 32.0662 92.1529 32.2269C92.4207 32.3876 92.626 32.6108 92.7689 32.8965C92.9117 33.1643 92.9831 33.5125 92.9831 33.941V42.4847H95.1257V33.6464C95.1257 32.8429 94.9204 32.1644 94.5097 31.6109C94.1169 31.0574 93.5545 30.6378 92.8224 30.3521C92.1082 30.0486 91.269 29.8968 90.3049 29.8968C89.1621 29.8968 88.1801 30.0664 87.3588 30.4057C86.5553 30.7449 85.9214 31.0842 85.4572 31.4234L86.5017 33.0036Z" fill="white"/>
<path d="M98.7533 21.5942V42.4847H100.896V21.5942H98.7533Z" fill="white"/>
<path d="M114.702 30.1646H112.291L108.488 39.6993L109.372 39.8064L105.462 30.1646H102.917L107.631 40.7438L104.256 48.3768H106.667L114.702 30.1646Z" fill="white"/>
<path d="M118.73 48.3768V30.1646H116.588V48.3768H118.73ZM129.042 36.3246C129.042 34.9855 128.765 33.8428 128.212 32.8965C127.658 31.9323 126.917 31.1913 125.989 30.6735C125.078 30.1557 124.06 29.8968 122.935 29.8968C121.918 29.8968 121.016 30.1557 120.23 30.6735C119.463 31.1913 118.855 31.9323 118.409 32.8965C117.981 33.8428 117.766 34.9855 117.766 36.3246C117.766 37.6459 117.981 38.7886 118.409 39.7528C118.855 40.717 119.463 41.458 120.23 41.9758C121.016 42.4936 121.918 42.7525 122.935 42.7525C124.06 42.7525 125.078 42.4936 125.989 41.9758C126.917 41.458 127.658 40.717 128.212 39.7528C128.765 38.7886 129.042 37.6459 129.042 36.3246ZM126.872 36.3246C126.872 37.271 126.676 38.0744 126.283 38.7351C125.908 39.3957 125.399 39.8957 124.757 40.2349C124.132 40.5742 123.435 40.7438 122.668 40.7438C122.043 40.7438 121.427 40.5742 120.82 40.2349C120.212 39.8957 119.713 39.3957 119.32 38.7351C118.927 38.0744 118.73 37.271 118.73 36.3246C118.73 35.3783 118.927 34.5748 119.32 33.9142C119.713 33.2536 120.212 32.7536 120.82 32.4144C121.427 32.0751 122.043 31.9055 122.668 31.9055C123.435 31.9055 124.132 32.0751 124.757 32.4144C125.399 32.7536 125.908 33.2536 126.283 33.9142C126.676 34.5748 126.872 35.3783 126.872 36.3246Z" fill="white"/>
<path d="M132.505 38.7083L130.818 39.7528C131.05 40.2349 131.389 40.7081 131.836 41.1723C132.3 41.6365 132.862 42.0204 133.523 42.324C134.184 42.6096 134.925 42.7525 135.746 42.7525C137.014 42.7525 138.031 42.3954 138.799 41.6812C139.585 40.967 139.978 40.0742 139.978 39.0029C139.978 38.2708 139.799 37.6727 139.442 37.2085C139.103 36.7442 138.638 36.3514 138.049 36.03C137.46 35.6908 136.808 35.3783 136.094 35.0926C135.666 34.9141 135.255 34.7266 134.862 34.5302C134.469 34.3338 134.148 34.1106 133.898 33.8606C133.648 33.6107 133.523 33.325 133.523 33.0036C133.523 32.5929 133.684 32.2894 134.005 32.093C134.326 31.8966 134.71 31.7984 135.157 31.7984C135.799 31.7984 136.371 31.9501 136.871 32.2537C137.389 32.5572 137.817 32.9411 138.156 33.4053L139.87 32.3072C139.62 31.843 139.272 31.4323 138.826 31.0752C138.379 30.7181 137.862 30.4324 137.272 30.2182C136.701 30.0039 136.085 29.8968 135.424 29.8968C134.764 29.8968 134.121 30.0129 133.496 30.245C132.889 30.4771 132.389 30.8342 131.996 31.3163C131.621 31.7984 131.434 32.4054 131.434 33.1375C131.434 33.8517 131.612 34.4499 131.969 34.9319C132.344 35.3962 132.8 35.7801 133.335 36.0836C133.889 36.3693 134.434 36.6192 134.969 36.8335C135.451 37.0121 135.907 37.2085 136.335 37.4227C136.764 37.6191 137.112 37.8691 137.38 38.1726C137.665 38.4583 137.808 38.8154 137.808 39.2439C137.808 39.726 137.63 40.1099 137.272 40.3956C136.933 40.6634 136.46 40.7973 135.853 40.7973C135.353 40.7973 134.889 40.7081 134.46 40.5295C134.05 40.3331 133.684 40.0742 133.362 39.7528C133.041 39.4314 132.755 39.0833 132.505 38.7083Z" fill="white"/>
<path d="M141.727 36.3246C141.727 37.5566 142.004 38.6637 142.557 39.6457C143.129 40.6099 143.896 41.3687 144.861 41.9222C145.825 42.4757 146.905 42.7525 148.101 42.7525C149.315 42.7525 150.396 42.4757 151.342 41.9222C152.306 41.3687 153.065 40.6099 153.618 39.6457C154.19 38.6637 154.476 37.5566 154.476 36.3246C154.476 35.0748 154.19 33.9678 153.618 33.0036C153.065 32.0394 152.306 31.2806 151.342 30.7271C150.396 30.1735 149.315 29.8968 148.101 29.8968C146.905 29.8968 145.825 30.1735 144.861 30.7271C143.896 31.2806 143.129 32.0394 142.557 33.0036C142.004 33.9678 141.727 35.0748 141.727 36.3246ZM143.896 36.3246C143.896 35.4676 144.075 34.7087 144.432 34.0481C144.807 33.3696 145.307 32.8429 145.932 32.4679C146.575 32.093 147.298 31.9055 148.101 31.9055C148.905 31.9055 149.619 32.093 150.244 32.4679C150.887 32.8429 151.387 33.3696 151.744 34.0481C152.119 34.7087 152.306 35.4676 152.306 36.3246C152.306 37.1817 152.119 37.9405 151.744 38.6012C151.387 39.2618 150.887 39.7885 150.244 40.1813C149.619 40.5563 148.905 40.7438 148.101 40.7438C147.298 40.7438 146.575 40.5563 145.932 40.1813C145.307 39.7885 144.807 39.2618 144.432 38.6012C144.075 37.9405 143.896 37.1817 143.896 36.3246Z" fill="white"/>
</svg>
