<svg width="88" height="27" viewBox="0 0 88 27" fill="none" xmlns="http://www.w3.org/2000/svg">
<path d="M2.41044 11.5166C2.41044 10.0524 2.73183 8.77579 3.37462 7.68663C4.03526 6.57961 4.8923 5.71364 5.94576 5.08871C6.99921 4.46378 8.14194 4.15132 9.37394 4.15132C10.2667 4.15132 11.0791 4.26737 11.8112 4.49949C12.5611 4.73161 13.2396 5.06193 13.8466 5.49045C14.4537 5.90112 14.9715 6.38321 15.4 6.93671V3.93705C14.6144 3.2407 13.7574 2.72291 12.8289 2.38366C11.9004 2.04441 10.7488 1.87479 9.37394 1.87479C8.07051 1.87479 6.84744 2.11583 5.70471 2.59792C4.57984 3.06215 3.58888 3.73172 2.73183 4.60662C1.87479 5.46367 1.20522 6.48141 0.723132 7.65985C0.241044 8.83828 0 10.1239 0 11.5166C0 12.9093 0.241044 14.1948 0.723132 15.3733C1.20522 16.5517 1.87479 17.5784 2.73183 18.4533C3.58888 19.3103 4.57984 19.9799 5.70471 20.462C6.84744 20.9262 8.07051 21.1583 9.37394 21.1583C10.7488 21.1583 11.9004 20.9887 12.8289 20.6494C13.7574 20.3102 14.6144 19.7924 15.4 19.0961V16.0964C14.9715 16.6499 14.4537 17.1409 13.8466 17.5694C13.2396 17.9801 12.5611 18.3015 11.8112 18.5336C11.0791 18.7657 10.2667 18.8818 9.37394 18.8818C8.14194 18.8818 6.99921 18.5693 5.94576 17.9444C4.8923 17.3195 4.03526 16.4535 3.37462 15.3465C2.73183 14.2395 2.41044 12.9628 2.41044 11.5166Z" fill="url(#paint0_linear_26_5)"/>
<path d="M20.2362 17.0873C20.2362 16.641 20.3433 16.2571 20.5576 15.9357C20.7719 15.6143 21.0932 15.3643 21.5218 15.1858C21.9681 15.0072 22.5395 14.918 23.2359 14.918C23.9858 14.918 24.6911 15.0162 25.3517 15.2126C26.0123 15.3911 26.6551 15.6947 27.28 16.1232V14.8644C27.1551 14.7037 26.914 14.4984 26.5569 14.2484C26.1998 13.9806 25.7177 13.7484 25.1106 13.552C24.5214 13.3378 23.7804 13.2306 22.8877 13.2306C21.37 13.2306 20.1826 13.5967 19.3256 14.3287C18.4864 15.0429 18.0668 15.9982 18.0668 17.1945C18.0668 18.0337 18.2632 18.7479 18.656 19.3371C19.0488 19.9263 19.5666 20.3816 20.2094 20.703C20.8701 21.0065 21.5753 21.1583 22.3252 21.1583C23.0037 21.1583 23.6822 21.0333 24.3607 20.7834C25.0571 20.5334 25.6374 20.1495 26.1016 19.6317C26.5837 19.1139 26.8247 18.4622 26.8247 17.6766L26.3962 16.0696C26.3962 16.7124 26.2355 17.2838 25.9141 17.7837C25.6106 18.2658 25.191 18.6407 24.6553 18.9086C24.1375 19.1764 23.5483 19.3103 22.8877 19.3103C22.3699 19.3103 21.9057 19.23 21.495 19.0693C21.1022 18.8907 20.7897 18.6318 20.5576 18.2926C20.3433 17.9533 20.2362 17.5516 20.2362 17.0873ZM19.9148 11.4094C20.1112 11.2666 20.379 11.097 20.7183 10.9006C21.0575 10.7041 21.4682 10.5345 21.9503 10.3917C22.4502 10.2488 23.0037 10.1774 23.6108 10.1774C23.9858 10.1774 24.3429 10.2131 24.6821 10.2845C25.0214 10.356 25.316 10.472 25.566 10.6327C25.8338 10.7934 26.0391 11.0166 26.182 11.3023C26.3248 11.5701 26.3962 11.9183 26.3962 12.3468V20.8905H28.5388V12.0522C28.5388 11.2487 28.3335 10.5702 27.9228 10.0167C27.53 9.46321 26.9676 9.04362 26.2355 8.75794C25.5213 8.4544 24.6821 8.30263 23.7179 8.30263C22.5752 8.30263 21.5932 8.47225 20.7719 8.8115C19.9684 9.15075 19.3345 9.49 18.8703 9.82924L19.9148 11.4094Z" fill="url(#paint1_linear_26_5)"/>
<path d="M32.1664 0V20.8905H34.309V0H32.1664Z" fill="url(#paint2_linear_26_5)"/>
<path d="M48.1147 8.57046H45.7042L41.9011 18.1051L42.7849 18.2122L38.8746 8.57046H36.3303L41.044 19.1496L37.6694 26.7827H40.0799L48.1147 8.57046Z" fill="url(#paint3_linear_26_5)"/>
<path d="M52.1436 26.7827V8.57046H50.001V26.7827H52.1436ZM62.4549 14.7305C62.4549 13.3913 62.1782 12.2486 61.6246 11.3023C61.0711 10.3381 60.3301 9.59713 59.4017 9.07933C58.4911 8.56153 57.4733 8.30263 56.3485 8.30263C55.3307 8.30263 54.429 8.56153 53.6434 9.07933C52.8756 9.59713 52.2686 10.3381 51.8222 11.3023C51.3937 12.2486 51.1794 13.3913 51.1794 14.7305C51.1794 16.0518 51.3937 17.1945 51.8222 18.1587C52.2686 19.1228 52.8756 19.8638 53.6434 20.3816C54.429 20.8994 55.3307 21.1583 56.3485 21.1583C57.4733 21.1583 58.4911 20.8994 59.4017 20.3816C60.3301 19.8638 61.0711 19.1228 61.6246 18.1587C62.1782 17.1945 62.4549 16.0518 62.4549 14.7305ZM60.2855 14.7305C60.2855 15.6768 60.0891 16.4803 59.6963 17.1409C59.3213 17.8016 58.8125 18.3015 58.1697 18.6407C57.5447 18.98 56.8484 19.1496 56.0806 19.1496C55.4557 19.1496 54.8397 18.98 54.2326 18.6407C53.6256 18.3015 53.1256 17.8016 52.7328 17.1409C52.34 16.4803 52.1436 15.6768 52.1436 14.7305C52.1436 13.7842 52.34 12.9807 52.7328 12.32C53.1256 11.6594 53.6256 11.1594 54.2326 10.8202C54.8397 10.481 55.4557 10.3113 56.0806 10.3113C56.8484 10.3113 57.5447 10.481 58.1697 10.8202C58.8125 11.1594 59.3213 11.6594 59.6963 12.32C60.0891 12.9807 60.2855 13.7842 60.2855 14.7305Z" fill="url(#paint4_linear_26_5)"/>
<path d="M65.9182 17.1141L64.2309 18.1587C64.4631 18.6407 64.8023 19.1139 65.2487 19.5781C65.7129 20.0424 66.2753 20.4263 66.936 20.7298C67.5966 21.0155 68.3376 21.1583 69.1589 21.1583C70.4267 21.1583 71.4444 20.8012 72.2122 20.087C72.9978 19.3728 73.3906 18.48 73.3906 17.4087C73.3906 16.6767 73.2121 16.0785 72.855 15.6143C72.5157 15.1501 72.0515 14.7573 71.4623 14.4359C70.873 14.0966 70.2213 13.7842 69.5071 13.4985C69.0786 13.3199 68.6679 13.1324 68.2751 12.936C67.8823 12.7396 67.5609 12.5164 67.3109 12.2665C67.061 12.0165 66.936 11.7308 66.936 11.4094C66.936 10.9988 67.0967 10.6952 67.4181 10.4988C67.7395 10.3024 68.1234 10.2042 68.5697 10.2042C69.2125 10.2042 69.7839 10.356 70.2838 10.6595C70.8016 10.963 71.2301 11.3469 71.5694 11.8112L73.2835 10.7131C73.0335 10.2488 72.6853 9.83817 72.239 9.48107C71.7926 9.12397 71.2748 8.83828 70.6856 8.62402C70.1142 8.40976 69.4982 8.30263 68.8376 8.30263C68.1769 8.30263 67.5341 8.41869 66.9092 8.65081C66.3021 8.88292 65.8022 9.24002 65.4094 9.72211C65.0344 10.2042 64.8469 10.8113 64.8469 11.5433C64.8469 12.2575 65.0255 12.8557 65.3826 13.3378C65.7575 13.802 66.2129 14.1859 66.7485 14.4894C67.302 14.7751 67.8466 15.0251 68.3823 15.2393C68.8643 15.4179 69.3196 15.6143 69.7482 15.8286C70.1767 16.025 70.5249 16.2749 70.7927 16.5785C71.0784 16.8642 71.2212 17.2213 71.2212 17.6498C71.2212 18.1319 71.0427 18.5158 70.6856 18.8014C70.3463 19.0693 69.8732 19.2032 69.2661 19.2032C68.7661 19.2032 68.3019 19.1139 67.8734 18.9354C67.4627 18.7389 67.0967 18.4801 66.7753 18.1587C66.4539 17.8373 66.1682 17.4891 65.9182 17.1141Z" fill="url(#paint5_linear_26_5)"/>
<path d="M75.1401 14.7305C75.1401 15.9625 75.4168 17.0695 75.9703 18.0515C76.5417 19.0157 77.3095 19.7745 78.2736 20.3281C79.2378 20.8816 80.3181 21.1583 81.5143 21.1583C82.7285 21.1583 83.8087 20.8816 84.755 20.3281C85.7192 19.7745 86.4781 19.0157 87.0316 18.0515C87.6029 17.0695 87.8886 15.9625 87.8886 14.7305C87.8886 13.4806 87.6029 12.3736 87.0316 11.4094C86.4781 10.4452 85.7192 9.6864 84.755 9.13289C83.8087 8.57938 82.7285 8.30263 81.5143 8.30263C80.3181 8.30263 79.2378 8.57938 78.2736 9.13289C77.3095 9.6864 76.5417 10.4452 75.9703 11.4094C75.4168 12.3736 75.1401 13.4806 75.1401 14.7305ZM77.3095 14.7305C77.3095 13.8734 77.488 13.1146 77.8451 12.4539C78.2201 11.7755 78.72 11.2487 79.3449 10.8738C79.9877 10.4988 80.7109 10.3113 81.5143 10.3113C82.3178 10.3113 83.032 10.4988 83.657 10.8738C84.2997 11.2487 84.7997 11.7755 85.1568 12.4539C85.5317 13.1146 85.7192 13.8734 85.7192 14.7305C85.7192 15.5875 85.5317 16.3464 85.1568 17.007C84.7997 17.6676 84.2997 18.1944 83.657 18.5872C83.032 18.9621 82.3178 19.1496 81.5143 19.1496C80.7109 19.1496 79.9877 18.9621 79.3449 18.5872C78.72 18.1944 78.2201 17.6676 77.8451 17.007C77.488 16.3464 77.3095 15.5875 77.3095 14.7305Z" fill="url(#paint6_linear_26_5)"/>
<defs>
<linearGradient id="paint0_linear_26_5" x1="2.05412" y1="-3.04343e-05" x2="87.5976" y2="3.54073" gradientUnits="userSpaceOnUse">
<stop stop-color="#42D392"/>
<stop offset="1" stop-color="#647EFF"/>
</linearGradient>
<linearGradient id="paint1_linear_26_5" x1="2.05412" y1="-3.04343e-05" x2="87.5976" y2="3.54073" gradientUnits="userSpaceOnUse">
<stop stop-color="#42D392"/>
<stop offset="1" stop-color="#647EFF"/>
</linearGradient>
<linearGradient id="paint2_linear_26_5" x1="2.05412" y1="-3.04343e-05" x2="87.5976" y2="3.54073" gradientUnits="userSpaceOnUse">
<stop stop-color="#42D392"/>
<stop offset="1" stop-color="#647EFF"/>
</linearGradient>
<linearGradient id="paint3_linear_26_5" x1="2.05412" y1="-3.04343e-05" x2="87.5976" y2="3.54073" gradientUnits="userSpaceOnUse">
<stop stop-color="#42D392"/>
<stop offset="1" stop-color="#647EFF"/>
</linearGradient>
<linearGradient id="paint4_linear_26_5" x1="2.05412" y1="-3.04343e-05" x2="87.5976" y2="3.54073" gradientUnits="userSpaceOnUse">
<stop stop-color="#42D392"/>
<stop offset="1" stop-color="#647EFF"/>
</linearGradient>
<linearGradient id="paint5_linear_26_5" x1="2.05412" y1="-3.04343e-05" x2="87.5976" y2="3.54073" gradientUnits="userSpaceOnUse">
<stop stop-color="#42D392"/>
<stop offset="1" stop-color="#647EFF"/>
</linearGradient>
<linearGradient id="paint6_linear_26_5" x1="2.05412" y1="-3.04343e-05" x2="87.5976" y2="3.54073" gradientUnits="userSpaceOnUse">
<stop stop-color="#42D392"/>
<stop offset="1" stop-color="#647EFF"/>
</linearGradient>
</defs>
</svg>
