<svg width="178" height="41" viewBox="0 0 178 41" fill="none" xmlns="http://www.w3.org/2000/svg">
<path d="M66.616 13.664C65.448 13.664 64.392 14.016 63.448 14.72C62.504 15.408 61.752 16.36 61.192 17.576C60.632 18.776 60.352 20.16 60.352 21.728C60.352 23.456 60.776 24.776 61.624 25.688C62.472 26.6 63.552 27.056 64.864 27.056C65.616 27.056 66.28 26.952 66.856 26.744C67.448 26.536 68.024 26.288 68.584 26L68.968 28.064C68.376 28.336 67.72 28.568 67 28.76C66.28 28.952 65.464 29.048 64.552 29.048C63.24 29.048 62.088 28.768 61.096 28.208C60.12 27.648 59.36 26.84 58.816 25.784C58.272 24.712 58 23.416 58 21.896C58 20.456 58.208 19.12 58.624 17.888C59.056 16.64 59.664 15.552 60.448 14.624C61.232 13.696 62.16 12.976 63.232 12.464C64.32 11.936 65.512 11.672 66.808 11.672C67.752 11.672 68.584 11.8 69.304 12.056C70.024 12.312 70.624 12.576 71.104 12.848L70.072 14.72C69.592 14.416 69.08 14.168 68.536 13.976C68.008 13.768 67.368 13.664 66.616 13.664Z" fill="#6F8000"/>
<path d="M75.2871 29.048C74.1031 29.048 73.0791 28.808 72.2151 28.328C71.3511 27.848 70.6791 27.184 70.1991 26.336C69.7351 25.472 69.5031 24.496 69.5031 23.408C69.5031 22.016 69.7831 20.76 70.3431 19.64C70.9191 18.52 71.7191 17.632 72.7431 16.976C73.7671 16.32 74.9751 15.992 76.3671 15.992C77.5511 15.992 78.5751 16.232 79.4391 16.712C80.3031 17.192 80.9671 17.856 81.4311 18.704C81.9111 19.552 82.1511 20.528 82.1511 21.632C82.1511 23.008 81.8711 24.264 81.3111 25.4C80.7511 26.52 79.9511 27.408 78.9111 28.064C77.8871 28.72 76.6791 29.048 75.2871 29.048ZM75.3591 27.128C76.3191 27.128 77.1351 26.896 77.8071 26.432C78.4951 25.952 79.0231 25.312 79.3911 24.512C79.7591 23.712 79.9431 22.816 79.9431 21.824C79.9431 21.088 79.7991 20.432 79.5111 19.856C79.2231 19.264 78.8071 18.792 78.2631 18.44C77.7191 18.088 77.0631 17.912 76.2951 17.912C75.3511 17.912 74.5351 18.152 73.8471 18.632C73.1591 19.096 72.6311 19.728 72.2631 20.528C71.8951 21.328 71.7111 22.224 71.7111 23.216C71.7111 23.936 71.8551 24.592 72.1431 25.184C72.4311 25.776 72.8471 26.248 73.3911 26.6C73.9351 26.952 74.5911 27.128 75.3591 27.128Z" fill="#6F8000"/>
<path d="M85.5732 24.44C85.5412 24.648 85.5172 24.84 85.5012 25.016C85.4852 25.176 85.4772 25.32 85.4772 25.448C85.4772 25.992 85.6372 26.416 85.9572 26.72C86.2932 27.024 86.7332 27.176 87.2772 27.176C87.5492 27.176 87.8212 27.144 88.0932 27.08C88.3652 27.016 88.6132 26.928 88.8372 26.816L89.0532 28.568C88.7652 28.712 88.4292 28.824 88.0452 28.904C87.6612 29 87.2452 29.048 86.7972 29.048C85.8372 29.048 85.0132 28.776 84.3252 28.232C83.6532 27.672 83.3172 26.832 83.3172 25.712C83.3172 25.296 83.3492 24.888 83.4132 24.488L85.7652 11H87.9252L85.5732 24.44Z" fill="#6F8000"/>
<path d="M100.714 28.88C99.8496 28.88 99.1856 28.672 98.7216 28.256C98.2736 27.824 98.0496 27.152 98.0496 26.24C97.5856 27.008 97.0016 27.672 96.2976 28.232C95.5936 28.776 94.7776 29.048 93.8496 29.048C93.0496 29.048 92.2976 28.84 91.5936 28.424C90.8896 27.992 90.3216 27.392 89.8896 26.624C89.4736 25.84 89.2656 24.912 89.2656 23.84C89.2656 22.608 89.4496 21.512 89.8176 20.552C90.1856 19.576 90.6736 18.752 91.2816 18.08C91.9056 17.408 92.5856 16.896 93.3216 16.544C94.0736 16.176 94.8336 15.992 95.6016 15.992C96.4496 15.992 97.1776 16.2 97.7856 16.616C98.4096 17.032 98.8896 17.544 99.2256 18.152L100.498 11H102.658L100.114 25.376C100.098 25.456 100.082 25.552 100.066 25.664C100.066 25.76 100.066 25.864 100.066 25.976C100.066 26.424 100.194 26.744 100.45 26.936C100.706 27.112 101.042 27.2 101.458 27.2L100.714 28.88ZM94.4256 27.128C95.0336 27.128 95.6096 26.936 96.1536 26.552C96.7136 26.168 97.1936 25.632 97.5936 24.944C98.0096 24.24 98.2976 23.416 98.4576 22.472L98.8896 20C98.5696 19.328 98.1376 18.808 97.5936 18.44C97.0496 18.056 96.4496 17.864 95.7936 17.864C95.0576 17.864 94.3536 18.096 93.6816 18.56C93.0256 19.008 92.4896 19.656 92.0736 20.504C91.6736 21.336 91.4736 22.344 91.4736 23.528C91.4736 24.312 91.6096 24.976 91.8816 25.52C92.1696 26.048 92.5376 26.448 92.9856 26.72C93.4496 26.992 93.9296 27.128 94.4256 27.128Z" fill="#6F8000"/>
<path d="M117.951 13.664C116.751 13.664 115.671 14.016 114.711 14.72C113.751 15.424 112.991 16.4 112.431 17.648C111.871 18.896 111.591 20.336 111.591 21.968C111.591 23.472 111.951 24.696 112.671 25.64C113.391 26.584 114.383 27.056 115.647 27.056C116.383 27.056 117.063 26.872 117.687 26.504C118.311 26.136 118.839 25.632 119.271 24.992C119.703 24.352 119.991 23.632 120.135 22.832L120.351 21.656H116.847L117.159 19.856H122.799L121.863 25.256C121.847 25.336 121.831 25.432 121.815 25.544C121.815 25.64 121.815 25.744 121.815 25.856C121.815 26.288 121.935 26.6 122.175 26.792C122.431 26.984 122.783 27.08 123.231 27.08L122.439 28.88C120.679 28.88 119.799 28.024 119.799 26.312C119.303 27.08 118.663 27.728 117.879 28.256C117.095 28.784 116.143 29.048 115.023 29.048C113.919 29.048 112.927 28.784 112.047 28.256C111.183 27.712 110.495 26.936 109.983 25.928C109.487 24.904 109.239 23.688 109.239 22.28C109.239 20.76 109.455 19.352 109.887 18.056C110.319 16.76 110.927 15.64 111.711 14.696C112.495 13.736 113.423 12.992 114.495 12.464C115.583 11.936 116.775 11.672 118.071 11.672C119.095 11.672 119.999 11.816 120.783 12.104C121.567 12.376 122.287 12.728 122.943 13.16L121.743 14.984C121.167 14.584 120.583 14.264 119.991 14.024C119.415 13.784 118.735 13.664 117.951 13.664Z" fill="#6F8000"/>
<path d="M129.306 29.048C128.25 29.048 127.314 28.824 126.498 28.376C125.698 27.912 125.066 27.256 124.602 26.408C124.154 25.544 123.93 24.528 123.93 23.36C123.93 22.032 124.202 20.808 124.746 19.688C125.306 18.568 126.09 17.672 127.098 17C128.122 16.328 129.314 15.992 130.674 15.992C131.602 15.992 132.386 16.168 133.026 16.52C133.682 16.872 134.186 17.328 134.538 17.888C134.89 18.448 135.066 19.048 135.066 19.688C135.066 20.568 134.858 21.296 134.442 21.872C134.026 22.448 133.49 22.896 132.834 23.216C132.178 23.52 131.466 23.736 130.698 23.864C129.946 23.992 129.226 24.056 128.538 24.056C128.106 24.056 127.674 24.04 127.242 24.008C126.826 23.96 126.458 23.912 126.138 23.864C126.266 24.92 126.642 25.728 127.266 26.288C127.89 26.848 128.69 27.128 129.666 27.128C130.466 27.128 131.178 27.024 131.802 26.816C132.426 26.608 132.954 26.4 133.386 26.192L133.578 28.112C133.098 28.336 132.49 28.552 131.754 28.76C131.018 28.952 130.202 29.048 129.306 29.048ZM130.506 17.816C129.754 17.816 129.074 18.008 128.466 18.392C127.858 18.76 127.354 19.272 126.954 19.928C126.57 20.568 126.314 21.304 126.186 22.136C126.554 22.2 126.922 22.256 127.29 22.304C127.674 22.336 128.09 22.352 128.538 22.352C129.882 22.352 130.946 22.168 131.73 21.8C132.514 21.416 132.906 20.768 132.906 19.856C132.906 19.296 132.682 18.816 132.234 18.416C131.802 18.016 131.226 17.816 130.506 17.816Z" fill="#6F8000"/>
<path d="M144.848 18.8C144.448 18.544 144.016 18.336 143.552 18.176C143.088 18 142.576 17.912 142.016 17.912C141.136 17.912 140.36 18.144 139.688 18.608C139.032 19.072 138.52 19.704 138.152 20.504C137.784 21.288 137.6 22.176 137.6 23.168C137.6 24.384 137.904 25.352 138.512 26.072C139.136 26.776 139.968 27.128 141.008 27.128C141.616 27.128 142.152 27.056 142.616 26.912C143.08 26.768 143.504 26.6 143.888 26.408L144.152 28.304C143.752 28.48 143.264 28.648 142.688 28.808C142.128 28.968 141.448 29.048 140.648 29.048C139.608 29.048 138.688 28.816 137.888 28.352C137.104 27.888 136.488 27.24 136.04 26.408C135.608 25.56 135.392 24.576 135.392 23.456C135.392 22.112 135.664 20.88 136.208 19.76C136.768 18.624 137.552 17.712 138.56 17.024C139.584 16.336 140.792 15.992 142.184 15.992C142.936 15.992 143.6 16.088 144.176 16.28C144.768 16.456 145.288 16.68 145.736 16.952L144.848 18.8Z" fill="#6F8000"/>
<path d="M148.591 11H150.751L149.455 18.368C149.887 17.632 150.455 17.056 151.159 16.64C151.863 16.208 152.655 15.992 153.535 15.992C154.223 15.992 154.831 16.136 155.359 16.424C155.903 16.712 156.327 17.104 156.631 17.6C156.935 18.08 157.087 18.616 157.087 19.208C157.087 20.472 156.655 21.408 155.791 22.016C154.943 22.608 153.863 22.904 152.551 22.904C152.471 22.904 152.391 22.904 152.311 22.904C152.231 22.904 152.135 22.896 152.023 22.88L154.063 26C154.335 26.416 154.639 26.72 154.975 26.912C155.327 27.104 155.799 27.2 156.391 27.2L155.647 28.88C154.911 28.88 154.287 28.776 153.775 28.568C153.263 28.344 152.807 27.888 152.407 27.2L149.455 22.112L149.671 21.416C149.911 21.528 150.215 21.624 150.583 21.704C150.951 21.768 151.367 21.8 151.831 21.8C152.871 21.8 153.655 21.584 154.183 21.152C154.727 20.704 154.999 20.136 154.999 19.448C154.999 18.952 154.815 18.536 154.447 18.2C154.095 17.848 153.615 17.672 153.007 17.672C152.559 17.672 152.039 17.816 151.447 18.104C150.871 18.376 150.327 18.864 149.815 19.568C149.303 20.272 148.935 21.264 148.711 22.544L147.631 28.76H145.471L148.591 11Z" fill="#6F8000"/>
<path d="M163.326 29.048C162.142 29.048 161.118 28.808 160.254 28.328C159.39 27.848 158.718 27.184 158.238 26.336C157.774 25.472 157.542 24.496 157.542 23.408C157.542 22.016 157.822 20.76 158.382 19.64C158.958 18.52 159.758 17.632 160.782 16.976C161.806 16.32 163.014 15.992 164.406 15.992C165.59 15.992 166.614 16.232 167.478 16.712C168.342 17.192 169.006 17.856 169.47 18.704C169.95 19.552 170.19 20.528 170.19 21.632C170.19 23.008 169.91 24.264 169.35 25.4C168.79 26.52 167.99 27.408 166.95 28.064C165.926 28.72 164.718 29.048 163.326 29.048ZM163.398 27.128C164.358 27.128 165.174 26.896 165.846 26.432C166.534 25.952 167.062 25.312 167.43 24.512C167.798 23.712 167.982 22.816 167.982 21.824C167.982 21.088 167.838 20.432 167.55 19.856C167.262 19.264 166.846 18.792 166.302 18.44C165.758 18.088 165.102 17.912 164.334 17.912C163.39 17.912 162.574 18.152 161.886 18.632C161.198 19.096 160.67 19.728 160.302 20.528C159.934 21.328 159.75 22.224 159.75 23.216C159.75 23.936 159.894 24.592 160.182 25.184C160.47 25.776 160.886 26.248 161.43 26.6C161.974 26.952 162.63 27.128 163.398 27.128Z" fill="#6F8000"/>
<rect x="11.5" y="19.9545" width="35" height="16.4545" rx="6.68182" fill="#C3D559" stroke="#6F8000"/>
<path d="M20.5 11.1818C20.5 8.04383 23.0438 5.5 26.1818 5.5H32.3636C35.5016 5.5 38.0455 8.04384 38.0455 11.1818V19.9545H20.5V11.1818Z" fill="#C3D559" stroke="#6F8000"/>
<circle cx="20.2727" cy="13.7273" r="3.27273" fill="#6F8000"/>
<circle cx="38.0023" cy="13.9114" r="3.275" fill="#6F8000"/>
<rect x="17" y="28.1818" width="24.7273" height="3.09091" rx="1.54545" fill="#6F8000"/>
</svg>
