<svg width="171" height="20" viewBox="0 0 171 20" fill="none" xmlns="http://www.w3.org/2000/svg">
<path d="M9.65558 6.94063C9.64098 6.70709 9.63368 6.35677 9.63368 5.88968V5.05768C9.63368 4.50302 9.61909 4.08702 9.5899 3.80968C9.5607 3.57614 9.5461 2.97039 9.5461 1.99242C9.5461 1.6421 9.64828 1.37207 9.85263 1.18231C10.0716 0.977964 10.3635 0.875789 10.7284 0.875789C11.1955 0.875789 11.5093 0.977964 11.6699 1.18231C11.8305 1.38667 11.9107 1.72238 11.9107 2.18947V3.02147L11.8888 5.42989C11.8742 5.89698 11.8669 6.59761 11.8669 7.53179L11.8888 9.32716C11.9034 9.60449 11.9107 9.9913 11.9107 10.4876C11.9107 10.8817 11.9253 11.4436 11.9545 12.1735C11.9837 12.8449 11.9983 13.3485 11.9983 13.6842C11.9983 13.9615 11.918 14.217 11.7575 14.4505C11.6115 14.6841 11.4072 14.8008 11.1444 14.8008C10.1227 14.8008 9.61179 14.4578 9.61179 13.7718C9.61179 13.3923 9.62639 12.969 9.65558 12.5019C9.68477 12.1662 9.69937 11.6553 9.69937 10.9693C9.69937 10.4876 9.68477 9.79424 9.65558 8.88926C8.96954 8.94765 7.78723 8.97684 6.10863 8.97684C5.05768 8.97684 4.24028 8.97684 3.65642 8.97684C3.07256 8.96224 2.64926 8.92575 2.38653 8.86737L2.36463 11.3853C2.36463 11.5458 2.40112 11.9764 2.47411 12.6771C2.54709 13.1441 2.58358 13.5528 2.58358 13.9032C2.58358 14.1221 2.45221 14.3338 2.18947 14.5381C1.94133 14.7279 1.70779 14.8227 1.48884 14.8227C0.963368 14.8227 0.605754 14.6987 0.416 14.4505C0.226246 14.1878 0.131368 13.7937 0.131368 13.2682L0.109474 11.5385C0.0948772 11.3342 0.087579 11.0495 0.087579 10.6846C0.087579 10.1446 0.0729824 9.40744 0.0437894 8.47326C0.0145965 7.62667 0 7.01361 0 6.6341C0 6.06484 0.0145965 5.26933 0.0437894 4.24758C0.0729824 3.28421 0.087579 2.56898 0.087579 2.10189C0.087579 1.63481 0.204351 1.32098 0.437895 1.16042C0.671439 0.999859 0.934175 0.919579 1.22611 0.919579C2.04351 0.919579 2.45221 1.18961 2.45221 1.72968C2.45221 2.69305 2.43032 3.61263 2.38653 4.48842C2.35733 5.59775 2.34274 6.40786 2.34274 6.91874C2.76603 7.02091 3.21123 7.0866 3.67832 7.11579C4.1454 7.14498 4.80225 7.15958 5.64884 7.15958C7.37123 7.15958 8.70681 7.0866 9.65558 6.94063Z" fill="url(#paint0_linear_26_4)"/>
<path d="M15.8602 0.722526C16.371 0.766315 16.8162 0.904982 17.1957 1.13853C17.5753 1.35747 17.765 1.69319 17.765 2.14568C17.765 2.4814 17.6044 2.75144 17.2833 2.95579C16.9768 3.14554 16.6046 3.24042 16.1667 3.24042C15.7434 3.24042 15.4515 3.13095 15.2909 2.912C15.1303 2.69305 15.0501 2.46681 15.0501 2.23326C15.0501 1.79537 15.0939 1.43046 15.1814 1.13853C15.2836 0.846596 15.5099 0.70793 15.8602 0.722526ZM17.6117 11.0568C17.6117 11.6261 17.6263 12.1662 17.6555 12.6771C17.6993 13.1733 17.7504 13.6769 17.8088 14.1878C17.7942 14.3338 17.6847 14.487 17.4804 14.6476C17.276 14.7935 17.0936 14.8665 16.933 14.8665C16.6557 14.8665 16.371 14.8154 16.0791 14.7133C15.8018 14.5965 15.6339 14.4578 15.5755 14.2973C15.488 13.8302 15.4442 13.4142 15.4442 13.0493C15.4442 11.8523 15.4077 10.5095 15.3347 9.02063C15.2763 7.70695 15.2471 6.78737 15.2471 6.26189C15.2471 5.99916 15.3785 5.77291 15.6412 5.58316C15.904 5.3934 16.1813 5.29853 16.4732 5.29853C16.8965 5.29853 17.1885 5.3934 17.349 5.58316C17.5242 5.77291 17.6117 6.07214 17.6117 6.48084V11.0568Z" fill="url(#paint1_linear_26_4)"/>
<path d="M28.2495 14.7352C28.6436 15.0125 28.9064 15.319 29.0377 15.6547C29.1837 15.9905 29.2567 16.4575 29.2567 17.056C29.2567 17.3479 29.1691 17.6399 28.9939 17.9318C28.8334 18.2237 28.6655 18.4354 28.4904 18.5667C27.1037 19.3258 25.717 19.7053 24.3304 19.7053C23.6443 19.7053 23.0532 19.6177 22.5569 19.4425C22.0606 19.2674 21.5935 19.0338 21.1556 18.7419C20.8637 18.5229 20.6228 18.2164 20.4331 17.8223C20.2579 17.4428 20.1704 17.0633 20.1704 16.6838C20.1704 16.1583 20.3309 15.6985 20.652 15.3044C20.9878 14.9103 21.433 14.6257 21.9876 14.4505C21.8854 14.2316 21.8344 13.9761 21.8344 13.6842C21.8344 13.4069 22.0387 12.9909 22.4474 12.4362C21.7468 12.2027 21.1921 11.7867 20.7834 11.1882C20.3893 10.5898 20.1922 9.88912 20.1922 9.08632C20.1922 8.59003 20.309 8.15214 20.5426 7.77263C20.7761 7.37853 21.1264 6.92603 21.5935 6.41516C21.9146 6.06484 22.3233 5.8094 22.8196 5.64884C23.3159 5.48828 23.9362 5.408 24.6807 5.408C25.2061 5.408 25.8557 5.52477 26.6293 5.75832C27.5489 5.11607 28.359 4.79495 29.0596 4.79495C29.2348 4.79495 29.4318 4.83874 29.6508 4.92632C29.8843 5.01389 30.0595 5.10147 30.1763 5.18905C30.2638 5.34961 30.3076 5.61965 30.3076 5.99916C30.3076 6.14512 30.2419 6.29109 30.1106 6.43705C29.9938 6.56842 29.8405 6.6341 29.6508 6.6341L29.1253 6.61221C28.8626 6.58302 28.6582 6.56842 28.5122 6.56842C28.3517 6.56842 28.1108 6.58302 27.7897 6.61221C28.0962 6.97712 28.3298 7.36393 28.4904 7.77263C28.6655 8.18133 28.7531 8.7141 28.7531 9.37095C28.7531 9.86723 28.5706 10.3854 28.2057 10.9255C27.8408 11.4655 27.4102 11.8888 26.9139 12.1954C26.1549 12.6041 25.2718 12.8157 24.2647 12.8303C24.1479 12.9471 24.0457 13.0566 23.9581 13.1587C23.8852 13.2463 23.8487 13.3193 23.8487 13.3777C23.8487 13.5382 23.9873 13.6623 24.2647 13.7499C24.542 13.8375 24.9653 13.9032 25.5346 13.9469C25.9725 13.9761 26.4541 14.071 26.9796 14.2316C27.5197 14.3775 27.943 14.5454 28.2495 14.7352ZM24.396 11.0349C25.0675 11.0349 25.6075 10.8525 26.0162 10.4876C26.425 10.1227 26.6293 9.60449 26.6293 8.93305C26.6293 8.42217 26.4468 8.00617 26.0819 7.68505C25.717 7.36393 25.2499 7.20337 24.6807 7.20337C24.3158 7.20337 23.9217 7.26905 23.4984 7.40042C23.0897 7.51719 22.7977 7.70695 22.6226 7.96968C22.535 8.08646 22.4474 8.3127 22.3598 8.64842C22.2723 8.96954 22.2285 9.21768 22.2285 9.39284C22.2285 9.64098 22.3306 9.89642 22.535 10.1592C22.7539 10.4073 23.0313 10.6189 23.367 10.7941C23.7173 10.9547 24.0603 11.0349 24.396 11.0349ZM25.7754 15.7861C24.9726 15.7131 24.4033 15.6401 24.0676 15.5672C23.7465 15.5088 23.4838 15.4358 23.2794 15.3482C22.535 15.7423 22.1628 16.1729 22.1628 16.64C22.1628 17.0779 22.389 17.4063 22.8415 17.6253C23.294 17.8588 23.8122 17.9756 24.396 17.9756C24.6588 17.9756 25.0164 17.9464 25.4689 17.888C25.9214 17.8296 26.3009 17.7274 26.6074 17.5815C26.8118 17.4793 26.965 17.3771 27.0672 17.2749C27.1694 17.1874 27.2205 17.0195 27.2205 16.7714C27.2205 16.4648 27.0599 16.2313 26.7388 16.0707C26.4177 15.9102 26.0965 15.8153 25.7754 15.7861Z" fill="url(#paint2_linear_26_4)"/>
<path d="M40.5039 14.8446C39.4092 14.8446 38.672 14.4213 38.2925 13.5747C38.1028 13.1514 37.9787 12.6041 37.9203 11.9326C37.8619 11.2466 37.8327 10.4438 37.8327 9.52421V8.84547C37.8327 7.79453 37.4824 7.26905 36.7818 7.26905C36.3731 7.26905 35.9644 7.4807 35.5557 7.904C35.147 8.3127 34.804 8.86007 34.5266 9.5461C34.2639 10.2175 34.1325 10.9182 34.1325 11.648C34.1325 12.1297 34.1544 12.5676 34.1982 12.9617C34.2274 13.458 34.242 13.8375 34.242 14.1002C34.242 14.5965 33.899 14.8446 33.2129 14.8446C32.8772 14.8446 32.578 14.7716 32.3153 14.6257C32.0671 14.4797 31.9431 14.29 31.9431 14.0564C32.0014 13.312 32.0306 12.3924 32.0306 11.2977L32.0087 8.40758C32.0087 7.94049 31.9722 6.21081 31.8993 3.21853L31.8336 1.20421C31.8336 0.883088 31.9795 0.605754 32.2715 0.37221C32.5634 0.12407 32.8918 0 33.2567 0C33.5779 0 33.8114 0.0729824 33.9574 0.218947C34.1033 0.364912 34.1763 0.591158 34.1763 0.897684C34.1763 1.27719 34.169 1.72239 34.1544 2.23326C34.1398 2.72954 34.1252 3.10905 34.1106 3.37179C34.0668 4.11621 34.0449 4.86063 34.0449 5.60505C34.0449 6.33488 34.0303 6.91144 34.0012 7.33474C34.4391 6.69249 34.9353 6.2181 35.49 5.91158C36.0593 5.59046 36.7234 5.42989 37.4824 5.42989C38.0371 5.42989 38.548 5.67803 39.015 6.17432C39.4967 6.656 39.7887 7.21067 39.8908 7.83832C39.92 8.15944 39.9346 8.63382 39.9346 9.26147L39.9127 10.8598C39.9127 11.1079 39.9273 11.4947 39.9565 12.0202C39.9711 12.2684 40.0514 12.5311 40.1974 12.8084C40.3579 13.0858 40.5404 13.2901 40.7447 13.4215C40.9345 13.5382 41.0586 13.655 41.1169 13.7718C41.1753 13.8886 41.2045 14.0199 41.2045 14.1659C41.2045 14.3119 41.1388 14.4651 41.0075 14.6257C40.8761 14.7716 40.7082 14.8446 40.5039 14.8446Z" fill="url(#paint3_linear_26_4)"/>
<path d="M58.7718 3.02147C58.9907 3.28421 59.144 3.49586 59.2316 3.65642C59.3192 3.81698 59.363 3.97025 59.363 4.11621C59.363 4.29137 59.2462 4.49572 59.0126 4.72926C58.7937 4.96281 58.5747 5.07958 58.3558 5.07958C58.0639 5.07958 57.8303 5.03579 57.6552 4.94821C57.48 4.86063 57.334 4.72196 57.2173 4.53221C56.9399 4.09432 56.6188 3.70751 56.2539 3.37179C55.889 3.02147 55.4 2.84632 54.787 2.84632C54.1885 2.84632 53.5171 2.98498 52.7726 3.26232C52.0282 3.53965 51.4809 3.88267 51.1305 4.29137C50.3423 5.25474 49.9482 6.53193 49.9482 8.12295C49.9482 9.39284 50.3423 10.4803 51.1305 11.3853C51.9625 12.3194 53.0135 12.7865 54.2834 12.7865C54.8672 12.7865 55.5022 12.6844 56.1882 12.48C56.8888 12.2611 57.4435 11.9107 57.8522 11.4291H57.8303C58.0931 11.1517 58.4215 11.0131 58.8156 11.0131C59.0491 11.0131 59.2681 11.1152 59.4724 11.3196C59.6914 11.5239 59.8008 11.7283 59.8008 11.9326C59.8008 12.1516 59.7644 12.3486 59.6914 12.5238C59.633 12.6843 59.5162 12.8668 59.3411 13.0712C58.7426 13.728 57.9763 14.1878 57.0421 14.4505C56.1225 14.6987 55.0716 14.8227 53.8893 14.8227C52.9113 14.8227 51.9698 14.5892 51.0648 14.1221C50.1745 13.655 49.4373 13.0639 48.8535 12.3486C48.5616 11.9253 48.2769 11.3196 47.9996 10.5314C47.7369 9.72856 47.6055 9.07902 47.6055 8.58274C47.6055 7.31284 47.7952 6.10863 48.1747 4.9701C48.5688 3.81698 49.1527 2.8974 49.9263 2.21137C50.4372 1.74428 51.1743 1.39396 52.1377 1.16042C53.1011 0.926877 53.9841 0.810105 54.787 0.810105C55.4292 0.810105 55.9766 0.904983 56.4291 1.09474C56.8961 1.26989 57.2976 1.51074 57.6333 1.81726C57.969 2.10919 58.3485 2.5106 58.7718 3.02147Z" fill="url(#paint4_linear_26_4)"/>
<path d="M70.3668 7.75074C70.4835 7.95509 70.5784 8.25431 70.6514 8.64842C70.7244 9.02793 70.7609 9.37095 70.7609 9.67747C70.7609 10.0716 70.7171 10.5095 70.6295 10.9912C70.5419 11.4728 70.4616 11.8451 70.3887 12.1078C69.3815 13.9469 67.8927 14.8665 65.9221 14.8665C65.1923 14.8665 64.4479 14.6257 63.6889 14.144C62.9299 13.6623 62.4044 13.1076 62.1125 12.48C61.7184 11.2393 61.5213 10.4438 61.5213 10.0935C61.5213 9.50961 61.6454 8.88926 61.8935 8.23242C62.1562 7.57558 62.4847 7.00632 62.8788 6.52463C63.1415 6.18891 63.594 5.90428 64.2362 5.67074C64.8785 5.4226 65.4623 5.29853 65.9878 5.29853C67.0096 5.29853 67.8708 5.49558 68.5714 5.88968C69.2866 6.26919 69.8851 6.88954 70.3668 7.75074ZM68.4619 11.2758C68.5349 11.1298 68.5714 10.6408 68.5714 9.80884C68.5714 9.38554 68.4911 8.96954 68.3306 8.56084C68.1846 8.15214 67.9657 7.80182 67.6737 7.50989C67.6445 7.4807 67.5642 7.43691 67.4329 7.37853C67.3015 7.30554 67.119 7.23986 66.8855 7.18147C66.6666 7.10849 66.4111 7.072 66.1192 7.072C65.3018 7.072 64.7033 7.40042 64.3238 8.05726C63.9443 8.7141 63.7546 9.45853 63.7546 10.2905C63.7546 10.4219 63.7984 10.6919 63.8859 11.1006C63.9735 11.5093 64.0392 11.7721 64.083 11.8888C64.1998 12.0932 64.4333 12.334 64.7836 12.6114C65.1485 12.8741 65.5426 13.0055 65.9659 13.0055C66.6228 13.0055 67.1409 12.8522 67.5205 12.5457C67.9146 12.2246 68.2284 11.8013 68.4619 11.2758Z" fill="url(#paint5_linear_26_4)"/>
<path d="M72.6178 7.40042C72.501 7.40042 72.3989 7.35663 72.3113 7.26905C72.2237 7.16688 72.1799 7.0501 72.1799 6.91874C72.1799 6.49544 72.3186 6.17432 72.5959 5.95537C72.8733 5.72182 73.2163 5.60505 73.625 5.60505C74.1942 5.60505 74.6832 5.75831 75.0919 6.06484C75.5152 6.35677 75.7269 6.78007 75.7269 7.33474C75.7269 7.4807 75.6977 8.03537 75.6393 8.99874C75.5809 10.1081 75.5517 10.8452 75.5517 11.2101C75.5517 11.721 75.6466 12.137 75.8363 12.4581C76.0407 12.7646 76.3545 12.9179 76.7778 12.9179C77.5952 12.9179 78.2229 12.4654 78.6608 11.5604C79.1133 10.6408 79.4125 9.51691 79.5585 8.18863C79.6168 7.60477 79.7044 6.99172 79.8212 6.34947C79.8796 5.99916 79.9599 5.74372 80.062 5.58316C80.1642 5.4226 80.3613 5.34232 80.6532 5.34232C80.8429 5.34232 81.0619 5.3861 81.31 5.47368C81.5728 5.56126 81.7406 5.67803 81.8136 5.824C81.9012 6.04295 81.945 6.28379 81.945 6.54653C81.945 6.91144 81.8939 7.38582 81.7917 7.96968C81.6749 8.55354 81.5947 9.18849 81.5509 9.87453C81.5217 10.4876 81.6166 11.1298 81.8355 11.8013C82.0545 12.4727 82.3683 12.9106 82.777 13.1149C83.2441 13.3485 83.4776 13.5601 83.4776 13.7499C83.4776 14.0564 83.3681 14.2973 83.1492 14.4724C82.9302 14.6476 82.7186 14.7352 82.5142 14.7352C81.9742 14.7352 81.4852 14.5381 81.0473 14.144C80.624 13.7499 80.3175 13.2609 80.1277 12.6771C79.8212 13.1441 79.522 13.5309 79.23 13.8375C78.9527 14.1294 78.5951 14.3775 78.1572 14.5819C77.7193 14.7716 77.1792 14.8665 76.537 14.8665C75.778 14.8665 75.0846 14.5965 74.457 14.0564C73.8439 13.5164 73.5374 12.5895 73.5374 11.2758C73.5374 10.9109 73.5447 10.5241 73.5593 10.1154C73.5885 9.70667 73.6031 9.41474 73.6031 9.23958C73.6469 8.7141 73.6688 8.23242 73.6688 7.79453C73.6688 7.66316 73.6177 7.55368 73.5155 7.4661C73.4279 7.37853 73.3258 7.33474 73.209 7.33474C73.1214 7.33474 73.0192 7.34933 72.9025 7.37853C72.8003 7.39312 72.7054 7.40042 72.6178 7.40042Z" fill="url(#paint6_linear_26_4)"/>
<path d="M95.0088 13.0931C95.0818 13.1222 95.1985 13.1587 95.3591 13.2025C95.5197 13.2463 95.6364 13.2901 95.7094 13.3339C95.7824 13.3777 95.8189 13.4434 95.8189 13.5309C95.8335 13.8813 95.7021 14.1732 95.4248 14.4067C95.162 14.6257 94.8482 14.7352 94.4833 14.7352C93.914 14.7352 93.4689 14.5819 93.1477 14.2754C92.8266 13.9688 92.5931 13.5018 92.4471 12.8741C92.3887 12.626 92.3595 12.2829 92.3595 11.8451C92.3595 11.5969 92.3741 11.1955 92.4033 10.6408C92.4325 10.057 92.4471 9.58989 92.4471 9.23958C92.4471 8.61193 92.3814 8.13754 92.25 7.81642C92.1187 7.4807 91.8049 7.31284 91.3086 7.31284C90.7977 7.31284 90.3379 7.51719 89.9292 7.92589C89.5351 8.3346 89.1994 8.94765 88.922 9.76505C88.5425 10.9036 88.3309 12.4143 88.2871 14.2973C88.2871 14.3994 88.1776 14.5235 87.9587 14.6695C87.7543 14.8008 87.5062 14.8665 87.2143 14.8665C86.6742 14.8665 86.3385 14.5819 86.2071 14.0126L86.1852 13.6404C86.1852 13.5091 86.1998 13.3558 86.229 13.1806C86.4041 12.1589 86.4917 11.2685 86.4917 10.5095C86.4917 10.1738 86.4844 9.91102 86.4698 9.72126L86.4479 8.69221C86.4479 8.34189 86.3604 8.00617 86.1852 7.68505C86.01 7.34933 85.8057 7.18147 85.5722 7.18147C85.4992 7.18147 85.397 7.21067 85.2656 7.26905C85.1343 7.31284 85.0248 7.33474 84.9372 7.33474C84.7912 7.33474 84.6307 7.26175 84.4555 7.11579C84.295 6.96982 84.2147 6.81656 84.2147 6.656C84.2147 6.34947 84.3169 6.10133 84.5212 5.91158C84.7401 5.73642 84.9518 5.59775 85.1562 5.49558C85.3751 5.3934 85.6232 5.34232 85.9006 5.34232C86.1341 5.34232 86.3239 5.36421 86.4698 5.408C86.6158 5.45179 86.8128 5.54667 87.061 5.69263C87.207 5.76561 87.3748 5.96996 87.5646 6.30568C87.7543 6.6414 87.9003 7.11579 88.0025 7.72884C88.2944 7.18877 88.7834 6.61951 89.4694 6.02105C89.9803 5.55396 90.7174 5.32042 91.6808 5.32042C92.5566 5.32042 93.2499 5.64154 93.7608 6.28379C94.2717 6.91144 94.5271 7.77993 94.5271 8.88926C94.5271 9.10821 94.5125 9.46582 94.4833 9.9621C94.4395 10.3562 94.4176 10.7722 94.4176 11.2101C94.4176 12.2319 94.6147 12.8595 95.0088 13.0931Z" fill="url(#paint7_linear_26_4)"/>
<path d="M97.4475 7.20337C97.2431 7.17417 97.0753 7.0866 96.9439 6.94063C96.8271 6.79467 96.7687 6.61951 96.7687 6.41516C96.7687 6.31298 96.7906 6.20351 96.8344 6.08674C96.8928 5.96996 96.9731 5.86779 97.0753 5.78021C97.265 5.59046 97.7759 5.49558 98.6079 5.49558C98.7247 4.92632 98.7831 4.34975 98.7831 3.76589C98.7831 3.54695 98.7758 3.35719 98.7612 3.19663C98.7466 3.03607 98.7393 2.912 98.7393 2.82442C98.7393 2.5033 98.856 2.26246 99.0896 2.10189C99.3377 1.94133 99.6151 1.86105 99.9216 1.86105C100.301 1.86105 100.557 1.95593 100.688 2.14568C100.834 2.33544 100.907 2.68575 100.907 3.19663C100.907 3.95565 100.841 4.70007 100.71 5.42989C100.943 5.42989 101.264 5.4153 101.673 5.3861C102.228 5.35691 102.629 5.34232 102.877 5.34232C103.126 5.34232 103.337 5.408 103.512 5.53937C103.702 5.65614 103.797 5.824 103.797 6.04295C103.797 6.61221 103.542 6.94793 103.031 7.0501C102.491 7.18147 101.651 7.26175 100.513 7.29095C100.469 7.86021 100.447 8.48056 100.447 9.152C100.447 10.2029 100.513 11.0641 100.644 11.7356C100.732 12.2027 100.878 12.5457 101.082 12.7646C101.301 12.969 101.622 13.0712 102.045 13.0712C102.294 13.0712 102.549 13.0055 102.812 12.8741C102.987 12.7719 103.147 12.7208 103.293 12.7208C103.498 12.7208 103.644 12.7865 103.731 12.9179C103.833 13.0493 103.885 13.2244 103.885 13.4434C103.885 13.8521 103.666 14.1951 103.228 14.4724C102.79 14.7352 102.228 14.8665 101.542 14.8665C101.118 14.8665 100.688 14.7644 100.25 14.56C99.8267 14.3556 99.4691 14.1002 99.1772 13.7937C99.1334 13.7499 99.0531 13.582 98.9363 13.2901C98.8196 12.9982 98.7174 12.6844 98.6298 12.3486C98.4838 11.6626 98.4109 10.6992 98.4109 9.45853C98.4109 8.91846 98.44 8.19593 98.4984 7.29095L97.4475 7.20337Z" fill="url(#paint8_linear_26_4)"/>
<path d="M105.767 7.09389C105.387 6.83116 105.198 6.55382 105.198 6.26189C105.198 6.05754 105.285 5.86779 105.46 5.69263C105.636 5.51747 105.898 5.42989 106.249 5.42989C106.657 5.42989 107.022 5.53937 107.343 5.75832C107.679 5.96267 107.913 6.26189 108.044 6.656C108.38 6.26189 108.759 5.94807 109.183 5.71453C109.62 5.48098 110.066 5.36421 110.518 5.36421C111.058 5.36421 111.547 5.51017 111.985 5.8021C112.423 6.09403 112.642 6.48814 112.642 6.98442C112.642 7.26175 112.518 7.54639 112.27 7.83832C112.036 8.13025 111.795 8.27621 111.547 8.27621C111.416 8.27621 111.299 8.24702 111.197 8.18863C111.109 8.11565 111 8.01347 110.868 7.8821C110.722 7.73614 110.598 7.63396 110.496 7.57558C110.394 7.5026 110.277 7.4661 110.146 7.4661C109.912 7.4661 109.693 7.5026 109.489 7.57558C109.285 7.64856 109.146 7.73614 109.073 7.83832C108.84 8.20323 108.664 8.53165 108.548 8.82358C108.445 9.11551 108.394 9.42933 108.394 9.76505C108.394 10.0132 108.387 10.2102 108.372 10.3562L108.351 11.6042C108.351 11.794 108.358 12.0056 108.372 12.2392C108.387 12.4727 108.402 12.6479 108.416 12.7646C108.46 13.1587 108.482 13.5382 108.482 13.9032C108.482 14.1513 108.387 14.3702 108.197 14.56C108.008 14.7498 107.774 14.8446 107.497 14.8446C107.059 14.8446 106.738 14.7643 106.533 14.6038C106.329 14.4286 106.227 14.1148 106.227 13.6623L106.205 12.2611C106.19 11.9837 106.183 11.5896 106.183 11.0787L106.205 9.63368C106.234 8.93305 106.249 8.36379 106.249 7.92589C106.249 7.76533 106.212 7.61937 106.139 7.488C106.081 7.35663 105.957 7.22526 105.767 7.09389Z" fill="url(#paint9_linear_26_4)"/>
<path d="M116.407 19.2455C115.867 19.2455 115.407 19.1506 115.027 18.9608C114.648 18.7857 114.363 18.5667 114.174 18.304C113.998 18.0559 113.911 17.8369 113.911 17.6472C113.911 17.3844 114.006 17.1509 114.195 16.9465C114.385 16.7568 114.597 16.6619 114.83 16.6619C114.962 16.6619 115.086 16.7057 115.203 16.7933C115.334 16.8808 115.414 16.9319 115.443 16.9465C115.516 17.0049 115.611 17.0925 115.728 17.2093C115.845 17.3406 115.962 17.4063 116.078 17.4063C116.414 17.4063 116.684 17.1947 116.888 16.7714C117.093 16.3481 117.29 15.662 117.48 14.7133C116.516 13.1222 115.604 11.502 114.743 9.85263C113.882 8.20323 113.451 7.0866 113.451 6.50274C113.451 6.13782 113.582 5.86779 113.845 5.69263C114.108 5.51747 114.407 5.42989 114.743 5.42989C114.991 5.42989 115.188 5.48098 115.334 5.58316C115.48 5.67074 115.597 5.8386 115.684 6.08674C116.093 7.32744 116.509 8.43677 116.932 9.41474C117.356 10.3781 117.845 11.3488 118.399 12.3267C118.662 11.7429 118.976 10.7868 119.341 9.45853C119.56 8.68491 119.749 8.05726 119.91 7.57558C120.071 7.0793 120.253 6.62681 120.457 6.2181C120.589 5.95537 120.749 5.74372 120.939 5.58316C121.143 5.4226 121.362 5.34232 121.596 5.34232C121.859 5.34232 122.129 5.43719 122.406 5.62695C122.698 5.8021 122.844 6.01375 122.844 6.26189C122.844 6.33488 122.793 6.51003 122.691 6.78737C122.121 8.05726 121.618 9.28337 121.18 10.4657C120.742 11.6334 120.333 12.9179 119.954 14.3192C119.72 15.0636 119.472 15.7861 119.209 16.4867C118.947 17.202 118.764 17.6472 118.662 17.8223C118.355 18.231 118.027 18.5667 117.677 18.8295C117.326 19.1068 116.903 19.2455 116.407 19.2455Z" fill="url(#paint10_linear_26_4)"/>
<path d="M140.3 2.62737C140.519 2.89011 140.672 3.10175 140.76 3.26232C140.847 3.42288 140.891 3.57614 140.891 3.72211C140.891 3.89726 140.774 4.10161 140.541 4.33516C140.322 4.5687 140.103 4.68547 139.884 4.68547C139.592 4.68547 139.358 4.64168 139.183 4.55411C139.008 4.46653 138.862 4.32786 138.745 4.1381C138.512 3.78779 138.227 3.48856 137.891 3.24042C137.556 2.97768 137.03 2.84632 136.315 2.84632C135.702 2.84632 135.001 2.98498 134.213 3.26232C133.439 3.53965 132.885 3.88267 132.549 4.29137C132.257 4.65628 132.002 5.21095 131.783 5.95537C131.578 6.69979 131.476 7.42232 131.476 8.12295C131.476 8.96954 131.659 9.75046 132.024 10.4657C132.403 11.1663 132.943 11.7283 133.644 12.1516C134.359 12.5749 135.213 12.7865 136.205 12.7865C136.746 12.7865 137.3 12.6844 137.869 12.48C138.453 12.2611 138.957 11.9107 139.38 11.4291H139.358C139.621 11.1517 139.949 11.0131 140.344 11.0131C140.577 11.0131 140.796 11.1152 141 11.3196C141.219 11.5239 141.329 11.7283 141.329 11.9326C141.329 12.1516 141.292 12.3486 141.219 12.5238C141.161 12.6843 141.044 12.8668 140.869 13.0712C140.271 13.7426 139.563 14.2024 138.745 14.4505C137.928 14.6987 136.95 14.8227 135.811 14.8227C134.804 14.8227 133.782 14.5819 132.746 14.1002C131.724 13.6185 130.936 13.0347 130.381 12.3486C130.09 11.9253 129.805 11.3196 129.528 10.5314C129.265 9.72856 129.133 9.07902 129.133 8.58274C129.133 7.31284 129.323 6.10863 129.703 4.9701C130.097 3.81698 130.681 2.8974 131.454 2.21137C131.965 1.74428 132.702 1.39396 133.666 1.16042C134.629 0.926877 135.512 0.810105 136.315 0.810105C137.293 0.810105 138.059 0.948772 138.614 1.22611C139.183 1.48884 139.745 1.95593 140.3 2.62737Z" fill="url(#paint11_linear_26_4)"/>
<path d="M145.72 11.3853C145.72 11.9399 145.801 12.3705 145.961 12.6771C146.136 12.969 146.355 13.1149 146.618 13.1149C146.764 13.1149 146.903 13.1076 147.034 13.0931C147.165 13.0639 147.297 13.0493 147.428 13.0493C147.574 13.0493 147.698 13.1222 147.8 13.2682C147.917 13.4142 147.976 13.5747 147.976 13.7499C147.976 14.1002 147.808 14.3775 147.472 14.5819C147.151 14.7716 146.713 14.8665 146.158 14.8665C145.764 14.8665 145.363 14.7498 144.954 14.5162C144.56 14.2681 144.232 13.8886 143.969 13.3777C143.706 12.8522 143.575 12.2027 143.575 11.4291C143.575 9.76505 143.604 8.35649 143.662 7.20337C143.735 5.8313 143.772 4.10161 143.772 2.01432C143.772 1.35747 143.808 0.897684 143.881 0.634947C143.969 0.430596 144.108 0.277333 144.297 0.175157C144.502 0.0583856 144.713 0 144.932 0C145.151 0 145.341 0.0364912 145.501 0.109474C145.677 0.182456 145.793 0.299228 145.852 0.459789C145.91 0.634947 145.947 0.810105 145.961 0.985262C145.99 1.14582 146.005 1.37937 146.005 1.68589C146.005 2.28435 145.983 2.86091 145.939 3.41558C145.91 4.08702 145.896 4.576 145.896 4.88253C145.779 7.45151 145.72 9.61909 145.72 11.3853Z" fill="url(#paint12_linear_26_4)"/>
<path d="M149.053 7.40042C148.936 7.40042 148.827 7.35663 148.724 7.26905C148.637 7.16688 148.593 7.0501 148.593 6.91874C148.593 6.58302 148.739 6.26919 149.031 5.97726C149.119 5.93347 149.294 5.86049 149.556 5.75832C149.819 5.65614 150.053 5.60505 150.257 5.60505C150.812 5.60505 151.264 5.75831 151.615 6.06484C151.965 6.35677 152.14 6.78007 152.14 7.33474C152.14 7.4953 152.111 7.83831 152.052 8.36379C151.994 8.97684 151.965 9.45123 151.965 9.78695C151.965 10.8087 152.104 11.6334 152.381 12.2611C152.483 12.4654 152.644 12.626 152.863 12.7427C153.081 12.8595 153.279 12.9179 153.454 12.9179C153.877 12.9179 154.22 12.8449 154.483 12.6989C154.745 12.553 155.03 12.3194 155.337 11.9983C155.643 11.6772 155.84 11.3123 155.928 10.9036C156.03 10.4949 156.103 9.93291 156.147 9.21768C156.176 8.7506 156.205 8.40758 156.234 8.18863C156.307 7.488 156.344 6.88954 156.344 6.39326C156.344 6.07214 156.431 5.8094 156.607 5.60505C156.782 5.3861 157.023 5.27663 157.329 5.27663C157.504 5.27663 157.701 5.33502 157.92 5.45179C158.154 5.55396 158.307 5.67803 158.38 5.824C158.468 5.96996 158.511 6.21081 158.511 6.54653C158.511 6.72168 158.489 6.88954 158.446 7.0501C158.344 7.41502 158.292 7.85291 158.292 8.36379L158.314 9.50232C158.314 10.5387 158.387 11.305 158.533 11.8013C158.606 12.0348 158.708 12.2756 158.84 12.5238C158.971 12.7573 159.095 12.9544 159.212 13.1149C159.504 13.4361 159.694 13.6623 159.781 13.7937C159.869 13.9105 159.913 14.0272 159.913 14.144C159.913 14.3192 159.825 14.487 159.65 14.6476C159.489 14.7935 159.314 14.8665 159.124 14.8665C158.584 14.8665 158.117 14.6841 157.723 14.3192C157.329 13.9542 157.037 13.4799 156.847 12.896C156.351 13.4653 155.891 13.9251 155.468 14.2754C155.176 14.4797 154.818 14.633 154.395 14.7352C153.972 14.8227 153.549 14.8665 153.125 14.8665C152.556 14.8665 151.979 14.633 151.396 14.1659C150.812 13.6988 150.418 13.1587 150.213 12.5457C150.199 12.5165 150.155 12.3997 150.082 12.1954C150.024 11.991 149.994 11.6845 149.994 11.2758C149.994 10.7357 150.024 10.057 150.082 9.23958C150.126 8.7141 150.148 8.23242 150.148 7.79453C150.148 7.66316 150.096 7.55368 149.994 7.4661C149.907 7.37853 149.805 7.33474 149.688 7.33474C149.6 7.33474 149.498 7.34933 149.381 7.37853C149.279 7.39312 149.17 7.40042 149.053 7.40042Z" fill="url(#paint13_linear_26_4)"/>
<path d="M162.096 10.8379C162.096 10.0205 162.104 9.40014 162.118 8.97684L162.14 6.89684C162.14 6.05025 162.118 5.12337 162.074 4.11621C162.06 3.80968 162.009 3.38639 161.921 2.84632C161.804 2.02891 161.746 1.41586 161.746 1.00716C161.746 0.335719 162.082 0 162.753 0C163.176 0 163.476 0.116772 163.651 0.350315C163.841 0.569262 163.972 0.919578 164.045 1.40126C164.191 2.40842 164.264 3.59074 164.264 4.94821C164.264 5.35691 164.249 5.96996 164.22 6.78737C164.497 6.34947 164.855 6.00646 165.293 5.75832C165.745 5.51017 166.191 5.3861 166.629 5.3861C167.898 5.3861 168.993 5.91158 169.913 6.96253C170.161 7.32744 170.38 7.76533 170.57 8.27621C170.774 8.77249 170.876 9.20309 170.876 9.568C170.876 10.2102 170.803 10.8014 170.657 11.3415C170.526 11.8815 170.285 12.407 169.935 12.9179C169.584 13.4288 169.139 13.8448 168.599 14.1659C168.074 14.487 167.461 14.6476 166.76 14.6476C166.147 14.6476 165.592 14.5235 165.096 14.2754C164.614 14.0272 164.227 13.6988 163.935 13.2901C163.862 13.655 163.702 14.0199 163.454 14.3848C163.206 14.7352 162.921 14.9103 162.6 14.9103C162.337 14.9103 162.118 14.8446 161.943 14.7133C161.768 14.5673 161.68 14.3556 161.68 14.0783C161.68 13.874 161.724 13.6185 161.812 13.312C161.899 12.8887 161.965 12.5019 162.009 12.1516C162.067 11.7867 162.096 11.3488 162.096 10.8379ZM166.213 12.8303C166.928 12.8303 167.526 12.5822 168.008 12.0859C168.49 11.575 168.73 10.889 168.73 10.0278C168.73 9.23958 168.519 8.56084 168.095 7.99158C167.949 7.80182 167.738 7.64856 167.461 7.53179C167.198 7.41502 166.935 7.35663 166.672 7.35663C166.059 7.35663 165.541 7.53909 165.118 7.904C164.694 8.25431 164.454 8.7433 164.395 9.37095C164.337 10.2175 164.308 10.9474 164.308 11.5604C164.483 11.8961 164.746 12.1954 165.096 12.4581C165.461 12.7062 165.833 12.8303 166.213 12.8303Z" fill="url(#paint14_linear_26_4)"/>
<defs>
<linearGradient id="paint0_linear_26_4" x1="3.99369" y1="-2.2392e-05" x2="168.626" y2="18.0071" gradientUnits="userSpaceOnUse">
<stop stop-color="#42D392"/>
<stop offset="1" stop-color="#647EFF"/>
</linearGradient>
<linearGradient id="paint1_linear_26_4" x1="3.99369" y1="-2.2392e-05" x2="168.626" y2="18.0071" gradientUnits="userSpaceOnUse">
<stop stop-color="#42D392"/>
<stop offset="1" stop-color="#647EFF"/>
</linearGradient>
<linearGradient id="paint2_linear_26_4" x1="3.99369" y1="-2.2392e-05" x2="168.626" y2="18.0071" gradientUnits="userSpaceOnUse">
<stop stop-color="#42D392"/>
<stop offset="1" stop-color="#647EFF"/>
</linearGradient>
<linearGradient id="paint3_linear_26_4" x1="3.99369" y1="-2.2392e-05" x2="168.626" y2="18.0071" gradientUnits="userSpaceOnUse">
<stop stop-color="#42D392"/>
<stop offset="1" stop-color="#647EFF"/>
</linearGradient>
<linearGradient id="paint4_linear_26_4" x1="3.99369" y1="-2.2392e-05" x2="168.626" y2="18.0071" gradientUnits="userSpaceOnUse">
<stop stop-color="#42D392"/>
<stop offset="1" stop-color="#647EFF"/>
</linearGradient>
<linearGradient id="paint5_linear_26_4" x1="3.99369" y1="-2.2392e-05" x2="168.626" y2="18.0071" gradientUnits="userSpaceOnUse">
<stop stop-color="#42D392"/>
<stop offset="1" stop-color="#647EFF"/>
</linearGradient>
<linearGradient id="paint6_linear_26_4" x1="3.99369" y1="-2.2392e-05" x2="168.626" y2="18.0071" gradientUnits="userSpaceOnUse">
<stop stop-color="#42D392"/>
<stop offset="1" stop-color="#647EFF"/>
</linearGradient>
<linearGradient id="paint7_linear_26_4" x1="3.99369" y1="-2.2392e-05" x2="168.626" y2="18.0071" gradientUnits="userSpaceOnUse">
<stop stop-color="#42D392"/>
<stop offset="1" stop-color="#647EFF"/>
</linearGradient>
<linearGradient id="paint8_linear_26_4" x1="3.99369" y1="-2.2392e-05" x2="168.626" y2="18.0071" gradientUnits="userSpaceOnUse">
<stop stop-color="#42D392"/>
<stop offset="1" stop-color="#647EFF"/>
</linearGradient>
<linearGradient id="paint9_linear_26_4" x1="3.99369" y1="-2.2392e-05" x2="168.626" y2="18.0071" gradientUnits="userSpaceOnUse">
<stop stop-color="#42D392"/>
<stop offset="1" stop-color="#647EFF"/>
</linearGradient>
<linearGradient id="paint10_linear_26_4" x1="3.99369" y1="-2.2392e-05" x2="168.626" y2="18.0071" gradientUnits="userSpaceOnUse">
<stop stop-color="#42D392"/>
<stop offset="1" stop-color="#647EFF"/>
</linearGradient>
<linearGradient id="paint11_linear_26_4" x1="3.99369" y1="-2.2392e-05" x2="168.626" y2="18.0071" gradientUnits="userSpaceOnUse">
<stop stop-color="#42D392"/>
<stop offset="1" stop-color="#647EFF"/>
</linearGradient>
<linearGradient id="paint12_linear_26_4" x1="3.99369" y1="-2.2392e-05" x2="168.626" y2="18.0071" gradientUnits="userSpaceOnUse">
<stop stop-color="#42D392"/>
<stop offset="1" stop-color="#647EFF"/>
</linearGradient>
<linearGradient id="paint13_linear_26_4" x1="3.99369" y1="-2.2392e-05" x2="168.626" y2="18.0071" gradientUnits="userSpaceOnUse">
<stop stop-color="#42D392"/>
<stop offset="1" stop-color="#647EFF"/>
</linearGradient>
<linearGradient id="paint14_linear_26_4" x1="3.99369" y1="-2.2392e-05" x2="168.626" y2="18.0071" gradientUnits="userSpaceOnUse">
<stop stop-color="#42D392"/>
<stop offset="1" stop-color="#647EFF"/>
</linearGradient>
</defs>
</svg>
