<svg width="136" height="38" viewBox="0 0 136 38" fill="none" xmlns="http://www.w3.org/2000/svg">
<path d="M43.5927 24.2409V11.3813H51.6942V13.1817H45.5768V16.8742H51.1798V18.6745H45.5768V22.4406H51.7861V24.2409H43.5927Z" fill="#5D3CBB"/>
<path d="M57.6573 24.4981C56.9102 24.4981 56.2182 24.3144 55.5814 23.947C54.9445 23.5795 54.4301 23.0529 54.0382 22.3671C53.6586 21.669 53.4687 20.8301 53.4687 19.8503V19.5747C53.4687 18.6072 53.6586 17.7744 54.0382 17.0763C54.4179 16.3782 54.9261 15.8454 55.563 15.478C56.1998 15.1106 56.8979 14.9269 57.6573 14.9269C58.2451 14.9269 58.735 15.0004 59.1269 15.1474C59.5311 15.2943 59.8618 15.4842 60.1189 15.7169C60.3761 15.9373 60.5721 16.17 60.7068 16.4149H61.0007V11.3813H62.8929V24.2409H61.0375V22.9549H60.7436C60.5109 23.3468 60.1557 23.702 59.678 24.0204C59.2127 24.3389 58.5391 24.4981 57.6573 24.4981ZM58.19 22.8447C59.0106 22.8447 59.6842 22.5814 60.2108 22.0548C60.7497 21.5281 61.0191 20.7749 61.0191 19.7952V19.6298C61.0191 18.6623 60.7558 17.9152 60.2292 17.3886C59.7025 16.862 59.0228 16.5986 58.19 16.5986C57.3817 16.5986 56.7081 16.862 56.1692 17.3886C55.6426 17.9152 55.3793 18.6623 55.3793 19.6298V19.7952C55.3793 20.7749 55.6426 21.5281 56.1692 22.0548C56.7081 22.5814 57.3817 22.8447 58.19 22.8447Z" fill="#5D3CBB"/>
<path d="M65.2375 19.7584V19.4829C65.2375 18.5276 65.4273 17.7131 65.807 17.0395C66.1989 16.366 66.7133 15.8454 67.3501 15.478C67.987 15.1106 68.6851 14.9269 69.4444 14.9269C70.3262 14.9269 70.9998 15.0922 71.4652 15.4229C71.9428 15.7536 72.2919 16.1088 72.5123 16.4884H72.8063V15.1841H74.6433V26.0963C74.6433 26.6475 74.478 27.0884 74.1473 27.419C73.8289 27.7497 73.388 27.915 72.8246 27.915H66.7255V26.2617H72.2368C72.5919 26.2617 72.7695 26.078 72.7695 25.7106V22.8263H72.4756C72.3409 23.0468 72.151 23.2734 71.9061 23.5061C71.6612 23.7388 71.3366 23.9286 70.9324 24.0756C70.5405 24.2225 70.0445 24.296 69.4444 24.296C68.6851 24.296 67.9809 24.1184 67.3318 23.7633C66.6949 23.3958 66.1867 22.8753 65.807 22.2017C65.4273 21.5159 65.2375 20.7015 65.2375 19.7584ZM69.9588 22.6426C70.7794 22.6426 71.453 22.3854 71.9796 21.8711C72.5185 21.3444 72.7879 20.6218 72.7879 19.7033V19.538C72.7879 18.5949 72.5246 17.8724 71.9979 17.3702C71.4713 16.8558 70.7916 16.5986 69.9588 16.5986C69.1505 16.5986 68.4769 16.8558 67.938 17.3702C67.4114 17.8724 67.1481 18.5949 67.1481 19.538V19.7033C67.1481 20.6218 67.4114 21.3444 67.938 21.8711C68.4769 22.3854 69.1505 22.6426 69.9588 22.6426Z" fill="#5D3CBB"/>
<path d="M81.581 24.4981C80.6625 24.4981 79.8603 24.3083 79.1745 23.9286C78.4886 23.5367 77.9497 22.9917 77.5578 22.2936C77.1782 21.5833 76.9883 20.7627 76.9883 19.8319V19.6115C76.9883 18.6684 77.1782 17.8479 77.5578 17.1498C77.9375 16.4394 78.4641 15.8944 79.1377 15.5148C79.8236 15.1229 80.6135 14.9269 81.5075 14.9269C82.3771 14.9269 83.1364 15.1229 83.7855 15.5148C84.4469 15.8944 84.9613 16.4272 85.3287 17.113C85.6961 17.7989 85.8798 18.6011 85.8798 19.5196V20.2361H78.9173C78.9418 21.0321 79.2051 21.669 79.7072 22.1466C80.2216 22.612 80.8585 22.8447 81.6178 22.8447C82.3281 22.8447 82.8609 22.6855 83.216 22.3671C83.5835 22.0486 83.8651 21.6812 84.0611 21.2648L85.6226 22.0731C85.4511 22.4161 85.2001 22.7774 84.8694 23.157C84.551 23.5367 84.1284 23.8551 83.6018 24.1123C83.0752 24.3695 82.4016 24.4981 81.581 24.4981ZM78.9356 18.7848H83.9509C83.9019 18.0989 83.6569 17.5662 83.216 17.1865C82.7751 16.7946 82.1995 16.5986 81.4892 16.5986C80.7788 16.5986 80.1971 16.7946 79.744 17.1865C79.3031 17.5662 79.0336 18.0989 78.9356 18.7848Z" fill="#5D3CBB"/>
<path d="M88.1024 24.2409V11.3813H90.0864V16.7272H90.3804L95.1751 11.3813H97.7654L91.9602 17.7193L97.9675 24.2409H95.3037L90.3804 18.7848H90.0864V24.2409H88.1024Z" fill="#5D3CBB"/>
<path d="M102.324 24.4981C101.675 24.4981 101.094 24.3879 100.579 24.1674C100.077 23.947 99.6729 23.6224 99.3667 23.1938C99.0727 22.7651 98.9258 22.2446 98.9258 21.6322C98.9258 21.0076 99.0727 20.4933 99.3667 20.0891C99.6729 19.6727 100.083 19.3604 100.598 19.1522C101.124 18.944 101.718 18.8399 102.379 18.8399H105.135V18.252C105.135 17.7254 104.976 17.3029 104.657 16.9844C104.339 16.666 103.849 16.5068 103.188 16.5068C102.539 16.5068 102.043 16.6599 101.7 16.9661C101.357 17.2722 101.13 17.6703 101.02 18.1602L99.2565 17.5907C99.4034 17.1008 99.6361 16.6599 99.9545 16.268C100.285 15.8638 100.72 15.5393 101.259 15.2943C101.798 15.0494 102.447 14.9269 103.206 14.9269C104.382 14.9269 105.307 15.227 105.98 15.8271C106.654 16.4272 106.991 17.2784 106.991 18.3806V22.1099C106.991 22.4773 107.162 22.661 107.505 22.661H108.276V24.2409H106.862C106.433 24.2409 106.084 24.1307 105.815 23.9102C105.545 23.6898 105.411 23.3897 105.411 23.01V22.9549H105.135C105.037 23.1386 104.89 23.353 104.694 23.5979C104.498 23.8429 104.21 24.0572 103.831 24.2409C103.451 24.4124 102.949 24.4981 102.324 24.4981ZM102.6 22.9366C103.359 22.9366 103.972 22.7222 104.437 22.2936C104.902 21.8527 105.135 21.2526 105.135 20.4933V20.3095H102.49C101.988 20.3095 101.583 20.4198 101.277 20.6402C100.971 20.8484 100.818 21.1607 100.818 21.5771C100.818 21.9935 100.977 22.3242 101.296 22.5691C101.614 22.8141 102.049 22.9366 102.6 22.9366Z" fill="#5D3CBB"/>
<path d="M110.116 24.2409V15.1841H111.972V16.2496H112.266C112.413 15.8699 112.645 15.5944 112.964 15.4229C113.294 15.2392 113.699 15.1474 114.176 15.1474H115.26V16.8558H114.103C113.49 16.8558 112.988 17.0273 112.596 17.3702C112.204 17.7009 112.008 18.2153 112.008 18.9134V24.2409H110.116Z" fill="#5D3CBB"/>
<path d="M120.619 24.2409C120.068 24.2409 119.627 24.0756 119.297 23.7449C118.978 23.4142 118.819 22.9733 118.819 22.4222V16.7824H116.32V15.1841H118.819V12.1897H120.711V15.1841H123.412V16.7824H120.711V22.0915C120.711 22.4589 120.883 22.6426 121.225 22.6426H123.118V24.2409H120.619Z" fill="#5D3CBB"/>
<rect x="16.8178" y="21.1" width="12.9856" height="12.9856" transform="rotate(-45 16.8178 21.1)" stroke="#5D3CBB" stroke-width="1.72226"/>
<rect x="16.8178" y="15.9" width="12.9856" height="12.9856" transform="rotate(-45 16.8178 15.9)" stroke="#5D3CBB" stroke-width="1.72226"/>
</svg>
