<svg width="156" height="26" viewBox="0 0 156 26" fill="none" xmlns="http://www.w3.org/2000/svg">
<path d="M8.49245 20.0851C6.84343 20.0851 5.3813 19.7333 4.10606 19.0297C2.83082 18.3151 1.82492 17.2762 1.08835 15.913C0.362784 14.5389 0 12.8624 0 10.8835C0 8.90471 0.390268 7.21171 1.1708 5.80455C1.96233 4.39739 3.03969 3.32003 4.40288 2.57247C5.76607 1.81392 7.29966 1.43465 9.00365 1.43465C10.059 1.43465 11.0759 1.54458 12.0543 1.76445C13.0328 1.97333 14.0936 2.44055 15.2369 3.16612L14.1816 6.10137C13.3131 5.49673 12.4336 5.06249 11.5431 4.79865C10.6637 4.53481 9.78419 4.40288 8.90471 4.40288C7.26668 4.40288 5.95846 4.96355 4.98004 6.08488C4.01262 7.20622 3.5289 8.70683 3.5289 10.5867C3.5289 12.5875 3.97414 14.1706 4.86461 15.3359C5.75508 16.4902 6.93138 17.0674 8.39351 17.0674C9.10809 17.0674 9.75121 17.0069 10.3229 16.886C10.9055 16.754 11.5541 16.5122 12.2687 16.1604V12.8624H8.37702V10.092H15.4183V17.8754C14.0881 18.7658 12.8843 19.3595 11.807 19.6563C10.7406 19.9421 9.63577 20.0851 8.49245 20.0851Z" fill="url(#paint0_linear_26_8)"/>
<path d="M18.8813 19.7882V12.1863C18.8813 10.977 18.8098 9.94909 18.6669 9.10259C18.535 8.2451 18.4031 7.60198 18.2711 7.17324H21.6681C21.7561 7.43708 21.8495 7.83284 21.9485 8.36053C22.0474 8.88822 22.1189 9.30047 22.1628 9.5973C22.7675 8.72881 23.4271 8.0692 24.1417 7.61847C24.8562 7.15675 25.4939 6.92588 26.0545 6.92588C27.2198 6.92588 28.0443 7.38761 28.528 8.31106C29.0228 9.22352 29.2701 10.3119 29.2701 11.5761L26.5162 12.0049C26.4723 11.4442 26.3349 10.9935 26.104 10.6527C25.8731 10.3119 25.4938 10.1415 24.9662 10.1415C24.6913 10.1415 24.378 10.2954 24.0262 10.6032C23.6744 10.9 23.3446 11.2848 23.0368 11.7575C22.729 12.2302 22.4981 12.7249 22.3442 13.2416V19.7882H18.8813Z" fill="url(#paint1_linear_26_8)"/>
<path d="M34.8933 20.0851C34.0688 20.0851 33.3322 19.9092 32.6836 19.5574C32.046 19.2056 31.5458 18.7384 31.183 18.1557C30.8202 17.5731 30.6388 16.9464 30.6388 16.2758C30.6388 15.6382 30.7817 15.0061 31.0675 14.3795C31.3644 13.7418 31.8701 13.1922 32.5846 12.7304C33.3102 12.2687 34.3106 11.9774 35.5859 11.8565C35.8717 11.8235 36.24 11.7905 36.6907 11.7575C37.1524 11.7245 37.5977 11.697 38.0264 11.6751C38.4551 11.6421 38.752 11.6256 38.9169 11.6256V11.0155C38.9169 10.5537 38.653 10.2184 38.1253 10.0096C37.6086 9.80068 36.8831 9.69624 35.9486 9.69624C35.3 9.69624 34.6459 9.82816 33.9863 10.092C33.3377 10.3558 32.6506 10.7406 31.925 11.2463C31.936 10.9715 31.947 10.4988 31.958 9.82816C31.98 9.14656 32.013 8.55292 32.0569 8.04722C32.7605 7.77238 33.4971 7.51953 34.2666 7.28867C35.0472 7.04681 35.9596 6.92588 37.004 6.92588C38.62 6.92588 39.9173 7.26118 40.8957 7.93179C41.8851 8.59139 42.3798 9.41041 42.3798 10.3888V15.2205C42.3798 16.1109 42.4568 16.9244 42.6107 17.661C42.7756 18.3866 42.99 19.0957 43.2538 19.7882H39.9063C39.8293 19.6123 39.7304 19.376 39.6095 19.0792C39.4885 18.7823 39.3841 18.4635 39.2961 18.1227C38.6036 18.8153 37.878 19.3155 37.1194 19.6233C36.3609 19.9312 35.6188 20.0851 34.8933 20.0851ZM35.8002 17.2652C36.3169 17.2652 36.8171 17.1553 37.3008 16.9354C37.7845 16.7156 38.3232 16.2044 38.9169 15.4018V13.9177C38.675 13.9287 38.2628 13.9617 37.6801 14.0167C37.0975 14.0606 36.6467 14.1046 36.3279 14.1486C35.4704 14.2365 34.8823 14.4399 34.5635 14.7587C34.2556 15.0665 34.1017 15.4238 34.1017 15.8306C34.1017 16.2264 34.2556 16.5672 34.5635 16.853C34.8823 17.1278 35.2945 17.2652 35.8002 17.2652Z" fill="url(#paint2_linear_26_8)"/>
<path d="M50.7898 20.0851C49.6905 20.0851 48.6736 19.9476 47.7391 19.6728C46.8157 19.387 46.0846 19.0572 45.5459 18.6834L46.222 15.6492C46.8377 16.1549 47.5797 16.5617 48.4482 16.8695C49.3277 17.1663 50.1302 17.3147 50.8558 17.3147C51.4384 17.3147 51.9111 17.2048 52.2739 16.9849C52.6477 16.754 52.8346 16.4957 52.8346 16.2099C52.8346 15.8471 52.6422 15.5283 52.2574 15.2534C51.8837 14.9676 51.1086 14.6983 49.9323 14.4454C48.767 14.1926 47.8765 13.8902 47.2609 13.5385C46.6453 13.1867 46.222 12.7854 45.9912 12.3347C45.7713 11.8839 45.6614 11.4002 45.6614 10.8835C45.6614 10.5867 45.7438 10.2184 45.9087 9.77869C46.0736 9.32796 46.354 8.88822 46.7497 8.45947C47.1565 8.01973 47.7062 7.65695 48.3987 7.37112C49.1023 7.0743 49.9818 6.92588 51.0372 6.92588C52.0486 6.92588 52.9226 7.03582 53.6591 7.25569C54.4067 7.46456 55.0168 7.68443 55.4895 7.9153L55.0113 10.8341C54.5496 10.5812 53.9669 10.3229 53.2633 10.059C52.5598 9.78419 51.7792 9.64677 50.9217 9.64677C50.1962 9.64677 49.696 9.77319 49.4211 10.026C49.1463 10.2679 49.0089 10.5153 49.0089 10.7681C49.0089 11.0759 49.1463 11.3178 49.4211 11.4937C49.707 11.6586 50.3941 11.851 51.4824 12.0708C52.3399 12.2357 53.1204 12.4666 53.824 12.7634C54.5386 13.0602 55.1103 13.4615 55.539 13.9672C55.9677 14.4729 56.1821 15.116 56.1821 15.8966C56.1821 16.6881 55.9403 17.4027 55.4565 18.0403C54.9838 18.6669 54.3407 19.1671 53.5272 19.5409C52.7137 19.9037 51.8012 20.0851 50.7898 20.0851Z" fill="url(#paint3_linear_26_8)"/>
<path d="M63.5862 20.0851C62.4869 20.0851 61.47 19.9476 60.5355 19.6728C59.6121 19.387 58.881 19.0572 58.3423 18.6834L59.0184 15.6492C59.6341 16.1549 60.3761 16.5617 61.2446 16.8695C62.1241 17.1663 62.9266 17.3147 63.6522 17.3147C64.2348 17.3147 64.7075 17.2048 65.0703 16.9849C65.4441 16.754 65.631 16.4957 65.631 16.2099C65.631 15.8471 65.4386 15.5283 65.0538 15.2534C64.6801 14.9676 63.905 14.6983 62.7287 14.4454C61.5634 14.1926 60.6729 13.8902 60.0573 13.5385C59.4417 13.1867 59.0184 12.7854 58.7876 12.3347C58.5677 11.8839 58.4578 11.4002 58.4578 10.8835C58.4578 10.5867 58.5402 10.2184 58.7051 9.77869C58.87 9.32796 59.1504 8.88822 59.5461 8.45947C59.9529 8.01973 60.5025 7.65695 61.1951 7.37112C61.8987 7.0743 62.7782 6.92588 63.8336 6.92588C64.845 6.92588 65.7189 7.03582 66.4555 7.25569C67.2031 7.46456 67.8132 7.68443 68.2859 7.9153L67.8077 10.8341C67.346 10.5812 66.7633 10.3229 66.0597 10.059C65.3562 9.78419 64.5756 9.64677 63.7181 9.64677C62.9926 9.64677 62.4924 9.77319 62.2175 10.026C61.9427 10.2679 61.8053 10.5153 61.8053 10.7681C61.8053 11.0759 61.9427 11.3178 62.2175 11.4937C62.5034 11.6586 63.1904 11.851 64.2788 12.0708C65.1363 12.2357 65.9168 12.4666 66.6204 12.7634C67.335 13.0602 67.9066 13.4615 68.3354 13.9672C68.7641 14.4729 68.9785 15.116 68.9785 15.8966C68.9785 16.6881 68.7367 17.4027 68.2529 18.0403C67.7802 18.6669 67.1371 19.1671 66.3236 19.5409C65.5101 19.9037 64.5976 20.0851 63.5862 20.0851Z" fill="url(#paint4_linear_26_8)"/>
<path d="M71.5675 19.7882C71.5675 19.7882 71.5675 19.5079 71.5675 18.9472C71.5675 18.3756 71.5675 17.6335 71.5675 16.7211C71.5675 15.7976 71.5675 14.7972 71.5675 13.7198C71.5675 12.6315 71.5675 11.5596 71.5675 10.5043C71.5675 9.44888 71.5675 8.50345 71.5675 7.66794C71.5675 6.83244 71.5675 6.21681 71.5675 5.82104C71.5675 4.49083 71.5565 3.32552 71.5345 2.32512C71.5235 1.31372 71.474 0.53868 71.3861 0H75.0304C75.0304 0 75.0304 0.296824 75.0304 0.890471C75.0304 1.48412 75.0304 2.22618 75.0304 3.11665C75.0304 3.99613 75.0304 4.89209 75.0304 5.80455C75.0304 6.70601 75.0304 7.48655 75.0304 8.14616C75.0304 8.79477 75.0304 9.17405 75.0304 9.28398C75.6351 8.50345 76.3661 7.9153 77.2236 7.51953C78.0921 7.12377 78.9661 6.92588 79.8455 6.92588C82.3631 6.92588 83.6218 8.64086 83.6218 12.0708C83.6218 12.4776 83.6218 13.0053 83.6218 13.6539C83.6218 14.2915 83.6218 14.9621 83.6218 15.6657C83.6218 16.3693 83.6218 17.0344 83.6218 17.661C83.6218 18.2876 83.6218 18.7988 83.6218 19.1946C83.6218 19.5904 83.6218 19.7882 83.6218 19.7882H80.1589C80.1589 19.7882 80.1589 19.5244 80.1589 18.9967C80.1589 18.458 80.1589 17.8039 80.1589 17.0344C80.1589 16.2538 80.1589 15.4953 80.1589 14.7587C80.1589 14.0112 80.1589 13.423 80.1589 12.9943C80.1589 11.785 80.005 10.977 79.6971 10.5702C79.3893 10.1635 78.9056 9.96008 78.246 9.96008C77.5424 9.96008 76.8828 10.2459 76.2672 10.8176C75.6625 11.3782 75.2503 11.9774 75.0304 12.615V19.7882H71.5675Z" fill="url(#paint5_linear_26_8)"/>
<path d="M92.2132 20.0851C90.4762 20.0851 89.0526 19.5244 87.9422 18.4031C86.8319 17.2707 86.2767 15.6437 86.2767 13.522C86.2767 12.1038 86.5571 10.9055 87.1177 9.9271C87.6894 8.94868 88.4424 8.20662 89.3769 7.70092C90.3223 7.18423 91.3502 6.92588 92.4606 6.92588C94.2085 6.92588 95.6322 7.49205 96.7315 8.62437C97.8419 9.7567 98.397 11.3892 98.397 13.522C98.397 14.9401 98.1112 16.1384 97.5395 17.1168C96.9789 18.0843 96.2313 18.8208 95.2969 19.3265C94.3624 19.8322 93.3345 20.0851 92.2132 20.0851ZM92.3451 17.3147C93.1367 17.3147 93.7633 16.9794 94.225 16.3088C94.6977 15.6272 94.9341 14.6983 94.9341 13.522C94.9341 12.3347 94.7142 11.4057 94.2745 10.7351C93.8347 10.0535 93.1916 9.71273 92.3451 9.71273C91.5426 9.71273 90.905 10.0535 90.4323 10.7351C89.9705 11.4057 89.7397 12.3347 89.7397 13.522C89.7397 14.6983 89.9595 15.6272 90.3993 16.3088C90.85 16.9794 91.4986 17.3147 92.3451 17.3147Z" fill="url(#paint6_linear_26_8)"/>
<path d="M101.299 25.8401V13.8023C101.299 12.2632 101.266 10.9495 101.2 9.86114C101.145 8.77279 100.975 7.87682 100.689 7.17324H104.086C104.174 7.36013 104.262 7.62947 104.35 7.98126C104.449 8.33305 104.526 8.76729 104.581 9.28398C105.153 8.59139 105.818 8.02523 106.576 7.58549C107.346 7.14575 108.176 6.92588 109.066 6.92588C109.99 6.92588 110.798 7.19522 111.49 7.7339C112.183 8.27258 112.716 9.01464 113.09 9.96008C113.475 10.8945 113.667 11.9664 113.667 13.1757C113.667 14.5828 113.42 15.8086 112.925 16.853C112.43 17.8864 111.765 18.6834 110.93 19.2441C110.094 19.8047 109.171 20.0851 108.159 20.0851C107.511 20.0851 106.928 19.9861 106.411 19.7882C105.895 19.6014 105.345 19.3375 104.762 18.9967V21.6351C104.762 22.6246 104.784 23.4381 104.828 24.0757C104.883 24.7243 104.966 25.3125 105.076 25.8401H101.299ZM107.335 17.2487C108.093 17.2487 108.758 16.9189 109.33 16.2593C109.913 15.5887 110.204 14.6873 110.204 13.5549C110.204 12.4336 109.995 11.5431 109.577 10.8835C109.16 10.2129 108.577 9.87763 107.829 9.87763C107.28 9.87763 106.719 10.1085 106.147 10.5702C105.576 11.021 105.114 11.6861 104.762 12.5655V16.0779C105.4 16.5507 105.884 16.864 106.213 17.0179C106.543 17.1718 106.917 17.2487 107.335 17.2487Z" fill="url(#paint7_linear_26_8)"/>
<path d="M116.569 25.8401V13.8023C116.569 12.2632 116.536 10.9495 116.47 9.86114C116.415 8.77279 116.245 7.87682 115.959 7.17324H119.356C119.444 7.36013 119.532 7.62947 119.62 7.98126C119.719 8.33305 119.796 8.76729 119.851 9.28398C120.422 8.59139 121.088 8.02523 121.846 7.58549C122.616 7.14575 123.446 6.92588 124.336 6.92588C125.26 6.92588 126.068 7.19522 126.76 7.7339C127.453 8.27258 127.986 9.01464 128.36 9.96008C128.744 10.8945 128.937 11.9664 128.937 13.1757C128.937 14.5828 128.69 15.8086 128.195 16.853C127.7 17.8864 127.035 18.6834 126.2 19.2441C125.364 19.8047 124.441 20.0851 123.429 20.0851C122.781 20.0851 122.198 19.9861 121.681 19.7882C121.164 19.6014 120.615 19.3375 120.032 18.9967V21.6351C120.032 22.6246 120.054 23.4381 120.098 24.0757C120.153 24.7243 120.236 25.3125 120.345 25.8401H116.569ZM122.605 17.2487C123.363 17.2487 124.028 16.9189 124.6 16.2593C125.183 15.5887 125.474 14.6873 125.474 13.5549C125.474 12.4336 125.265 11.5431 124.847 10.8835C124.43 10.2129 123.847 9.87763 123.099 9.87763C122.55 9.87763 121.989 10.1085 121.417 10.5702C120.846 11.021 120.384 11.6861 120.032 12.5655V16.0779C120.67 16.5507 121.153 16.864 121.483 17.0179C121.813 17.1718 122.187 17.2487 122.605 17.2487Z" fill="url(#paint8_linear_26_8)"/>
<path d="M137.33 20.0851C136.242 20.0851 135.231 19.8432 134.296 19.3595C133.362 18.8758 132.603 18.1557 132.021 17.1993C131.449 16.2428 131.163 15.0665 131.163 13.6704C131.163 11.6256 131.713 9.99306 132.812 8.77279C133.922 7.54152 135.429 6.92588 137.33 6.92588C138.716 6.92588 139.782 7.2392 140.529 7.86583C141.277 8.48146 141.794 9.26749 142.08 10.2239C142.376 11.1804 142.525 12.1753 142.525 13.2087C142.525 13.3296 142.525 13.5 142.525 13.7198C142.536 13.9397 142.541 14.1101 142.541 14.231H133.043V12.0049H139.392C139.392 11.1364 139.199 10.5098 138.814 10.125C138.441 9.72922 137.891 9.53134 137.165 9.53134C136.275 9.53134 135.61 9.83915 135.17 10.4548C134.741 11.0704 134.527 12.1038 134.527 13.5549C134.527 14.8632 134.791 15.8196 135.319 16.4242C135.846 17.0179 136.621 17.3147 137.644 17.3147C138.457 17.3147 139.249 17.2213 140.018 17.0344C140.799 16.8475 141.574 16.5287 142.343 16.0779L142.607 18.8648C141.717 19.3155 140.854 19.6288 140.018 19.8047C139.194 19.9916 138.298 20.0851 137.33 20.0851Z" fill="url(#paint9_linear_26_8)"/>
<path d="M145.559 19.7882V12.1863C145.559 10.977 145.488 9.94909 145.345 9.10259C145.213 8.2451 145.081 7.60198 144.949 7.17324H148.346C148.434 7.43708 148.527 7.83284 148.626 8.36053C148.725 8.88822 148.797 9.30047 148.841 9.5973C149.445 8.72881 150.105 8.0692 150.819 7.61847C151.534 7.15675 152.172 6.92588 152.732 6.92588C153.898 6.92588 154.722 7.38761 155.206 8.31106C155.7 9.22352 155.948 10.3119 155.948 11.5761L153.194 12.0049C153.15 11.4442 153.013 10.9935 152.782 10.6527C152.551 10.3119 152.172 10.1415 151.644 10.1415C151.369 10.1415 151.056 10.2954 150.704 10.6032C150.352 10.9 150.022 11.2848 149.715 11.7575C149.407 12.2302 149.176 12.7249 149.022 13.2416V19.7882H145.559Z" fill="url(#paint10_linear_26_8)"/>
<defs>
<linearGradient id="paint0_linear_26_8" x1="3.64478" y1="-2.93633e-05" x2="154.816" y2="11.5075" gradientUnits="userSpaceOnUse">
<stop stop-color="#42D392"/>
<stop offset="1" stop-color="#647EFF"/>
</linearGradient>
<linearGradient id="paint1_linear_26_8" x1="3.64478" y1="-2.93633e-05" x2="154.816" y2="11.5075" gradientUnits="userSpaceOnUse">
<stop stop-color="#42D392"/>
<stop offset="1" stop-color="#647EFF"/>
</linearGradient>
<linearGradient id="paint2_linear_26_8" x1="3.64478" y1="-2.93633e-05" x2="154.816" y2="11.5075" gradientUnits="userSpaceOnUse">
<stop stop-color="#42D392"/>
<stop offset="1" stop-color="#647EFF"/>
</linearGradient>
<linearGradient id="paint3_linear_26_8" x1="3.64478" y1="-2.93633e-05" x2="154.816" y2="11.5075" gradientUnits="userSpaceOnUse">
<stop stop-color="#42D392"/>
<stop offset="1" stop-color="#647EFF"/>
</linearGradient>
<linearGradient id="paint4_linear_26_8" x1="3.64478" y1="-2.93633e-05" x2="154.816" y2="11.5075" gradientUnits="userSpaceOnUse">
<stop stop-color="#42D392"/>
<stop offset="1" stop-color="#647EFF"/>
</linearGradient>
<linearGradient id="paint5_linear_26_8" x1="3.64478" y1="-2.93633e-05" x2="154.816" y2="11.5075" gradientUnits="userSpaceOnUse">
<stop stop-color="#42D392"/>
<stop offset="1" stop-color="#647EFF"/>
</linearGradient>
<linearGradient id="paint6_linear_26_8" x1="3.64478" y1="-2.93633e-05" x2="154.816" y2="11.5075" gradientUnits="userSpaceOnUse">
<stop stop-color="#42D392"/>
<stop offset="1" stop-color="#647EFF"/>
</linearGradient>
<linearGradient id="paint7_linear_26_8" x1="3.64478" y1="-2.93633e-05" x2="154.816" y2="11.5075" gradientUnits="userSpaceOnUse">
<stop stop-color="#42D392"/>
<stop offset="1" stop-color="#647EFF"/>
</linearGradient>
<linearGradient id="paint8_linear_26_8" x1="3.64478" y1="-2.93633e-05" x2="154.816" y2="11.5075" gradientUnits="userSpaceOnUse">
<stop stop-color="#42D392"/>
<stop offset="1" stop-color="#647EFF"/>
</linearGradient>
<linearGradient id="paint9_linear_26_8" x1="3.64478" y1="-2.93633e-05" x2="154.816" y2="11.5075" gradientUnits="userSpaceOnUse">
<stop stop-color="#42D392"/>
<stop offset="1" stop-color="#647EFF"/>
</linearGradient>
<linearGradient id="paint10_linear_26_8" x1="3.64478" y1="-2.93633e-05" x2="154.816" y2="11.5075" gradientUnits="userSpaceOnUse">
<stop stop-color="#42D392"/>
<stop offset="1" stop-color="#647EFF"/>
</linearGradient>
</defs>
</svg>
