<svg width="176" height="35" viewBox="0 0 176 35" fill="none" xmlns="http://www.w3.org/2000/svg">
<path d="M54.6 21.7455V12.7091C54.6 12.503 54.5636 12.3576 54.4909 12.2727C54.4303 12.1879 54.3152 12.1394 54.1455 12.1273L53 11.9636V11.4909C53.1212 11.5273 54.3939 11.5455 56.8182 11.5455C57.5333 11.5455 58.103 11.5273 58.5273 11.4909V11.9818L57.3818 12.1455C57.2121 12.1576 57.0909 12.2 57.0182 12.2727C56.9576 12.3455 56.9273 12.4909 56.9273 12.7091V21.7455C56.9273 21.9636 56.9576 22.103 57.0182 22.1636C57.0788 22.2242 57.2 22.2606 57.3818 22.2727L58.5273 22.3636V22.9818C58.2848 22.9576 57.9333 22.9394 57.4727 22.9273C57.0242 22.9151 56.4545 22.9091 55.7636 22.9091C55.0727 22.9091 54.497 22.9151 54.0364 22.9273C53.5879 22.9394 53.2424 22.9576 53 22.9818V22.3636L54.1455 22.2727C54.3273 22.2485 54.4485 22.2061 54.5091 22.1455C54.5697 22.0848 54.6 21.9515 54.6 21.7455Z" fill="white"/>
<path d="M68.4276 22.9636C67.7973 22.9273 67.0942 22.9091 66.3185 22.9091C65.5548 22.9091 64.8579 22.9273 64.2276 22.9636V22.5091L64.8639 22.3636C65.1306 22.3273 65.2639 22.0909 65.2639 21.6545V18.6C65.2639 18.3333 65.2518 18.103 65.2276 17.9091C65.2154 17.703 65.173 17.5333 65.1003 17.4C65.0397 17.2545 64.9366 17.1515 64.7912 17.0909C64.6579 17.0182 64.47 16.9818 64.2276 16.9818C63.9488 16.9818 63.6518 17.0727 63.3366 17.2545C63.0336 17.4242 62.7791 17.6303 62.573 17.8727V21.8545C62.573 22.0485 62.7185 22.1818 63.0094 22.2545L63.5366 22.5091V22.9636C63.367 22.9394 63.2033 22.9273 63.0457 22.9273C62.8882 22.9151 62.7003 22.9091 62.4821 22.9091H61.373C60.9851 22.9091 60.5912 22.9151 60.1912 22.9273C59.8033 22.9273 59.5185 22.9394 59.3366 22.9636V22.5091L60.1185 22.3273C60.2397 22.303 60.3306 22.2485 60.3912 22.1636C60.4518 22.0788 60.4821 21.9515 60.4821 21.7818V18.2C60.4821 17.8242 60.4033 17.5697 60.2457 17.4364C60.1003 17.303 59.8336 17.2061 59.4457 17.1455V16.8C59.6397 16.7515 59.8639 16.6909 60.1185 16.6182C60.3851 16.5455 60.6457 16.4545 60.9003 16.3455C61.1548 16.2242 61.3912 16.0848 61.6094 15.9273C61.8276 15.7576 61.9912 15.5576 62.1003 15.3273H62.573V17.0909C62.9366 16.6424 63.3306 16.2909 63.7548 16.0364C64.1791 15.7818 64.6033 15.6545 65.0276 15.6545C65.7306 15.6545 66.2942 15.8606 66.7185 16.2727C67.1427 16.6848 67.3548 17.3091 67.3548 18.1455V21.6C67.3548 21.8424 67.3851 22.0182 67.4457 22.1273C67.5063 22.2364 67.6276 22.3151 67.8094 22.3636L68.4276 22.5091V22.9636Z" fill="white"/>
<path d="M79.2139 22.9818C79.02 22.9576 78.7291 22.9394 78.3412 22.9273C77.9654 22.9151 77.5351 22.9091 77.0503 22.9091C76.5654 22.9091 76.1291 22.9151 75.7412 22.9273C75.3533 22.9394 75.0685 22.9576 74.8866 22.9818V22.5273L75.5776 22.3273C75.9533 22.2545 76.1412 22.0364 76.1412 21.6727V17.5091C76.1412 17.2182 76.0685 17.0061 75.923 16.8727C75.8018 16.7636 75.5776 16.6667 75.2503 16.5818V16.6364L72.6139 16.7091V21.1091C72.6139 21.8364 72.8685 22.2424 73.3776 22.3273L74.3776 22.5091V22.9636C73.6139 22.9273 72.8079 22.9091 71.9594 22.9091H71.3957C70.9836 22.9091 70.5715 22.9151 70.1594 22.9273C69.7473 22.9273 69.4503 22.9394 69.2685 22.9636V22.5273L69.8321 22.4C70.0139 22.3636 70.1533 22.3273 70.2503 22.2909C70.3473 22.2424 70.42 22.1818 70.4685 22.1091C70.517 22.0242 70.5473 21.9151 70.5594 21.7818C70.5715 21.6485 70.5776 21.4727 70.5776 21.2545V16.9273C70.3473 16.8788 69.9048 16.8424 69.2503 16.8182V16.5455C69.5412 16.4242 69.7715 16.3212 69.9412 16.2364C70.1109 16.1394 70.2382 16.0545 70.323 15.9818C70.42 15.9091 70.4806 15.8364 70.5048 15.7636C70.5291 15.6909 70.5412 15.6121 70.5412 15.5273C70.5412 15.4182 70.5533 15.2303 70.5776 14.9636C70.6018 14.6848 70.6563 14.3758 70.7412 14.0364C70.8382 13.6848 70.9715 13.3273 71.1412 12.9636C71.3109 12.6 71.5351 12.2667 71.8139 11.9636C72.1048 11.6606 72.4563 11.4121 72.8685 11.2182C73.2806 11.0121 73.7776 10.9091 74.3594 10.9091C74.4563 10.9091 74.5473 10.9151 74.6321 10.9273C74.7291 10.9273 74.826 10.9333 74.923 10.9455C75.3109 11.0061 75.6442 11.1151 75.923 11.2727C76.2018 11.4303 76.3412 11.6788 76.3412 12.0182C76.3412 12.3576 76.2503 12.6303 76.0685 12.8364C75.8988 13.0424 75.6442 13.1455 75.3048 13.1455C75.0382 13.1455 74.82 13.0788 74.6503 12.9455C74.4927 12.8 74.3533 12.6485 74.2321 12.4909C74.123 12.3212 74.026 12.1697 73.9412 12.0364C73.8563 11.8909 73.7715 11.8182 73.6866 11.8182C73.3715 11.8182 73.1351 11.9091 72.9776 12.0909C72.8321 12.2606 72.723 12.4848 72.6503 12.7636C72.5897 13.0303 72.5594 13.3333 72.5594 13.6727V15.4909C72.5594 15.697 72.5654 15.8485 72.5776 15.9455L75.2503 16V16.0727L75.7412 15.9091C76.0079 15.8121 76.2685 15.7091 76.523 15.6C76.7776 15.4788 77.0079 15.3515 77.2139 15.2182C77.4321 15.0727 77.6018 14.9273 77.723 14.7818C77.8079 14.7818 77.8866 14.7879 77.9594 14.8C78.0321 14.8 78.1109 14.8 78.1957 14.8V21.7273C78.1957 21.9091 78.22 22.0424 78.2685 22.1273C78.3291 22.2121 78.4382 22.2727 78.5957 22.3091L79.2139 22.5273V22.9818Z" fill="white"/>
<path d="M89.1307 22.9636C88.5004 22.9273 87.7973 22.9091 87.0216 22.9091C86.258 22.9091 85.561 22.9273 84.9307 22.9636V22.5091L85.567 22.3636C85.8337 22.3273 85.967 22.0909 85.967 21.6545V18.6C85.967 18.3333 85.9549 18.103 85.9307 17.9091C85.9186 17.703 85.8761 17.5333 85.8034 17.4C85.7428 17.2545 85.6398 17.1515 85.4943 17.0909C85.361 17.0182 85.1731 16.9818 84.9307 16.9818C84.6519 16.9818 84.3549 17.0727 84.0398 17.2545C83.7367 17.4242 83.4822 17.6303 83.2761 17.8727V21.8545C83.2761 22.0485 83.4216 22.1818 83.7125 22.2545L84.2398 22.5091V22.9636C84.0701 22.9394 83.9064 22.9273 83.7489 22.9273C83.5913 22.9151 83.4034 22.9091 83.1852 22.9091H82.0761C81.6883 22.9091 81.2943 22.9151 80.8943 22.9273C80.5064 22.9273 80.2216 22.9394 80.0398 22.9636V22.5091L80.8216 22.3273C80.9428 22.303 81.0337 22.2485 81.0943 22.1636C81.1549 22.0788 81.1852 21.9515 81.1852 21.7818V18.2C81.1852 17.8242 81.1064 17.5697 80.9489 17.4364C80.8034 17.303 80.5367 17.2061 80.1489 17.1455V16.8C80.3428 16.7515 80.567 16.6909 80.8216 16.6182C81.0883 16.5455 81.3489 16.4545 81.6034 16.3455C81.858 16.2242 82.0943 16.0848 82.3125 15.9273C82.5307 15.7576 82.6943 15.5576 82.8034 15.3273H83.2761V17.0909C83.6398 16.6424 84.0337 16.2909 84.458 16.0364C84.8822 15.7818 85.3064 15.6545 85.7307 15.6545C86.4337 15.6545 86.9973 15.8606 87.4216 16.2727C87.8458 16.6848 88.058 17.3091 88.058 18.1455V21.6C88.058 21.8424 88.0883 22.0182 88.1489 22.1273C88.2095 22.2364 88.3307 22.3151 88.5125 22.3636L89.1307 22.5091V22.9636Z" fill="white"/>
<path d="M92.1898 11.7273C92.5049 11.7273 92.7716 11.8485 92.9898 12.0909C93.2201 12.3212 93.3352 12.5939 93.3352 12.9091C93.3352 13.1879 93.2201 13.4424 92.9898 13.6727C92.7716 13.903 92.4989 14.0182 92.1716 14.0182C91.8564 14.0182 91.5898 13.9151 91.3716 13.7091C91.1655 13.4909 91.0625 13.2242 91.0625 12.9091C91.0625 12.5939 91.1716 12.3212 91.3898 12.0909C91.608 11.8485 91.8746 11.7273 92.1898 11.7273ZM94.0261 22.9818C93.8322 22.9576 93.5413 22.9394 93.1534 22.9273C92.7655 22.9151 92.3292 22.9091 91.8443 22.9091C91.3595 22.9091 90.9231 22.9151 90.5352 22.9273C90.1473 22.9394 89.8564 22.9576 89.6625 22.9818V22.5091L90.3534 22.3273C90.7292 22.2545 90.917 22.0303 90.917 21.6545V18.3818C90.917 18.0909 90.8443 17.8788 90.6989 17.7455C90.5534 17.6121 90.2625 17.497 89.8261 17.4V16.9636C90.0322 16.9151 90.2686 16.8485 90.5352 16.7636C90.8019 16.6667 91.0625 16.5636 91.317 16.4545C91.5716 16.3333 91.808 16.2061 92.0261 16.0727C92.2443 15.9273 92.414 15.7818 92.5352 15.6364C92.6201 15.6364 92.6989 15.6424 92.7716 15.6545C92.8443 15.6545 92.9231 15.6545 93.008 15.6545V21.7091C93.008 21.8909 93.0322 22.0303 93.0807 22.1273C93.1413 22.2121 93.2504 22.2727 93.408 22.3091L94.0261 22.5091V22.9818Z" fill="white"/>
<path d="M97.7229 14.1455H98.1229C98.1229 14.4727 98.1229 14.8 98.1229 15.1273C98.135 15.4424 98.1411 15.7636 98.1411 16.0909L100.414 16.0364V16.8909L98.1411 16.9636V20.2364C98.1411 20.7818 98.2077 21.1818 98.3411 21.4364C98.4744 21.6788 98.7532 21.8 99.1774 21.8C99.3592 21.8 99.5592 21.7818 99.7774 21.7455C99.9956 21.697 100.232 21.5636 100.487 21.3455L100.65 21.6C100.565 21.7697 100.45 21.9515 100.305 22.1455C100.159 22.3273 99.9774 22.497 99.7592 22.6545C99.5532 22.8121 99.3168 22.9455 99.0501 23.0545C98.7835 23.1515 98.4804 23.2 98.1411 23.2C97.4501 23.2 96.935 23.0303 96.5956 22.6909C96.2562 22.3394 96.0865 21.7455 96.0865 20.9091V17C95.9168 17 95.7532 17.0061 95.5956 17.0182C95.438 17.0182 95.2744 17.0182 95.1047 17.0182C94.935 17.0182 94.8441 16.9394 94.832 16.7818C94.832 16.6242 94.9168 16.5091 95.0865 16.4364C95.3532 16.3273 95.5956 16.2121 95.8138 16.0909C96.0441 15.9697 96.232 15.8485 96.3774 15.7273C96.5471 15.5939 96.7714 15.3939 97.0501 15.1273C97.3411 14.8606 97.5653 14.5333 97.7229 14.1455Z" fill="white"/>
<path d="M104.786 25C104.568 25.5455 104.247 25.9394 103.822 26.1818C103.41 26.4242 102.968 26.5455 102.495 26.5455C102.362 26.5455 102.228 26.5273 102.095 26.4909C101.962 26.4667 101.847 26.4182 101.75 26.3455C101.665 26.2848 101.592 26.2061 101.531 26.1091C101.483 26.0242 101.459 25.9212 101.459 25.8C101.459 25.4606 101.55 25.2364 101.731 25.1273C101.913 25.0303 102.131 24.9818 102.386 24.9818C102.64 24.9818 102.901 25.0121 103.168 25.0727C103.434 25.1455 103.634 25.1818 103.768 25.1818C103.828 25.1818 103.901 25.1515 103.986 25.0909C104.071 25.0303 104.156 24.9455 104.24 24.8364C104.325 24.7394 104.392 24.6182 104.44 24.4727C104.501 24.3273 104.531 24.1697 104.531 24C104.531 23.8545 104.501 23.6606 104.44 23.4182C104.38 23.2121 104.307 23.0061 104.222 22.8C104.15 22.5939 104.077 22.4061 104.004 22.2364L101.622 17C101.489 16.7091 101.331 16.5333 101.15 16.4727L100.786 16.3455V15.8909C102.325 16.0121 103.604 16.0121 104.622 15.8909V16.3455C104.295 16.3455 104.119 16.3758 104.095 16.4364C104.071 16.497 104.083 16.5879 104.131 16.7091L105.786 20.9091L107.222 17.3636C107.283 17.1939 107.307 17.0182 107.295 16.8364C107.295 16.6545 107.192 16.5394 106.986 16.4909L105.968 16.2545V15.8909C107.034 16.0121 108.15 16.0121 109.313 15.8909V16.2545L108.731 16.4C108.634 16.4242 108.55 16.4606 108.477 16.5091C108.416 16.5455 108.35 16.6061 108.277 16.6909C108.216 16.7636 108.15 16.8727 108.077 17.0182C108.016 17.1515 107.944 17.3273 107.859 17.5455L104.786 25Z" fill="white"/>
<path d="M114.149 11.5455C114.743 11.5455 115.24 11.5455 115.64 11.5455C116.04 11.5333 116.343 11.5212 116.549 11.5091L119.186 11.3636C119.416 11.3515 119.574 11.3455 119.658 11.3455C119.755 11.3455 119.828 11.3455 119.877 11.3455C120.446 11.3455 120.98 11.4121 121.477 11.5455C121.974 11.6667 122.404 11.8667 122.767 12.1455C123.131 12.4121 123.416 12.7576 123.622 13.1818C123.84 13.6061 123.949 14.1091 123.949 14.6909C123.949 15.2242 123.84 15.6909 123.622 16.0909C123.416 16.4909 123.137 16.8303 122.786 17.1091C122.446 17.3758 122.052 17.5758 121.604 17.7091C121.167 17.8424 120.725 17.9091 120.277 17.9091C119.925 17.9091 119.616 17.8606 119.349 17.7636C119.083 17.6667 118.834 17.503 118.604 17.2727L118.64 17.1091C118.798 17.1697 118.967 17.2121 119.149 17.2364C119.331 17.2485 119.489 17.2545 119.622 17.2545C119.925 17.2545 120.198 17.2121 120.44 17.1273C120.695 17.0424 120.913 16.9091 121.095 16.7273C121.277 16.5333 121.416 16.2788 121.513 15.9636C121.622 15.6485 121.677 15.2545 121.677 14.7818C121.677 13.9818 121.477 13.3333 121.077 12.8364C120.689 12.3273 120.077 12.0727 119.24 12.0727C119.07 12.0727 118.925 12.0788 118.804 12.0909C118.695 12.0909 118.592 12.097 118.495 12.1091C118.398 12.1212 118.313 12.1394 118.24 12.1636C118.18 12.1758 118.119 12.1939 118.058 12.2182V21.5455C118.058 21.7273 118.095 21.8848 118.167 22.0182C118.252 22.1394 118.428 22.2242 118.695 22.2727L119.786 22.4727V22.9818C119.277 22.9576 118.792 22.9394 118.331 22.9273C117.883 22.9151 117.495 22.9091 117.167 22.9091C116.792 22.9091 116.404 22.9151 116.004 22.9273C115.616 22.9394 115.119 22.9515 114.513 22.9636V22.4545L115.531 22.2545C115.713 22.2182 115.834 22.1515 115.895 22.0545C115.955 21.9576 115.986 21.7939 115.986 21.5636V13.3636C115.986 12.903 115.84 12.5939 115.549 12.4364C115.271 12.2788 114.804 12.1636 114.149 12.0909V11.5455Z" fill="white"/>
<path d="M127.699 23.1818C127.202 23.1818 126.772 23.097 126.408 22.9273C126.057 22.7455 125.766 22.503 125.536 22.2C125.317 21.897 125.154 21.5394 125.045 21.1273C124.936 20.7151 124.881 20.2727 124.881 19.8C124.881 19.1576 124.978 18.5879 125.172 18.0909C125.366 17.5939 125.626 17.1758 125.954 16.8364C126.281 16.497 126.663 16.2424 127.099 16.0727C127.536 15.8909 127.996 15.8 128.481 15.8C128.82 15.8 129.117 15.8242 129.372 15.8727C129.626 15.9212 129.839 15.9758 130.008 16.0364C130.226 16.097 130.396 16.1697 130.517 16.2545L131.717 15.5818L131.881 15.6364V21.2364C131.881 21.7091 132.087 21.9394 132.499 21.9273C132.596 21.9273 132.669 21.9151 132.717 21.8909C132.778 21.8545 132.832 21.8242 132.881 21.8C132.917 21.7758 132.96 21.7394 133.008 21.6909L133.117 21.9455C133.032 22.1758 132.905 22.3818 132.736 22.5636C132.602 22.7212 132.42 22.8667 132.19 23C131.972 23.1212 131.699 23.1818 131.372 23.1818C130.826 23.1818 130.445 23.0242 130.226 22.7091C130.008 22.3818 129.899 21.9879 129.899 21.5273V21.0909C129.839 21.3576 129.754 21.6182 129.645 21.8727C129.536 22.1151 129.39 22.3333 129.208 22.5273C129.039 22.7212 128.826 22.8788 128.572 23C128.329 23.1212 128.039 23.1818 127.699 23.1818ZM129.899 19C129.899 18.7455 129.887 18.4788 129.863 18.2C129.839 17.9212 129.784 17.6667 129.699 17.4364C129.614 17.1939 129.481 16.9939 129.299 16.8364C129.129 16.6788 128.893 16.6 128.59 16.6C128.42 16.6 128.239 16.6485 128.045 16.7455C127.863 16.8303 127.693 16.9758 127.536 17.1818C127.378 17.3879 127.245 17.6727 127.136 18.0364C127.039 18.3879 126.99 18.8242 126.99 19.3455C126.99 19.7091 127.014 20.0545 127.063 20.3818C127.123 20.7091 127.214 20.9939 127.336 21.2364C127.457 21.4788 127.602 21.6727 127.772 21.8182C127.954 21.9515 128.166 22.0182 128.408 22.0182C128.639 22.0182 128.845 21.9394 129.026 21.7818C129.22 21.6242 129.378 21.4182 129.499 21.1636C129.632 20.897 129.729 20.5939 129.79 20.2545C129.863 19.9151 129.899 19.5636 129.899 19.2V19Z" fill="white"/>
<path d="M133.931 22.9818V22.6909L134.476 22.5273C134.719 22.4545 134.87 22.3636 134.931 22.2545C135.004 22.1333 135.04 21.9151 135.04 21.6V18.1091C135.04 17.8667 134.991 17.6848 134.894 17.5636C134.797 17.4424 134.567 17.3576 134.204 17.3091L133.894 17.2727V16.9273C134.125 16.8667 134.373 16.7879 134.64 16.6909C134.919 16.5818 135.185 16.4606 135.44 16.3273C135.707 16.1818 135.949 16.0182 136.167 15.8364C136.397 15.6545 136.585 15.4545 136.731 15.2364H137.058C137.058 15.5879 137.064 15.9151 137.076 16.2182C137.088 16.5212 137.107 16.8727 137.131 17.2727C137.228 17.0667 137.319 16.8848 137.404 16.7273C137.501 16.5697 137.646 16.3758 137.84 16.1455C138.022 15.9273 138.21 15.7939 138.404 15.7455C138.597 15.6848 138.773 15.6545 138.931 15.6545C139.234 15.6545 139.501 15.7455 139.731 15.9273C139.961 16.1091 140.076 16.4121 140.076 16.8364C140.076 17.2242 139.991 17.5394 139.822 17.7818C139.652 18.0121 139.397 18.1273 139.058 18.1273C138.888 18.1273 138.743 18.0788 138.622 17.9818C138.513 17.8848 138.416 17.7818 138.331 17.6727C138.246 17.5636 138.167 17.4606 138.094 17.3636C138.034 17.2667 137.967 17.2182 137.894 17.2182C137.725 17.2182 137.573 17.3333 137.44 17.5636C137.319 17.7939 137.234 18.0788 137.185 18.4182C137.125 18.7091 137.107 18.9394 137.131 19.1091V21.6364C137.131 21.9151 137.185 22.103 137.294 22.2C137.404 22.297 137.622 22.3939 137.949 22.4909L138.549 22.6727V22.9636C138.282 22.9394 137.979 22.9273 137.64 22.9273C137.301 22.9151 136.979 22.9091 136.676 22.9091H136.258C135.858 22.9091 135.458 22.9151 135.058 22.9273C134.658 22.9394 134.282 22.9576 133.931 22.9818Z" fill="white"/>
<path d="M150.089 22.9818C149.859 22.9576 149.531 22.9394 149.107 22.9273C148.695 22.9151 148.277 22.9091 147.853 22.9091C147.428 22.9091 147.022 22.9151 146.634 22.9273C146.259 22.9394 145.956 22.9576 145.725 22.9818V22.5091L146.216 22.4364C146.483 22.4 146.616 22.3455 146.616 22.2727C146.616 22.1758 146.513 21.9879 146.307 21.7091C146.113 21.4303 145.822 21.0364 145.434 20.5273C145.24 20.2848 145.046 20.0727 144.853 19.8909C144.671 19.697 144.489 19.6 144.307 19.6H144.143V21.6364C144.143 21.9394 144.174 22.1333 144.234 22.2182C144.307 22.2909 144.428 22.3455 144.598 22.3818L145.107 22.5091V22.9818C145.01 22.9697 144.877 22.9576 144.707 22.9455C144.55 22.9333 144.368 22.9273 144.162 22.9273C143.968 22.9151 143.762 22.9091 143.543 22.9091C143.337 22.9091 143.137 22.9091 142.943 22.9091C142.556 22.9091 142.162 22.9151 141.762 22.9273C141.362 22.9394 141.065 22.9576 140.871 22.9818V22.5091L141.543 22.4C141.762 22.3636 141.901 22.3091 141.962 22.2364C142.022 22.1515 142.053 21.9515 142.053 21.6364V12.9636C142.053 12.8182 142.04 12.703 142.016 12.6182C141.992 12.5333 141.937 12.4667 141.853 12.4182C141.78 12.3576 141.671 12.3091 141.525 12.2727C141.38 12.2364 141.18 12.2 140.925 12.1636V11.7273C141.083 11.6909 141.289 11.6485 141.543 11.6C141.81 11.5515 142.083 11.497 142.362 11.4364C142.653 11.3636 142.931 11.2848 143.198 11.2C143.465 11.1151 143.683 11.0182 143.853 10.9091H144.143V18.9273C144.265 18.9273 144.374 18.9151 144.471 18.8909C144.58 18.8545 144.689 18.8 144.798 18.7273C144.907 18.6545 145.028 18.5636 145.162 18.4545C145.295 18.3333 145.465 18.1879 145.671 18.0182C146.083 17.6909 146.368 17.4606 146.525 17.3273C146.683 17.1818 146.762 17.0545 146.762 16.9455C146.762 16.6909 146.374 16.5091 145.598 16.4V15.9818H149.471V16.4C149.047 16.4485 148.64 16.5515 148.253 16.7091C147.877 16.8545 147.531 17.0727 147.216 17.3636L146.071 18.2545C146.325 18.5818 146.604 18.9515 146.907 19.3636C147.21 19.7758 147.507 20.1758 147.798 20.5636C148.101 20.9515 148.392 21.303 148.671 21.6182C148.962 21.9212 149.216 22.1333 149.434 22.2545C149.495 22.2909 149.55 22.3212 149.598 22.3455C149.659 22.3576 149.713 22.3758 149.762 22.4L150.089 22.5091V22.9818Z" fill="white"/>
<path d="M157.19 18.6364H152.681C152.657 18.7576 152.638 18.8303 152.626 18.8545C152.626 18.8788 152.626 18.9515 152.626 19.0727C152.626 19.4606 152.681 19.8182 152.79 20.1455C152.899 20.4606 153.051 20.7394 153.244 20.9818C153.451 21.2121 153.693 21.3939 153.972 21.5273C154.251 21.6606 154.566 21.7273 154.917 21.7273C155.341 21.7273 155.729 21.6727 156.081 21.5636C156.444 21.4424 156.826 21.1879 157.226 20.8L157.299 21.0727C157.154 21.3515 156.984 21.6182 156.79 21.8727C156.608 22.1273 156.384 22.3515 156.117 22.5455C155.851 22.7394 155.535 22.897 155.172 23.0182C154.82 23.1394 154.402 23.2 153.917 23.2C153.408 23.2 152.941 23.1151 152.517 22.9455C152.093 22.7636 151.729 22.5091 151.426 22.1818C151.135 21.8545 150.905 21.4606 150.735 21C150.578 20.5394 150.499 20.0242 150.499 19.4545C150.499 18.8848 150.584 18.3697 150.754 17.9091C150.935 17.4364 151.184 17.0364 151.499 16.7091C151.826 16.3697 152.22 16.1091 152.681 15.9273C153.141 15.7455 153.657 15.6545 154.226 15.6545C154.747 15.6545 155.19 15.7333 155.554 15.8909C155.917 16.0485 156.214 16.2667 156.444 16.5455C156.687 16.8121 156.863 17.1273 156.972 17.4909C157.093 17.8545 157.166 18.2364 157.19 18.6364ZM152.772 17.9636H154.481C154.808 17.9636 154.972 17.8061 154.972 17.4909C154.972 17.1394 154.917 16.8424 154.808 16.6C154.699 16.3455 154.481 16.2182 154.154 16.2182C153.463 16.2182 153.002 16.8 152.772 17.9636Z" fill="white"/>
<path d="M158.203 22.9818V22.6909L158.748 22.5273C158.991 22.4545 159.142 22.3636 159.203 22.2545C159.276 22.1333 159.312 21.9151 159.312 21.6V18.1091C159.312 17.8667 159.263 17.6848 159.166 17.5636C159.07 17.4424 158.839 17.3576 158.476 17.3091L158.166 17.2727V16.9273C158.397 16.8667 158.645 16.7879 158.912 16.6909C159.191 16.5818 159.457 16.4606 159.712 16.3273C159.979 16.1818 160.221 16.0182 160.439 15.8364C160.67 15.6545 160.857 15.4545 161.003 15.2364H161.33C161.33 15.5879 161.336 15.9151 161.348 16.2182C161.36 16.5212 161.379 16.8727 161.403 17.2727C161.5 17.0667 161.591 16.8848 161.676 16.7273C161.773 16.5697 161.918 16.3758 162.112 16.1455C162.294 15.9273 162.482 15.7939 162.676 15.7455C162.87 15.6848 163.045 15.6545 163.203 15.6545C163.506 15.6545 163.773 15.7455 164.003 15.9273C164.233 16.1091 164.348 16.4121 164.348 16.8364C164.348 17.2242 164.263 17.5394 164.094 17.7818C163.924 18.0121 163.67 18.1273 163.33 18.1273C163.16 18.1273 163.015 18.0788 162.894 17.9818C162.785 17.8848 162.688 17.7818 162.603 17.6727C162.518 17.5636 162.439 17.4606 162.366 17.3636C162.306 17.2667 162.239 17.2182 162.166 17.2182C161.997 17.2182 161.845 17.3333 161.712 17.5636C161.591 17.7939 161.506 18.0788 161.457 18.4182C161.397 18.7091 161.379 18.9394 161.403 19.1091V21.6364C161.403 21.9151 161.457 22.103 161.566 22.2C161.676 22.297 161.894 22.3939 162.221 22.4909L162.821 22.6727V22.9636C162.554 22.9394 162.251 22.9273 161.912 22.9273C161.573 22.9151 161.251 22.9091 160.948 22.9091H160.53C160.13 22.9091 159.73 22.9151 159.33 22.9273C158.93 22.9394 158.554 22.9576 158.203 22.9818Z" fill="white"/>
<path d="M20.75 9C15.0188 9 12 13.4187 12 17.75C12 22.0813 15.0188 26.5 20.75 26.5C24.2063 26.5 26.9625 24.05 29.5 21.1625C32.0375 24.05 34.7062 26.5 38.25 26.5C43.9812 26.5 47 22.0813 47 17.75C47 13.4187 43.9812 9 38.25 9C34.7062 9 32.0375 11.45 29.5 14.3375C26.9625 11.45 24.2063 9 20.75 9ZM20.75 13.375C22.5875 13.375 24.6 15.4313 26.6125 17.75C24.6 20.0687 22.5875 22.125 20.75 22.125C17.5125 22.125 16.375 19.7625 16.375 17.75C16.375 15.7375 17.5125 13.375 20.75 13.375ZM38.25 13.375C41.4875 13.375 42.625 15.7375 42.625 17.75C42.625 19.7625 41.4875 22.125 38.25 22.125C36.3687 22.125 34.3562 20.0687 32.3875 17.75C34.4 15.4313 36.3687 13.375 38.25 13.375Z" fill="white"/>
<path d="M23 17.5C23 17.5 22.1046 19 21 19C19.8954 19 19 18.3284 19 17.5C19 16.6716 19.8954 16 21 16C22.1046 16 23 17.5 23 17.5Z" fill="white"/>
<path d="M36 17.5C36 17.5 36.8954 16 38 16C39.1046 16 40 16.6716 40 17.5C40 18.3284 39.1046 19 38 19C36.8954 19 36 17.5 36 17.5Z" fill="white"/>
</svg>
