<svg width="112" height="17" viewBox="0 0 112 17" fill="none" xmlns="http://www.w3.org/2000/svg">
<path d="M1.6 11.7455V2.70918C1.6 2.50312 1.56364 2.35766 1.49091 2.27282C1.4303 2.18797 1.31515 2.13948 1.14545 2.12736L0 1.96372V1.491C0.121212 1.52736 1.39394 1.54554 3.81818 1.54554C4.53333 1.54554 5.10303 1.52736 5.52727 1.491V1.98191L4.38182 2.14554C4.21212 2.15766 4.09091 2.20009 4.01818 2.27282C3.95758 2.34554 3.92727 2.491 3.92727 2.70918V11.7455C3.92727 11.9637 3.95758 12.1031 4.01818 12.1637C4.07879 12.2243 4.2 12.2607 4.38182 12.2728L5.52727 12.3637V12.9819C5.28485 12.9577 4.93333 12.9395 4.47273 12.9274C4.02424 12.9152 3.45455 12.9092 2.76364 12.9092C2.07273 12.9092 1.49697 12.9152 1.03636 12.9274C0.587879 12.9395 0.242424 12.9577 0 12.9819V12.3637L1.14545 12.2728C1.32727 12.2486 1.44848 12.2062 1.50909 12.1455C1.5697 12.0849 1.6 11.9516 1.6 11.7455Z" fill="url(#paint0_linear_26_10)"/>
<path d="M15.4276 12.9637C14.7973 12.9274 14.0942 12.9092 13.3185 12.9092C12.5548 12.9092 11.8579 12.9274 11.2276 12.9637V12.5092L11.8639 12.3637C12.1306 12.3274 12.2639 12.091 12.2639 11.6546V8.60009C12.2639 8.33342 12.2518 8.10312 12.2276 7.90918C12.2154 7.70312 12.173 7.53342 12.1003 7.40009C12.0397 7.25463 11.9366 7.1516 11.7912 7.091C11.6579 7.01827 11.47 6.98191 11.2276 6.98191C10.9488 6.98191 10.6518 7.07282 10.3366 7.25463C10.0336 7.42433 9.77907 7.63039 9.57301 7.87282V11.8546C9.57301 12.0486 9.71847 12.1819 10.0094 12.2546L10.5366 12.5092V12.9637C10.367 12.9395 10.2033 12.9274 10.0457 12.9274C9.88816 12.9152 9.70028 12.9092 9.4821 12.9092H8.37301C7.98513 12.9092 7.59119 12.9152 7.19119 12.9274C6.80331 12.9274 6.51847 12.9395 6.33665 12.9637V12.5092L7.11847 12.3274C7.23968 12.3031 7.33059 12.2486 7.39119 12.1637C7.4518 12.0789 7.4821 11.9516 7.4821 11.7819V8.20009C7.4821 7.82433 7.40331 7.56979 7.24574 7.43645C7.10028 7.30312 6.83362 7.20615 6.44574 7.14554V6.80009C6.63968 6.7516 6.86392 6.691 7.11847 6.61827C7.38513 6.54554 7.64574 6.45463 7.90028 6.34554C8.15483 6.22433 8.39119 6.08494 8.60938 5.92736C8.82756 5.75766 8.99119 5.55766 9.10028 5.32736H9.57301V7.091C9.93665 6.64251 10.3306 6.291 10.7548 6.03645C11.1791 5.78191 11.6033 5.65463 12.0276 5.65463C12.7306 5.65463 13.2942 5.86069 13.7185 6.27282C14.1427 6.68494 14.3548 7.30918 14.3548 8.14554V11.6001C14.3548 11.8425 14.3851 12.0183 14.4457 12.1274C14.5063 12.2365 14.6276 12.3152 14.8094 12.3637L15.4276 12.5092V12.9637Z" fill="url(#paint1_linear_26_10)"/>
<path d="M26.2139 12.9819C26.02 12.9577 25.7291 12.9395 25.3412 12.9274C24.9654 12.9152 24.5351 12.9092 24.0503 12.9092C23.5654 12.9092 23.1291 12.9152 22.7412 12.9274C22.3533 12.9395 22.0685 12.9577 21.8866 12.9819V12.5274L22.5776 12.3274C22.9533 12.2546 23.1412 12.0365 23.1412 11.6728V7.50918C23.1412 7.21827 23.0685 7.00615 22.923 6.87282C22.8018 6.76373 22.5776 6.66676 22.2503 6.58191V6.63645L19.6139 6.70918V11.1092C19.6139 11.8365 19.8685 12.2425 20.3776 12.3274L21.3776 12.5092V12.9637C20.6139 12.9274 19.8079 12.9092 18.9594 12.9092H18.3957C17.9836 12.9092 17.5715 12.9152 17.1594 12.9274C16.7473 12.9274 16.4503 12.9395 16.2685 12.9637V12.5274L16.8321 12.4001C17.0139 12.3637 17.1533 12.3274 17.2503 12.291C17.3473 12.2425 17.42 12.1819 17.4685 12.1092C17.517 12.0243 17.5473 11.9152 17.5594 11.7819C17.5715 11.6486 17.5776 11.4728 17.5776 11.2546V6.92736C17.3473 6.87888 16.9048 6.84251 16.2503 6.81827V6.54554C16.5412 6.42433 16.7715 6.3213 16.9412 6.23645C17.1109 6.13948 17.2382 6.05463 17.323 5.98191C17.42 5.90918 17.4806 5.83645 17.5048 5.76373C17.5291 5.691 17.5412 5.61221 17.5412 5.52736C17.5412 5.41827 17.5533 5.23039 17.5776 4.96373C17.6018 4.68494 17.6563 4.37585 17.7412 4.03645C17.8382 3.68494 17.9715 3.32736 18.1412 2.96372C18.3109 2.60009 18.5351 2.26676 18.8139 1.96372C19.1048 1.66069 19.4563 1.41221 19.8685 1.21827C20.2806 1.01221 20.7776 0.90918 21.3594 0.90918C21.4563 0.90918 21.5473 0.91524 21.6321 0.927361C21.7291 0.927361 21.826 0.933422 21.923 0.945543C22.3109 1.00615 22.6442 1.11524 22.923 1.27282C23.2018 1.43039 23.3412 1.67888 23.3412 2.01827C23.3412 2.35766 23.2503 2.63039 23.0685 2.83645C22.8988 3.04251 22.6442 3.14554 22.3048 3.14554C22.0382 3.14554 21.82 3.07888 21.6503 2.94554C21.4927 2.80009 21.3533 2.64857 21.2321 2.491C21.123 2.3213 21.026 2.16979 20.9412 2.03645C20.8563 1.891 20.7715 1.81827 20.6866 1.81827C20.3715 1.81827 20.1351 1.90918 19.9776 2.091C19.8321 2.26069 19.723 2.48494 19.6503 2.76373C19.5897 3.03039 19.5594 3.33342 19.5594 3.67282V5.491C19.5594 5.69706 19.5654 5.84857 19.5776 5.94554L22.2503 6.00009V6.07282L22.7412 5.90918C23.0079 5.81221 23.2685 5.70918 23.523 5.60009C23.7776 5.47888 24.0079 5.3516 24.2139 5.21827C24.4321 5.07282 24.6018 4.92736 24.723 4.78191C24.8079 4.78191 24.8866 4.78797 24.9594 4.80009C25.0321 4.80009 25.1109 4.80009 25.1957 4.80009V11.7274C25.1957 11.9092 25.22 12.0425 25.2685 12.1274C25.3291 12.2122 25.4382 12.2728 25.5957 12.3092L26.2139 12.5274V12.9819Z" fill="url(#paint2_linear_26_10)"/>
<path d="M36.1307 12.9637C35.5004 12.9274 34.7973 12.9092 34.0216 12.9092C33.258 12.9092 32.561 12.9274 31.9307 12.9637V12.5092L32.567 12.3637C32.8337 12.3274 32.967 12.091 32.967 11.6546V8.60009C32.967 8.33342 32.9549 8.10312 32.9307 7.90918C32.9186 7.70312 32.8761 7.53342 32.8034 7.40009C32.7428 7.25463 32.6398 7.1516 32.4943 7.091C32.361 7.01827 32.1731 6.98191 31.9307 6.98191C31.6519 6.98191 31.3549 7.07282 31.0398 7.25463C30.7367 7.42433 30.4822 7.63039 30.2761 7.87282V11.8546C30.2761 12.0486 30.4216 12.1819 30.7125 12.2546L31.2398 12.5092V12.9637C31.0701 12.9395 30.9064 12.9274 30.7489 12.9274C30.5913 12.9152 30.4034 12.9092 30.1852 12.9092H29.0761C28.6883 12.9092 28.2943 12.9152 27.8943 12.9274C27.5064 12.9274 27.2216 12.9395 27.0398 12.9637V12.5092L27.8216 12.3274C27.9428 12.3031 28.0337 12.2486 28.0943 12.1637C28.1549 12.0789 28.1852 11.9516 28.1852 11.7819V8.20009C28.1852 7.82433 28.1064 7.56979 27.9489 7.43645C27.8034 7.30312 27.5367 7.20615 27.1489 7.14554V6.80009C27.3428 6.7516 27.567 6.691 27.8216 6.61827C28.0883 6.54554 28.3489 6.45463 28.6034 6.34554C28.858 6.22433 29.0943 6.08494 29.3125 5.92736C29.5307 5.75766 29.6943 5.55766 29.8034 5.32736H30.2761V7.091C30.6398 6.64251 31.0337 6.291 31.458 6.03645C31.8822 5.78191 32.3064 5.65463 32.7307 5.65463C33.4337 5.65463 33.9974 5.86069 34.4216 6.27282C34.8458 6.68494 35.058 7.30918 35.058 8.14554V11.6001C35.058 11.8425 35.0883 12.0183 35.1489 12.1274C35.2095 12.2365 35.3307 12.3152 35.5125 12.3637L36.1307 12.5092V12.9637Z" fill="url(#paint3_linear_26_10)"/>
<path d="M39.1898 1.72736C39.5049 1.72736 39.7716 1.84857 39.9898 2.091C40.2201 2.3213 40.3352 2.59403 40.3352 2.90918C40.3352 3.18797 40.2201 3.44251 39.9898 3.67282C39.7716 3.90312 39.4989 4.01827 39.1716 4.01827C38.8564 4.01827 38.5898 3.91524 38.3716 3.70918C38.1655 3.491 38.0625 3.22433 38.0625 2.90918C38.0625 2.59403 38.1716 2.3213 38.3898 2.091C38.608 1.84857 38.8746 1.72736 39.1898 1.72736ZM41.0261 12.9819C40.8322 12.9577 40.5413 12.9395 40.1534 12.9274C39.7655 12.9152 39.3292 12.9092 38.8443 12.9092C38.3595 12.9092 37.9231 12.9152 37.5352 12.9274C37.1473 12.9395 36.8564 12.9577 36.6625 12.9819V12.5092L37.3534 12.3274C37.7292 12.2546 37.917 12.0304 37.917 11.6546V8.38191C37.917 8.091 37.8443 7.87888 37.6989 7.74554C37.5534 7.61221 37.2625 7.49706 36.8261 7.40009V6.96373C37.0322 6.91524 37.2686 6.84857 37.5352 6.76372C37.8019 6.66676 38.0625 6.56373 38.317 6.45463C38.5716 6.33342 38.808 6.20615 39.0261 6.07282C39.2443 5.92736 39.414 5.78191 39.5352 5.63645C39.6201 5.63645 39.6989 5.64251 39.7716 5.65463C39.8443 5.65463 39.9231 5.65463 40.008 5.65463V11.7092C40.008 11.891 40.0322 12.0304 40.0807 12.1274C40.1413 12.2122 40.2504 12.2728 40.408 12.3092L41.0261 12.5092V12.9819Z" fill="url(#paint4_linear_26_10)"/>
<path d="M44.7229 4.14554H45.1229C45.1229 4.47282 45.1229 4.80009 45.1229 5.12736C45.135 5.44251 45.1411 5.76373 45.1411 6.091L47.4138 6.03645V6.891L45.1411 6.96373V10.2365C45.1411 10.7819 45.2077 11.1819 45.3411 11.4365C45.4744 11.6789 45.7532 11.8001 46.1774 11.8001C46.3592 11.8001 46.5592 11.7819 46.7774 11.7455C46.9956 11.6971 47.232 11.5637 47.4865 11.3455L47.6501 11.6001C47.5653 11.7698 47.4501 11.9516 47.3047 12.1455C47.1592 12.3274 46.9774 12.4971 46.7592 12.6546C46.5532 12.8122 46.3168 12.9455 46.0501 13.0546C45.7835 13.1516 45.4804 13.2001 45.1411 13.2001C44.4501 13.2001 43.935 13.0304 43.5956 12.691C43.2562 12.3395 43.0865 11.7455 43.0865 10.9092V7.00009C42.9168 7.00009 42.7532 7.00615 42.5956 7.01827C42.438 7.01827 42.2744 7.01827 42.1047 7.01827C41.935 7.01827 41.8441 6.93948 41.832 6.78191C41.832 6.62433 41.9168 6.50918 42.0865 6.43645C42.3532 6.32736 42.5956 6.21221 42.8138 6.091C43.0441 5.96979 43.232 5.84857 43.3774 5.72736C43.5471 5.59403 43.7714 5.39403 44.0501 5.12736C44.3411 4.86069 44.5653 4.53342 44.7229 4.14554Z" fill="url(#paint5_linear_26_10)"/>
<path d="M51.7859 15.0001C51.5678 15.5455 51.2465 15.9395 50.8223 16.1819C50.4102 16.4243 49.9678 16.5455 49.495 16.5455C49.3617 16.5455 49.2284 16.5274 49.095 16.491C48.9617 16.4668 48.8465 16.4183 48.7496 16.3455C48.6647 16.2849 48.592 16.2062 48.5314 16.1092C48.4829 16.0243 48.4587 15.9213 48.4587 15.8001C48.4587 15.4607 48.5496 15.2365 48.7314 15.1274C48.9132 15.0304 49.1314 14.9819 49.3859 14.9819C49.6405 14.9819 49.9011 15.0122 50.1678 15.0728C50.4344 15.1455 50.6344 15.1819 50.7678 15.1819C50.8284 15.1819 50.9011 15.1516 50.9859 15.091C51.0708 15.0304 51.1556 14.9455 51.2405 14.8365C51.3253 14.7395 51.392 14.6183 51.4405 14.4728C51.5011 14.3274 51.5314 14.1698 51.5314 14.0001C51.5314 13.8546 51.5011 13.6607 51.4405 13.4183C51.3799 13.2122 51.3071 13.0061 51.2223 12.8001C51.1496 12.594 51.0768 12.4062 51.0041 12.2365L48.6223 7.00009C48.489 6.70918 48.3314 6.53342 48.1496 6.47282L47.7859 6.34554V5.891C49.3253 6.01221 50.6041 6.01221 51.6223 5.891V6.34554C51.295 6.34554 51.1193 6.37585 51.095 6.43645C51.0708 6.49706 51.0829 6.58797 51.1314 6.70918L52.7859 10.9092L54.2223 7.36373C54.2829 7.19403 54.3071 7.01827 54.295 6.83645C54.295 6.65463 54.192 6.53948 53.9859 6.491L52.9678 6.25463V5.891C54.0344 6.01221 55.1496 6.01221 56.3132 5.891V6.25463L55.7314 6.40009C55.6344 6.42433 55.5496 6.4607 55.4768 6.50918C55.4162 6.54554 55.3496 6.60615 55.2768 6.691C55.2162 6.76373 55.1496 6.87282 55.0768 7.01827C55.0162 7.1516 54.9435 7.32736 54.8587 7.54554L51.7859 15.0001Z" fill="url(#paint6_linear_26_10)"/>
<path d="M61.1493 1.54554C61.7432 1.54554 62.2402 1.54554 62.6402 1.54554C63.0402 1.53342 63.3432 1.5213 63.5493 1.50918L66.1857 1.36372C66.416 1.3516 66.5735 1.34554 66.6584 1.34554C66.7553 1.34554 66.8281 1.34554 66.8766 1.34554C67.4463 1.34554 67.9796 1.41221 68.4766 1.54554C68.9735 1.66676 69.4038 1.86676 69.7675 2.14554C70.1311 2.41221 70.416 2.75766 70.622 3.18191C70.8402 3.60615 70.9493 4.10918 70.9493 4.691C70.9493 5.22433 70.8402 5.691 70.622 6.091C70.416 6.491 70.1372 6.83039 69.7857 7.10918C69.4463 7.37585 69.0523 7.57585 68.6038 7.70918C68.1675 7.84251 67.7251 7.90918 67.2766 7.90918C66.9251 7.90918 66.616 7.8607 66.3493 7.76373C66.0826 7.66676 65.8341 7.50312 65.6038 7.27282L65.6402 7.10918C65.7978 7.16979 65.9675 7.21221 66.1493 7.23645C66.3311 7.24857 66.4887 7.25463 66.622 7.25463C66.925 7.25463 67.1978 7.21221 67.4402 7.12736C67.6947 7.04251 67.9129 6.90918 68.0947 6.72736C68.2766 6.53342 68.416 6.27888 68.5129 5.96373C68.622 5.64857 68.6766 5.25463 68.6766 4.78191C68.6766 3.98191 68.4766 3.33342 68.0766 2.83645C67.6887 2.32736 67.0766 2.07282 66.2402 2.07282C66.0705 2.07282 65.925 2.07888 65.8038 2.091C65.6947 2.091 65.5917 2.09706 65.4947 2.10918C65.3978 2.1213 65.3129 2.13948 65.2402 2.16373C65.1796 2.17585 65.119 2.19403 65.0584 2.21827V11.5455C65.0584 11.7274 65.0947 11.8849 65.1675 12.0183C65.2523 12.1395 65.4281 12.2243 65.6947 12.2728L66.7857 12.4728V12.9819C66.2766 12.9577 65.7917 12.9395 65.3311 12.9274C64.8826 12.9152 64.4947 12.9092 64.1675 12.9092C63.7917 12.9092 63.4038 12.9152 63.0038 12.9274C62.616 12.9395 62.119 12.9516 61.5129 12.9637V12.4546L62.5311 12.2546C62.7129 12.2183 62.8341 12.1516 62.8947 12.0546C62.9554 11.9577 62.9857 11.794 62.9857 11.5637V3.36372C62.9857 2.90312 62.8402 2.59403 62.5493 2.43645C62.2705 2.27888 61.8038 2.16372 61.1493 2.091V1.54554Z" fill="url(#paint7_linear_26_10)"/>
<path d="M74.6992 13.1819C74.2022 13.1819 73.7719 13.0971 73.4082 12.9274C73.0567 12.7455 72.7658 12.5031 72.5355 12.2001C72.3173 11.8971 72.1537 11.5395 72.0446 11.1274C71.9355 10.7152 71.881 10.2728 71.881 9.80009C71.881 9.15766 71.9779 8.58797 72.1719 8.091C72.3658 7.59403 72.6264 7.17585 72.9537 6.83645C73.281 6.49706 73.6628 6.24251 74.0991 6.07282C74.5355 5.891 74.9961 5.80009 75.481 5.80009C75.8204 5.80009 76.1173 5.82433 76.3719 5.87282C76.6264 5.9213 76.8385 5.97585 77.0082 6.03645C77.2264 6.09706 77.3961 6.16979 77.5173 6.25463L78.7173 5.58191L78.881 5.63645V11.2365C78.881 11.7092 79.087 11.9395 79.4991 11.9274C79.5961 11.9274 79.6688 11.9152 79.7173 11.891C79.7779 11.8546 79.8325 11.8243 79.881 11.8001C79.9173 11.7758 79.9598 11.7395 80.0082 11.691L80.1173 11.9455C80.0325 12.1758 79.9052 12.3819 79.7355 12.5637C79.6022 12.7213 79.4204 12.8668 79.1901 13.0001C78.9719 13.1213 78.6991 13.1819 78.3719 13.1819C77.8264 13.1819 77.4446 13.0243 77.2264 12.7092C77.0082 12.3819 76.8991 11.988 76.8991 11.5274V11.091C76.8385 11.3577 76.7537 11.6183 76.6446 11.8728C76.5355 12.1152 76.3901 12.3334 76.2082 12.5274C76.0385 12.7213 75.8264 12.8789 75.5719 13.0001C75.3295 13.1213 75.0385 13.1819 74.6992 13.1819ZM76.8991 9.00009C76.8991 8.74554 76.887 8.47888 76.8628 8.20009C76.8385 7.9213 76.784 7.66676 76.6992 7.43645C76.6143 7.19403 76.481 6.99403 76.2991 6.83645C76.1295 6.67888 75.8931 6.60009 75.5901 6.60009C75.4204 6.60009 75.2385 6.64857 75.0446 6.74554C74.8628 6.83039 74.6931 6.97585 74.5355 7.18191C74.3779 7.38797 74.2446 7.67282 74.1355 8.03645C74.0385 8.38797 73.9901 8.82433 73.9901 9.34554C73.9901 9.70918 74.0143 10.0546 74.0628 10.3819C74.1234 10.7092 74.2143 10.994 74.3355 11.2365C74.4567 11.4789 74.6022 11.6728 74.7719 11.8183C74.9537 11.9516 75.1658 12.0183 75.4082 12.0183C75.6385 12.0183 75.8446 11.9395 76.0264 11.7819C76.2204 11.6243 76.3779 11.4183 76.4991 11.1637C76.6325 10.8971 76.7294 10.594 76.7901 10.2546C76.8628 9.91524 76.8991 9.56373 76.8991 9.20009V9.00009Z" fill="url(#paint8_linear_26_10)"/>
<path d="M80.9308 12.9819V12.691L81.4763 12.5274C81.7187 12.4546 81.8702 12.3637 81.9308 12.2546C82.0036 12.1334 82.0399 11.9152 82.0399 11.6001V8.10918C82.0399 7.86676 81.9914 7.68494 81.8945 7.56373C81.7975 7.44251 81.5672 7.35766 81.2036 7.30918L80.8945 7.27282V6.92736C81.1248 6.86676 81.3732 6.78797 81.6399 6.691C81.9187 6.58191 82.1854 6.46069 82.4399 6.32736C82.7066 6.18191 82.949 6.01827 83.1672 5.83645C83.3975 5.65463 83.5854 5.45463 83.7308 5.23645H84.0581C84.0581 5.58797 84.0642 5.91524 84.0763 6.21827C84.0884 6.5213 84.1066 6.87282 84.1308 7.27282C84.2278 7.06676 84.3187 6.88494 84.4035 6.72736C84.5005 6.56979 84.646 6.37585 84.8399 6.14554C85.0217 5.92736 85.2096 5.79403 85.4035 5.74554C85.5975 5.68494 85.7732 5.65463 85.9308 5.65463C86.2339 5.65463 86.5005 5.74554 86.7308 5.92736C86.9611 6.10918 87.0763 6.41221 87.0763 6.83645C87.0763 7.22433 86.9914 7.53948 86.8217 7.78191C86.652 8.01221 86.3975 8.12736 86.0581 8.12736C85.8884 8.12736 85.7429 8.07888 85.6217 7.98191C85.5126 7.88494 85.4157 7.78191 85.3308 7.67282C85.246 7.56373 85.1672 7.4607 85.0945 7.36373C85.0339 7.26676 84.9672 7.21827 84.8945 7.21827C84.7248 7.21827 84.5733 7.33342 84.4399 7.56373C84.3187 7.79403 84.2339 8.07888 84.1854 8.41827C84.1248 8.70918 84.1066 8.93948 84.1308 9.10918V11.6365C84.1308 11.9152 84.1854 12.1031 84.2945 12.2001C84.4036 12.2971 84.6217 12.394 84.949 12.491L85.549 12.6728V12.9637C85.2823 12.9395 84.9793 12.9274 84.6399 12.9274C84.3005 12.9152 83.9793 12.9092 83.6763 12.9092H83.2581C82.8581 12.9092 82.4581 12.9152 82.0581 12.9274C81.6581 12.9395 81.2823 12.9577 80.9308 12.9819Z" fill="url(#paint9_linear_26_10)"/>
<path d="M97.0889 12.9819C96.8586 12.9577 96.5313 12.9395 96.1071 12.9274C95.695 12.9152 95.2768 12.9092 94.8526 12.9092C94.4283 12.9092 94.0223 12.9152 93.6344 12.9274C93.2586 12.9395 92.9556 12.9577 92.7253 12.9819V12.5092L93.2162 12.4365C93.4829 12.4001 93.6162 12.3455 93.6162 12.2728C93.6162 12.1758 93.5132 11.988 93.3071 11.7092C93.1132 11.4304 92.8223 11.0365 92.4344 10.5274C92.2404 10.2849 92.0465 10.0728 91.8526 9.891C91.6707 9.69706 91.4889 9.60009 91.3071 9.60009H91.1435V11.6365C91.1435 11.9395 91.1738 12.1334 91.2344 12.2183C91.3071 12.291 91.4283 12.3455 91.598 12.3819L92.1071 12.5092V12.9819C92.0101 12.9698 91.8768 12.9577 91.7071 12.9455C91.5495 12.9334 91.3677 12.9274 91.1616 12.9274C90.9677 12.9152 90.7616 12.9092 90.5435 12.9092C90.3374 12.9092 90.1374 12.9092 89.9435 12.9092C89.5556 12.9092 89.1617 12.9152 88.7617 12.9274C88.3617 12.9395 88.0647 12.9577 87.8707 12.9819V12.5092L88.5435 12.4001C88.7616 12.3637 88.901 12.3092 88.9616 12.2365C89.0223 12.1516 89.0526 11.9516 89.0526 11.6365V2.96372C89.0526 2.81827 89.0404 2.70312 89.0162 2.61827C88.9919 2.53342 88.9374 2.46676 88.8526 2.41827C88.7798 2.35766 88.6707 2.30918 88.5253 2.27282C88.3798 2.23645 88.1798 2.20009 87.9253 2.16373V1.72736C88.0829 1.691 88.2889 1.64857 88.5435 1.60009C88.8101 1.5516 89.0829 1.49706 89.3616 1.43645C89.6526 1.36373 89.9313 1.28494 90.198 1.20009C90.4647 1.11524 90.6829 1.01827 90.8526 0.90918H91.1435V8.92736C91.2647 8.92736 91.3738 8.91524 91.4707 8.891C91.5798 8.85463 91.6889 8.80009 91.798 8.72736C91.9071 8.65463 92.0283 8.56373 92.1616 8.45463C92.295 8.33342 92.4647 8.18797 92.6707 8.01827C93.0829 7.691 93.3677 7.46069 93.5253 7.32736C93.6829 7.18191 93.7617 7.05463 93.7617 6.94554C93.7617 6.691 93.3738 6.50918 92.598 6.40009V5.98191H96.4707V6.40009C96.0465 6.44857 95.6404 6.5516 95.2526 6.70918C94.8768 6.85463 94.5313 7.07282 94.2162 7.36373L93.0707 8.25463C93.3253 8.58191 93.6041 8.9516 93.9071 9.36372C94.2101 9.77585 94.5071 10.1758 94.798 10.5637C95.101 10.9516 95.392 11.3031 95.6707 11.6183C95.9616 11.9213 96.2162 12.1334 96.4344 12.2546C96.495 12.291 96.5495 12.3213 96.598 12.3455C96.6586 12.3577 96.7132 12.3758 96.7617 12.4001L97.0889 12.5092V12.9819Z" fill="url(#paint10_linear_26_10)"/>
<path d="M104.19 8.63645H99.6808C99.6566 8.75766 99.6384 8.83039 99.6263 8.85463C99.6263 8.87888 99.6263 8.9516 99.6263 9.07282C99.6263 9.46069 99.6808 9.81827 99.7899 10.1455C99.899 10.4607 100.051 10.7395 100.244 10.9819C100.451 11.2122 100.693 11.394 100.972 11.5274C101.251 11.6607 101.566 11.7274 101.917 11.7274C102.341 11.7274 102.729 11.6728 103.081 11.5637C103.444 11.4425 103.826 11.188 104.226 10.8001L104.299 11.0728C104.154 11.3516 103.984 11.6183 103.79 11.8728C103.608 12.1274 103.384 12.3516 103.117 12.5455C102.851 12.7395 102.535 12.8971 102.172 13.0183C101.82 13.1395 101.402 13.2001 100.917 13.2001C100.408 13.2001 99.9414 13.1152 99.5172 12.9455C99.0929 12.7637 98.7293 12.5092 98.4263 12.1819C98.1354 11.8546 97.9051 11.4607 97.7354 11.0001C97.5778 10.5395 97.499 10.0243 97.499 9.45463C97.499 8.88494 97.5839 8.36979 97.7536 7.90918C97.9354 7.43645 98.1839 7.03645 98.499 6.70918C98.8263 6.36979 99.2202 6.10918 99.6808 5.92736C100.141 5.74554 100.657 5.65463 101.226 5.65463C101.747 5.65463 102.19 5.73342 102.554 5.891C102.917 6.04857 103.214 6.26676 103.444 6.54554C103.687 6.81221 103.863 7.12736 103.972 7.491C104.093 7.85463 104.166 8.23645 104.19 8.63645ZM99.7717 7.96373H101.481C101.808 7.96373 101.972 7.80615 101.972 7.491C101.972 7.13948 101.917 6.84251 101.808 6.60009C101.699 6.34554 101.481 6.21827 101.154 6.21827C100.463 6.21827 100.002 6.80009 99.7717 7.96373Z" fill="url(#paint11_linear_26_10)"/>
<path d="M105.203 12.9819V12.691L105.748 12.5274C105.991 12.4546 106.142 12.3637 106.203 12.2546C106.276 12.1334 106.312 11.9152 106.312 11.6001V8.10918C106.312 7.86676 106.263 7.68494 106.166 7.56373C106.07 7.44251 105.839 7.35766 105.476 7.30918L105.166 7.27282V6.92736C105.397 6.86676 105.645 6.78797 105.912 6.691C106.191 6.58191 106.457 6.46069 106.712 6.32736C106.979 6.18191 107.221 6.01827 107.439 5.83645C107.67 5.65463 107.857 5.45463 108.003 5.23645H108.33C108.33 5.58797 108.336 5.91524 108.348 6.21827C108.36 6.5213 108.379 6.87282 108.403 7.27282C108.5 7.06676 108.591 6.88494 108.676 6.72736C108.773 6.56979 108.918 6.37585 109.112 6.14554C109.294 5.92736 109.482 5.79403 109.676 5.74554C109.87 5.68494 110.045 5.65463 110.203 5.65463C110.506 5.65463 110.773 5.74554 111.003 5.92736C111.233 6.10918 111.348 6.41221 111.348 6.83645C111.348 7.22433 111.263 7.53948 111.094 7.78191C110.924 8.01221 110.67 8.12736 110.33 8.12736C110.16 8.12736 110.015 8.07888 109.894 7.98191C109.785 7.88494 109.688 7.78191 109.603 7.67282C109.518 7.56373 109.439 7.4607 109.366 7.36373C109.306 7.26676 109.239 7.21827 109.166 7.21827C108.997 7.21827 108.845 7.33342 108.712 7.56373C108.591 7.79403 108.506 8.07888 108.457 8.41827C108.397 8.70918 108.379 8.93948 108.403 9.10918V11.6365C108.403 11.9152 108.457 12.1031 108.566 12.2001C108.676 12.2971 108.894 12.394 109.221 12.491L109.821 12.6728V12.9637C109.554 12.9395 109.251 12.9274 108.912 12.9274C108.573 12.9152 108.251 12.9092 107.948 12.9092H107.53C107.13 12.9092 106.73 12.9152 106.33 12.9274C105.93 12.9395 105.554 12.9577 105.203 12.9819Z" fill="url(#paint12_linear_26_10)"/>
<defs>
<linearGradient id="paint0_linear_26_10" x1="2.60241" y1="0.909162" x2="110.296" y2="10.5824" gradientUnits="userSpaceOnUse">
<stop stop-color="#42D392"/>
<stop offset="1" stop-color="#647EFF"/>
</linearGradient>
<linearGradient id="paint1_linear_26_10" x1="2.60241" y1="0.909162" x2="110.296" y2="10.5824" gradientUnits="userSpaceOnUse">
<stop stop-color="#42D392"/>
<stop offset="1" stop-color="#647EFF"/>
</linearGradient>
<linearGradient id="paint2_linear_26_10" x1="2.60241" y1="0.909162" x2="110.296" y2="10.5824" gradientUnits="userSpaceOnUse">
<stop stop-color="#42D392"/>
<stop offset="1" stop-color="#647EFF"/>
</linearGradient>
<linearGradient id="paint3_linear_26_10" x1="2.60241" y1="0.909162" x2="110.296" y2="10.5824" gradientUnits="userSpaceOnUse">
<stop stop-color="#42D392"/>
<stop offset="1" stop-color="#647EFF"/>
</linearGradient>
<linearGradient id="paint4_linear_26_10" x1="2.60241" y1="0.909162" x2="110.296" y2="10.5824" gradientUnits="userSpaceOnUse">
<stop stop-color="#42D392"/>
<stop offset="1" stop-color="#647EFF"/>
</linearGradient>
<linearGradient id="paint5_linear_26_10" x1="2.60241" y1="0.909162" x2="110.296" y2="10.5824" gradientUnits="userSpaceOnUse">
<stop stop-color="#42D392"/>
<stop offset="1" stop-color="#647EFF"/>
</linearGradient>
<linearGradient id="paint6_linear_26_10" x1="2.60241" y1="0.909162" x2="110.296" y2="10.5824" gradientUnits="userSpaceOnUse">
<stop stop-color="#42D392"/>
<stop offset="1" stop-color="#647EFF"/>
</linearGradient>
<linearGradient id="paint7_linear_26_10" x1="2.60241" y1="0.909162" x2="110.296" y2="10.5824" gradientUnits="userSpaceOnUse">
<stop stop-color="#42D392"/>
<stop offset="1" stop-color="#647EFF"/>
</linearGradient>
<linearGradient id="paint8_linear_26_10" x1="2.60241" y1="0.909162" x2="110.296" y2="10.5824" gradientUnits="userSpaceOnUse">
<stop stop-color="#42D392"/>
<stop offset="1" stop-color="#647EFF"/>
</linearGradient>
<linearGradient id="paint9_linear_26_10" x1="2.60241" y1="0.909162" x2="110.296" y2="10.5824" gradientUnits="userSpaceOnUse">
<stop stop-color="#42D392"/>
<stop offset="1" stop-color="#647EFF"/>
</linearGradient>
<linearGradient id="paint10_linear_26_10" x1="2.60241" y1="0.909162" x2="110.296" y2="10.5824" gradientUnits="userSpaceOnUse">
<stop stop-color="#42D392"/>
<stop offset="1" stop-color="#647EFF"/>
</linearGradient>
<linearGradient id="paint11_linear_26_10" x1="2.60241" y1="0.909162" x2="110.296" y2="10.5824" gradientUnits="userSpaceOnUse">
<stop stop-color="#42D392"/>
<stop offset="1" stop-color="#647EFF"/>
</linearGradient>
<linearGradient id="paint12_linear_26_10" x1="2.60241" y1="0.909162" x2="110.296" y2="10.5824" gradientUnits="userSpaceOnUse">
<stop stop-color="#42D392"/>
<stop offset="1" stop-color="#647EFF"/>
</linearGradient>
</defs>
</svg>
