<svg width="95" height="21" viewBox="0 0 95 21" fill="none" xmlns="http://www.w3.org/2000/svg">
<path d="M0 20.5632V0.4032H3.8016V8.4096H4.32L10.8576 0.4032H15.7248L7.3152 10.3392L16.0128 20.5632H11.0016L4.32 12.384H3.8016V20.5632H0Z" fill="url(#paint0_linear_26_7)"/>
<path d="M18.1433 20.5632V6.2784H21.7721V20.5632H18.1433ZM19.9577 4.608C19.3049 4.608 18.7481 4.3968 18.2873 3.9744C17.8457 3.552 17.6249 2.9952 17.6249 2.304C17.6249 1.6128 17.8457 1.056 18.2873 0.6336C18.7481 0.2112 19.3049 0 19.9577 0C20.6297 0 21.1865 0.2112 21.6281 0.6336C22.0697 1.056 22.2905 1.6128 22.2905 2.304C22.2905 2.9952 22.0697 3.552 21.6281 3.9744C21.1865 4.3968 20.6297 4.608 19.9577 4.608Z" fill="url(#paint1_linear_26_7)"/>
<path d="M25.7933 20.5632V6.2784H29.3645V8.1504H29.8829C30.1133 7.6512 30.5453 7.1808 31.1789 6.7392C31.8125 6.2784 32.7725 6.048 34.0589 6.048C35.1725 6.048 36.1421 6.3072 36.9677 6.8256C37.8125 7.3248 38.4653 8.0256 38.9261 8.928C39.3869 9.8112 39.6173 10.848 39.6173 12.0384V20.5632H35.9885V12.3264C35.9885 11.2512 35.7197 10.4448 35.1821 9.9072C34.6637 9.3696 33.9149 9.1008 32.9357 9.1008C31.8221 9.1008 30.9581 9.4752 30.3437 10.224C29.7293 10.9536 29.4221 11.9808 29.4221 13.3056V20.5632H25.7933Z" fill="url(#paint2_linear_26_7)"/>
<path d="M50.049 20.9664C48.6282 20.9664 47.3706 20.6688 46.2762 20.0736C45.201 19.4592 44.3562 18.6048 43.7418 17.5104C43.1466 16.3968 42.849 15.0912 42.849 13.5936V13.248C42.849 11.7504 43.1466 10.4544 43.7418 9.36C44.337 8.2464 45.1722 7.392 46.2474 6.7968C47.3226 6.1824 48.5706 5.8752 49.9914 5.8752C51.393 5.8752 52.6122 6.192 53.649 6.8256C54.6858 7.44 55.4922 8.304 56.0682 9.4176C56.6442 10.512 56.9322 11.7888 56.9322 13.248V14.4864H46.5354C46.5738 15.4656 46.9386 16.2624 47.6298 16.8768C48.321 17.4912 49.1658 17.7984 50.1642 17.7984C51.1818 17.7984 51.9306 17.5776 52.4106 17.136C52.8906 16.6944 53.2554 16.2048 53.505 15.6672L56.4714 17.2224C56.2026 17.7216 55.809 18.2688 55.2906 18.864C54.7914 19.44 54.1194 19.9392 53.2746 20.3616C52.4298 20.7648 51.3546 20.9664 50.049 20.9664ZM46.5642 11.7792H53.2458C53.169 10.9536 52.833 10.2912 52.2378 9.792C51.6618 9.2928 50.9034 9.0432 49.9626 9.0432C48.9834 9.0432 48.2058 9.2928 47.6298 9.792C47.0538 10.2912 46.6986 10.9536 46.5642 11.7792Z" fill="url(#paint3_linear_26_7)"/>
<path d="M65.156 20.5632C64.2152 20.5632 63.4471 20.2752 62.8519 19.6992C62.2759 19.104 61.9879 18.3168 61.9879 17.3376V9.2736H58.4167V6.2784H61.9879V1.8432H65.6168V6.2784H69.5335V9.2736H65.6168V16.704C65.6168 17.28 65.8855 17.568 66.4231 17.568H69.188V20.5632H65.156Z" fill="url(#paint4_linear_26_7)"/>
<path d="M72.8183 20.5632V6.2784H76.4471V20.5632H72.8183ZM74.6327 4.608C73.9799 4.608 73.4231 4.3968 72.9623 3.9744C72.5207 3.552 72.2999 2.9952 72.2999 2.304C72.2999 1.6128 72.5207 1.056 72.9623 0.6336C73.4231 0.2112 73.9799 0 74.6327 0C75.3047 0 75.8615 0.2112 76.3031 0.6336C76.7447 1.056 76.9655 1.6128 76.9655 2.304C76.9655 2.9952 76.7447 3.552 76.3031 3.9744C75.8615 4.3968 75.3047 4.608 74.6327 4.608Z" fill="url(#paint5_linear_26_7)"/>
<path d="M87.1787 20.9664C85.7963 20.9664 84.5387 20.6784 83.4059 20.1024C82.2923 19.5264 81.4091 18.6912 80.7563 17.5968C80.1035 16.5024 79.7771 15.1776 79.7771 13.6224V13.2192C79.7771 11.664 80.1035 10.3392 80.7563 9.2448C81.4091 8.1504 82.2923 7.3152 83.4059 6.7392C84.5387 6.1632 85.7963 5.8752 87.1787 5.8752C88.5419 5.8752 89.7131 6.1152 90.6923 6.5952C91.6715 7.0752 92.4587 7.7376 93.0539 8.5824C93.6683 9.408 94.0715 10.3488 94.2635 11.4048L90.7499 12.1536C90.6731 11.5776 90.5003 11.0592 90.2315 10.5984C89.9627 10.1376 89.5787 9.7728 89.0795 9.504C88.5995 9.2352 87.9947 9.1008 87.2651 9.1008C86.5355 9.1008 85.8731 9.264 85.2779 9.5904C84.7019 9.8976 84.2411 10.368 83.8955 11.0016C83.5691 11.616 83.4059 12.3744 83.4059 13.2768V13.5648C83.4059 14.4672 83.5691 15.2352 83.8955 15.8688C84.2411 16.4832 84.7019 16.9536 85.2779 17.28C85.8731 17.5872 86.5355 17.7408 87.2651 17.7408C88.3595 17.7408 89.1851 17.4624 89.7419 16.9056C90.3179 16.3296 90.6827 15.5808 90.8363 14.6592L94.3499 15.4944C94.1003 16.512 93.6683 17.4432 93.0539 18.288C92.4587 19.1136 91.6715 19.7664 90.6923 20.2464C89.7131 20.7264 88.5419 20.9664 87.1787 20.9664Z" fill="url(#paint6_linear_26_7)"/>
<defs>
<linearGradient id="paint0_linear_26_7" x1="2.20513" y1="-2.3825e-05" x2="93.8994" y2="5.20462" gradientUnits="userSpaceOnUse">
<stop stop-color="#42D392"/>
<stop offset="1" stop-color="#647EFF"/>
</linearGradient>
<linearGradient id="paint1_linear_26_7" x1="2.20513" y1="-2.3825e-05" x2="93.8994" y2="5.20462" gradientUnits="userSpaceOnUse">
<stop stop-color="#42D392"/>
<stop offset="1" stop-color="#647EFF"/>
</linearGradient>
<linearGradient id="paint2_linear_26_7" x1="2.20513" y1="-2.3825e-05" x2="93.8994" y2="5.20462" gradientUnits="userSpaceOnUse">
<stop stop-color="#42D392"/>
<stop offset="1" stop-color="#647EFF"/>
</linearGradient>
<linearGradient id="paint3_linear_26_7" x1="2.20513" y1="-2.3825e-05" x2="93.8994" y2="5.20462" gradientUnits="userSpaceOnUse">
<stop stop-color="#42D392"/>
<stop offset="1" stop-color="#647EFF"/>
</linearGradient>
<linearGradient id="paint4_linear_26_7" x1="2.20513" y1="-2.3825e-05" x2="93.8994" y2="5.20462" gradientUnits="userSpaceOnUse">
<stop stop-color="#42D392"/>
<stop offset="1" stop-color="#647EFF"/>
</linearGradient>
<linearGradient id="paint5_linear_26_7" x1="2.20513" y1="-2.3825e-05" x2="93.8994" y2="5.20462" gradientUnits="userSpaceOnUse">
<stop stop-color="#42D392"/>
<stop offset="1" stop-color="#647EFF"/>
</linearGradient>
<linearGradient id="paint6_linear_26_7" x1="2.20513" y1="-2.3825e-05" x2="93.8994" y2="5.20462" gradientUnits="userSpaceOnUse">
<stop stop-color="#42D392"/>
<stop offset="1" stop-color="#647EFF"/>
</linearGradient>
</defs>
</svg>
