<svg width="175" height="48" viewBox="0 0 175 48" fill="none" xmlns="http://www.w3.org/2000/svg">
<path d="M63.5 34.3132V14.1532H67.3016V22.1596H67.82L74.3576 14.1532H79.2248L70.8152 24.0892L79.5128 34.3132H74.5016L67.82 26.134H67.3016V34.3132H63.5Z" fill="#FF9100"/>
<path d="M81.6433 34.3132V20.0284H85.2721V34.3132H81.6433ZM83.4577 18.358C82.8049 18.358 82.2481 18.1468 81.7873 17.7244C81.3457 17.302 81.1249 16.7452 81.1249 16.054C81.1249 15.3628 81.3457 14.806 81.7873 14.3836C82.2481 13.9612 82.8049 13.75 83.4577 13.75C84.1297 13.75 84.6865 13.9612 85.1281 14.3836C85.5697 14.806 85.7905 15.3628 85.7905 16.054C85.7905 16.7452 85.5697 17.302 85.1281 17.7244C84.6865 18.1468 84.1297 18.358 83.4577 18.358Z" fill="#FF9100"/>
<path d="M89.2933 34.3132V20.0284H92.8645V21.9004H93.3829C93.6133 21.4012 94.0453 20.9308 94.6789 20.4892C95.3125 20.0284 96.2725 19.798 97.5589 19.798C98.6725 19.798 99.6421 20.0572 100.468 20.5756C101.313 21.0748 101.965 21.7756 102.426 22.678C102.887 23.5612 103.117 24.598 103.117 25.7884V34.3132H99.4885V26.0764C99.4885 25.0012 99.2197 24.1948 98.6821 23.6572C98.1637 23.1196 97.4149 22.8508 96.4357 22.8508C95.3221 22.8508 94.4581 23.2252 93.8437 23.974C93.2293 24.7036 92.9221 25.7308 92.9221 27.0556V34.3132H89.2933Z" fill="#FF9100"/>
<path d="M113.549 34.7164C112.128 34.7164 110.871 34.4188 109.776 33.8236C108.701 33.2092 107.856 32.3548 107.242 31.2604C106.647 30.1468 106.349 28.8412 106.349 27.3436V26.998C106.349 25.5004 106.647 24.2044 107.242 23.11C107.837 21.9964 108.672 21.142 109.747 20.5468C110.823 19.9324 112.071 19.6252 113.491 19.6252C114.893 19.6252 116.112 19.942 117.149 20.5756C118.186 21.19 118.992 22.054 119.568 23.1676C120.144 24.262 120.432 25.5388 120.432 26.998V28.2364H110.035C110.074 29.2156 110.439 30.0124 111.13 30.6268C111.821 31.2412 112.666 31.5484 113.664 31.5484C114.682 31.5484 115.431 31.3276 115.911 30.886C116.391 30.4444 116.755 29.9548 117.005 29.4172L119.971 30.9724C119.703 31.4716 119.309 32.0188 118.791 32.614C118.291 33.19 117.619 33.6892 116.775 34.1116C115.93 34.5148 114.855 34.7164 113.549 34.7164ZM110.064 25.5292H116.746C116.669 24.7036 116.333 24.0412 115.738 23.542C115.162 23.0428 114.403 22.7932 113.463 22.7932C112.483 22.7932 111.706 23.0428 111.13 23.542C110.554 24.0412 110.199 24.7036 110.064 25.5292Z" fill="#FF9100"/>
<path d="M128.656 34.3132C127.715 34.3132 126.947 34.0252 126.352 33.4492C125.776 32.854 125.488 32.0668 125.488 31.0876V23.0236H121.917V20.0284H125.488V15.5932H129.117V20.0284H133.034V23.0236H129.117V30.454C129.117 31.03 129.386 31.318 129.923 31.318H132.688V34.3132H128.656Z" fill="#FF9100"/>
<path d="M136.318 34.3132V20.0284H139.947V34.3132H136.318ZM138.133 18.358C137.48 18.358 136.923 18.1468 136.462 17.7244C136.021 17.302 135.8 16.7452 135.8 16.054C135.8 15.3628 136.021 14.806 136.462 14.3836C136.923 13.9612 137.48 13.75 138.133 13.75C138.805 13.75 139.362 13.9612 139.803 14.3836C140.245 14.806 140.466 15.3628 140.466 16.054C140.466 16.7452 140.245 17.302 139.803 17.7244C139.362 18.1468 138.805 18.358 138.133 18.358Z" fill="#FF9100"/>
<path d="M150.679 34.7164C149.296 34.7164 148.039 34.4284 146.906 33.8524C145.792 33.2764 144.909 32.4412 144.256 31.3468C143.604 30.2524 143.277 28.9276 143.277 27.3724V26.9692C143.277 25.414 143.604 24.0892 144.256 22.9948C144.909 21.9004 145.792 21.0652 146.906 20.4892C148.039 19.9132 149.296 19.6252 150.679 19.6252C152.042 19.6252 153.213 19.8652 154.192 20.3452C155.172 20.8252 155.959 21.4876 156.554 22.3324C157.168 23.158 157.572 24.0988 157.764 25.1548L154.25 25.9036C154.173 25.3276 154 24.8092 153.732 24.3484C153.463 23.8876 153.079 23.5228 152.58 23.254C152.1 22.9852 151.495 22.8508 150.765 22.8508C150.036 22.8508 149.373 23.014 148.778 23.3404C148.202 23.6476 147.741 24.118 147.396 24.7516C147.069 25.366 146.906 26.1244 146.906 27.0268V27.3148C146.906 28.2172 147.069 28.9852 147.396 29.6188C147.741 30.2332 148.202 30.7036 148.778 31.03C149.373 31.3372 150.036 31.4908 150.765 31.4908C151.86 31.4908 152.685 31.2124 153.242 30.6556C153.818 30.0796 154.183 29.3308 154.336 28.4092L157.85 29.2444C157.6 30.262 157.168 31.1932 156.554 32.038C155.959 32.8636 155.172 33.5164 154.192 33.9964C153.213 34.4764 152.042 34.7164 150.679 34.7164Z" fill="#FF9100"/>
<rect x="18.1279" y="8.37791" width="31.7442" height="31.7442" stroke="#FF9100" stroke-width="3.25581"/>
<path d="M31.5 10.75L31.5 38.75" stroke="#FF9100" stroke-width="3.26" stroke-linecap="square"/>
<path d="M49.5 8.75L32.3925 23.0062C31.9227 23.3978 31.9112 24.1155 32.3683 24.5219L49.5 39.75" stroke="#FF9100" stroke-width="3.26"/>
</svg>
