<svg width="123" height="18" viewBox="0 0 123 18" fill="none" xmlns="http://www.w3.org/2000/svg">
<path d="M15.48 14.67C15.204 15.066 14.802 15.264 14.274 15.264C13.794 15.264 13.296 15.108 12.78 14.796C12.312 14.52 12.048 14.25 11.988 13.986C11.964 13.89 11.952 13.8 11.952 13.716C11.952 13.524 12.03 13.308 12.186 13.068C12.354 12.828 12.432 12.618 12.42 12.438L11.88 6.39L8.784 13.374C8.748 13.47 8.73 13.584 8.73 13.716C8.73 13.812 8.742 13.962 8.766 14.166C8.802 14.37 8.82 14.526 8.82 14.634C8.82 14.91 8.712 15.12 8.496 15.264C8.184 15.48 7.818 15.588 7.398 15.588C6.978 15.588 6.594 15.474 6.246 15.246C5.91 15.03 5.7 14.742 5.616 14.382C5.592 14.274 5.58 14.178 5.58 14.094C5.58 14.01 5.592 13.908 5.616 13.788C5.64 13.668 5.652 13.578 5.652 13.518C5.652 13.446 5.64 13.374 5.616 13.302L3.024 6.39L3.276 12.906C3.288 13.074 3.33 13.314 3.402 13.626C3.474 13.926 3.51 14.148 3.51 14.292C3.51 14.736 3.18 15.084 2.52 15.336C2.436 15.36 2.334 15.372 2.214 15.372C1.842 15.372 1.458 15.246 1.062 14.994C0.606 14.718 0.312 14.358 0.18 13.914C0.156 13.842 0.144 13.776 0.144 13.716C0.144 13.596 0.216 13.464 0.36 13.32C0.504 13.164 0.576 13.026 0.576 12.906L0.36 2.646C0.36 2.478 0.3 2.268 0.18 2.016C0.06 1.752 0 1.554 0 1.422C0 1.218 0.108 1.002 0.324 0.774C0.54 0.534 0.918 0.414 1.458 0.414C2.25 0.414 2.88 0.606 3.348 0.99C3.612 1.206 3.744 1.434 3.744 1.674C3.744 1.71 3.738 1.764 3.726 1.836C3.726 1.908 3.726 1.962 3.726 1.998C3.726 2.106 3.744 2.202 3.78 2.286L7.344 10.926L11.34 1.746C11.388 1.638 11.412 1.512 11.412 1.368C11.412 1.32 11.406 1.248 11.394 1.152C11.394 1.056 11.394 0.984 11.394 0.936C11.394 0.66 11.52 0.426 11.772 0.234C11.976 0.0780001 12.246 0 12.582 0C13.098 0 13.596 0.156 14.076 0.468C14.568 0.78 14.808 1.134 14.796 1.53C14.784 1.722 14.694 1.884 14.526 2.016C14.358 2.136 14.28 2.25 14.292 2.358L15.048 12.978C15.06 13.098 15.156 13.308 15.336 13.608C15.516 13.896 15.606 14.13 15.606 14.31C15.606 14.43 15.564 14.55 15.48 14.67Z" fill="url(#paint0_linear_26_11)"/>
<path d="M24.7245 13.95C24.5445 14.538 24.1005 14.832 23.3925 14.832C23.1525 14.832 22.9605 14.79 22.8165 14.706C22.6245 14.574 22.4925 14.31 22.4205 13.914C22.2765 13.23 22.1325 12.696 21.9885 12.312C21.9525 12.972 21.5925 13.644 20.9085 14.328C20.2245 15 19.5345 15.336 18.8385 15.336C17.9625 15.336 17.3565 14.754 17.0205 13.59C16.9005 13.158 16.8405 12.75 16.8405 12.366C16.8405 11.25 17.4105 10.296 18.5505 9.504C19.4865 8.952 20.4285 8.406 21.3765 7.866C21.4245 7.662 21.4485 7.464 21.4485 7.272C21.4485 6.9 21.3465 6.684 21.1425 6.624C20.9385 6.552 20.7645 6.516 20.6205 6.516C20.3685 6.516 20.1585 6.6 19.9905 6.768C19.8345 6.924 19.6845 7.074 19.5405 7.218C19.3965 7.314 19.2105 7.536 18.9825 7.884C18.8025 8.16 18.6045 8.31 18.3885 8.334C18.0765 8.37 17.7945 8.262 17.5425 8.01C17.2905 7.758 17.1645 7.464 17.1645 7.128C17.1645 6.936 17.2125 6.762 17.3085 6.606C17.5845 6.15 17.9985 5.754 18.5505 5.418C19.3905 4.914 20.4405 4.662 21.7005 4.662C22.5045 4.662 23.0565 5.046 23.3565 5.814C23.5485 6.33 23.6925 7.296 23.7885 8.712C23.8965 10.428 24.0285 11.682 24.1845 12.474C24.2085 12.63 24.3105 12.828 24.4905 13.068C24.6705 13.308 24.7605 13.518 24.7605 13.698C24.7605 13.782 24.7485 13.866 24.7245 13.95ZM21.5925 9.522C21.2325 9.714 20.8725 9.912 20.5125 10.116C20.1645 10.32 19.8405 10.59 19.5405 10.926C19.1085 11.418 18.8925 11.838 18.8925 12.186C18.8925 12.474 19.0005 12.774 19.2165 13.086C19.3365 13.254 19.4685 13.338 19.6125 13.338C19.9245 13.338 20.2605 12.99 20.6205 12.294C20.9925 11.598 21.3165 10.674 21.5925 9.522Z" fill="url(#paint1_linear_26_11)"/>
<path d="M28.6678 3.906C28.5838 4.098 28.3498 4.194 27.9658 4.194C27.6898 4.194 27.4258 4.134 27.1738 4.014C26.8498 3.87 26.6878 3.678 26.6878 3.438C26.6878 3.366 26.7058 3.264 26.7418 3.132C26.7778 3 26.7958 2.91 26.7958 2.862C26.7958 2.79 26.7838 2.658 26.7598 2.466C26.7358 2.274 26.7238 2.13 26.7238 2.034C26.7238 1.758 26.7958 1.554 26.9398 1.422C27.1318 1.23 27.3838 1.134 27.6958 1.134C27.9478 1.134 28.1878 1.212 28.4158 1.368C28.6438 1.524 28.7578 1.728 28.7578 1.98C28.7578 2.088 28.7218 2.262 28.6498 2.502C28.5778 2.742 28.5478 2.922 28.5598 3.042C28.5598 3.15 28.5838 3.264 28.6318 3.384C28.6918 3.504 28.7218 3.6 28.7218 3.672C28.7218 3.744 28.7038 3.822 28.6678 3.906ZM28.6678 7.596C28.6678 11.328 28.6738 12.612 28.6858 11.448C28.6618 13.248 28.5058 14.64 28.2178 15.624C27.8338 16.956 27.2158 17.676 26.3638 17.784C25.9918 17.832 25.5838 17.748 25.1398 17.532C24.6958 17.328 24.4738 17.088 24.4738 16.812C24.4738 16.716 24.5098 16.62 24.5818 16.524C24.7138 16.356 24.9358 16.296 25.2478 16.344C25.5478 16.392 25.7518 16.38 25.8598 16.308C26.2438 16.044 26.4358 13.878 26.4358 9.81C26.4358 8.862 26.4238 7.722 26.3998 6.39C26.3998 6.282 26.3638 6.096 26.2918 5.832C26.2198 5.556 26.1838 5.352 26.1838 5.22C26.1838 4.8 26.5198 4.59 27.1918 4.59C27.7678 4.59 28.1878 4.722 28.4518 4.986C28.6678 5.202 28.7758 5.514 28.7758 5.922C28.7758 6.114 28.7578 6.396 28.7218 6.768C28.6858 7.128 28.6678 7.404 28.6678 7.596Z" fill="url(#paint2_linear_26_11)"/>
<path d="M36.8298 12.816C36.7338 13.272 36.4098 13.758 35.8578 14.274C35.7738 14.406 35.4438 14.58 34.8678 14.796C34.2078 15.048 33.6378 15.156 33.1578 15.12C32.2578 15.06 31.5498 14.544 31.0338 13.572C30.5658 12.672 30.3318 11.568 30.3318 10.26C30.3318 8.844 30.5958 7.602 31.1238 6.534C31.7118 5.358 32.4978 4.698 33.4818 4.554C33.6738 4.53 33.8598 4.518 34.0398 4.518C35.4678 4.518 36.2538 5.394 36.3978 7.146C36.4698 7.95 36.1518 8.826 35.4438 9.774C34.6758 10.818 33.6918 11.55 32.4918 11.97C32.6238 12.45 32.7258 12.762 32.7978 12.906C32.9658 13.206 33.1938 13.356 33.4818 13.356C33.7578 13.356 34.0518 13.248 34.3638 13.032C34.6278 12.852 34.8078 12.678 34.9038 12.51C34.9518 12.486 34.9998 12.354 35.0478 12.114C35.0958 11.862 35.2218 11.682 35.4258 11.574C35.4978 11.538 35.5818 11.52 35.6778 11.52C35.9658 11.52 36.2418 11.664 36.5058 11.952C36.7818 12.228 36.8898 12.516 36.8298 12.816ZM34.0038 6.48C33.5238 6.48 33.1338 6.822 32.8338 7.506C32.4378 8.418 32.2758 9.318 32.3478 10.206C32.9118 10.026 33.4338 9.606 33.9138 8.946C34.3938 8.286 34.6338 7.698 34.6338 7.182C34.6338 6.714 34.4238 6.48 34.0038 6.48Z" fill="url(#paint3_linear_26_11)"/>
<path d="M46.4479 13.554C46.4239 13.818 46.2499 14.046 45.9259 14.238C45.6019 14.418 45.2419 14.508 44.8459 14.508C44.2579 14.508 43.8559 14.322 43.6399 13.95C43.7359 10.254 43.6279 8.382 43.3159 8.334C43.0159 8.286 42.2839 9.942 41.1199 13.302C41.1199 13.662 41.1199 14.022 41.1199 14.382C41.1079 14.814 40.9879 15.12 40.7599 15.3C40.5439 15.48 40.3099 15.57 40.0579 15.57C39.6259 15.57 39.1639 15.336 38.6719 14.868C38.5279 14.748 38.4499 13.836 38.4379 12.132C38.4499 13.176 38.4559 11.238 38.4559 6.318C38.4559 6.21 38.4439 6.066 38.4199 5.886C38.3959 5.694 38.3839 5.556 38.3839 5.472C38.3839 5.244 38.4439 5.046 38.5639 4.878C38.7079 4.662 38.9359 4.554 39.2479 4.554C39.5719 4.554 39.9079 4.656 40.2559 4.86C40.6159 5.052 40.8319 5.238 40.9039 5.418C40.9519 5.538 40.9759 5.658 40.9759 5.778C40.9759 5.898 40.9279 6.066 40.8319 6.282C40.7359 6.498 40.6879 6.678 40.6879 6.822V9.306C41.4439 7.698 42.0139 6.636 42.3979 6.12C43.0819 5.232 43.8559 4.818 44.7199 4.878C45.2359 4.914 45.6019 5.394 45.8179 6.318C45.9859 7.014 46.0759 8.046 46.0879 9.414C46.0879 10.494 46.0879 11.574 46.0879 12.654C46.1119 12.738 46.1959 12.888 46.3399 13.104C46.4239 13.224 46.4599 13.374 46.4479 13.554Z" fill="url(#paint4_linear_26_11)"/>
<path d="M53.8612 6.534C53.7652 6.534 53.6152 6.498 53.4112 6.426C53.2072 6.342 53.0512 6.3 52.9432 6.3C52.8592 6.3 52.7752 6.318 52.6912 6.354L52.0252 6.696V12.852C52.0252 13.08 52.1452 13.374 52.3852 13.734C52.6372 14.094 52.7392 14.382 52.6912 14.598C52.6312 14.862 52.4512 15.072 52.1512 15.228C51.8632 15.384 51.5512 15.462 51.2152 15.462C50.5792 15.462 50.1412 15.18 49.9012 14.616C49.8292 14.448 49.7872 13.914 49.7752 13.014C49.7632 12.414 49.7692 11.478 49.7932 10.206C49.8172 8.766 49.8292 7.854 49.8292 7.47C49.7572 7.494 49.6372 7.578 49.4692 7.722C49.3012 7.854 49.1332 7.92 48.9652 7.92C48.8332 7.92 48.6652 7.884 48.4612 7.812C47.6212 7.524 47.2012 7.23 47.2012 6.93C47.2012 6.858 47.2192 6.78 47.2552 6.696C47.3392 6.504 47.4952 6.396 47.7232 6.372C48.0712 6.324 48.2812 6.282 48.3532 6.246C48.6292 6.138 49.1332 5.88 49.8652 5.472V3.906C49.8652 3.786 49.8292 3.63 49.7572 3.438C49.6972 3.234 49.6672 3.084 49.6672 2.988C49.6672 2.88 49.6972 2.778 49.7572 2.682C50.0692 2.202 50.4892 1.962 51.0172 1.962C51.6292 1.962 52.0612 2.202 52.3132 2.682C52.4092 2.874 52.4572 3.03 52.4572 3.15C52.4572 3.294 52.3852 3.444 52.2412 3.6C52.0972 3.756 52.0252 3.9 52.0252 4.032V4.914C52.2412 4.818 52.4812 4.656 52.7452 4.428C52.9492 4.26 53.1232 4.176 53.2672 4.176C53.3272 4.176 53.3932 4.188 53.4652 4.212C54.2212 4.416 54.5992 4.872 54.5992 5.58C54.5992 5.808 54.5272 6.024 54.3832 6.228C54.2512 6.432 54.0772 6.534 53.8612 6.534Z" fill="url(#paint5_linear_26_11)"/>
<path d="M63.1152 13.95C62.9352 14.538 62.4912 14.832 61.7832 14.832C61.5432 14.832 61.3512 14.79 61.2072 14.706C61.0152 14.574 60.8832 14.31 60.8112 13.914C60.6672 13.23 60.5232 12.696 60.3792 12.312C60.3432 12.972 59.9832 13.644 59.2992 14.328C58.6152 15 57.9252 15.336 57.2292 15.336C56.3532 15.336 55.7472 14.754 55.4112 13.59C55.2912 13.158 55.2312 12.75 55.2312 12.366C55.2312 11.25 55.8012 10.296 56.9412 9.504C57.8772 8.952 58.8192 8.406 59.7672 7.866C59.8152 7.662 59.8392 7.464 59.8392 7.272C59.8392 6.9 59.7372 6.684 59.5332 6.624C59.3292 6.552 59.1552 6.516 59.0112 6.516C58.7592 6.516 58.5492 6.6 58.3812 6.768C58.2252 6.924 58.0752 7.074 57.9312 7.218C57.7872 7.314 57.6012 7.536 57.3732 7.884C57.1932 8.16 56.9952 8.31 56.7792 8.334C56.4672 8.37 56.1852 8.262 55.9332 8.01C55.6812 7.758 55.5552 7.464 55.5552 7.128C55.5552 6.936 55.6032 6.762 55.6992 6.606C55.9752 6.15 56.3892 5.754 56.9412 5.418C57.7812 4.914 58.8312 4.662 60.0912 4.662C60.8952 4.662 61.4472 5.046 61.7472 5.814C61.9392 6.33 62.0832 7.296 62.1792 8.712C62.2872 10.428 62.4192 11.682 62.5752 12.474C62.5992 12.63 62.7012 12.828 62.8812 13.068C63.0612 13.308 63.1512 13.518 63.1512 13.698C63.1512 13.782 63.1392 13.866 63.1152 13.95ZM59.9832 9.522C59.6232 9.714 59.2632 9.912 58.9032 10.116C58.5552 10.32 58.2312 10.59 57.9312 10.926C57.4992 11.418 57.2832 11.838 57.2832 12.186C57.2832 12.474 57.3912 12.774 57.6072 13.086C57.7272 13.254 57.8592 13.338 58.0032 13.338C58.3152 13.338 58.6512 12.99 59.0112 12.294C59.3832 11.598 59.7072 10.674 59.9832 9.522Z" fill="url(#paint6_linear_26_11)"/>
<path d="M84.2105 14.67C83.9345 15.066 83.5325 15.264 83.0045 15.264C82.5245 15.264 82.0265 15.108 81.5105 14.796C81.0425 14.52 80.7785 14.25 80.7185 13.986C80.6945 13.89 80.6825 13.8 80.6825 13.716C80.6825 13.524 80.7605 13.308 80.9165 13.068C81.0845 12.828 81.1625 12.618 81.1505 12.438L80.6105 6.39L77.5145 13.374C77.4785 13.47 77.4605 13.584 77.4605 13.716C77.4605 13.812 77.4725 13.962 77.4965 14.166C77.5325 14.37 77.5505 14.526 77.5505 14.634C77.5505 14.91 77.4425 15.12 77.2265 15.264C76.9145 15.48 76.5485 15.588 76.1285 15.588C75.7085 15.588 75.3245 15.474 74.9765 15.246C74.6405 15.03 74.4305 14.742 74.3465 14.382C74.3225 14.274 74.3105 14.178 74.3105 14.094C74.3105 14.01 74.3225 13.908 74.3465 13.788C74.3705 13.668 74.3825 13.578 74.3825 13.518C74.3825 13.446 74.3705 13.374 74.3465 13.302L71.7545 6.39L72.0065 12.906C72.0185 13.074 72.0605 13.314 72.1325 13.626C72.2045 13.926 72.2405 14.148 72.2405 14.292C72.2405 14.736 71.9105 15.084 71.2505 15.336C71.1665 15.36 71.0645 15.372 70.9445 15.372C70.5725 15.372 70.1885 15.246 69.7925 14.994C69.3365 14.718 69.0425 14.358 68.9105 13.914C68.8865 13.842 68.8745 13.776 68.8745 13.716C68.8745 13.596 68.9465 13.464 69.0905 13.32C69.2345 13.164 69.3065 13.026 69.3065 12.906L69.0905 2.646C69.0905 2.478 69.0305 2.268 68.9105 2.016C68.7905 1.752 68.7305 1.554 68.7305 1.422C68.7305 1.218 68.8385 1.002 69.0545 0.774C69.2705 0.534 69.6485 0.414 70.1885 0.414C70.9805 0.414 71.6105 0.606 72.0785 0.99C72.3425 1.206 72.4745 1.434 72.4745 1.674C72.4745 1.71 72.4685 1.764 72.4565 1.836C72.4565 1.908 72.4565 1.962 72.4565 1.998C72.4565 2.106 72.4745 2.202 72.5105 2.286L76.0745 10.926L80.0705 1.746C80.1185 1.638 80.1425 1.512 80.1425 1.368C80.1425 1.32 80.1365 1.248 80.1245 1.152C80.1245 1.056 80.1245 0.984 80.1245 0.936C80.1245 0.66 80.2505 0.426 80.5025 0.234C80.7065 0.0780001 80.9765 0 81.3125 0C81.8285 0 82.3265 0.156 82.8065 0.468C83.2985 0.78 83.5385 1.134 83.5265 1.53C83.5145 1.722 83.4245 1.884 83.2565 2.016C83.0885 2.136 83.0105 2.25 83.0225 2.358L83.7785 12.978C83.7905 13.098 83.8865 13.308 84.0665 13.608C84.2465 13.896 84.3365 14.13 84.3365 14.31C84.3365 14.43 84.2945 14.55 84.2105 14.67Z" fill="url(#paint7_linear_26_11)"/>
<path d="M93.455 13.95C93.275 14.538 92.831 14.832 92.123 14.832C91.883 14.832 91.691 14.79 91.547 14.706C91.355 14.574 91.223 14.31 91.151 13.914C91.007 13.23 90.863 12.696 90.719 12.312C90.683 12.972 90.323 13.644 89.639 14.328C88.955 15 88.265 15.336 87.569 15.336C86.693 15.336 86.087 14.754 85.751 13.59C85.631 13.158 85.571 12.75 85.571 12.366C85.571 11.25 86.141 10.296 87.281 9.504C88.217 8.952 89.159 8.406 90.107 7.866C90.155 7.662 90.179 7.464 90.179 7.272C90.179 6.9 90.077 6.684 89.873 6.624C89.669 6.552 89.495 6.516 89.351 6.516C89.099 6.516 88.889 6.6 88.721 6.768C88.565 6.924 88.415 7.074 88.271 7.218C88.127 7.314 87.941 7.536 87.713 7.884C87.533 8.16 87.335 8.31 87.119 8.334C86.807 8.37 86.525 8.262 86.273 8.01C86.021 7.758 85.895 7.464 85.895 7.128C85.895 6.936 85.943 6.762 86.039 6.606C86.315 6.15 86.729 5.754 87.281 5.418C88.121 4.914 89.171 4.662 90.431 4.662C91.235 4.662 91.787 5.046 92.087 5.814C92.279 6.33 92.423 7.296 92.519 8.712C92.627 10.428 92.759 11.682 92.915 12.474C92.939 12.63 93.041 12.828 93.221 13.068C93.401 13.308 93.491 13.518 93.491 13.698C93.491 13.782 93.479 13.866 93.455 13.95ZM90.323 9.522C89.963 9.714 89.603 9.912 89.243 10.116C88.895 10.32 88.571 10.59 88.271 10.926C87.839 11.418 87.623 11.838 87.623 12.186C87.623 12.474 87.731 12.774 87.947 13.086C88.067 13.254 88.199 13.338 88.343 13.338C88.655 13.338 88.991 12.99 89.351 12.294C89.723 11.598 90.047 10.674 90.323 9.522Z" fill="url(#paint8_linear_26_11)"/>
<path d="M103.049 13.554C103.025 13.818 102.851 14.046 102.527 14.238C102.203 14.418 101.843 14.508 101.447 14.508C100.859 14.508 100.457 14.322 100.241 13.95C100.337 10.254 100.229 8.382 99.9174 8.334C99.6174 8.286 98.8854 9.942 97.7214 13.302C97.7214 13.662 97.7214 14.022 97.7214 14.382C97.7094 14.814 97.5894 15.12 97.3614 15.3C97.1454 15.48 96.9114 15.57 96.6594 15.57C96.2274 15.57 95.7654 15.336 95.2734 14.868C95.1294 14.748 95.0514 13.836 95.0394 12.132C95.0514 13.176 95.0574 11.238 95.0574 6.318C95.0574 6.21 95.0454 6.066 95.0214 5.886C94.9974 5.694 94.9854 5.556 94.9854 5.472C94.9854 5.244 95.0454 5.046 95.1654 4.878C95.3094 4.662 95.5374 4.554 95.8494 4.554C96.1734 4.554 96.5094 4.656 96.8574 4.86C97.2174 5.052 97.4334 5.238 97.5054 5.418C97.5534 5.538 97.5774 5.658 97.5774 5.778C97.5774 5.898 97.5294 6.066 97.4334 6.282C97.3374 6.498 97.2894 6.678 97.2894 6.822V9.306C98.0454 7.698 98.6154 6.636 98.9994 6.12C99.6834 5.232 100.457 4.818 101.321 4.878C101.837 4.914 102.203 5.394 102.419 6.318C102.587 7.014 102.677 8.046 102.689 9.414C102.689 10.494 102.689 11.574 102.689 12.654C102.713 12.738 102.797 12.888 102.941 13.104C103.025 13.224 103.061 13.374 103.049 13.554Z" fill="url(#paint9_linear_26_11)"/>
<path d="M110.463 6.534C110.367 6.534 110.217 6.498 110.013 6.426C109.809 6.342 109.653 6.3 109.545 6.3C109.461 6.3 109.377 6.318 109.293 6.354L108.627 6.696V12.852C108.627 13.08 108.747 13.374 108.987 13.734C109.239 14.094 109.341 14.382 109.293 14.598C109.233 14.862 109.053 15.072 108.753 15.228C108.465 15.384 108.153 15.462 107.817 15.462C107.181 15.462 106.743 15.18 106.503 14.616C106.431 14.448 106.389 13.914 106.377 13.014C106.365 12.414 106.371 11.478 106.395 10.206C106.419 8.766 106.431 7.854 106.431 7.47C106.359 7.494 106.239 7.578 106.071 7.722C105.903 7.854 105.735 7.92 105.567 7.92C105.435 7.92 105.267 7.884 105.063 7.812C104.223 7.524 103.803 7.23 103.803 6.93C103.803 6.858 103.821 6.78 103.857 6.696C103.941 6.504 104.097 6.396 104.325 6.372C104.673 6.324 104.883 6.282 104.955 6.246C105.231 6.138 105.735 5.88 106.467 5.472V3.906C106.467 3.786 106.431 3.63 106.359 3.438C106.299 3.234 106.269 3.084 106.269 2.988C106.269 2.88 106.299 2.778 106.359 2.682C106.671 2.202 107.091 1.962 107.619 1.962C108.231 1.962 108.663 2.202 108.915 2.682C109.011 2.874 109.059 3.03 109.059 3.15C109.059 3.294 108.987 3.444 108.843 3.6C108.699 3.756 108.627 3.9 108.627 4.032V4.914C108.843 4.818 109.083 4.656 109.347 4.428C109.551 4.26 109.725 4.176 109.869 4.176C109.929 4.176 109.995 4.188 110.067 4.212C110.823 4.416 111.201 4.872 111.201 5.58C111.201 5.808 111.129 6.024 110.985 6.228C110.853 6.432 110.679 6.534 110.463 6.534Z" fill="url(#paint10_linear_26_11)"/>
<path d="M115.137 1.206C115.173 1.242 115.191 1.302 115.191 1.386C115.191 1.494 115.155 1.68 115.083 1.944C114.999 2.268 114.945 2.49 114.921 2.61C114.897 2.73 114.909 2.994 114.957 3.402C114.957 3.654 114.879 3.822 114.723 3.906C114.579 3.978 114.393 4.014 114.165 4.014C113.841 4.014 113.511 3.948 113.175 3.816C112.767 3.648 112.563 3.426 112.563 3.15C112.563 3.066 112.599 2.952 112.671 2.808C112.743 2.652 112.785 2.526 112.797 2.43C112.821 2.334 112.821 2.094 112.797 1.71C112.773 1.41 112.833 1.206 112.977 1.098C113.169 0.954 113.511 0.882 114.003 0.882C114.543 0.882 114.921 0.99 115.137 1.206ZM115.371 5.598C115.371 5.766 115.275 6.03 115.083 6.39C114.903 6.738 114.813 7.026 114.813 7.254V12.546C114.813 12.786 114.879 13.128 115.011 13.572C115.143 14.004 115.209 14.304 115.209 14.472C115.209 14.712 115.113 14.892 114.921 15.012C114.621 15.204 114.297 15.3 113.949 15.3C113.493 15.3 113.169 15.144 112.977 14.832C112.725 14.448 112.599 13.302 112.599 11.394C112.599 10.938 112.605 10.23 112.617 9.27C112.641 8.298 112.653 7.59 112.653 7.146C112.653 6.978 112.635 6.762 112.599 6.498C112.563 6.222 112.545 6.024 112.545 5.904C112.545 5.508 112.689 5.166 112.977 4.878C113.097 4.758 113.319 4.698 113.643 4.698C113.967 4.698 114.291 4.752 114.615 4.86C114.939 4.956 115.143 5.07 115.227 5.202C115.323 5.334 115.371 5.466 115.371 5.598Z" fill="url(#paint11_linear_26_11)"/>
<path d="M122.596 12.294C122.596 13.134 122.296 13.854 121.696 14.454C121.096 15.042 120.388 15.336 119.572 15.336C119.056 15.336 118.522 15.09 117.97 14.598C117.538 14.202 117.148 13.716 116.8 13.14C116.5 12.636 116.368 12.318 116.404 12.186C116.536 11.886 116.95 11.736 117.646 11.736C117.934 11.736 118.162 11.778 118.33 11.862C118.618 12.018 118.78 12.216 118.816 12.456C118.852 12.732 118.912 12.906 118.996 12.978C119.248 13.362 119.476 13.554 119.68 13.554C119.836 13.554 119.98 13.452 120.112 13.248C120.256 13.032 120.328 12.78 120.328 12.492C120.328 12.312 120.298 12.132 120.238 11.952C120.178 11.772 119.854 11.496 119.266 11.124C118.558 10.68 118.054 10.29 117.754 9.954C117.238 9.378 116.98 8.706 116.98 7.938C116.98 7.038 117.244 6.252 117.772 5.58C118.3 4.896 118.972 4.554 119.788 4.554C120.628 4.554 121.27 4.872 121.714 5.508C122.074 6.024 122.224 6.546 122.164 7.074C122.296 7.218 122.362 7.458 122.362 7.794C122.362 8.154 122.23 8.46 121.966 8.712C121.702 8.964 121.432 9.09 121.156 9.09C120.748 9.09 120.394 8.82 120.094 8.28C120.01 8.136 119.968 7.944 119.968 7.704C119.968 7.596 119.974 7.446 119.986 7.254C120.01 7.05 120.022 6.906 120.022 6.822C120.022 6.51 119.908 6.354 119.68 6.354C119.332 6.354 119.158 6.696 119.158 7.38C119.158 8.076 119.386 8.634 119.842 9.054C120.022 9.222 120.412 9.462 121.012 9.774C121.528 10.038 121.894 10.308 122.11 10.584C122.434 11.004 122.596 11.574 122.596 12.294Z" fill="url(#paint12_linear_26_11)"/>
<defs>
<linearGradient id="paint0_linear_26_11" x1="2.86529" y1="-2.02236e-05" x2="121.499" y2="10.3078" gradientUnits="userSpaceOnUse">
<stop stop-color="#42D392"/>
<stop offset="1" stop-color="#647EFF"/>
</linearGradient>
<linearGradient id="paint1_linear_26_11" x1="2.86529" y1="-2.02236e-05" x2="121.499" y2="10.3078" gradientUnits="userSpaceOnUse">
<stop stop-color="#42D392"/>
<stop offset="1" stop-color="#647EFF"/>
</linearGradient>
<linearGradient id="paint2_linear_26_11" x1="2.86529" y1="-2.02236e-05" x2="121.499" y2="10.3078" gradientUnits="userSpaceOnUse">
<stop stop-color="#42D392"/>
<stop offset="1" stop-color="#647EFF"/>
</linearGradient>
<linearGradient id="paint3_linear_26_11" x1="2.86529" y1="-2.02236e-05" x2="121.499" y2="10.3078" gradientUnits="userSpaceOnUse">
<stop stop-color="#42D392"/>
<stop offset="1" stop-color="#647EFF"/>
</linearGradient>
<linearGradient id="paint4_linear_26_11" x1="2.86529" y1="-2.02236e-05" x2="121.499" y2="10.3078" gradientUnits="userSpaceOnUse">
<stop stop-color="#42D392"/>
<stop offset="1" stop-color="#647EFF"/>
</linearGradient>
<linearGradient id="paint5_linear_26_11" x1="2.86529" y1="-2.02236e-05" x2="121.499" y2="10.3078" gradientUnits="userSpaceOnUse">
<stop stop-color="#42D392"/>
<stop offset="1" stop-color="#647EFF"/>
</linearGradient>
<linearGradient id="paint6_linear_26_11" x1="2.86529" y1="-2.02236e-05" x2="121.499" y2="10.3078" gradientUnits="userSpaceOnUse">
<stop stop-color="#42D392"/>
<stop offset="1" stop-color="#647EFF"/>
</linearGradient>
<linearGradient id="paint7_linear_26_11" x1="2.86529" y1="-2.02236e-05" x2="121.499" y2="10.3078" gradientUnits="userSpaceOnUse">
<stop stop-color="#42D392"/>
<stop offset="1" stop-color="#647EFF"/>
</linearGradient>
<linearGradient id="paint8_linear_26_11" x1="2.86529" y1="-2.02236e-05" x2="121.499" y2="10.3078" gradientUnits="userSpaceOnUse">
<stop stop-color="#42D392"/>
<stop offset="1" stop-color="#647EFF"/>
</linearGradient>
<linearGradient id="paint9_linear_26_11" x1="2.86529" y1="-2.02236e-05" x2="121.499" y2="10.3078" gradientUnits="userSpaceOnUse">
<stop stop-color="#42D392"/>
<stop offset="1" stop-color="#647EFF"/>
</linearGradient>
<linearGradient id="paint10_linear_26_11" x1="2.86529" y1="-2.02236e-05" x2="121.499" y2="10.3078" gradientUnits="userSpaceOnUse">
<stop stop-color="#42D392"/>
<stop offset="1" stop-color="#647EFF"/>
</linearGradient>
<linearGradient id="paint11_linear_26_11" x1="2.86529" y1="-2.02236e-05" x2="121.499" y2="10.3078" gradientUnits="userSpaceOnUse">
<stop stop-color="#42D392"/>
<stop offset="1" stop-color="#647EFF"/>
</linearGradient>
<linearGradient id="paint12_linear_26_11" x1="2.86529" y1="-2.02236e-05" x2="121.499" y2="10.3078" gradientUnits="userSpaceOnUse">
<stop stop-color="#42D392"/>
<stop offset="1" stop-color="#647EFF"/>
</linearGradient>
</defs>
</svg>
