<svg width="150" height="16" viewBox="0 0 150 16" fill="none" xmlns="http://www.w3.org/2000/svg">
<path d="M7.77205 16C6.71551 16 5.72049 15.7938 4.78697 15.3813C3.8607 14.9616 3.0104 14.3464 2.23609 13.536C1.90321 13.1958 1.59928 12.8087 1.32429 12.3745C1.0493 11.9331 0.814111 11.4446 0.618725 10.9091C0.423338 10.3736 0.27137 9.78743 0.162822 9.15061C0.0542741 8.50656 0 7.80823 0 7.05563C0 6.52013 0.0976934 5.97377 0.29308 5.41655C0.495703 4.8521 0.770692 4.31298 1.11805 3.79919C1.4654 3.27815 1.87427 2.79692 2.34464 2.3555C2.81502 1.90683 3.32157 1.52329 3.86431 1.20488C4.60244 0.756219 5.33695 0.448666 6.06784 0.282225C6.80597 0.108548 7.48621 0.0217096 8.10855 0.0217096C8.41972 0.0217096 8.74536 0.0470375 9.08548 0.0976934C9.4256 0.148349 9.74763 0.213478 10.0516 0.29308C10.3627 0.372682 10.645 0.459521 10.8982 0.553596C11.1588 0.647671 11.3614 0.738128 11.5061 0.824966C11.8535 1.03483 12.2081 1.29534 12.5699 1.60651C12.9317 1.91768 13.2718 2.25418 13.5902 2.61601C13.9086 2.97784 14.1945 3.35052 14.4478 3.73406C14.7083 4.11036 14.9109 4.46857 15.0556 4.80868C15.3017 5.37313 15.4681 5.93759 15.555 6.50204C15.6418 7.06649 15.6852 7.65265 15.6852 8.26052C15.6852 8.91181 15.6165 9.52329 15.479 10.095C15.3487 10.6594 15.1569 11.1913 14.9037 11.6906C14.6504 12.19 14.3392 12.6603 13.9701 13.1018C13.6083 13.536 13.1958 13.9521 12.7327 14.3501C12.3926 14.6323 12.0452 14.8783 11.6906 15.0882C11.336 15.2908 10.9561 15.4609 10.5509 15.5984C10.1529 15.7359 9.72592 15.8372 9.27001 15.9023C8.81411 15.9674 8.31479 16 7.77205 16ZM2.83311 8.17368C2.83311 8.52103 2.8512 8.87562 2.88738 9.23745C2.92356 9.59204 2.98146 9.94663 3.06106 10.3012C3.14066 10.6486 3.24197 10.9851 3.36499 11.3107C3.49525 11.6364 3.65084 11.9403 3.83175 12.2225C4.06332 12.6061 4.32022 12.9824 4.60244 13.3514C4.8919 13.7133 5.21031 14.0425 5.55767 14.3392C5.91226 14.6287 6.29941 14.8639 6.71913 15.0448C7.14609 15.2185 7.60923 15.3053 8.10855 15.3053C8.57892 15.3053 9.03483 15.1931 9.47626 14.9688C9.91768 14.7372 10.3265 14.4369 10.7028 14.0678C11.0791 13.6915 11.4156 13.2682 11.7123 12.7978C12.0163 12.3275 12.2623 11.8498 12.4505 11.365C12.4722 11.2926 12.5156 11.1624 12.5807 10.9742C12.6531 10.7788 12.7255 10.5436 12.7978 10.2687C12.8702 9.99367 12.9317 9.6825 12.9824 9.33514C13.0403 8.98779 13.0692 8.61872 13.0692 8.22795C13.0692 7.8806 13.0403 7.5043 12.9824 7.09905C12.9317 6.6938 12.8485 6.2777 12.7327 5.85075C12.6242 5.41655 12.4867 4.98236 12.3202 4.54817C12.1538 4.11398 11.9584 3.69787 11.7341 3.29986C11.5387 2.95975 11.3107 2.62687 11.0502 2.30122C10.7897 1.96834 10.493 1.67526 10.1601 1.42198C9.83446 1.16147 9.47264 0.955224 9.07463 0.803256C8.67662 0.644052 8.24242 0.564451 7.77205 0.564451C7.32338 0.564451 6.89643 0.658526 6.49118 0.846676C6.08593 1.03483 5.71687 1.27001 5.38399 1.55224C5.05111 1.82723 4.75803 2.12393 4.50475 2.44233C4.25871 2.75351 4.0597 3.03935 3.90773 3.29986C3.79195 3.50249 3.66893 3.75577 3.53867 4.0597C3.41565 4.36364 3.29986 4.71823 3.19132 5.12347C3.09 5.52872 3.00317 5.98824 2.9308 6.50204C2.86567 7.00859 2.83311 7.56581 2.83311 8.17368Z" fill="url(#paint0_linear_26_2)"/>
<path d="M28.0271 15.7395C28.0127 15.7395 27.9837 15.7395 27.9403 15.7395C27.8969 15.7467 27.8462 15.7503 27.7883 15.7503C27.7377 15.7576 27.6906 15.7612 27.6472 15.7612C27.6038 15.7684 27.5749 15.772 27.5604 15.772C27.4808 15.772 27.4156 15.7467 27.365 15.6961C27.3216 15.6382 27.2999 15.5694 27.2999 15.4898C27.2999 15.3668 27.3397 15.2872 27.4193 15.251C27.5061 15.2148 27.6219 15.1967 27.7666 15.1967C27.8679 15.1967 27.9801 15.204 28.1031 15.2185C28.2261 15.2257 28.3383 15.2293 28.4396 15.2293C28.5626 15.2293 28.6676 15.2148 28.7544 15.1859C28.8485 15.1569 28.8991 15.0846 28.9064 14.9688V7.30529C28.8991 7.21845 28.8811 7.17503 28.8521 7.17503C28.8087 7.17503 28.7218 7.31976 28.5916 7.60923C28.5409 7.71777 28.4794 7.8408 28.4071 7.97829C28.3347 8.11578 28.2623 8.25328 28.19 8.39077C28.1248 8.52827 28.0597 8.66214 27.9946 8.7924C27.9294 8.91542 27.8788 9.02035 27.8426 9.10719C27.4374 9.96834 27.0538 10.8186 26.692 11.6581C26.3302 12.4903 25.9249 13.3225 25.4763 14.1547C25.4545 14.1909 25.4147 14.2632 25.3569 14.3718C25.3062 14.4731 25.2519 14.5853 25.194 14.7083C25.1361 14.8313 25.0746 14.9579 25.0095 15.0882C24.9516 15.2112 24.9046 15.3161 24.8684 15.403C24.825 15.4826 24.7888 15.5332 24.7598 15.555C24.7309 15.5767 24.6983 15.5875 24.6621 15.5875C24.597 15.5875 24.5246 15.526 24.445 15.403C24.4089 15.3596 24.3654 15.2981 24.3148 15.2185C24.2714 15.1389 24.199 15.005 24.0977 14.8168C24.0036 14.6287 23.8734 14.3718 23.7069 14.0461C23.5405 13.7133 23.3234 13.2754 23.0556 12.7327C22.7879 12.1827 22.455 11.5061 22.057 10.7028C21.6662 9.89959 21.1958 8.93713 20.6459 7.81547C20.5446 7.64903 20.4577 7.48621 20.3853 7.327C20.313 7.16056 20.2008 7.01583 20.0488 6.89281C19.9837 7.43555 19.9403 7.96382 19.9186 8.47761C19.8969 8.98417 19.8716 9.50158 19.8426 10.0299C19.8064 10.645 19.7702 11.2637 19.7341 11.886C19.7051 12.5011 19.6906 13.1162 19.6906 13.7313C19.6906 13.8471 19.6943 13.9701 19.7015 14.1004C19.7087 14.2307 19.7304 14.3537 19.7666 14.4695C19.8028 14.5853 19.8535 14.6902 19.9186 14.7843C19.991 14.8711 20.0886 14.9326 20.2117 14.9688L21.46 15.2293C21.4962 15.2438 21.5179 15.2763 21.5251 15.327C21.5323 15.3704 21.536 15.4066 21.536 15.4355C21.536 15.5948 21.4636 15.6816 21.3189 15.6961H20.7761C20.4867 15.6961 20.2081 15.6888 19.9403 15.6744C19.6725 15.6526 19.4012 15.6418 19.1262 15.6418C18.8295 15.6418 18.5364 15.6526 18.2469 15.6744C17.9647 15.6888 17.6753 15.6961 17.3786 15.6961H17.0963C17.0602 15.6816 17.0421 15.6454 17.0421 15.5875C17.0421 15.4573 17.1072 15.3523 17.2374 15.2727C17.3677 15.1931 17.5197 15.1244 17.6934 15.0665C17.8743 15.0014 18.0516 14.9398 18.2252 14.882C18.3989 14.8168 18.5292 14.7336 18.616 14.6323C18.6956 14.531 18.7607 14.3537 18.8114 14.1004C18.8693 13.8471 18.9127 13.5649 18.9417 13.2537C18.9561 13.0801 18.9742 12.863 18.9959 12.6024C19.0176 12.3419 19.043 12.0127 19.0719 11.6147C19.1081 11.2166 19.1479 10.7427 19.1913 10.1927C19.2347 9.6427 19.289 8.99141 19.3541 8.23881C19.3831 8.02895 19.4229 7.73948 19.4735 7.37042C19.5314 6.99412 19.5604 6.55993 19.5604 6.06784C19.5604 5.91588 19.4808 5.80371 19.3216 5.73134C19.1696 5.65174 18.9959 5.59023 18.8005 5.54681C18.6124 5.49616 18.4387 5.4455 18.2795 5.39484C18.1275 5.33695 18.0516 5.25373 18.0516 5.14518C18.0516 5.07282 18.0769 5.01493 18.1275 4.97151C18.1854 4.92809 18.2506 4.89914 18.3229 4.88467C18.4025 4.86296 18.4821 4.8521 18.5617 4.8521C18.6413 4.84487 18.7101 4.84125 18.768 4.84125C18.7897 4.84125 18.844 4.84848 18.9308 4.86296C19.0249 4.87743 19.1226 4.8919 19.2239 4.90638C19.3324 4.92085 19.4301 4.93532 19.517 4.9498C19.611 4.96427 19.6689 4.97151 19.6906 4.97151H21.0475C21.1922 5.00769 21.3008 5.06558 21.3731 5.14518C21.4527 5.21755 21.5179 5.31162 21.5685 5.42741C21.5975 5.49977 21.63 5.57938 21.6662 5.66621C21.7096 5.74582 21.7567 5.84351 21.8073 5.95929C21.8652 6.06784 21.9303 6.20172 22.0027 6.36092C22.0823 6.52013 22.1764 6.70828 22.2849 6.92537C22.4586 7.2872 22.6359 7.6635 22.8168 8.05427C22.9977 8.44505 23.1787 8.83582 23.3596 9.22659C23.5405 9.61737 23.7178 10.0081 23.8915 10.3989C24.0651 10.7825 24.2352 11.1515 24.4016 11.5061C24.4161 11.5423 24.4487 11.6255 24.4993 11.7558C24.55 11.886 24.6115 12.0308 24.6839 12.19C24.7562 12.3419 24.8286 12.4939 24.9009 12.6459C24.9806 12.7906 25.0529 12.8991 25.118 12.9715C25.1687 13.0366 25.2194 13.0692 25.27 13.0692C25.3134 13.0692 25.3641 13.0258 25.422 12.9389C25.545 12.6712 25.6861 12.3636 25.8453 12.0163C26.0118 11.6617 26.1854 11.289 26.3664 10.8982C26.5473 10.5002 26.7318 10.095 26.9199 9.6825C27.1153 9.27001 27.3035 8.86839 27.4844 8.47761C27.6725 8.0796 27.8498 7.7033 28.0163 7.34871C28.19 6.99412 28.3455 6.67933 28.483 6.40434C28.512 6.34645 28.5445 6.24514 28.5807 6.10041C28.6242 5.94844 28.6712 5.79647 28.7218 5.64451C28.7797 5.4853 28.8412 5.34781 28.9064 5.23202C28.9715 5.109 29.0403 5.04749 29.1126 5.04749H31.4464C31.4971 5.04749 31.555 5.03664 31.6201 5.01493C31.6924 4.98598 31.7467 4.97151 31.7829 4.97151C31.8697 4.97151 31.9711 4.98236 32.0868 5.00407C32.2026 5.01854 32.2786 5.07644 32.3148 5.17775C32.3365 5.25011 32.3148 5.30439 32.2497 5.34057C32.1845 5.36952 32.0977 5.39484 31.9891 5.41655C31.8806 5.43103 31.7576 5.44912 31.6201 5.47083C31.4898 5.49254 31.3632 5.52872 31.2402 5.57938C31.1244 5.63003 31.0267 5.70602 30.9471 5.80733C30.8675 5.90864 30.8277 6.04613 30.8277 6.21981V15.0231C30.8277 15.1027 30.8458 15.1533 30.882 15.175C30.9688 15.1967 31.0773 15.2148 31.2076 15.2293C31.3379 15.2438 31.4717 15.2619 31.6092 15.2836C31.7467 15.2981 31.8842 15.3198 32.0217 15.3487C32.1592 15.3704 32.2786 15.3994 32.3799 15.4355C32.4161 15.4645 32.4487 15.5007 32.4776 15.5441C32.5066 15.5803 32.521 15.6128 32.521 15.6418C32.521 15.6852 32.5029 15.7214 32.4668 15.7503C32.4306 15.7793 32.3872 15.801 32.3365 15.8155C32.2931 15.8372 32.2424 15.8517 32.1845 15.8589C32.1339 15.8661 32.0941 15.8697 32.0651 15.8697C31.5875 15.8697 31.1099 15.848 30.6323 15.8046C30.1619 15.7612 29.6879 15.7395 29.2103 15.7395H28.0271Z" fill="url(#paint1_linear_26_2)"/>
<path d="M37.7639 10.2904L39.6201 10.2144C39.9095 10.1927 40.1303 10.1239 40.2822 10.0081C40.4342 9.88512 40.5464 9.74039 40.6187 9.57395C40.6983 9.40027 40.7562 9.21212 40.7924 9.0095C40.8358 8.80687 40.8973 8.60787 40.9769 8.41248C40.9986 8.32564 41.0348 8.28223 41.0855 8.28223C41.1868 8.28223 41.2374 8.30755 41.2374 8.35821V8.7924C41.2374 9.08186 41.223 9.39665 41.194 9.73677C41.1723 10.0697 41.1615 10.3555 41.1615 10.5943C41.1615 10.8259 41.1796 11.0719 41.2157 11.3324C41.2592 11.5929 41.2809 11.8607 41.2809 12.1357C41.2809 12.1719 41.2773 12.2298 41.27 12.3094C41.2628 12.389 41.2519 12.4722 41.2374 12.559C41.223 12.6459 41.2013 12.7218 41.1723 12.787C41.1506 12.8521 41.118 12.8847 41.0746 12.8847C40.995 12.8847 40.9444 12.8485 40.9227 12.7761C40.9082 12.6965 40.8937 12.6242 40.8792 12.559C40.8648 12.4722 40.8394 12.3673 40.8033 12.2442C40.7671 12.1212 40.7273 11.9982 40.6839 11.8752C40.6404 11.7449 40.6006 11.6291 40.5644 11.5278C40.5283 11.4265 40.5029 11.3578 40.4885 11.3216C40.4233 11.1913 40.2967 11.09 40.1085 11.0176C39.9204 10.938 39.7069 10.8801 39.4681 10.844C39.2365 10.8005 38.9941 10.7752 38.7408 10.768C38.4948 10.7535 38.2777 10.7463 38.0896 10.7463H37.7639C37.6481 10.7463 37.5758 10.7716 37.5468 10.8223C37.5179 10.8657 37.5034 10.938 37.5034 11.0393V14.8494C37.5034 15.0665 37.5721 15.204 37.7096 15.2619H41.0095C41.1542 15.2619 41.3026 15.2619 41.4545 15.2619C41.6138 15.2546 41.7187 15.2365 41.7693 15.2076C41.8779 15.1787 41.9683 15.1171 42.0407 15.0231C42.1203 14.9218 42.1854 14.8277 42.2361 14.7408C42.2578 14.7047 42.2976 14.6287 42.3555 14.5129C42.4206 14.3971 42.4858 14.2741 42.5509 14.1438C42.6232 14.0063 42.6884 13.8797 42.7463 13.7639C42.8114 13.6481 42.8584 13.5721 42.8874 13.536C42.9308 13.4491 43.0032 13.4057 43.1045 13.4057C43.1696 13.4057 43.2166 13.431 43.2456 13.4817V15.0991C43.2456 15.1642 43.2384 15.2257 43.2239 15.2836C43.2166 15.3342 43.2058 15.3994 43.1913 15.479C43.1624 15.5803 43.1262 15.649 43.0828 15.6852C43.0393 15.7142 42.9561 15.7431 42.8331 15.772C42.1022 15.772 41.4075 15.7684 40.749 15.7612C40.0977 15.754 39.4355 15.7467 38.7626 15.7395C38.0896 15.7395 37.3804 15.7359 36.635 15.7286C35.8896 15.7214 35.0574 15.7178 34.1384 15.7178C34.0154 15.7178 33.9539 15.6563 33.9539 15.5332C33.9539 15.4536 33.9937 15.3921 34.0733 15.3487C34.1529 15.3053 34.2252 15.2763 34.2904 15.2619C34.3338 15.2619 34.4025 15.2583 34.4966 15.251C34.5979 15.2438 34.7065 15.2402 34.8223 15.2402C34.938 15.2329 35.0502 15.2257 35.1588 15.2185C35.2673 15.2112 35.3614 15.2076 35.441 15.2076C35.6147 15.2076 35.7015 15.0701 35.7015 14.7951V6.78426C35.7015 6.66124 35.687 6.50927 35.6581 6.32836C35.6364 6.14744 35.5893 5.99548 35.517 5.87246C35.4663 5.83627 35.441 5.81818 35.441 5.81818L33.9213 5.66621C33.7838 5.66621 33.7151 5.59747 33.7151 5.45997C33.7151 5.42379 33.7223 5.38037 33.7368 5.32972C33.7512 5.27182 33.7983 5.24288 33.8779 5.24288H35.6581C36.3528 5.24288 37.0366 5.23926 37.7096 5.23202C38.3826 5.22479 39.0014 5.22117 39.5658 5.22117H41.1072C41.223 5.22117 41.3424 5.22479 41.4654 5.23202C41.5957 5.23202 41.7187 5.23564 41.8345 5.24288C41.9502 5.24288 42.0552 5.24649 42.1493 5.25373C42.2433 5.25373 42.3157 5.25373 42.3664 5.25373C42.417 5.26097 42.4568 5.2863 42.4858 5.32972C42.5147 5.37313 42.5328 5.42741 42.54 5.49254C42.5545 5.55043 42.5617 5.61194 42.5617 5.67707C42.569 5.73496 42.5726 5.782 42.5726 5.81818V7.58752C42.5726 7.65265 42.5473 7.68521 42.4966 7.68521C42.417 7.68521 42.3555 7.63455 42.3121 7.53324C42.2759 7.4247 42.218 7.29806 42.1384 7.15332C42.0733 6.99412 41.9937 6.83492 41.8996 6.67571C41.8055 6.51651 41.7368 6.39349 41.6934 6.30665C41.6282 6.18363 41.5269 6.08955 41.3894 6.02442C41.2592 5.95206 41.1108 5.89778 40.9444 5.8616C40.7779 5.81818 40.6079 5.78562 40.4342 5.76391C40.2605 5.7422 40.1085 5.71687 39.9783 5.68792C39.9349 5.68792 39.8227 5.68431 39.6418 5.67707C39.4609 5.66983 39.2546 5.66621 39.0231 5.66621C38.7987 5.65898 38.5744 5.65174 38.3501 5.64451C38.133 5.63727 37.9629 5.63365 37.8399 5.63365C37.6879 5.63365 37.5938 5.67707 37.5577 5.76391C37.5215 5.85075 37.5034 5.981 37.5034 6.15468V10.0299C37.5034 10.095 37.5251 10.1565 37.5685 10.2144C37.6192 10.265 37.6843 10.2904 37.7639 10.2904Z" fill="url(#paint2_linear_26_2)"/>
<path d="M44.7436 10.4423C44.7436 10.0443 44.7906 9.65717 44.8847 9.28087C44.986 8.89733 45.1199 8.53912 45.2863 8.20624C45.46 7.86612 45.6626 7.55495 45.8942 7.27273C46.1257 6.9905 46.3754 6.74446 46.6432 6.5346C46.8892 6.34645 47.1678 6.17277 47.479 6.01357C47.7901 5.84713 48.123 5.7024 48.4776 5.57938C48.8394 5.45635 49.2194 5.35866 49.6174 5.2863C50.0154 5.21393 50.4206 5.17775 50.8331 5.17775C51.3252 5.17775 51.7847 5.22117 52.2117 5.30801C52.6459 5.39484 53.0873 5.54681 53.536 5.76391C53.6156 5.81456 53.6915 5.83989 53.7639 5.83989C53.829 5.81818 53.8905 5.76753 53.9484 5.68792L54.133 5.53596C54.1836 5.49977 54.227 5.48168 54.2632 5.48168C54.4369 5.48168 54.5237 5.59023 54.5237 5.80733V6.74084C54.5237 6.84215 54.5418 6.9507 54.578 7.06649C54.6214 7.17503 54.6504 7.29082 54.6649 7.41384C54.6721 7.44279 54.6757 7.50792 54.6757 7.60923V8.22795C54.6757 8.27137 54.6468 8.30393 54.5889 8.32564C54.531 8.34735 54.4876 8.35821 54.4586 8.35821C54.2994 8.35821 54.209 8.30755 54.1872 8.20624C54.0498 7.84441 53.8833 7.50791 53.6879 7.19674C53.4925 6.88557 53.2646 6.6142 53.0041 6.38263C52.7436 6.15106 52.4432 5.97015 52.1031 5.83989C51.7702 5.7024 51.3939 5.63365 50.9742 5.63365C50.4532 5.63365 50.0045 5.70602 49.6282 5.85075C49.2592 5.98824 48.901 6.20534 48.5536 6.50204C48.4378 6.58887 48.3329 6.67571 48.2388 6.76255C48.152 6.84215 48.0687 6.93261 47.9891 7.03392C47.9095 7.13523 47.8299 7.2474 47.7503 7.37042C47.678 7.49344 47.602 7.64179 47.5224 7.81547C47.327 8.19177 47.1787 8.59702 47.0773 9.03121C46.976 9.45816 46.9254 9.85979 46.9254 10.2361C46.9254 10.5111 46.929 10.7607 46.9362 10.9851C46.9507 11.2094 46.9796 11.4337 47.0231 11.6581C47.0665 11.8752 47.1352 12.1031 47.2293 12.3419C47.3234 12.5735 47.4536 12.8412 47.6201 13.1452C47.9457 13.7892 48.3799 14.2994 48.9227 14.6757C49.4654 15.0448 50.0769 15.2293 50.7571 15.2293C50.9742 15.2293 51.166 15.2221 51.3324 15.2076C51.4989 15.1859 51.6508 15.1497 51.7883 15.0991C51.9258 15.0484 52.0561 14.976 52.1791 14.882C52.3094 14.7806 52.4469 14.6468 52.5916 14.4803C52.6061 14.4659 52.6278 14.4297 52.6567 14.3718C52.6929 14.3139 52.711 14.2668 52.711 14.2307L52.8195 11.6472C52.8195 11.5604 52.7834 11.4808 52.711 11.4084C52.6386 11.3288 52.5626 11.2709 52.483 11.2347C52.4179 11.213 52.3021 11.1841 52.1357 11.1479C51.9765 11.1117 51.8137 11.0755 51.6472 11.0393C51.488 10.9959 51.3505 10.9561 51.2347 10.9199C51.119 10.8765 51.0792 10.8367 51.1153 10.8005C51.1153 10.7209 51.1407 10.6811 51.1913 10.6811H55.5984C55.7793 10.6811 55.8878 10.7137 55.924 10.7788C55.9674 10.844 55.9891 10.8946 55.9891 10.9308C55.9891 10.9959 55.9493 11.043 55.8697 11.0719C55.7974 11.1009 55.7033 11.1262 55.5875 11.1479C55.479 11.1624 55.3596 11.1768 55.2293 11.1913C55.1063 11.1986 54.9977 11.213 54.9037 11.2347C54.6938 11.2709 54.5889 11.3578 54.5889 11.4953V14.2198C54.5889 14.2705 54.6323 14.2958 54.7191 14.2958C54.7987 14.2958 54.8783 14.2777 54.9579 14.2415C55.0448 14.1981 55.1461 14.1764 55.2619 14.1764H55.3921C55.45 14.1764 55.4934 14.1909 55.5224 14.2198C55.602 14.2777 55.6418 14.3247 55.6418 14.3609C55.6418 14.4333 55.602 14.4876 55.5224 14.5237C55.45 14.5599 55.3813 14.5961 55.3161 14.6323C54.8458 14.806 54.3899 14.9616 53.9484 15.0991C53.5142 15.2293 53.0837 15.3415 52.6567 15.4355C52.237 15.5296 51.8173 15.602 51.3976 15.6526C50.9778 15.6961 50.5509 15.7178 50.1167 15.7178C49.8489 15.7178 49.5703 15.6961 49.2809 15.6526C48.9986 15.602 48.72 15.5369 48.445 15.4573C48.1701 15.3777 47.9059 15.2836 47.6526 15.175C47.4066 15.0665 47.1823 14.9471 46.9796 14.8168C46.7047 14.6287 46.4333 14.3754 46.1655 14.057C45.905 13.7386 45.6662 13.384 45.4491 12.9932C45.2393 12.6024 45.0692 12.19 44.9389 11.7558C44.8087 11.3143 44.7436 10.8765 44.7436 10.4423Z" fill="url(#paint3_linear_26_2)"/>
<path d="M56.3582 15.4138C56.3582 15.3849 56.3799 15.3415 56.4233 15.2836C56.4595 15.2257 56.5174 15.1967 56.597 15.1967C56.7128 15.1967 56.8358 15.1787 56.9661 15.1425C57.1036 15.1063 57.2338 15.052 57.3569 14.9796C57.4871 14.9 57.6065 14.8024 57.7151 14.6866C57.8308 14.5635 57.9285 14.4188 58.0081 14.2524L60.8847 7.43555C60.8919 7.42108 60.9064 7.38851 60.9281 7.33786C60.957 7.27996 60.9715 7.23293 60.9715 7.19674C60.9715 7.11714 60.9534 7.03754 60.9172 6.95794C60.881 6.87834 60.8376 6.80597 60.787 6.74084C60.7436 6.66848 60.7038 6.60697 60.6676 6.55631C60.6314 6.49842 60.6133 6.44776 60.6133 6.40434C60.6133 6.33198 60.6386 6.27408 60.6893 6.23066C60.7399 6.18725 60.7978 6.15468 60.863 6.13297C60.9353 6.10403 61.0113 6.08593 61.0909 6.0787C61.1705 6.07146 61.2393 6.06061 61.2972 6.04613C61.3623 6.01719 61.4346 5.97015 61.5142 5.90502C61.5938 5.83265 61.659 5.77476 61.7096 5.73134C61.7313 5.69516 61.7494 5.64812 61.7639 5.59023C61.7784 5.53234 61.7929 5.47806 61.8073 5.42741C61.829 5.37675 61.8544 5.33333 61.8833 5.29715C61.9195 5.26097 61.9665 5.24288 62.0244 5.24288C62.1692 5.24288 62.256 5.30439 62.2849 5.42741L65.3894 14.7191C65.4328 14.8566 65.4799 14.9652 65.5305 15.0448C65.5884 15.1171 65.6572 15.1714 65.7368 15.2076C65.8164 15.2438 65.9032 15.2655 65.9973 15.2727C66.0986 15.28 66.2144 15.2836 66.3446 15.2836H66.7354C66.8005 15.2836 66.8512 15.2908 66.8874 15.3053C66.9236 15.3053 66.9634 15.3306 67.0068 15.3813C67.0574 15.4319 67.0828 15.4754 67.0828 15.5115C67.0828 15.6273 67.0176 15.6888 66.8874 15.6961C66.8729 15.7105 66.8223 15.7178 66.7354 15.7178H66.1167C65.9068 15.7178 65.6644 15.7069 65.3894 15.6852C65.1144 15.6563 64.8394 15.6418 64.5645 15.6418C64.1158 15.6418 63.6816 15.6563 63.2619 15.6852C62.8422 15.7069 62.4695 15.7178 62.1438 15.7178C62.1076 15.7178 62.0678 15.7105 62.0244 15.6961C61.9882 15.6816 61.9701 15.6526 61.9701 15.6092C61.9701 15.5658 61.9882 15.5224 62.0244 15.479C62.0606 15.4355 62.104 15.3957 62.1547 15.3596C62.2053 15.3161 62.2596 15.2836 62.3175 15.2619C62.3826 15.2402 62.4405 15.2293 62.4912 15.2293C62.5635 15.2293 62.6359 15.2329 62.7083 15.2402C62.7806 15.2474 62.8602 15.251 62.9471 15.251C63.1787 15.251 63.3668 15.2257 63.5115 15.175C63.6346 15.1316 63.6961 15.0448 63.6961 14.9145C63.6961 14.9 63.6924 14.882 63.6852 14.8602C63.678 14.8385 63.6707 14.806 63.6635 14.7626C63.6346 14.6974 63.5875 14.578 63.5224 14.4043C63.4573 14.2234 63.3885 14.028 63.3161 13.8182C63.2438 13.6083 63.1714 13.4057 63.0991 13.2103C63.0339 13.0149 62.9833 12.863 62.9471 12.7544C62.9181 12.6893 62.8856 12.6278 62.8494 12.5699C62.8204 12.5047 62.7662 12.4722 62.6866 12.4722H59.6364C59.4555 12.4722 59.3397 12.559 59.289 12.7327L58.8548 14.3066C58.8403 14.3573 58.8295 14.4007 58.8223 14.4369C58.815 14.4731 58.8114 14.5237 58.8114 14.5889C58.8114 14.7047 58.8186 14.7987 58.8331 14.8711C58.8548 14.9362 58.8838 14.9905 58.9199 15.0339C58.9634 15.0773 59.0176 15.1099 59.0828 15.1316C59.1551 15.1461 59.2456 15.1606 59.3541 15.175C59.3903 15.175 59.4482 15.1823 59.5278 15.1967C59.6147 15.204 59.7051 15.2148 59.7992 15.2293C59.8933 15.2438 59.9801 15.2583 60.0597 15.2727C60.1465 15.28 60.2081 15.2836 60.2442 15.2836C60.2804 15.2981 60.3311 15.3342 60.3962 15.3921C60.4686 15.4428 60.5047 15.5007 60.5047 15.5658C60.5047 15.602 60.4903 15.6382 60.4613 15.6744C60.4324 15.7033 60.3781 15.7178 60.2985 15.7178H59.962C59.8462 15.7178 59.687 15.7142 59.4844 15.7069C59.289 15.6997 59.09 15.6961 58.8874 15.6961C58.692 15.6961 58.4568 15.6997 58.1818 15.7069C57.9068 15.7142 57.6246 15.7178 57.3351 15.7178C57.299 15.7178 57.2266 15.7142 57.118 15.7069C57.0095 15.6924 56.8973 15.6744 56.7815 15.6526C56.673 15.6237 56.5753 15.5911 56.4885 15.555C56.4016 15.5115 56.3582 15.4645 56.3582 15.4138ZM59.7123 11.5061C59.7051 11.5206 59.7015 11.5604 59.7015 11.6255V11.6798C59.7015 11.7594 59.7232 11.8281 59.7666 11.886C59.8173 11.9367 59.8824 11.962 59.962 11.962C60.4034 11.962 60.8195 11.9801 61.2103 12.0163C61.6083 12.0452 61.9919 12.0597 62.3609 12.0597C62.4405 12.0597 62.502 12.038 62.5455 11.9946C62.5889 11.9439 62.6106 11.8969 62.6106 11.8535V11.7341C62.6106 11.7196 62.607 11.7051 62.5997 11.6906C62.5853 11.6689 62.5744 11.6327 62.5672 11.5821L61.4057 8.28223C61.3478 8.13026 61.2791 8.05427 61.1995 8.05427C61.1633 8.05427 61.1235 8.06875 61.0801 8.09769C61.0366 8.12664 61.0077 8.15559 60.9932 8.18453L59.7123 11.5061Z" fill="url(#paint4_linear_26_2)"/>
<path d="M75.0502 15.6201C74.6594 15.6201 74.2868 15.6382 73.9322 15.6744C73.5776 15.7033 73.1868 15.7178 72.7598 15.7178H72.3256C72.2605 15.7178 72.2135 15.678 72.1845 15.5984C72.1556 15.5115 72.1411 15.4464 72.1411 15.403C72.1411 15.3306 72.1484 15.2691 72.1628 15.2185C72.1845 15.1606 72.2207 15.128 72.2714 15.1208C72.351 15.0991 72.445 15.081 72.5536 15.0665C72.6621 15.052 72.7743 15.0412 72.8901 15.0339C73.0059 15.0194 73.1144 15.0122 73.2157 15.0122C73.3243 15.005 73.4184 15.0014 73.498 15.0014C73.6716 15.0014 73.8381 14.9616 73.9973 14.882C74.1637 14.8024 74.2976 14.7047 74.3989 14.5889C74.4713 14.4948 74.5328 14.4043 74.5835 14.3175C74.6341 14.2234 74.6775 14.0968 74.7137 13.9376C74.7571 13.7784 74.7897 13.5721 74.8114 13.3189C74.8403 13.0656 74.8693 12.7327 74.8982 12.3202L75.4084 3.00678C75.4084 2.78245 75.3831 2.55812 75.3324 2.33379C75.2818 2.10222 75.1986 1.88874 75.0828 1.69335C74.9742 1.49073 74.8295 1.31705 74.6486 1.17232C74.4677 1.02759 74.247 0.926278 73.9864 0.868385C73.9647 0.861149 73.9068 0.853912 73.8128 0.846676C73.7187 0.832203 73.6174 0.81773 73.5088 0.803256C73.4003 0.788783 73.299 0.777929 73.2049 0.770692C73.1108 0.756219 73.0493 0.748982 73.0204 0.748982C72.8756 0.720036 72.7598 0.69109 72.673 0.662144C72.5934 0.633198 72.5536 0.542741 72.5536 0.390773C72.5536 0.325645 72.5572 0.264134 72.5645 0.206242C72.5717 0.141113 72.6006 0.108548 72.6513 0.108548H73.0963C73.2845 0.108548 73.4582 0.115785 73.6174 0.130258C73.7838 0.144731 73.9503 0.162822 74.1167 0.184532C74.2831 0.206242 74.4568 0.224333 74.6377 0.238806C74.8259 0.253279 75.0321 0.260516 75.2564 0.260516H76.2877C76.4107 0.260516 76.5228 0.253279 76.6242 0.238806C76.7327 0.217096 76.8738 0.206242 77.0475 0.206242C77.1778 0.206242 77.3152 0.224333 77.46 0.260516C77.6047 0.289462 77.7096 0.354591 77.7748 0.455902C77.8978 0.600633 78.0027 0.763455 78.0896 0.944369C78.1764 1.11805 78.2524 1.30258 78.3175 1.49796L81.9647 11.0936C81.9937 11.166 82.0226 11.2275 82.0516 11.2782C82.0805 11.3216 82.1131 11.3433 82.1493 11.3433C82.1999 11.3433 82.2397 11.3143 82.2687 11.2564C82.2976 11.1986 82.3193 11.1443 82.3338 11.0936L86.4369 0.336499C86.4803 0.256897 86.5418 0.206242 86.6214 0.184532C86.7083 0.162822 86.8024 0.151967 86.9037 0.151967C87.2655 0.151967 87.6128 0.144731 87.9457 0.130258C88.2858 0.115785 88.6223 0.0976934 88.9552 0.0759837C89.2953 0.0542741 89.6355 0.0361827 89.9756 0.0217096C90.3229 0.00723654 90.6884 0 91.0719 0C91.0936 0 91.1226 0 91.1588 0C91.2022 0 91.242 0.00723654 91.2782 0.0217096C91.3216 0.0289462 91.3578 0.0434193 91.3867 0.0651289C91.4156 0.0868385 91.4301 0.115785 91.4301 0.151967C91.4301 0.253279 91.3867 0.358209 91.2999 0.466757C91.213 0.568069 91.1045 0.618725 90.9742 0.618725C90.6124 0.618725 90.3121 0.662144 90.0733 0.748982C89.8345 0.835821 89.592 1.01312 89.346 1.28087C89.2375 1.38942 89.1506 1.51244 89.0855 1.64993C89.0204 1.78743 88.9661 1.93578 88.9227 2.09498C88.8865 2.24695 88.8612 2.40615 88.8467 2.57259C88.8394 2.7318 88.8358 2.88738 88.8358 3.03935L89.0095 14.6323C89.0602 14.7843 89.1832 14.8892 89.3786 14.9471C89.5739 15.005 89.791 15.0448 90.0299 15.0665C90.2687 15.081 90.5002 15.0954 90.7246 15.1099C90.9561 15.1171 91.1334 15.1497 91.2564 15.2076C91.3433 15.2438 91.3939 15.2908 91.4084 15.3487C91.4229 15.3994 91.4301 15.4464 91.4301 15.4898C91.4301 15.6056 91.3686 15.678 91.2456 15.7069C91.1298 15.7286 90.9706 15.7395 90.768 15.7395C90.5364 15.7395 90.3193 15.7359 90.1167 15.7286C89.9141 15.7214 89.7114 15.7178 89.5088 15.7178C89.3134 15.7105 89.1072 15.7033 88.8901 15.6961C88.673 15.6888 88.4306 15.6852 88.1628 15.6852H86.502C86.2922 15.6852 86.0896 15.6888 85.8942 15.6961C85.6988 15.6961 85.5034 15.7033 85.308 15.7178C85.0764 15.7395 84.8449 15.7503 84.6133 15.7503C84.5554 15.7503 84.4939 15.7467 84.4288 15.7395C84.3709 15.7395 84.313 15.7286 84.2551 15.7069C84.2044 15.6852 84.161 15.6526 84.1248 15.6092C84.0959 15.5586 84.0814 15.4934 84.0814 15.4138C84.0814 15.2691 84.1719 15.175 84.3528 15.1316C84.5337 15.081 84.7508 15.0556 85.0041 15.0556H85.46C85.6119 15.0556 85.7531 15.052 85.8833 15.0448C86.0208 15.0375 86.1402 15.0158 86.2415 14.9796C86.3428 14.9435 86.4224 14.8928 86.4803 14.8277C86.5455 14.7553 86.578 14.6576 86.578 14.5346L86.4369 3.00678C86.4369 2.9706 86.4297 2.91995 86.4152 2.85482C86.4007 2.78969 86.3754 2.75712 86.3392 2.75712C86.2886 2.75712 86.2488 2.76798 86.2198 2.78969C86.1981 2.80416 86.18 2.81863 86.1655 2.83311L81.3026 15.4898C81.2736 15.6056 81.2302 15.6635 81.1723 15.6635C81.1144 15.6635 81.0638 15.6056 81.0204 15.4898L76.1791 2.72456C76.1574 2.63772 76.114 2.5943 76.0489 2.5943C76.0199 2.5943 75.9946 2.60154 75.9729 2.61601C75.9584 2.63048 75.9512 2.66667 75.9512 2.72456L75.6689 13.0909C75.6689 13.1777 75.6726 13.2935 75.6798 13.4383C75.6943 13.5758 75.7123 13.7205 75.7341 13.8725C75.763 14.0244 75.7956 14.1728 75.8317 14.3175C75.8752 14.4622 75.9294 14.5853 75.9946 14.6866C76.0887 14.8385 76.2298 14.9507 76.4179 15.0231C76.6133 15.0882 76.8195 15.1352 77.0366 15.1642C77.261 15.1859 77.4817 15.2004 77.6988 15.2076C77.9231 15.2148 78.1113 15.2293 78.2632 15.251C78.3501 15.2583 78.408 15.2908 78.4369 15.3487C78.4731 15.4066 78.4912 15.4681 78.4912 15.5332C78.4912 15.5767 78.4659 15.6128 78.4152 15.6418C78.3718 15.6707 78.3139 15.6961 78.2415 15.7178C78.1764 15.7322 78.1004 15.7395 78.0136 15.7395C77.9267 15.7467 77.8471 15.7503 77.7748 15.7503C77.507 15.7503 77.2573 15.7431 77.0258 15.7286C76.7942 15.7142 76.5699 15.6997 76.3528 15.6852C76.1357 15.6707 75.9222 15.6563 75.7123 15.6418C75.5025 15.6273 75.2818 15.6201 75.0502 15.6201Z" fill="url(#paint5_linear_26_2)"/>
<path d="M96.3691 5.91588V14.4261C96.3691 14.4622 96.3727 14.5165 96.3799 14.5889C96.3872 14.6612 96.398 14.7372 96.4125 14.8168C96.4342 14.8892 96.4631 14.9543 96.4993 15.0122C96.5355 15.0701 96.5862 15.0991 96.6513 15.0991H97.8453C97.9249 15.0991 97.9901 15.1316 98.0407 15.1967C98.0986 15.2619 98.1275 15.3342 98.1275 15.4138C98.1275 15.479 98.095 15.5477 98.0299 15.6201C97.9647 15.6852 97.8996 15.7178 97.8345 15.7178H94.4261C94.2813 15.7178 94.1366 15.7214 93.9919 15.7286C93.8471 15.7431 93.6879 15.7503 93.5143 15.7503C93.4129 15.7503 93.3152 15.7467 93.2212 15.7395C93.1271 15.7322 93.0403 15.7178 92.9607 15.6961C92.9172 15.6671 92.8955 15.5984 92.8955 15.4898C92.8955 15.3379 92.9317 15.251 93.0041 15.2293C93.185 15.2004 93.3406 15.1787 93.4708 15.1642C93.6011 15.1425 93.7386 15.1316 93.8833 15.1316C93.9991 15.1316 94.0787 15.1316 94.1221 15.1316C94.1728 15.1244 94.2307 15.1135 94.2958 15.0991C94.3971 15.0556 94.4478 14.9037 94.4478 14.6431V5.99186C94.4478 5.90502 94.4043 5.82904 94.3175 5.76391C94.2379 5.69154 94.1583 5.65536 94.0787 5.65536C93.9123 5.65536 93.782 5.66983 93.6879 5.69878C93.6011 5.72049 93.4853 5.73134 93.3406 5.73134C93.2465 5.73134 93.1524 5.72411 93.0583 5.70963C92.9643 5.68792 92.8702 5.6626 92.7761 5.63365C92.7255 5.61194 92.7001 5.56852 92.7001 5.50339C92.6784 5.40932 92.6857 5.33333 92.7218 5.27544C92.7653 5.21755 92.8232 5.17413 92.8955 5.14518C92.9679 5.109 93.0475 5.08729 93.1343 5.08005C93.2284 5.07282 93.3152 5.0692 93.3948 5.0692H97.3026C97.4907 5.0692 97.6101 5.0692 97.6608 5.0692C97.7114 5.0692 97.744 5.07644 97.7585 5.09091C97.896 5.11262 97.9647 5.19222 97.9647 5.32972C97.9647 5.48168 97.8815 5.57938 97.7151 5.6228C97.5486 5.66621 97.3641 5.69154 97.1615 5.69878C96.9661 5.70602 96.7852 5.72049 96.6187 5.7422C96.4523 5.75667 96.3691 5.81456 96.3691 5.91588Z" fill="url(#paint6_linear_26_2)"/>
<path d="M99.6038 15.5115C99.6038 15.3451 99.6762 15.251 99.8209 15.2293H100.233C100.364 15.2293 100.483 15.2293 100.592 15.2293C100.7 15.2221 100.794 15.2076 100.874 15.1859C100.953 15.1642 101.015 15.128 101.058 15.0773C101.109 15.0267 101.134 14.9579 101.134 14.8711V6.12212C101.134 6.04251 101.102 5.97739 101.037 5.92673C100.972 5.86884 100.899 5.83989 100.82 5.83989H99.8426C99.8064 5.83989 99.763 5.83627 99.7123 5.82904C99.6617 5.8218 99.6038 5.81456 99.5387 5.80733C99.5025 5.79285 99.4699 5.76391 99.441 5.72049C99.4193 5.67707 99.4084 5.63727 99.4084 5.60109C99.4084 5.46359 99.4953 5.39484 99.6689 5.39484H102.339C102.361 5.39484 102.415 5.39123 102.502 5.38399C102.596 5.37675 102.694 5.36952 102.795 5.36228C102.896 5.35504 102.987 5.34781 103.066 5.34057C103.146 5.33333 103.193 5.32972 103.208 5.32972C103.309 5.32248 103.421 5.31524 103.544 5.30801C103.674 5.30077 103.779 5.29715 103.859 5.29715C103.881 5.29715 103.92 5.30077 103.978 5.30801C104.036 5.30801 104.098 5.31162 104.163 5.31886C104.228 5.31886 104.289 5.32248 104.347 5.32972C104.412 5.32972 104.456 5.32972 104.478 5.32972C104.579 5.35142 104.63 5.40932 104.63 5.50339C104.63 5.58299 104.604 5.6626 104.554 5.7422C104.51 5.79285 104.441 5.81818 104.347 5.81818H103.153C103.103 5.81818 103.063 5.84713 103.034 5.90502C103.005 5.95568 102.98 6.02081 102.958 6.10041C102.943 6.17277 102.933 6.24876 102.925 6.32836C102.925 6.40796 102.925 6.47671 102.925 6.5346C102.925 6.9109 102.943 7.2872 102.98 7.6635C103.016 8.03256 103.034 8.4559 103.034 8.93351V14.9254C103.034 14.976 103.045 15.0375 103.066 15.1099C103.095 15.175 103.142 15.2076 103.208 15.2076H106.681C106.877 15.2076 107.061 15.1208 107.235 14.9471C107.408 14.7734 107.568 14.5708 107.712 14.3392C107.864 14.1076 107.995 13.8797 108.103 13.6554C108.219 13.4238 108.313 13.2537 108.385 13.1452C108.429 13.0945 108.472 13.0692 108.516 13.0692C108.552 13.0692 108.584 13.1018 108.613 13.1669C108.642 13.2682 108.657 13.3587 108.657 13.4383C108.664 13.5106 108.668 13.6192 108.668 13.7639C108.668 13.8218 108.657 13.9086 108.635 14.0244C108.621 14.133 108.599 14.2488 108.57 14.3718C108.548 14.4948 108.526 14.6142 108.505 14.73C108.49 14.8385 108.483 14.9254 108.483 14.9905C108.483 15.0267 108.483 15.0773 108.483 15.1425C108.483 15.2004 108.479 15.2619 108.472 15.327C108.472 15.3921 108.469 15.4536 108.461 15.5115C108.454 15.5622 108.443 15.5984 108.429 15.6201C108.327 15.6852 108.237 15.7178 108.157 15.7178C107.253 15.7178 106.287 15.7105 105.259 15.6961C104.232 15.6744 103.208 15.6635 102.187 15.6635C102.006 15.6635 101.818 15.6671 101.623 15.6744C101.427 15.6816 101.239 15.6924 101.058 15.7069C100.877 15.7142 100.704 15.7214 100.537 15.7286C100.378 15.7359 100.241 15.7395 100.125 15.7395C99.9729 15.7395 99.8462 15.7322 99.7449 15.7178C99.6508 15.6961 99.6038 15.6273 99.6038 15.5115Z" fill="url(#paint7_linear_26_2)"/>
<path d="M109.786 15.5115C109.786 15.3451 109.858 15.251 110.003 15.2293H110.415C110.545 15.2293 110.665 15.2293 110.773 15.2293C110.882 15.2221 110.976 15.2076 111.056 15.1859C111.135 15.1642 111.197 15.128 111.24 15.0773C111.291 15.0267 111.316 14.9579 111.316 14.8711V6.12212C111.316 6.04251 111.284 5.97739 111.218 5.92673C111.153 5.86884 111.081 5.83989 111.001 5.83989H110.024C109.988 5.83989 109.945 5.83627 109.894 5.82904C109.844 5.8218 109.786 5.81456 109.72 5.80733C109.684 5.79285 109.652 5.76391 109.623 5.72049C109.601 5.67707 109.59 5.63727 109.59 5.60109C109.59 5.46359 109.677 5.39484 109.851 5.39484H112.521C112.543 5.39484 112.597 5.39123 112.684 5.38399C112.778 5.37675 112.876 5.36952 112.977 5.36228C113.078 5.35504 113.169 5.34781 113.248 5.34057C113.328 5.33333 113.375 5.32972 113.389 5.32972C113.491 5.32248 113.603 5.31524 113.726 5.30801C113.856 5.30077 113.961 5.29715 114.041 5.29715C114.062 5.29715 114.102 5.30077 114.16 5.30801C114.218 5.30801 114.28 5.31162 114.345 5.31886C114.41 5.31886 114.471 5.32248 114.529 5.32972C114.594 5.32972 114.638 5.32972 114.659 5.32972C114.761 5.35142 114.811 5.40932 114.811 5.50339C114.811 5.58299 114.786 5.6626 114.735 5.7422C114.692 5.79285 114.623 5.81818 114.529 5.81818H113.335C113.284 5.81818 113.245 5.84713 113.216 5.90502C113.187 5.95568 113.161 6.02081 113.14 6.10041C113.125 6.17277 113.114 6.24876 113.107 6.32836C113.107 6.40796 113.107 6.47671 113.107 6.5346C113.107 6.9109 113.125 7.2872 113.161 7.6635C113.198 8.03256 113.216 8.4559 113.216 8.93351V14.9254C113.216 14.976 113.227 15.0375 113.248 15.1099C113.277 15.175 113.324 15.2076 113.389 15.2076H116.863C117.058 15.2076 117.243 15.1208 117.417 14.9471C117.59 14.7734 117.749 14.5708 117.894 14.3392C118.046 14.1076 118.176 13.8797 118.285 13.6554C118.401 13.4238 118.495 13.2537 118.567 13.1452C118.611 13.0945 118.654 13.0692 118.697 13.0692C118.734 13.0692 118.766 13.1018 118.795 13.1669C118.824 13.2682 118.839 13.3587 118.839 13.4383C118.846 13.5106 118.849 13.6192 118.849 13.7639C118.849 13.8218 118.839 13.9086 118.817 14.0244C118.802 14.133 118.781 14.2488 118.752 14.3718C118.73 14.4948 118.708 14.6142 118.687 14.73C118.672 14.8385 118.665 14.9254 118.665 14.9905C118.665 15.0267 118.665 15.0773 118.665 15.1425C118.665 15.2004 118.661 15.2619 118.654 15.327C118.654 15.3921 118.65 15.4536 118.643 15.5115C118.636 15.5622 118.625 15.5984 118.611 15.6201C118.509 15.6852 118.419 15.7178 118.339 15.7178C117.435 15.7178 116.469 15.7105 115.441 15.6961C114.413 15.6744 113.389 15.6635 112.369 15.6635C112.188 15.6635 112 15.6671 111.805 15.6744C111.609 15.6816 111.421 15.6924 111.24 15.7069C111.059 15.7142 110.886 15.7214 110.719 15.7286C110.56 15.7359 110.422 15.7395 110.307 15.7395C110.155 15.7395 110.028 15.7322 109.927 15.7178C109.833 15.6961 109.786 15.6273 109.786 15.5115Z" fill="url(#paint8_linear_26_2)"/>
<path d="M123.463 5.91588V14.4261C123.463 14.4622 123.466 14.5165 123.474 14.5889C123.481 14.6612 123.492 14.7372 123.506 14.8168C123.528 14.8892 123.557 14.9543 123.593 15.0122C123.629 15.0701 123.68 15.0991 123.745 15.0991H124.939C125.019 15.0991 125.084 15.1316 125.134 15.1967C125.192 15.2619 125.221 15.3342 125.221 15.4138C125.221 15.479 125.189 15.5477 125.123 15.6201C125.058 15.6852 124.993 15.7178 124.928 15.7178H121.52C121.375 15.7178 121.23 15.7214 121.085 15.7286C120.941 15.7431 120.782 15.7503 120.608 15.7503C120.507 15.7503 120.409 15.7467 120.315 15.7395C120.221 15.7322 120.134 15.7178 120.054 15.6961C120.011 15.6671 119.989 15.5984 119.989 15.4898C119.989 15.3379 120.025 15.251 120.098 15.2293C120.279 15.2004 120.434 15.1787 120.564 15.1642C120.695 15.1425 120.832 15.1316 120.977 15.1316C121.093 15.1316 121.172 15.1316 121.216 15.1316C121.266 15.1244 121.324 15.1135 121.389 15.0991C121.491 15.0556 121.541 14.9037 121.541 14.6431V5.99186C121.541 5.90502 121.498 5.82904 121.411 5.76391C121.332 5.69154 121.252 5.65536 121.172 5.65536C121.006 5.65536 120.876 5.66983 120.782 5.69878C120.695 5.72049 120.579 5.73134 120.434 5.73134C120.34 5.73134 120.246 5.72411 120.152 5.70963C120.058 5.68792 119.964 5.6626 119.87 5.63365C119.819 5.61194 119.794 5.56852 119.794 5.50339C119.772 5.40932 119.779 5.33333 119.815 5.27544C119.859 5.21755 119.917 5.17413 119.989 5.14518C120.062 5.109 120.141 5.08729 120.228 5.08005C120.322 5.07282 120.409 5.0692 120.488 5.0692H124.396C124.584 5.0692 124.704 5.0692 124.754 5.0692C124.805 5.0692 124.838 5.07644 124.852 5.09091C124.99 5.11262 125.058 5.19222 125.058 5.32972C125.058 5.48168 124.975 5.57938 124.809 5.6228C124.642 5.66621 124.458 5.69154 124.255 5.69878C124.06 5.70602 123.879 5.72049 123.712 5.7422C123.546 5.75667 123.463 5.81456 123.463 5.91588Z" fill="url(#paint9_linear_26_2)"/>
<path d="M126.567 10.6052C126.567 10.1782 126.607 9.79105 126.687 9.44369C126.766 9.0891 126.886 8.75984 127.045 8.4559C127.204 8.15197 127.399 7.86612 127.631 7.59837C127.87 7.32338 128.141 7.05563 128.445 6.79512C128.684 6.59249 128.941 6.42605 129.216 6.29579C129.491 6.16554 129.773 6.06422 130.062 5.99186C130.359 5.91226 130.663 5.85798 130.974 5.82904C131.285 5.80009 131.593 5.78562 131.897 5.78562C132.157 5.78562 132.432 5.82542 132.722 5.90502C133.019 5.98462 133.304 6.08955 133.579 6.21981C133.854 6.34283 134.108 6.48033 134.339 6.63229C134.571 6.77702 134.763 6.91814 134.915 7.05563C135.443 7.55495 135.852 8.09769 136.141 8.68385C136.431 9.26278 136.575 9.89959 136.575 10.5943C136.575 10.9706 136.546 11.318 136.488 11.6364C136.438 11.9475 136.358 12.2406 136.25 12.5156C136.148 12.7906 136.018 13.0511 135.859 13.2972C135.707 13.5432 135.53 13.7856 135.327 14.0244C135.139 14.2343 134.915 14.4405 134.654 14.6431C134.401 14.8458 134.118 15.0267 133.807 15.1859C133.496 15.3451 133.16 15.4754 132.798 15.5767C132.443 15.6707 132.074 15.7178 131.691 15.7178C131.032 15.7178 130.424 15.6309 129.867 15.4573C129.317 15.2763 128.803 14.9616 128.326 14.5129C127.153 13.4925 126.567 12.19 126.567 10.6052ZM131.593 6.25237C131.267 6.25237 130.989 6.28856 130.757 6.36092C130.533 6.42605 130.33 6.52374 130.149 6.654C129.976 6.77702 129.816 6.92899 129.672 7.10991C129.527 7.29082 129.379 7.49344 129.227 7.71777C128.952 8.14473 128.771 8.60063 128.684 9.08548C128.597 9.56309 128.554 10.0479 128.554 10.54C128.554 11.1045 128.608 11.6689 128.716 12.2334C128.832 12.7906 129.053 13.3333 129.379 13.8616C129.465 14.0136 129.588 14.1728 129.748 14.3392C129.907 14.4984 130.081 14.6468 130.269 14.7843C130.457 14.9145 130.649 15.0267 130.844 15.1208C131.047 15.2076 131.235 15.251 131.408 15.251C131.749 15.251 132.045 15.1931 132.299 15.0773C132.559 14.9616 132.791 14.8096 132.993 14.6214C133.196 14.4261 133.373 14.2053 133.525 13.9593C133.684 13.706 133.836 13.4455 133.981 13.1777C134.162 12.8232 134.292 12.4432 134.372 12.038C134.459 11.6255 134.502 11.1805 134.502 10.7028C134.502 10.3627 134.477 10.0443 134.426 9.74763C134.383 9.45093 134.31 9.16508 134.209 8.89009C134.115 8.61511 133.995 8.34735 133.851 8.08684C133.706 7.81909 133.536 7.54772 133.341 7.27273C133.145 6.97603 132.896 6.7336 132.592 6.54545C132.295 6.35007 131.962 6.25237 131.593 6.25237Z" fill="url(#paint10_linear_26_2)"/>
<path d="M138.844 15.7178C138.772 15.7178 138.692 15.7142 138.605 15.7069C138.518 15.6997 138.435 15.6852 138.355 15.6635C138.283 15.6346 138.222 15.5948 138.171 15.5441C138.12 15.4934 138.095 15.4247 138.095 15.3379C138.095 15.2727 138.099 15.2148 138.106 15.1642C138.12 15.1135 138.16 15.0737 138.225 15.0448C138.457 15.0086 138.649 14.9833 138.801 14.9688C138.96 14.9543 139.094 14.9218 139.202 14.8711C139.311 14.8204 139.398 14.7336 139.463 14.6106C139.535 14.4803 139.597 14.2849 139.647 14.0244C139.647 13.4093 139.651 12.7761 139.658 12.1248C139.673 11.4735 139.694 10.844 139.723 10.2361C139.738 9.79466 139.774 9.36771 139.832 8.95522C139.897 8.5355 139.929 8.10493 139.929 7.6635C139.929 7.5839 139.926 7.52601 139.919 7.48982C139.911 7.45364 139.89 7.38489 139.853 7.28358C139.832 7.2474 139.788 7.18227 139.723 7.0882C139.658 6.98688 139.586 6.88557 139.506 6.78426C139.427 6.67571 139.347 6.5744 139.267 6.48033C139.195 6.37901 139.141 6.31027 139.104 6.27408C139.032 6.18725 138.927 6.1185 138.79 6.06784C138.652 6.00995 138.515 5.95568 138.377 5.90502C138.247 5.84713 138.131 5.78562 138.03 5.72049C137.936 5.64812 137.889 5.55043 137.889 5.42741C137.889 5.36228 137.91 5.31162 137.954 5.27544C138.005 5.23202 138.062 5.19946 138.128 5.17775C138.2 5.15604 138.269 5.14156 138.334 5.13433C138.406 5.12709 138.464 5.12347 138.507 5.12347C138.522 5.12347 138.551 5.12709 138.594 5.13433C138.638 5.14156 138.685 5.15242 138.735 5.16689C138.786 5.17413 138.833 5.18137 138.877 5.1886C138.92 5.19584 138.953 5.19946 138.974 5.19946H140.125C140.161 5.21393 140.219 5.24649 140.299 5.29715C140.378 5.34057 140.432 5.37675 140.461 5.4057C141.011 6.00633 141.55 6.59611 142.079 7.17503C142.607 7.75396 143.128 8.32564 143.642 8.89009C144.163 9.45455 144.68 10.0154 145.194 10.5726C145.715 11.1298 146.24 11.6943 146.768 12.2659C146.804 12.3021 146.837 12.3347 146.866 12.3636C146.895 12.3853 146.924 12.4071 146.953 12.4288C146.981 12.4432 147.007 12.4505 147.029 12.4505C147.094 12.4505 147.144 12.4215 147.18 12.3636C147.217 12.2985 147.235 12.2587 147.235 12.2442V8.69471C147.235 8.44143 147.228 8.18453 147.213 7.92402C147.206 7.6635 147.191 7.42108 147.17 7.19674C147.148 6.96517 147.119 6.75893 147.083 6.57802C147.047 6.39711 147.003 6.26323 146.953 6.17639C146.851 6.00995 146.696 5.89417 146.486 5.82904C146.276 5.76391 146.066 5.71687 145.856 5.68792C145.646 5.65174 145.462 5.61556 145.303 5.57938C145.151 5.54319 145.075 5.47445 145.075 5.37313C145.075 5.17051 145.194 5.0692 145.433 5.0692H149.547C149.684 5.0692 149.753 5.15242 149.753 5.31886C149.753 5.39123 149.673 5.45274 149.514 5.50339C149.355 5.54681 149.174 5.6047 148.972 5.67707C148.769 5.74943 148.57 5.84351 148.374 5.95929C148.186 6.07508 148.06 6.23428 147.995 6.43691C147.915 6.61782 147.861 6.81321 147.832 7.02307C147.803 7.23293 147.788 7.52239 147.788 7.89145V15.4898C147.788 15.555 147.763 15.6092 147.712 15.6526C147.662 15.6961 147.622 15.7178 147.593 15.7178C147.499 15.7178 147.394 15.649 147.278 15.5115C147.249 15.4754 147.155 15.3704 146.996 15.1967C146.844 15.0231 146.645 14.8024 146.399 14.5346C146.153 14.2668 145.871 13.9629 145.552 13.6228C145.234 13.2827 144.901 12.9245 144.554 12.5482C144.206 12.1719 143.852 11.7883 143.49 11.3976C143.128 11.0068 142.781 10.6305 142.448 10.2687C142.115 9.90683 141.8 9.57033 141.503 9.25916C141.214 8.94075 140.968 8.66938 140.765 8.44505C140.693 8.38716 140.628 8.35821 140.57 8.35821C140.454 8.35821 140.382 8.43057 140.353 8.5753C140.324 8.72004 140.309 8.872 140.309 9.03121C140.309 9.10357 140.309 9.21212 140.309 9.35685C140.317 9.49435 140.324 9.65717 140.331 9.84532C140.338 10.0262 140.346 10.2216 140.353 10.4315C140.367 10.6341 140.378 10.8331 140.385 11.0285C140.393 11.2166 140.396 11.3903 140.396 11.5495C140.403 11.7087 140.407 11.8354 140.407 11.9294V12.4505C140.407 12.6169 140.407 12.8051 140.407 13.0149C140.414 13.2248 140.425 13.431 140.44 13.6336C140.461 13.8363 140.487 14.0208 140.516 14.1872C140.552 14.3537 140.602 14.4803 140.668 14.5672C140.74 14.6829 140.834 14.7662 140.95 14.8168C141.066 14.8675 141.189 14.9037 141.319 14.9254C141.449 14.9398 141.579 14.9507 141.71 14.9579C141.847 14.9579 141.967 14.9688 142.068 14.9905C142.176 15.0122 142.263 15.0556 142.328 15.1208C142.393 15.1787 142.426 15.2727 142.426 15.403C142.426 15.4681 142.419 15.5224 142.404 15.5658C142.397 15.602 142.357 15.6526 142.285 15.7178H138.844Z" fill="url(#paint11_linear_26_2)"/>
<defs>
<linearGradient id="paint0_linear_26_2" x1="3.5" y1="-1.81815e-05" x2="147.5" y2="17" gradientUnits="userSpaceOnUse">
<stop stop-color="#42D392"/>
<stop offset="1" stop-color="#647EFF"/>
</linearGradient>
<linearGradient id="paint1_linear_26_2" x1="3.5" y1="-1.81815e-05" x2="147.5" y2="17" gradientUnits="userSpaceOnUse">
<stop stop-color="#42D392"/>
<stop offset="1" stop-color="#647EFF"/>
</linearGradient>
<linearGradient id="paint2_linear_26_2" x1="3.5" y1="-1.81815e-05" x2="147.5" y2="17" gradientUnits="userSpaceOnUse">
<stop stop-color="#42D392"/>
<stop offset="1" stop-color="#647EFF"/>
</linearGradient>
<linearGradient id="paint3_linear_26_2" x1="3.5" y1="-1.81815e-05" x2="147.5" y2="17" gradientUnits="userSpaceOnUse">
<stop stop-color="#42D392"/>
<stop offset="1" stop-color="#647EFF"/>
</linearGradient>
<linearGradient id="paint4_linear_26_2" x1="3.5" y1="-1.81815e-05" x2="147.5" y2="17" gradientUnits="userSpaceOnUse">
<stop stop-color="#42D392"/>
<stop offset="1" stop-color="#647EFF"/>
</linearGradient>
<linearGradient id="paint5_linear_26_2" x1="3.5" y1="-1.81815e-05" x2="147.5" y2="17" gradientUnits="userSpaceOnUse">
<stop stop-color="#42D392"/>
<stop offset="1" stop-color="#647EFF"/>
</linearGradient>
<linearGradient id="paint6_linear_26_2" x1="3.5" y1="-1.81815e-05" x2="147.5" y2="17" gradientUnits="userSpaceOnUse">
<stop stop-color="#42D392"/>
<stop offset="1" stop-color="#647EFF"/>
</linearGradient>
<linearGradient id="paint7_linear_26_2" x1="3.5" y1="-1.81815e-05" x2="147.5" y2="17" gradientUnits="userSpaceOnUse">
<stop stop-color="#42D392"/>
<stop offset="1" stop-color="#647EFF"/>
</linearGradient>
<linearGradient id="paint8_linear_26_2" x1="3.5" y1="-1.81815e-05" x2="147.5" y2="17" gradientUnits="userSpaceOnUse">
<stop stop-color="#42D392"/>
<stop offset="1" stop-color="#647EFF"/>
</linearGradient>
<linearGradient id="paint9_linear_26_2" x1="3.5" y1="-1.81815e-05" x2="147.5" y2="17" gradientUnits="userSpaceOnUse">
<stop stop-color="#42D392"/>
<stop offset="1" stop-color="#647EFF"/>
</linearGradient>
<linearGradient id="paint10_linear_26_2" x1="3.5" y1="-1.81815e-05" x2="147.5" y2="17" gradientUnits="userSpaceOnUse">
<stop stop-color="#42D392"/>
<stop offset="1" stop-color="#647EFF"/>
</linearGradient>
<linearGradient id="paint11_linear_26_2" x1="3.5" y1="-1.81815e-05" x2="147.5" y2="17" gradientUnits="userSpaceOnUse">
<stop stop-color="#42D392"/>
<stop offset="1" stop-color="#647EFF"/>
</linearGradient>
</defs>
</svg>
