<svg width="90" height="23" viewBox="0 0 90 23" fill="none" xmlns="http://www.w3.org/2000/svg">
<path d="M2.256 16.104C2.256 16.84 2.184 17.272 2.04 17.4C1.896 17.512 1.392 17.568 0.528 17.568H0V0.264001L3.888 0C5.488 0 6.592 0.208 7.2 0.624001C7.424 0.784 7.608 0.928 7.752 1.056C7.912 1.184 8.04 1.384 8.136 1.656C8.248 1.912 8.328 2.128 8.376 2.304C8.44 2.464 8.48 2.72 8.496 3.072C8.544 3.68 8.568 4.296 8.568 4.92C8.568 5.528 8.56 5.992 8.544 6.312C8.528 6.616 8.472 6.992 8.376 7.44C8.296 7.888 8.16 8.224 7.968 8.448C7.776 8.672 7.512 8.896 7.176 9.12C6.584 9.536 5.496 9.744 3.912 9.744H2.256V16.104ZM3.912 7.608C4.696 7.608 5.304 7.48 5.736 7.224C6.008 7.064 6.168 6.64 6.216 5.952C6.232 5.728 6.24 5.376 6.24 4.896C6.24 4.4 6.232 4.048 6.216 3.84C6.2 3.616 6.152 3.368 6.072 3.096C6.008 2.808 5.896 2.616 5.736 2.52C5.304 2.264 4.696 2.136 3.912 2.136H2.064L2.256 2.736V7.056L2.064 7.608H3.912Z" fill="url(#paint0_linear_26_12)"/>
<path d="M15.3791 7.656L15.4031 7.008C15.4031 6.784 15.3791 6.664 15.3311 6.648C15.2831 6.632 15.2271 6.6 15.1631 6.552C15.0991 6.488 15.0111 6.472 14.8991 6.504C14.8031 6.536 14.6831 6.544 14.5391 6.528L13.2431 6.696C12.9071 6.744 12.6191 6.768 12.3791 6.768C12.1391 6.768 11.9551 6.712 11.8271 6.6C11.6991 6.488 11.5711 5.976 11.4431 5.064L14.2271 4.512C15.3631 4.512 16.0751 4.6 16.3631 4.776C16.6511 4.936 16.8591 5.072 16.9871 5.184C17.1151 5.296 17.2031 5.52 17.2511 5.856C17.3311 6.272 17.3711 6.928 17.3711 7.824V17.568C16.4431 17.568 15.8591 17.52 15.6191 17.424C15.3791 17.328 15.2511 17.096 15.2351 16.728L13.2431 17.736C12.7951 17.736 12.4591 17.728 12.2351 17.712C12.0271 17.712 11.8111 17.648 11.5871 17.52C11.3791 17.392 11.2351 17.264 11.1551 17.136C11.0911 17.008 11.0271 16.736 10.9631 16.32C10.8831 15.824 10.8431 14.808 10.8431 13.272V11.616C10.8431 9.808 12.4191 8.872 15.5711 8.808L15.3791 8.232V7.656ZM13.0991 15.696C13.1151 15.696 13.9231 15.392 15.5231 14.784L15.2831 14.088V11.232L15.4751 10.68C14.8191 10.696 14.2431 10.76 13.7471 10.872C13.2511 10.984 13.0031 11.136 13.0031 11.328L12.9791 14.496C12.9791 15.296 13.0191 15.696 13.0991 15.696Z" fill="url(#paint1_linear_26_12)"/>
<path d="M21.6984 8.928C21.6824 9.344 21.6744 10.056 21.6744 11.064C21.6744 12.072 21.6824 12.792 21.6984 13.224C21.7144 13.64 21.7624 14.088 21.8424 14.568C21.9384 15.032 22.0824 15.336 22.2744 15.48C22.4824 15.624 22.7464 15.696 23.0664 15.696C23.4024 15.696 23.7064 15.672 23.9784 15.624C24.2664 15.56 24.5784 15.488 24.9144 15.408C25.2504 15.312 25.5304 15.248 25.7544 15.216V17.088C25.6104 17.12 25.2344 17.24 24.6264 17.448C24.0184 17.64 23.5144 17.736 23.1144 17.736C22.7304 17.736 22.3784 17.704 22.0584 17.64C21.7544 17.592 21.4744 17.536 21.2184 17.472C20.9784 17.392 20.7704 17.256 20.5944 17.064C20.4184 16.856 20.2664 16.68 20.1384 16.536C20.0264 16.392 19.9304 16.144 19.8504 15.792C19.7704 15.44 19.7064 15.152 19.6584 14.928C19.6264 14.704 19.5944 14.336 19.5624 13.824C19.5464 13.296 19.5384 12.88 19.5384 12.576V9.6C19.5384 8.512 19.5704 7.8 19.6344 7.464C19.6984 7.112 19.7704 6.76 19.8504 6.408C19.9304 6.056 20.0264 5.816 20.1384 5.688C20.2664 5.544 20.4184 5.376 20.5944 5.184C20.7704 4.992 20.9864 4.864 21.2424 4.8C21.8664 4.608 22.4984 4.512 23.1384 4.512L25.8504 5.088C25.7224 6 25.5944 6.512 25.4664 6.624C25.3384 6.736 25.1544 6.792 24.9144 6.792C24.6744 6.792 24.3864 6.768 24.0504 6.72L23.1384 6.552C22.7704 6.552 22.4824 6.616 22.2744 6.744C22.0824 6.872 21.9384 7.168 21.8424 7.632C21.7624 8.08 21.7144 8.512 21.6984 8.928Z" fill="url(#paint2_linear_26_12)"/>
<path d="M29.2341 3.456C28.8501 3.456 28.5141 3.312 28.2261 3.024C27.9381 2.72 27.7941 2.376 27.7941 1.992C27.7941 1.592 27.9381 1.256 28.2261 0.984C28.5141 0.712001 28.8501 0.576001 29.2341 0.576001C29.6181 0.576001 29.9541 0.712001 30.2421 0.984C30.5301 1.256 30.6741 1.592 30.6741 1.992C30.6741 2.376 30.5301 2.72 30.2421 3.024C29.9541 3.312 29.6181 3.456 29.2341 3.456ZM28.1781 16.224V4.68C29.2501 4.68 29.8741 4.744 30.0501 4.872C30.2261 4.984 30.3141 5.4 30.3141 6.12V17.664C29.2421 17.664 28.6181 17.608 28.4421 17.496C28.2661 17.368 28.1781 16.944 28.1781 16.224Z" fill="url(#paint3_linear_26_12)"/>
<path d="M38.7253 4.68C39.7973 4.68 40.4213 4.744 40.5973 4.872C40.7733 4.984 40.8613 5.4 40.8613 6.12V17.664C39.7893 17.664 39.1653 17.608 38.9893 17.496C38.8133 17.368 38.7253 16.944 38.7253 16.224V6.696H35.4613L35.7013 7.392V20.376C35.6853 21.224 35.5893 21.712 35.4133 21.84C35.2533 21.984 34.6373 22.056 33.5653 22.056L33.5893 7.392L33.8053 6.696H32.4853V4.68H33.8053L33.5893 4.08V2.88C33.5893 2.64 33.6133 2.344 33.6613 1.992C33.7093 1.624 33.7573 1.392 33.8053 1.296C33.8533 1.184 33.9573 1.04 34.1173 0.864C34.2933 0.672001 34.4613 0.560001 34.6213 0.528C34.7813 0.496001 35.0373 0.448001 35.3893 0.384001C35.7573 0.320001 36.1173 0.288001 36.4693 0.288001H40.8853V1.992H37.9093C36.8213 1.992 36.1813 2.08 35.9893 2.256C35.8133 2.432 35.7253 3.056 35.7253 4.128L35.4853 4.68H38.7253Z" fill="url(#paint4_linear_26_12)"/>
<path d="M45.3703 8.928C45.3543 9.344 45.3463 10.056 45.3463 11.064C45.3463 12.072 45.3543 12.792 45.3703 13.224C45.3863 13.64 45.4343 14.088 45.5143 14.568C45.6103 15.032 45.7543 15.336 45.9463 15.48C46.1543 15.624 46.4183 15.696 46.7383 15.696C47.0743 15.696 47.3783 15.672 47.6503 15.624C47.9383 15.56 48.2503 15.488 48.5863 15.408C48.9223 15.312 49.2023 15.248 49.4263 15.216V17.088C49.2823 17.12 48.9063 17.24 48.2983 17.448C47.6903 17.64 47.1863 17.736 46.7863 17.736C46.4023 17.736 46.0503 17.704 45.7303 17.64C45.4263 17.592 45.1463 17.536 44.8903 17.472C44.6503 17.392 44.4423 17.256 44.2663 17.064C44.0903 16.856 43.9383 16.68 43.8103 16.536C43.6983 16.392 43.6023 16.144 43.5223 15.792C43.4423 15.44 43.3783 15.152 43.3303 14.928C43.2983 14.704 43.2663 14.336 43.2343 13.824C43.2183 13.296 43.2103 12.88 43.2103 12.576V9.6C43.2103 8.512 43.2423 7.8 43.3063 7.464C43.3703 7.112 43.4423 6.76 43.5223 6.408C43.6023 6.056 43.6983 5.816 43.8103 5.688C43.9383 5.544 44.0903 5.376 44.2663 5.184C44.4423 4.992 44.6583 4.864 44.9143 4.8C45.5383 4.608 46.1703 4.512 46.8103 4.512L49.5223 5.088C49.3943 6 49.2663 6.512 49.1383 6.624C49.0103 6.736 48.8263 6.792 48.5863 6.792C48.3463 6.792 48.0583 6.768 47.7223 6.72L46.8103 6.552C46.4423 6.552 46.1543 6.616 45.9463 6.744C45.7543 6.872 45.6103 7.168 45.5143 7.632C45.4343 8.08 45.3863 8.512 45.3703 8.928Z" fill="url(#paint5_linear_26_12)"/>
<path d="M62.9482 2.328H60.0202L60.2363 2.928V16.104C60.2363 16.84 60.1562 17.272 59.9963 17.4C59.8523 17.512 59.3482 17.568 58.4842 17.568H57.9082V2.928L58.0762 2.328H55.1963V0.288001H62.9482V2.328Z" fill="url(#paint6_linear_26_12)"/>
<path d="M66.915 17.568C65.843 17.568 65.211 17.512 65.019 17.4C64.843 17.272 64.755 16.848 64.755 16.128V4.68C65.811 4.68 66.427 4.712 66.603 4.776C66.779 4.84 66.867 5.056 66.867 5.424L68.403 4.512C68.867 4.512 69.291 4.56 69.675 4.656L70.059 4.68C70.059 5.592 69.995 6.136 69.867 6.312C69.739 6.472 69.331 6.552 68.643 6.552L66.675 7.224L66.915 7.896V17.568Z" fill="url(#paint7_linear_26_12)"/>
<path d="M73.2966 3.456C72.9126 3.456 72.5766 3.312 72.2886 3.024C72.0006 2.72 71.8566 2.376 71.8566 1.992C71.8566 1.592 72.0006 1.256 72.2886 0.984C72.5766 0.712001 72.9126 0.576001 73.2966 0.576001C73.6806 0.576001 74.0166 0.712001 74.3046 0.984C74.5926 1.256 74.7366 1.592 74.7366 1.992C74.7366 2.376 74.5926 2.72 74.3046 3.024C74.0166 3.312 73.6806 3.456 73.2966 3.456ZM72.2406 16.224V4.68C73.3126 4.68 73.9366 4.744 74.1126 4.872C74.2886 4.984 74.3766 5.4 74.3766 6.12V17.664C73.3046 17.664 72.6806 17.608 72.5046 17.496C72.3286 17.368 72.2406 16.944 72.2406 16.224Z" fill="url(#paint8_linear_26_12)"/>
<path d="M84.5638 17.568C83.4918 17.568 82.8678 17.512 82.6918 17.4C82.5158 17.272 82.4278 16.848 82.4278 16.128L82.4038 10.248V9.312C82.4038 8.944 82.4038 8.664 82.4038 8.472C82.4198 8.28 82.4198 8.064 82.4038 7.824C82.3878 7.568 82.3558 7.384 82.3078 7.272C82.2758 7.144 82.2278 7.016 82.1638 6.888C82.0518 6.664 81.8118 6.552 81.4438 6.552L79.3078 7.176L79.5238 7.872V17.568C78.4518 17.568 77.8278 17.512 77.6518 17.4C77.4758 17.272 77.3878 16.848 77.3878 16.128V4.68C78.2678 4.68 78.8278 4.704 79.0678 4.752C79.3078 4.8 79.4518 4.944 79.4998 5.184L81.2998 4.512C82.0038 4.512 82.5398 4.576 82.9078 4.704C83.2758 4.816 83.6038 5.04 83.8918 5.376L86.0998 4.512C87.0438 4.512 87.6758 4.584 87.9958 4.728C88.3318 4.856 88.5718 4.968 88.7158 5.064C88.8758 5.16 89.0118 5.36 89.1238 5.664C89.2518 5.968 89.3398 6.24 89.3878 6.48C89.4518 6.72 89.4998 7.12 89.5318 7.68C89.5798 8.512 89.6038 9.68 89.6038 11.184V17.568C88.5158 17.568 87.8838 17.512 87.7078 17.4C87.5318 17.272 87.4438 16.848 87.4438 16.128V11.16C87.4438 8.952 87.4198 7.72 87.3718 7.464C87.2918 7 87.0678 6.72 86.6998 6.624C86.5718 6.592 86.4118 6.568 86.2198 6.552L84.3478 7.104L84.5638 7.776V17.568Z" fill="url(#paint9_linear_26_12)"/>
<defs>
<linearGradient id="paint0_linear_26_12" x1="2.0942" y1="-2.50632e-05" x2="89.2278" y2="4.46492" gradientUnits="userSpaceOnUse">
<stop stop-color="#42D392"/>
<stop offset="1" stop-color="#647EFF"/>
</linearGradient>
<linearGradient id="paint1_linear_26_12" x1="2.0942" y1="-2.50632e-05" x2="89.2278" y2="4.46492" gradientUnits="userSpaceOnUse">
<stop stop-color="#42D392"/>
<stop offset="1" stop-color="#647EFF"/>
</linearGradient>
<linearGradient id="paint2_linear_26_12" x1="2.0942" y1="-2.50632e-05" x2="89.2278" y2="4.46492" gradientUnits="userSpaceOnUse">
<stop stop-color="#42D392"/>
<stop offset="1" stop-color="#647EFF"/>
</linearGradient>
<linearGradient id="paint3_linear_26_12" x1="2.0942" y1="-2.50632e-05" x2="89.2278" y2="4.46492" gradientUnits="userSpaceOnUse">
<stop stop-color="#42D392"/>
<stop offset="1" stop-color="#647EFF"/>
</linearGradient>
<linearGradient id="paint4_linear_26_12" x1="2.0942" y1="-2.50632e-05" x2="89.2278" y2="4.46492" gradientUnits="userSpaceOnUse">
<stop stop-color="#42D392"/>
<stop offset="1" stop-color="#647EFF"/>
</linearGradient>
<linearGradient id="paint5_linear_26_12" x1="2.0942" y1="-2.50632e-05" x2="89.2278" y2="4.46492" gradientUnits="userSpaceOnUse">
<stop stop-color="#42D392"/>
<stop offset="1" stop-color="#647EFF"/>
</linearGradient>
<linearGradient id="paint6_linear_26_12" x1="2.0942" y1="-2.50632e-05" x2="89.2278" y2="4.46492" gradientUnits="userSpaceOnUse">
<stop stop-color="#42D392"/>
<stop offset="1" stop-color="#647EFF"/>
</linearGradient>
<linearGradient id="paint7_linear_26_12" x1="2.0942" y1="-2.50632e-05" x2="89.2278" y2="4.46492" gradientUnits="userSpaceOnUse">
<stop stop-color="#42D392"/>
<stop offset="1" stop-color="#647EFF"/>
</linearGradient>
<linearGradient id="paint8_linear_26_12" x1="2.0942" y1="-2.50632e-05" x2="89.2278" y2="4.46492" gradientUnits="userSpaceOnUse">
<stop stop-color="#42D392"/>
<stop offset="1" stop-color="#647EFF"/>
</linearGradient>
<linearGradient id="paint9_linear_26_12" x1="2.0942" y1="-2.50632e-05" x2="89.2278" y2="4.46492" gradientUnits="userSpaceOnUse">
<stop stop-color="#42D392"/>
<stop offset="1" stop-color="#647EFF"/>
</linearGradient>
</defs>
</svg>
