<svg width="164" height="49" viewBox="0 0 164 49" fill="none" xmlns="http://www.w3.org/2000/svg">
<path d="M63.756 32.4816C63.756 33.2176 63.684 33.6496 63.54 33.7776C63.396 33.8896 62.892 33.9456 62.028 33.9456H61.5V16.6416L65.388 16.3776C66.988 16.3776 68.092 16.5856 68.7 17.0016C68.924 17.1616 69.108 17.3056 69.252 17.4336C69.412 17.5616 69.54 17.7616 69.636 18.0336C69.748 18.2896 69.828 18.5056 69.876 18.6816C69.94 18.8416 69.98 19.0976 69.996 19.4496C70.044 20.0576 70.068 20.6736 70.068 21.2976C70.068 21.9056 70.06 22.3696 70.044 22.6896C70.028 22.9936 69.972 23.3696 69.876 23.8176C69.796 24.2656 69.66 24.6016 69.468 24.8256C69.276 25.0496 69.012 25.2736 68.676 25.4976C68.084 25.9136 66.996 26.1216 65.412 26.1216H63.756V32.4816ZM65.412 23.9856C66.196 23.9856 66.804 23.8576 67.236 23.6016C67.508 23.4416 67.668 23.0176 67.716 22.3296C67.732 22.1056 67.74 21.7536 67.74 21.2736C67.74 20.7776 67.732 20.4256 67.716 20.2176C67.7 19.9936 67.652 19.7456 67.572 19.4736C67.508 19.1856 67.396 18.9936 67.236 18.8976C66.804 18.6416 66.196 18.5136 65.412 18.5136H63.564L63.756 19.1136V23.4336L63.564 23.9856H65.412Z" fill="url(#paint0_linear_6_102)"/>
<path d="M76.8791 24.0336L76.9031 23.3856C76.9031 23.1616 76.8791 23.0416 76.8311 23.0256C76.7831 23.0096 76.7271 22.9776 76.6631 22.9296C76.5991 22.8656 76.5111 22.8496 76.3991 22.8816C76.3031 22.9136 76.1831 22.9216 76.0391 22.9056L74.7431 23.0736C74.4071 23.1216 74.1191 23.1456 73.8791 23.1456C73.6391 23.1456 73.4551 23.0896 73.3271 22.9776C73.1991 22.8656 73.0711 22.3536 72.9431 21.4416L75.7271 20.8896C76.8631 20.8896 77.5751 20.9776 77.8631 21.1536C78.1511 21.3136 78.3591 21.4496 78.4871 21.5616C78.6151 21.6736 78.7031 21.8976 78.7511 22.2336C78.8311 22.6496 78.8711 23.3056 78.8711 24.2016V33.9456C77.9431 33.9456 77.3591 33.8976 77.1191 33.8016C76.8791 33.7056 76.7511 33.4736 76.7351 33.1056L74.7431 34.1136C74.2951 34.1136 73.9591 34.1056 73.7351 34.0896C73.5271 34.0896 73.3111 34.0256 73.0871 33.8976C72.8791 33.7696 72.7351 33.6416 72.6551 33.5136C72.5911 33.3856 72.5271 33.1136 72.4631 32.6976C72.3831 32.2016 72.3431 31.1856 72.3431 29.6496V27.9936C72.3431 26.1856 73.9191 25.2496 77.0711 25.1856L76.8791 24.6096V24.0336ZM74.5991 32.0736C74.6151 32.0736 75.4231 31.7696 77.0231 31.1616L76.7831 30.4656V27.6096L76.9751 27.0576C76.3191 27.0736 75.7431 27.1376 75.2471 27.2496C74.7511 27.3616 74.5031 27.5136 74.5031 27.7056L74.4791 30.8736C74.4791 31.6736 74.5191 32.0736 74.5991 32.0736Z" fill="url(#paint1_linear_6_102)"/>
<path d="M83.1984 25.3056C83.1824 25.7216 83.1744 26.4336 83.1744 27.4416C83.1744 28.4496 83.1824 29.1696 83.1984 29.6016C83.2144 30.0176 83.2624 30.4656 83.3424 30.9456C83.4384 31.4096 83.5824 31.7136 83.7744 31.8576C83.9824 32.0016 84.2464 32.0736 84.5664 32.0736C84.9024 32.0736 85.2064 32.0496 85.4784 32.0016C85.7664 31.9376 86.0784 31.8656 86.4144 31.7856C86.7504 31.6896 87.0304 31.6256 87.2544 31.5936V33.4656C87.1104 33.4976 86.7344 33.6176 86.1264 33.8256C85.5184 34.0176 85.0144 34.1136 84.6144 34.1136C84.2304 34.1136 83.8784 34.0816 83.5584 34.0176C83.2544 33.9696 82.9744 33.9136 82.7184 33.8496C82.4784 33.7696 82.2704 33.6336 82.0944 33.4416C81.9184 33.2336 81.7664 33.0576 81.6384 32.9136C81.5264 32.7696 81.4304 32.5216 81.3504 32.1696C81.2704 31.8176 81.2064 31.5296 81.1584 31.3056C81.1264 31.0816 81.0944 30.7136 81.0624 30.2016C81.0464 29.6736 81.0384 29.2576 81.0384 28.9536V25.9776C81.0384 24.8896 81.0704 24.1776 81.1344 23.8416C81.1984 23.4896 81.2704 23.1376 81.3504 22.7856C81.4304 22.4336 81.5264 22.1936 81.6384 22.0656C81.7664 21.9216 81.9184 21.7536 82.0944 21.5616C82.2704 21.3696 82.4864 21.2416 82.7424 21.1776C83.3664 20.9856 83.9984 20.8896 84.6384 20.8896L87.3504 21.4656C87.2224 22.3776 87.0944 22.8896 86.9664 23.0016C86.8384 23.1136 86.6544 23.1696 86.4144 23.1696C86.1744 23.1696 85.8864 23.1456 85.5504 23.0976L84.6384 22.9296C84.2704 22.9296 83.9824 22.9936 83.7744 23.1216C83.5824 23.2496 83.4384 23.5456 83.3424 24.0096C83.2624 24.4576 83.2144 24.8896 83.1984 25.3056Z" fill="url(#paint2_linear_6_102)"/>
<path d="M90.7341 19.8336C90.3501 19.8336 90.0141 19.6896 89.7261 19.4016C89.4381 19.0976 89.2941 18.7536 89.2941 18.3696C89.2941 17.9696 89.4381 17.6336 89.7261 17.3616C90.0141 17.0896 90.3501 16.9536 90.7341 16.9536C91.1181 16.9536 91.4541 17.0896 91.7421 17.3616C92.0301 17.6336 92.1741 17.9696 92.1741 18.3696C92.1741 18.7536 92.0301 19.0976 91.7421 19.4016C91.4541 19.6896 91.1181 19.8336 90.7341 19.8336ZM89.6781 32.6016V21.0576C90.7501 21.0576 91.3741 21.1216 91.5501 21.2496C91.7261 21.3616 91.8141 21.7776 91.8141 22.4976V34.0416C90.7421 34.0416 90.1181 33.9856 89.9421 33.8736C89.7661 33.7456 89.6781 33.3216 89.6781 32.6016Z" fill="url(#paint3_linear_6_102)"/>
<path d="M100.225 21.0576C101.297 21.0576 101.921 21.1216 102.097 21.2496C102.273 21.3616 102.361 21.7776 102.361 22.4976V34.0416C101.289 34.0416 100.665 33.9856 100.489 33.8736C100.313 33.7456 100.225 33.3216 100.225 32.6016V23.0736H96.9613L97.2013 23.7696V36.7536C97.1853 37.6016 97.0893 38.0896 96.9133 38.2176C96.7533 38.3616 96.1373 38.4336 95.0653 38.4336L95.0893 23.7696L95.3053 23.0736H93.9853V21.0576H95.3053L95.0893 20.4576V19.2576C95.0893 19.0176 95.1133 18.7216 95.1613 18.3696C95.2093 18.0016 95.2573 17.7696 95.3053 17.6736C95.3533 17.5616 95.4573 17.4176 95.6173 17.2416C95.7933 17.0496 95.9613 16.9376 96.1213 16.9056C96.2813 16.8736 96.5373 16.8256 96.8893 16.7616C97.2573 16.6976 97.6173 16.6656 97.9693 16.6656H102.385V18.3696H99.4093C98.3213 18.3696 97.6813 18.4576 97.4893 18.6336C97.3133 18.8096 97.2253 19.4336 97.2253 20.5056L96.9853 21.0576H100.225Z" fill="url(#paint4_linear_6_102)"/>
<path d="M106.87 25.3056C106.854 25.7216 106.846 26.4336 106.846 27.4416C106.846 28.4496 106.854 29.1696 106.87 29.6016C106.886 30.0176 106.934 30.4656 107.014 30.9456C107.11 31.4096 107.254 31.7136 107.446 31.8576C107.654 32.0016 107.918 32.0736 108.238 32.0736C108.574 32.0736 108.878 32.0496 109.15 32.0016C109.438 31.9376 109.75 31.8656 110.086 31.7856C110.422 31.6896 110.702 31.6256 110.926 31.5936V33.4656C110.782 33.4976 110.406 33.6176 109.798 33.8256C109.19 34.0176 108.686 34.1136 108.286 34.1136C107.902 34.1136 107.55 34.0816 107.23 34.0176C106.926 33.9696 106.646 33.9136 106.39 33.8496C106.15 33.7696 105.942 33.6336 105.766 33.4416C105.59 33.2336 105.438 33.0576 105.31 32.9136C105.198 32.7696 105.102 32.5216 105.022 32.1696C104.942 31.8176 104.878 31.5296 104.83 31.3056C104.798 31.0816 104.766 30.7136 104.734 30.2016C104.718 29.6736 104.71 29.2576 104.71 28.9536V25.9776C104.71 24.8896 104.742 24.1776 104.806 23.8416C104.87 23.4896 104.942 23.1376 105.022 22.7856C105.102 22.4336 105.198 22.1936 105.31 22.0656C105.438 21.9216 105.59 21.7536 105.766 21.5616C105.942 21.3696 106.158 21.2416 106.414 21.1776C107.038 20.9856 107.67 20.8896 108.31 20.8896L111.022 21.4656C110.894 22.3776 110.766 22.8896 110.638 23.0016C110.51 23.1136 110.326 23.1696 110.086 23.1696C109.846 23.1696 109.558 23.1456 109.222 23.0976L108.31 22.9296C107.942 22.9296 107.654 22.9936 107.446 23.1216C107.254 23.2496 107.11 23.5456 107.014 24.0096C106.934 24.4576 106.886 24.8896 106.87 25.3056Z" fill="url(#paint5_linear_6_102)"/>
<path d="M124.448 18.7056H121.52L121.736 19.3056V32.4816C121.736 33.2176 121.656 33.6496 121.496 33.7776C121.352 33.8896 120.848 33.9456 119.984 33.9456H119.408V19.3056L119.576 18.7056H116.696V16.6656H124.448V18.7056Z" fill="url(#paint6_linear_6_102)"/>
<path d="M128.415 33.9456C127.343 33.9456 126.711 33.8896 126.519 33.7776C126.343 33.6496 126.255 33.2256 126.255 32.5056V21.0576C127.311 21.0576 127.927 21.0896 128.103 21.1536C128.279 21.2176 128.367 21.4336 128.367 21.8016L129.903 20.8896C130.367 20.8896 130.791 20.9376 131.175 21.0336L131.559 21.0576C131.559 21.9696 131.495 22.5136 131.367 22.6896C131.239 22.8496 130.831 22.9296 130.143 22.9296L128.175 23.6016L128.415 24.2736V33.9456Z" fill="url(#paint7_linear_6_102)"/>
<path d="M134.797 19.8336C134.413 19.8336 134.077 19.6896 133.789 19.4016C133.501 19.0976 133.357 18.7536 133.357 18.3696C133.357 17.9696 133.501 17.6336 133.789 17.3616C134.077 17.0896 134.413 16.9536 134.797 16.9536C135.181 16.9536 135.517 17.0896 135.805 17.3616C136.093 17.6336 136.237 17.9696 136.237 18.3696C136.237 18.7536 136.093 19.0976 135.805 19.4016C135.517 19.6896 135.181 19.8336 134.797 19.8336ZM133.741 32.6016V21.0576C134.813 21.0576 135.437 21.1216 135.613 21.2496C135.789 21.3616 135.877 21.7776 135.877 22.4976V34.0416C134.805 34.0416 134.181 33.9856 134.005 33.8736C133.829 33.7456 133.741 33.3216 133.741 32.6016Z" fill="url(#paint8_linear_6_102)"/>
<path d="M146.064 33.9456C144.992 33.9456 144.368 33.8896 144.192 33.7776C144.016 33.6496 143.928 33.2256 143.928 32.5056L143.904 26.6256V25.6896C143.904 25.3216 143.904 25.0416 143.904 24.8496C143.92 24.6576 143.92 24.4416 143.904 24.2016C143.888 23.9456 143.856 23.7616 143.808 23.6496C143.776 23.5216 143.728 23.3936 143.664 23.2656C143.552 23.0416 143.312 22.9296 142.944 22.9296L140.808 23.5536L141.024 24.2496V33.9456C139.952 33.9456 139.328 33.8896 139.152 33.7776C138.976 33.6496 138.888 33.2256 138.888 32.5056V21.0576C139.768 21.0576 140.328 21.0816 140.568 21.1296C140.808 21.1776 140.952 21.3216 141 21.5616L142.8 20.8896C143.504 20.8896 144.04 20.9536 144.408 21.0816C144.776 21.1936 145.104 21.4176 145.392 21.7536L147.6 20.8896C148.544 20.8896 149.176 20.9616 149.496 21.1056C149.832 21.2336 150.072 21.3456 150.216 21.4416C150.376 21.5376 150.512 21.7376 150.624 22.0416C150.752 22.3456 150.84 22.6176 150.888 22.8576C150.952 23.0976 151 23.4976 151.032 24.0576C151.08 24.8896 151.104 26.0576 151.104 27.5616V33.9456C150.016 33.9456 149.384 33.8896 149.208 33.7776C149.032 33.6496 148.944 33.2256 148.944 32.5056V27.5376C148.944 25.3296 148.92 24.0976 148.872 23.8416C148.792 23.3776 148.568 23.0976 148.2 23.0016C148.072 22.9696 147.912 22.9456 147.72 22.9296L145.848 23.4816L146.064 24.1536V33.9456Z" fill="url(#paint9_linear_6_102)"/>
<path d="M49.5 24.9456C49.5 20.1717 47.6036 15.5933 44.2279 12.2176C40.8523 8.84198 36.2739 6.94556 31.5 6.94556C26.7261 6.94556 22.1477 8.84198 18.7721 12.2176C15.3964 15.5933 13.5 20.1717 13.5 24.9456L31.5 24.9456H49.5Z" fill="#FFA133"/>
<mask id="mask0_6_102" style="mask-type:alpha" maskUnits="userSpaceOnUse" x="13" y="24" width="37" height="19">
<path d="M49.5 24.9456C49.5 29.7195 47.6036 34.2978 44.2279 37.6735C40.8523 41.0491 36.2739 42.9456 31.5 42.9456C26.7261 42.9456 22.1477 41.0491 18.7721 37.6735C15.3964 34.2978 13.5 29.7195 13.5 24.9456L31.5 24.9456H49.5Z" fill="#D9D9D9"/>
</mask>
<g mask="url(#mask0_6_102)">
<rect x="10.5" y="25.9456" width="43" height="1" fill="#5AA6FF"/>
<rect x="10.5" y="27.9456" width="43" height="1" fill="#5AA6FF"/>
<rect x="10.5" y="29.9456" width="43" height="1" fill="#5AA6FF"/>
<rect x="10.5" y="31.9456" width="43" height="1" fill="#5AA6FF"/>
<rect x="10.5" y="33.9456" width="43" height="1" fill="#5AA6FF"/>
<rect x="10.5" y="35.9456" width="43" height="1" fill="#5AA6FF"/>
<rect x="10.5" y="37.9456" width="43" height="1" fill="#5AA6FF"/>
<rect x="10.5" y="39.9456" width="43" height="1" fill="#5AA6FF"/>
<rect x="10.5" y="41.9456" width="43" height="1" fill="#5AA6FF"/>
</g>
<defs>
<linearGradient id="paint0_linear_6_102" x1="112.06" y1="21.4456" x2="112.06" y2="38.9456" gradientUnits="userSpaceOnUse">
<stop stop-color="#5AA6FF"/>
<stop offset="1" stop-color="#FFA133"/>
</linearGradient>
<linearGradient id="paint1_linear_6_102" x1="112.06" y1="21.4456" x2="112.06" y2="38.9456" gradientUnits="userSpaceOnUse">
<stop stop-color="#5AA6FF"/>
<stop offset="1" stop-color="#FFA133"/>
</linearGradient>
<linearGradient id="paint2_linear_6_102" x1="112.06" y1="21.4456" x2="112.06" y2="38.9456" gradientUnits="userSpaceOnUse">
<stop stop-color="#5AA6FF"/>
<stop offset="1" stop-color="#FFA133"/>
</linearGradient>
<linearGradient id="paint3_linear_6_102" x1="112.06" y1="21.4456" x2="112.06" y2="38.9456" gradientUnits="userSpaceOnUse">
<stop stop-color="#5AA6FF"/>
<stop offset="1" stop-color="#FFA133"/>
</linearGradient>
<linearGradient id="paint4_linear_6_102" x1="112.06" y1="21.4456" x2="112.06" y2="38.9456" gradientUnits="userSpaceOnUse">
<stop stop-color="#5AA6FF"/>
<stop offset="1" stop-color="#FFA133"/>
</linearGradient>
<linearGradient id="paint5_linear_6_102" x1="112.06" y1="21.4456" x2="112.06" y2="38.9456" gradientUnits="userSpaceOnUse">
<stop stop-color="#5AA6FF"/>
<stop offset="1" stop-color="#FFA133"/>
</linearGradient>
<linearGradient id="paint6_linear_6_102" x1="112.06" y1="21.4456" x2="112.06" y2="38.9456" gradientUnits="userSpaceOnUse">
<stop stop-color="#5AA6FF"/>
<stop offset="1" stop-color="#FFA133"/>
</linearGradient>
<linearGradient id="paint7_linear_6_102" x1="112.06" y1="21.4456" x2="112.06" y2="38.9456" gradientUnits="userSpaceOnUse">
<stop stop-color="#5AA6FF"/>
<stop offset="1" stop-color="#FFA133"/>
</linearGradient>
<linearGradient id="paint8_linear_6_102" x1="112.06" y1="21.4456" x2="112.06" y2="38.9456" gradientUnits="userSpaceOnUse">
<stop stop-color="#5AA6FF"/>
<stop offset="1" stop-color="#FFA133"/>
</linearGradient>
<linearGradient id="paint9_linear_6_102" x1="112.06" y1="21.4456" x2="112.06" y2="38.9456" gradientUnits="userSpaceOnUse">
<stop stop-color="#5AA6FF"/>
<stop offset="1" stop-color="#FFA133"/>
</linearGradient>
</defs>
</svg>
