<svg width="154" height="40" viewBox="0 0 154 40" fill="none" xmlns="http://www.w3.org/2000/svg">
<path d="M43.18 25.25H41.14V13.99H45.66C46.9133 13.99 47.8867 14.3033 48.58 14.93C49.2733 15.5567 49.62 16.5033 49.62 17.77C49.62 18.8767 49.26 19.7433 48.54 20.37C47.8333 20.9967 46.8733 21.31 45.66 21.31H43.18V25.25ZM45.38 15.65H43.18V19.81H45.38C46.1 19.81 46.68 19.6367 47.12 19.29C47.56 18.9433 47.78 18.4233 47.78 17.73C47.78 17.0233 47.56 16.5033 47.12 16.17C46.6933 15.8233 46.1133 15.65 45.38 15.65Z" fill="white"/>
<path d="M53.921 25.45C52.7876 25.45 51.981 25.0633 51.501 24.29C51.021 23.5167 50.781 22.5033 50.781 21.25C50.781 19.9833 51.021 18.9633 51.501 18.19C51.9943 17.4033 52.801 17.01 53.921 17.01C54.561 17.01 55.0676 17.1233 55.441 17.35C55.8143 17.5633 56.0943 17.8033 56.281 18.07C56.4676 18.3367 56.581 18.5367 56.621 18.67H56.661V17.03H58.761V25.25H57.001L56.661 23.91H56.621C56.581 24.03 56.461 24.2167 56.261 24.47C56.0743 24.71 55.7876 24.9367 55.401 25.15C55.0276 25.35 54.5343 25.45 53.921 25.45ZM54.761 23.73C55.5076 23.73 56.0076 23.4967 56.261 23.03C56.5276 22.55 56.661 21.9633 56.661 21.27C56.661 20.5367 56.5276 19.9433 56.261 19.49C55.9943 19.0367 55.4943 18.81 54.761 18.81C54.241 18.81 53.8343 18.9233 53.541 19.15C53.261 19.3767 53.061 19.6767 52.941 20.05C52.8343 20.41 52.781 20.8167 52.781 21.27C52.781 21.7233 52.8343 22.1367 52.941 22.51C53.061 22.8833 53.261 23.1833 53.541 23.41C53.8343 23.6233 54.241 23.73 54.761 23.73Z" fill="white"/>
<path d="M64.0235 25.45C63.6768 25.45 63.2901 25.39 62.8635 25.27C62.4501 25.15 62.0501 24.97 61.6635 24.73C61.2901 24.49 60.9768 24.1833 60.7235 23.81C60.4835 23.4233 60.3635 22.97 60.3635 22.45H62.2435C62.2435 22.4767 62.2501 22.57 62.2635 22.73C62.2768 22.8767 62.3301 23.05 62.4235 23.25C62.5301 23.4367 62.7035 23.6033 62.9435 23.75C63.1835 23.8967 63.5301 23.97 63.9835 23.97C64.5168 23.97 64.9168 23.8767 65.1835 23.69C65.4501 23.49 65.5835 23.2633 65.5835 23.01C65.5835 22.7167 65.4568 22.49 65.2035 22.33C64.9635 22.1567 64.6501 22.0167 64.2635 21.91C63.8768 21.8033 63.4635 21.6967 63.0235 21.59C62.5968 21.47 62.1901 21.3167 61.8035 21.13C61.4301 20.9433 61.1235 20.69 60.8835 20.37C60.6435 20.0367 60.5235 19.61 60.5235 19.09C60.5235 18.33 60.8301 17.7567 61.4435 17.37C62.0568 16.97 62.8368 16.77 63.7835 16.77C64.4501 16.77 65.0701 16.8767 65.6435 17.09C66.2168 17.29 66.6768 17.6167 67.0235 18.07C67.3701 18.51 67.5435 19.09 67.5435 19.81H65.6635C65.6768 19.3967 65.5835 19.09 65.3835 18.89C65.1968 18.6767 64.9568 18.53 64.6635 18.45C64.3835 18.37 64.1101 18.33 63.8435 18.33C63.3635 18.33 62.9968 18.4167 62.7435 18.59C62.5035 18.75 62.3835 18.9633 62.3835 19.23C62.3835 19.5367 62.5035 19.7767 62.7435 19.95C62.9968 20.11 63.3168 20.2433 63.7035 20.35C64.1035 20.4567 64.5168 20.57 64.9435 20.69C65.3835 20.7967 65.7968 20.9433 66.1835 21.13C66.5835 21.3167 66.9035 21.57 67.1435 21.89C67.3968 22.1967 67.5235 22.61 67.5235 23.13C67.5235 23.9167 67.1968 24.5033 66.5435 24.89C65.9035 25.2633 65.0635 25.45 64.0235 25.45Z" fill="white"/>
<path d="M71.9642 25.25C71.3109 25.25 70.8176 25.09 70.4842 24.77C70.1642 24.45 70.0042 23.93 70.0042 23.21V18.47H68.7642V17.03C69.1509 17.03 69.4509 16.99 69.6642 16.91C69.8776 16.83 70.0309 16.6433 70.1242 16.35C70.2176 16.0567 70.2642 15.5833 70.2642 14.93H71.9042V17.03H73.7842V18.47H71.9042V23.65H73.8242V25.25H71.9642Z" fill="white"/>
<path d="M79.4613 25.45C78.5146 25.45 77.7413 25.25 77.1413 24.85C76.5546 24.4367 76.1146 23.9167 75.8213 23.29C75.5413 22.65 75.3946 21.9767 75.3813 21.27C75.3679 20.4433 75.5213 19.71 75.8413 19.07C76.1746 18.4167 76.6413 17.91 77.2413 17.55C77.8546 17.1767 78.5746 16.99 79.4013 16.99C80.1346 16.99 80.7879 17.15 81.3613 17.47C81.9479 17.79 82.4146 18.2433 82.7613 18.83C83.1079 19.4033 83.2879 20.0833 83.3013 20.87C83.3013 20.8967 83.3013 20.97 83.3013 21.09C83.3013 21.21 83.3013 21.31 83.3013 21.39H77.3213C77.3213 22.15 77.5079 22.7367 77.8813 23.15C78.2546 23.55 78.7679 23.75 79.4213 23.75C79.9279 23.75 80.3479 23.6233 80.6813 23.37C81.0279 23.1167 81.2346 22.7833 81.3013 22.37H83.2813C83.1879 23.2367 82.8146 23.97 82.1613 24.57C81.5079 25.1567 80.6079 25.45 79.4613 25.45ZM77.3813 20.47H81.2613C81.2479 20.3767 81.2146 20.23 81.1613 20.03C81.1213 19.83 81.0346 19.6233 80.9013 19.41C80.7813 19.1967 80.5946 19.0167 80.3413 18.87C80.0879 18.7233 79.7613 18.65 79.3613 18.65C78.8279 18.65 78.4213 18.7633 78.1413 18.99C77.8746 19.2033 77.6813 19.4567 77.5613 19.75C77.4546 20.03 77.3946 20.27 77.3813 20.47Z" fill="white"/>
<path d="M85.4795 25.25V13.99H87.4795V25.25H85.4795Z" fill="white"/>
<path d="M105.461 25.29C104.527 24.9033 103.621 24.43 102.741 23.87C102.167 24.39 101.521 24.7833 100.801 25.05C100.094 25.3033 99.3741 25.43 98.6408 25.43C97.9075 25.43 97.2341 25.3033 96.6208 25.05C96.0075 24.7967 95.5075 24.4233 95.1208 23.93C94.7475 23.4367 94.5608 22.8167 94.5608 22.07C94.5608 21.5233 94.6675 21.07 94.8808 20.71C95.1075 20.3367 95.3675 20.0367 95.6608 19.81C95.9675 19.57 96.2541 19.39 96.5208 19.27C96.8008 19.1367 97.0008 19.0433 97.1208 18.99C97.0541 18.8833 96.9208 18.7167 96.7208 18.49C96.5208 18.25 96.3341 17.95 96.1608 17.59C95.9875 17.23 95.9008 16.8233 95.9008 16.37C95.9008 15.81 96.0475 15.3433 96.3408 14.97C96.6475 14.5967 97.0341 14.3167 97.5008 14.13C97.9808 13.93 98.4808 13.83 99.0008 13.83C99.5341 13.8167 100.034 13.8967 100.501 14.07C100.981 14.2433 101.367 14.5167 101.661 14.89C101.967 15.2633 102.121 15.73 102.121 16.29C102.121 16.7567 102.007 17.17 101.781 17.53C101.554 17.89 101.287 18.1967 100.981 18.45C100.674 18.69 100.394 18.8767 100.141 19.01C99.8875 19.1433 99.7341 19.2233 99.6808 19.25C99.8275 19.4367 100.114 19.7367 100.541 20.15C100.981 20.5633 101.481 20.9967 102.041 21.45C102.147 21.3033 102.261 21.0833 102.381 20.79C102.514 20.4833 102.581 20.1633 102.581 19.83C102.581 19.4967 102.447 19.2033 102.181 18.95L103.881 17.83C103.961 17.9233 104.067 18.13 104.201 18.45C104.347 18.7567 104.461 19.1367 104.541 19.59C104.621 20.03 104.614 20.51 104.521 21.03C104.441 21.55 104.221 22.0633 103.861 22.57C104.194 22.7833 104.534 22.99 104.881 23.19C105.241 23.3767 105.681 23.5767 106.201 23.79L105.461 25.29ZM98.5608 18.31C98.7341 18.2167 98.9608 18.09 99.2408 17.93C99.5208 17.7567 99.7741 17.5567 100.001 17.33C100.227 17.1033 100.354 16.8567 100.381 16.59C100.407 16.2833 100.334 16.0367 100.161 15.85C99.9875 15.65 99.7675 15.5167 99.5008 15.45C99.2341 15.37 98.9608 15.3633 98.6808 15.43C98.4141 15.4833 98.1875 15.6033 98.0008 15.79C97.8141 15.9767 97.7275 16.2367 97.7408 16.57C97.7541 17.09 98.0275 17.67 98.5608 18.31ZM101.161 22.73C100.601 22.3033 100.074 21.8567 99.5808 21.39C99.0875 20.91 98.6341 20.4233 98.2208 19.93C97.8075 20.1433 97.4275 20.39 97.0808 20.67C96.7475 20.9367 96.5808 21.3233 96.5808 21.83C96.5808 22.3233 96.7408 22.7233 97.0608 23.03C97.3941 23.3367 97.8075 23.5367 98.3008 23.63C98.7941 23.71 99.3008 23.6767 99.8208 23.53C100.341 23.3833 100.787 23.1167 101.161 22.73Z" fill="white"/>
<path d="M117.725 25.45C116.672 25.45 115.719 25.2367 114.865 24.81C114.012 24.37 113.332 23.7233 112.825 22.87C112.332 22.0167 112.085 20.95 112.085 19.67C112.099 18.4167 112.352 17.35 112.845 16.47C113.339 15.59 114.012 14.9233 114.865 14.47C115.719 14.0167 116.692 13.79 117.785 13.79C118.825 13.79 119.712 13.9767 120.445 14.35C121.179 14.7233 121.765 15.23 122.205 15.87C122.659 16.51 122.952 17.23 123.085 18.03H120.985C120.892 17.4433 120.672 16.9833 120.325 16.65C119.992 16.3033 119.599 16.0633 119.145 15.93C118.692 15.7833 118.239 15.71 117.785 15.71C116.599 15.71 115.685 16.0433 115.045 16.71C114.419 17.3767 114.105 18.3167 114.105 19.53C114.105 20.8233 114.412 21.8167 115.025 22.51C115.652 23.2033 116.559 23.55 117.745 23.55C118.239 23.55 118.719 23.4767 119.185 23.33C119.652 23.17 120.052 22.9167 120.385 22.57C120.719 22.21 120.932 21.73 121.025 21.13H123.145C122.999 21.9567 122.699 22.6967 122.245 23.35C121.805 23.99 121.205 24.5033 120.445 24.89C119.699 25.2633 118.792 25.45 117.725 25.45Z" fill="white"/>
<path d="M128.757 25.45C127.823 25.45 127.05 25.27 126.437 24.91C125.823 24.55 125.363 24.0567 125.057 23.43C124.75 22.79 124.597 22.0633 124.597 21.25C124.583 20.0233 124.923 19.0167 125.617 18.23C126.323 17.43 127.37 17.03 128.757 17.03C130.103 17.03 131.123 17.4167 131.817 18.19C132.523 18.9633 132.877 19.9833 132.877 21.25C132.877 22.0367 132.73 22.75 132.437 23.39C132.143 24.03 131.69 24.5367 131.077 24.91C130.463 25.27 129.69 25.45 128.757 25.45ZM128.757 23.73C129.343 23.73 129.79 23.6033 130.097 23.35C130.417 23.0967 130.63 22.7767 130.737 22.39C130.843 21.99 130.897 21.59 130.897 21.19C130.897 20.7767 130.843 20.37 130.737 19.97C130.63 19.57 130.417 19.2433 130.097 18.99C129.79 18.7367 129.343 18.61 128.757 18.61C128.157 18.61 127.697 18.7433 127.377 19.01C127.07 19.2633 126.857 19.59 126.737 19.99C126.63 20.3767 126.577 20.7767 126.577 21.19C126.577 21.59 126.63 21.99 126.737 22.39C126.857 22.7767 127.07 23.0967 127.377 23.35C127.697 23.6033 128.157 23.73 128.757 23.73Z" fill="white"/>
<path d="M135.89 25.25C135.397 25.25 135.07 25.13 134.91 24.89C134.75 24.65 134.67 24.3567 134.67 24.01C134.67 23.69 134.75 23.41 134.91 23.17C135.084 22.93 135.41 22.81 135.89 22.81C136.344 22.81 136.65 22.93 136.81 23.17C136.984 23.41 137.07 23.69 137.07 24.01C137.07 24.3567 136.984 24.65 136.81 24.89C136.65 25.13 136.344 25.25 135.89 25.25Z" fill="white"/>
<rect x="16.4074" y="8.65741" width="12.2222" height="21.1852" fill="#2DC846" stroke="white" stroke-width="0.814815"/>
<rect x="20.4815" y="8.65741" width="12.2222" height="16.2963" fill="#5AA6FF" stroke="white" stroke-width="0.814815"/>
<rect x="20.4815" y="16.8056" width="8.14815" height="8.14815" fill="#FF767E" stroke="white" stroke-width="0.814815"/>
</svg>
