<svg width="193" height="47" viewBox="0 0 193 47" fill="none" xmlns="http://www.w3.org/2000/svg">
<path d="M69.9424 29.9817C69.4709 29.9817 69.0877 29.8712 68.793 29.6501C68.4983 29.4143 68.2625 29.0607 68.0857 28.5891L63.6205 16.0336C63.4289 15.4736 63.4658 14.9947 63.731 14.5968C64.011 14.1989 64.49 14 65.1678 14C65.6394 14 66.0004 14.1105 66.251 14.3316C66.5162 14.5526 66.7299 14.8989 66.892 15.3705L70.5393 26.2239H69.5888L73.435 15.3926C73.6118 14.921 73.8255 14.5747 74.076 14.3537C74.3413 14.1179 74.6876 14 75.1149 14C75.5276 14 75.8591 14.1179 76.1097 14.3537C76.3602 14.5747 76.5739 14.9284 76.7507 15.4147L80.4201 26.2239H79.6022L83.3158 15.3705C83.4631 14.9137 83.6695 14.5747 83.9347 14.3537C84.2 14.1179 84.561 14 85.0178 14C85.5926 14 86.0126 14.1989 86.2778 14.5968C86.5431 14.9947 86.5725 15.4736 86.3662 16.0336L81.8569 28.6112C81.6948 29.068 81.4737 29.4143 81.1937 29.6501C80.9137 29.8712 80.5306 29.9817 80.0443 29.9817C79.5727 29.9817 79.1969 29.8712 78.9169 29.6501C78.637 29.4143 78.4085 29.0607 78.2317 28.5891L74.7392 18.7083H75.2697L71.7329 28.6112C71.5561 29.068 71.3277 29.4143 71.0477 29.6501C70.7824 29.8712 70.414 29.9817 69.9424 29.9817Z" fill="white"/>
<path d="M91.8038 29.9817C91.2586 29.9817 90.8386 29.8343 90.5438 29.5396C90.2638 29.2449 90.1238 28.8249 90.1238 28.2796V15.7021C90.1238 15.1421 90.2638 14.7221 90.5438 14.4421C90.8386 14.1474 91.2586 14 91.8038 14C92.3343 14 92.7396 14.1474 93.0196 14.4421C93.3143 14.7221 93.4617 15.1421 93.4617 15.7021V20.963H93.1522C93.4911 20.2409 93.9922 19.6883 94.6553 19.3051C95.3332 18.9072 96.0995 18.7083 96.9542 18.7083C97.8236 18.7083 98.5384 18.8778 99.0984 19.2167C99.6583 19.5409 100.078 20.0419 100.358 20.7198C100.638 21.383 100.778 22.2303 100.778 23.2619V28.2796C100.778 28.8249 100.631 29.2449 100.336 29.5396C100.056 29.8343 99.6436 29.9817 99.0984 29.9817C98.5678 29.9817 98.1552 29.8343 97.8605 29.5396C97.5805 29.2449 97.4405 28.8249 97.4405 28.2796V23.4166C97.4405 22.665 97.3005 22.1272 97.0205 21.803C96.7553 21.464 96.3426 21.2945 95.7826 21.2945C95.0753 21.2945 94.5079 21.5156 94.0806 21.9577C93.668 22.3998 93.4617 22.9892 93.4617 23.7261V28.2796C93.4617 29.4143 92.909 29.9817 91.8038 29.9817Z" fill="white"/>
<path d="M109.349 30.0259C108.067 30.0259 106.962 29.7975 106.033 29.3407C105.12 28.8691 104.412 28.2133 103.911 27.3733C103.425 26.5186 103.182 25.5165 103.182 24.3671C103.182 23.2471 103.417 22.2672 103.889 21.4272C104.361 20.5725 105.016 19.9093 105.856 19.4378C106.711 18.9514 107.676 18.7083 108.752 18.7083C109.533 18.7083 110.24 18.8409 110.874 19.1062C111.508 19.3567 112.053 19.7251 112.51 20.2114C112.967 20.683 113.313 21.2651 113.549 21.9577C113.785 22.6356 113.902 23.3945 113.902 24.2345C113.902 24.5145 113.814 24.7281 113.637 24.8755C113.46 25.0081 113.202 25.0744 112.864 25.0744H105.923V23.3503H111.493L111.139 23.6597C111.139 23.0556 111.051 22.5545 110.874 22.1566C110.697 21.744 110.439 21.4345 110.1 21.2282C109.776 21.0219 109.371 20.9188 108.885 20.9188C108.339 20.9188 107.875 21.044 107.492 21.2945C107.109 21.5451 106.814 21.9061 106.608 22.3777C106.402 22.8492 106.298 23.4166 106.298 24.0797V24.2566C106.298 25.3765 106.556 26.2018 107.072 26.7323C107.603 27.2628 108.384 27.5281 109.415 27.5281C109.769 27.5281 110.174 27.4839 110.631 27.3954C111.088 27.307 111.515 27.167 111.913 26.9754C112.252 26.8133 112.554 26.7618 112.819 26.8207C113.085 26.8649 113.291 26.9828 113.438 27.1744C113.586 27.366 113.667 27.587 113.681 27.8375C113.711 28.0881 113.659 28.3386 113.527 28.5891C113.394 28.8249 113.173 29.0238 112.864 29.1859C112.362 29.4659 111.795 29.6722 111.161 29.8048C110.543 29.9522 109.938 30.0259 109.349 30.0259Z" fill="white"/>
<path d="M121.923 30.0259C120.641 30.0259 119.535 29.7975 118.607 29.3407C117.693 28.8691 116.986 28.2133 116.485 27.3733C115.999 26.5186 115.755 25.5165 115.755 24.3671C115.755 23.2471 115.991 22.2672 116.463 21.4272C116.934 20.5725 117.59 19.9093 118.43 19.4378C119.285 18.9514 120.25 18.7083 121.326 18.7083C122.107 18.7083 122.814 18.8409 123.448 19.1062C124.082 19.3567 124.627 19.7251 125.084 20.2114C125.54 20.683 125.887 21.2651 126.123 21.9577C126.358 22.6356 126.476 23.3945 126.476 24.2345C126.476 24.5145 126.388 24.7281 126.211 24.8755C126.034 25.0081 125.776 25.0744 125.437 25.0744H118.496V23.3503H124.067L123.713 23.6597C123.713 23.0556 123.625 22.5545 123.448 22.1566C123.271 21.744 123.013 21.4345 122.674 21.2282C122.35 21.0219 121.945 20.9188 121.458 20.9188C120.913 20.9188 120.449 21.044 120.066 21.2945C119.683 21.5451 119.388 21.9061 119.182 22.3777C118.975 22.8492 118.872 23.4166 118.872 24.0797V24.2566C118.872 25.3765 119.13 26.2018 119.646 26.7323C120.176 27.2628 120.957 27.5281 121.989 27.5281C122.343 27.5281 122.748 27.4839 123.205 27.3954C123.662 27.307 124.089 27.167 124.487 26.9754C124.826 26.8133 125.128 26.7618 125.393 26.8207C125.658 26.8649 125.865 26.9828 126.012 27.1744C126.159 27.366 126.24 27.587 126.255 27.8375C126.285 28.0881 126.233 28.3386 126.1 28.5891C125.968 28.8249 125.747 29.0238 125.437 29.1859C124.936 29.4659 124.369 29.6722 123.735 29.8048C123.116 29.9522 122.512 30.0259 121.923 30.0259Z" fill="white"/>
<path d="M132.772 30.0259C131.461 30.0259 130.481 29.6649 129.832 28.9428C129.184 28.2059 128.86 27.1154 128.86 25.6713V15.7021C128.86 15.1421 129 14.7221 129.28 14.4421C129.574 14.1474 129.994 14 130.54 14C131.07 14 131.475 14.1474 131.755 14.4421C132.05 14.7221 132.198 15.1421 132.198 15.7021V25.5386C132.198 26.1428 132.323 26.5923 132.573 26.887C132.839 27.167 133.185 27.307 133.612 27.307C133.73 27.307 133.841 27.2997 133.944 27.2849C134.047 27.2702 134.157 27.2628 134.275 27.2628C134.511 27.2333 134.673 27.307 134.762 27.4839C134.865 27.646 134.916 27.9775 134.916 28.4786C134.916 28.9207 134.828 29.2596 134.651 29.4954C134.474 29.7164 134.202 29.8638 133.833 29.9375C133.686 29.9522 133.516 29.967 133.325 29.9817C133.133 30.0112 132.949 30.0259 132.772 30.0259Z" fill="white"/>
<path d="M137.392 29.9817C136.98 29.9817 136.641 29.8859 136.375 29.6943C136.125 29.5028 135.963 29.2449 135.889 28.9207C135.83 28.5965 135.897 28.2354 136.088 27.8375L141.747 15.4368C141.983 14.9358 142.263 14.5747 142.587 14.3537C142.911 14.1179 143.287 14 143.714 14C144.142 14 144.517 14.1179 144.842 14.3537C145.166 14.5747 145.438 14.9358 145.659 15.4368L151.362 27.8375C151.554 28.2354 151.62 28.6038 151.561 28.9428C151.517 29.267 151.37 29.5249 151.119 29.7164C150.869 29.8933 150.545 29.9817 150.147 29.9817C149.646 29.9817 149.255 29.8638 148.975 29.628C148.71 29.3922 148.474 29.0238 148.268 28.5228L146.942 25.4502L148.312 26.4007H139.094L140.465 25.4502L139.161 28.5228C138.94 29.0386 138.704 29.4143 138.453 29.6501C138.218 29.8712 137.864 29.9817 137.392 29.9817ZM143.67 17.8462L140.841 24.5881L140.244 23.7261H147.163L146.566 24.5881L143.714 17.8462H143.67Z" fill="white"/>
<path d="M155.428 33.9605C154.883 33.9605 154.463 33.8132 154.168 33.5184C153.888 33.2384 153.748 32.8185 153.748 32.2585V20.4325C153.748 19.8872 153.888 19.4746 154.168 19.1946C154.463 18.8999 154.868 18.7525 155.384 18.7525C155.929 18.7525 156.342 18.8999 156.622 19.1946C156.902 19.4746 157.042 19.8872 157.042 20.4325V21.9356L156.799 21.0735C157.02 20.3661 157.462 19.7988 158.125 19.3714C158.803 18.9293 159.576 18.7083 160.446 18.7083C161.389 18.7083 162.214 18.9367 162.922 19.3935C163.644 19.8504 164.204 20.4988 164.602 21.3388C164.999 22.1787 165.198 23.1808 165.198 24.345C165.198 25.5092 164.999 26.5186 164.602 27.3733C164.204 28.228 163.651 28.8838 162.944 29.3407C162.236 29.7975 161.404 30.0259 160.446 30.0259C159.591 30.0259 158.832 29.8196 158.169 29.407C157.506 28.9796 157.057 28.427 156.821 27.7491H157.086V32.2585C157.086 32.8185 156.939 33.2384 156.644 33.5184C156.364 33.8132 155.959 33.9605 155.428 33.9605ZM159.451 27.5281C159.923 27.5281 160.335 27.4102 160.689 27.1744C161.057 26.9386 161.337 26.5923 161.529 26.1355C161.735 25.6639 161.839 25.0671 161.839 24.345C161.839 23.2692 161.617 22.4808 161.175 21.9798C160.733 21.464 160.159 21.2061 159.451 21.2061C158.98 21.2061 158.56 21.3167 158.191 21.5377C157.838 21.7587 157.558 22.1051 157.351 22.5766C157.145 23.0334 157.042 23.6229 157.042 24.345C157.042 25.4208 157.263 26.2239 157.705 26.7544C158.147 27.2702 158.729 27.5281 159.451 27.5281Z" fill="white"/>
<path d="M169.362 33.9605C168.817 33.9605 168.397 33.8132 168.102 33.5184C167.822 33.2384 167.682 32.8185 167.682 32.2585V20.4325C167.682 19.8872 167.822 19.4746 168.102 19.1946C168.397 18.8999 168.802 18.7525 169.318 18.7525C169.863 18.7525 170.276 18.8999 170.556 19.1946C170.836 19.4746 170.976 19.8872 170.976 20.4325V21.9356L170.732 21.0735C170.953 20.3661 171.396 19.7988 172.059 19.3714C172.737 18.9293 173.51 18.7083 174.38 18.7083C175.323 18.7083 176.148 18.9367 176.855 19.3935C177.577 19.8504 178.137 20.4988 178.535 21.3388C178.933 22.1787 179.132 23.1808 179.132 24.345C179.132 25.5092 178.933 26.5186 178.535 27.3733C178.137 28.228 177.585 28.8838 176.877 29.3407C176.17 29.7975 175.338 30.0259 174.38 30.0259C173.525 30.0259 172.766 29.8196 172.103 29.407C171.44 28.9796 170.99 28.427 170.754 27.7491H171.02V32.2585C171.02 32.8185 170.872 33.2384 170.578 33.5184C170.298 33.8132 169.892 33.9605 169.362 33.9605ZM173.385 27.5281C173.856 27.5281 174.269 27.4102 174.623 27.1744C174.991 26.9386 175.271 26.5923 175.463 26.1355C175.669 25.6639 175.772 25.0671 175.772 24.345C175.772 23.2692 175.551 22.4808 175.109 21.9798C174.667 21.464 174.092 21.2061 173.385 21.2061C172.913 21.2061 172.493 21.3167 172.125 21.5377C171.771 21.7587 171.491 22.1051 171.285 22.5766C171.079 23.0334 170.976 23.6229 170.976 24.345C170.976 25.4208 171.197 26.2239 171.639 26.7544C172.081 27.2702 172.663 27.5281 173.385 27.5281Z" fill="white"/>
<line x1="14.7426" y1="28.7812" x2="54.9971" y2="37.7266" stroke="white" stroke-width="2.23636"/>
<path d="M36.2784 28.1678C34.655 29.4126 32.6907 30.1332 30.6474 30.2334C28.6041 30.3336 26.5788 29.8087 24.8414 28.7286C23.104 27.6485 21.737 26.0646 20.9226 24.1879C20.1083 22.3112 19.8852 20.2309 20.2831 18.2242C20.6811 16.2175 21.6812 14.3797 23.1501 12.9559C24.619 11.532 26.487 10.5896 28.5051 10.2543C30.5232 9.91897 32.5956 10.2067 34.446 11.0791C36.2964 11.9514 37.8371 13.3671 38.8625 15.1372" stroke="white" stroke-width="2.23636"/>
<circle cx="44.3182" cy="23.1636" r="10.0636" stroke="white" stroke-width="2.23636"/>
</svg>
