<svg width="116" height="20" viewBox="0 0 116 20" fill="none" xmlns="http://www.w3.org/2000/svg">
<path d="M6.44245 15.9817C5.97088 15.9817 5.58773 15.8712 5.293 15.6501C4.99827 15.4143 4.76249 15.0607 4.58565 14.5891L0.120506 2.03363C-0.0710678 1.47365 -0.0342266 0.994711 0.23103 0.596827C0.511022 0.198942 0.989957 0 1.66783 0C2.1394 0 2.50044 0.110523 2.75096 0.33157C3.01622 0.552617 3.2299 0.898924 3.392 1.37049L7.03927 12.2239H6.08877L9.93499 1.3926C10.1118 0.921029 10.3255 0.574722 10.576 0.353676C10.8413 0.117892 11.1876 0 11.6149 0C12.0276 0 12.3591 0.117892 12.6097 0.353676C12.8602 0.574722 13.0739 0.928397 13.2507 1.4147L16.9201 12.2239H16.1022L19.8158 1.37049C19.9631 0.913661 20.1695 0.574722 20.4347 0.353676C20.7 0.117892 21.061 0 21.5178 0C22.0926 0 22.5126 0.198942 22.7778 0.596827C23.0431 0.994711 23.0725 1.47365 22.8662 2.03363L18.3569 14.6112C18.1948 15.068 17.9737 15.4143 17.6937 15.6501C17.4137 15.8712 17.0306 15.9817 16.5443 15.9817C16.0727 15.9817 15.6969 15.8712 15.4169 15.6501C15.137 15.4143 14.9085 15.0607 14.7317 14.5891L11.2392 4.7083H11.7697L8.23293 14.6112C8.05609 15.068 7.82767 15.4143 7.54768 15.6501C7.28242 15.8712 6.91401 15.9817 6.44245 15.9817Z" fill="url(#paint0_linear_26_3)"/>
<path d="M28.3038 15.9817C27.7586 15.9817 27.3386 15.8343 27.0438 15.5396C26.7638 15.2449 26.6238 14.8249 26.6238 14.2796V1.70206C26.6238 1.14208 26.7638 0.722087 27.0438 0.442095C27.3386 0.147365 27.7586 0 28.3038 0C28.8343 0 29.2396 0.147365 29.5196 0.442095C29.8143 0.722087 29.9617 1.14208 29.9617 1.70206V6.96298H29.6522C29.9911 6.24089 30.4922 5.68827 31.1553 5.30512C31.8332 4.90724 32.5995 4.7083 33.4542 4.7083C34.3236 4.7083 35.0384 4.87777 35.5984 5.21671C36.1583 5.54091 36.5783 6.04195 36.8583 6.71982C37.1383 7.38296 37.2783 8.23031 37.2783 9.26186V14.2796C37.2783 14.8249 37.1309 15.2449 36.8362 15.5396C36.5562 15.8343 36.1436 15.9817 35.5984 15.9817C35.0678 15.9817 34.6552 15.8343 34.3605 15.5396C34.0805 15.2449 33.9405 14.8249 33.9405 14.2796V9.4166C33.9405 8.66504 33.8005 8.12716 33.5205 7.80295C33.2553 7.46402 32.8426 7.29455 32.2826 7.29455C31.5753 7.29455 31.0079 7.51559 30.5806 7.95769C30.168 8.39978 29.9617 8.98924 29.9617 9.72606V14.2796C29.9617 15.4143 29.409 15.9817 28.3038 15.9817Z" fill="url(#paint1_linear_26_3)"/>
<path d="M45.8489 16.0259C44.5668 16.0259 43.4616 15.7975 42.5332 15.3407C41.6195 14.8691 40.9122 14.2133 40.4111 13.3733C39.9248 12.5186 39.6817 11.5165 39.6817 10.3671C39.6817 9.24713 39.9175 8.26715 40.389 7.42717C40.8606 6.57246 41.5164 5.90932 42.3563 5.43775C43.211 4.95145 44.1763 4.7083 45.252 4.7083C46.0331 4.7083 46.7404 4.84093 47.3741 5.10618C48.0078 5.3567 48.553 5.72511 49.0098 6.21142C49.4667 6.68298 49.813 7.26507 50.0488 7.95769C50.2846 8.63556 50.4024 9.39449 50.4024 10.2345C50.4024 10.5145 50.314 10.7281 50.1372 10.8755C49.9603 11.0081 49.7025 11.0744 49.3635 11.0744H42.4226V9.35028H47.993L47.6394 9.65975C47.6394 9.05555 47.5509 8.55451 47.3741 8.15663C47.1973 7.74401 46.9394 7.43454 46.6004 7.22823C46.2762 7.02192 45.871 6.91877 45.3847 6.91877C44.8394 6.91877 44.3752 7.04403 43.9921 7.29455C43.6089 7.54507 43.3142 7.90611 43.1079 8.37768C42.9016 8.84924 42.7984 9.4166 42.7984 10.0797V10.2566C42.7984 11.3765 43.0563 12.2018 43.5721 12.7323C44.1026 13.2628 44.8836 13.5281 45.9152 13.5281C46.2689 13.5281 46.6741 13.4839 47.1309 13.3954C47.5878 13.307 48.0151 13.167 48.413 12.9754C48.752 12.8133 49.0541 12.7618 49.3193 12.8207C49.5846 12.8649 49.7909 12.9828 49.9382 13.1744C50.0856 13.366 50.1667 13.587 50.1814 13.8375C50.2109 14.0881 50.1593 14.3386 50.0267 14.5891C49.894 14.8249 49.673 15.0238 49.3635 15.1859C48.8625 15.4659 48.2951 15.6722 47.6615 15.8048C47.0425 15.9522 46.4383 16.0259 45.8489 16.0259Z" fill="url(#paint2_linear_26_3)"/>
<path d="M58.4226 16.0259C57.1406 16.0259 56.0353 15.7975 55.1069 15.3407C54.1933 14.8691 53.4859 14.2133 52.9849 13.3733C52.4986 12.5186 52.2554 11.5165 52.2554 10.3671C52.2554 9.24713 52.4912 8.26715 52.9628 7.42717C53.4344 6.57246 54.0901 5.90932 54.9301 5.43775C55.7848 4.95145 56.7501 4.7083 57.8258 4.7083C58.6068 4.7083 59.3142 4.84093 59.9479 5.10618C60.5815 5.3567 61.1268 5.72511 61.5836 6.21142C62.0404 6.68298 62.3868 7.26507 62.6225 7.95769C62.8583 8.63556 62.9762 9.39449 62.9762 10.2345C62.9762 10.5145 62.8878 10.7281 62.711 10.8755C62.5341 11.0081 62.2762 11.0744 61.9373 11.0744H54.9964V9.35028H60.5668L60.2131 9.65975C60.2131 9.05555 60.1247 8.55451 59.9479 8.15663C59.771 7.74401 59.5131 7.43454 59.1742 7.22823C58.85 7.02192 58.4447 6.91877 57.9584 6.91877C57.4132 6.91877 56.949 7.04403 56.5659 7.29455C56.1827 7.54507 55.888 7.90611 55.6817 8.37768C55.4754 8.84924 55.3722 9.4166 55.3722 10.0797V10.2566C55.3722 11.3765 55.6301 12.2018 56.1459 12.7323C56.6764 13.2628 57.4574 13.5281 58.489 13.5281C58.8426 13.5281 59.2479 13.4839 59.7047 13.3954C60.1615 13.307 60.5889 13.167 60.9868 12.9754C61.3257 12.8133 61.6278 12.7618 61.8931 12.8207C62.1583 12.8649 62.3646 12.9828 62.512 13.1744C62.6594 13.366 62.7404 13.587 62.7552 13.8375C62.7846 14.0881 62.7331 14.3386 62.6004 14.5891C62.4678 14.8249 62.2468 15.0238 61.9373 15.1859C61.4363 15.4659 60.8689 15.6722 60.2352 15.8048C59.6163 15.9522 59.0121 16.0259 58.4226 16.0259Z" fill="url(#paint3_linear_26_3)"/>
<path d="M69.2722 16.0259C67.9607 16.0259 66.9807 15.6649 66.3323 14.9428C65.6839 14.2059 65.3597 13.1154 65.3597 11.6713V1.70206C65.3597 1.14208 65.4997 0.722087 65.7797 0.442095C66.0744 0.147365 66.4944 0 67.0397 0C67.5702 0 67.9754 0.147365 68.2554 0.442095C68.5502 0.722087 68.6975 1.14208 68.6975 1.70206V11.5386C68.6975 12.1428 68.8228 12.5923 69.0733 12.887C69.3386 13.167 69.6849 13.307 70.1122 13.307C70.2301 13.307 70.3406 13.2997 70.4438 13.2849C70.5469 13.2702 70.6575 13.2628 70.7754 13.2628C71.0111 13.2333 71.1732 13.307 71.2617 13.4839C71.3648 13.646 71.4164 13.9775 71.4164 14.4786C71.4164 14.9207 71.328 15.2596 71.1511 15.4954C70.9743 15.7164 70.7017 15.8638 70.3333 15.9375C70.1859 15.9522 70.0164 15.967 69.8249 15.9817C69.6333 16.0112 69.4491 16.0259 69.2722 16.0259Z" fill="url(#paint4_linear_26_3)"/>
<path d="M73.8923 15.9817C73.4797 15.9817 73.1407 15.8859 72.8755 15.6943C72.625 15.5028 72.4629 15.2449 72.3892 14.9207C72.3302 14.5965 72.3965 14.2354 72.5881 13.8375L78.2469 1.4368C78.4827 0.935765 78.7627 0.574722 79.0869 0.353676C79.4111 0.117892 79.7869 0 80.2142 0C80.6416 0 81.0174 0.117892 81.3416 0.353676C81.6658 0.574722 81.9384 0.935765 82.1594 1.4368L87.8625 13.8375C88.054 14.2354 88.1203 14.6038 88.0614 14.9428C88.0172 15.267 87.8698 15.5249 87.6193 15.7164C87.3688 15.8933 87.0446 15.9817 86.6467 15.9817C86.1457 15.9817 85.7551 15.8638 85.4752 15.628C85.2099 15.3922 84.9741 15.0238 84.7678 14.5228L83.4415 11.4502L84.812 12.4007H75.5944L76.9648 11.4502L75.6607 14.5228C75.4396 15.0386 75.2038 15.4143 74.9533 15.6501C74.7175 15.8712 74.3639 15.9817 73.8923 15.9817ZM80.17 3.84622L77.3406 10.5881L76.7438 9.72606H83.6626L83.0657 10.5881L80.2142 3.84622H80.17Z" fill="url(#paint5_linear_26_3)"/>
<path d="M91.9282 19.9605C91.3829 19.9605 90.9629 19.8132 90.6682 19.5184C90.3882 19.2384 90.2482 18.8185 90.2482 18.2585V6.43246C90.2482 5.88721 90.3882 5.47459 90.6682 5.1946C90.9629 4.89987 91.3682 4.75251 91.8839 4.75251C92.4292 4.75251 92.8418 4.89987 93.1218 5.1946C93.4018 5.47459 93.5418 5.88721 93.5418 6.43246V7.93558L93.2987 7.0735C93.5197 6.36615 93.9618 5.7988 94.6249 5.37144C95.3028 4.92934 96.0765 4.7083 96.9459 4.7083C97.8891 4.7083 98.7143 4.93671 99.4216 5.39354C100.144 5.85037 100.704 6.49878 101.102 7.33876C101.499 8.17873 101.698 9.18081 101.698 10.345C101.698 11.5092 101.499 12.5186 101.102 13.3733C100.704 14.228 100.151 14.8838 99.4438 15.3407C98.7364 15.7975 97.9038 16.0259 96.9459 16.0259C96.0912 16.0259 95.3323 15.8196 94.6691 15.407C94.006 14.9796 93.5565 14.427 93.3208 13.7491H93.586V18.2585C93.586 18.8185 93.4386 19.2384 93.1439 19.5184C92.8639 19.8132 92.4587 19.9605 91.9282 19.9605ZM95.9512 13.5281C96.4228 13.5281 96.8354 13.4102 97.1891 13.1744C97.5575 12.9386 97.8375 12.5923 98.0291 12.1355C98.2354 11.6639 98.3385 11.0671 98.3385 10.345C98.3385 9.26923 98.1175 8.48083 97.6754 7.97979C97.2333 7.46402 96.6586 7.20613 95.9512 7.20613C95.4796 7.20613 95.0597 7.31665 94.6912 7.5377C94.3376 7.75874 94.0576 8.10505 93.8513 8.57662C93.645 9.03345 93.5418 9.62291 93.5418 10.345C93.5418 11.4208 93.7628 12.2239 94.2049 12.7544C94.647 13.2702 95.2291 13.5281 95.9512 13.5281Z" fill="url(#paint6_linear_26_3)"/>
<path d="M105.862 19.9605C105.317 19.9605 104.897 19.8132 104.602 19.5184C104.322 19.2384 104.182 18.8185 104.182 18.2585V6.43246C104.182 5.88721 104.322 5.47459 104.602 5.1946C104.897 4.89987 105.302 4.75251 105.818 4.75251C106.363 4.75251 106.776 4.89987 107.056 5.1946C107.336 5.47459 107.476 5.88721 107.476 6.43246V7.93558L107.232 7.0735C107.453 6.36615 107.896 5.7988 108.559 5.37144C109.237 4.92934 110.01 4.7083 110.88 4.7083C111.823 4.7083 112.648 4.93671 113.355 5.39354C114.077 5.85037 114.637 6.49878 115.035 7.33876C115.433 8.17873 115.632 9.18081 115.632 10.345C115.632 11.5092 115.433 12.5186 115.035 13.3733C114.637 14.228 114.085 14.8838 113.377 15.3407C112.67 15.7975 111.838 16.0259 110.88 16.0259C110.025 16.0259 109.266 15.8196 108.603 15.407C107.94 14.9796 107.49 14.427 107.254 13.7491H107.52V18.2585C107.52 18.8185 107.372 19.2384 107.078 19.5184C106.798 19.8132 106.392 19.9605 105.862 19.9605ZM109.885 13.5281C110.357 13.5281 110.769 13.4102 111.123 13.1744C111.491 12.9386 111.771 12.5923 111.963 12.1355C112.169 11.6639 112.272 11.0671 112.272 10.345C112.272 9.26923 112.051 8.48083 111.609 7.97979C111.167 7.46402 110.592 7.20613 109.885 7.20613C109.413 7.20613 108.993 7.31665 108.625 7.5377C108.271 7.75874 107.991 8.10505 107.785 8.57662C107.579 9.03345 107.476 9.62291 107.476 10.345C107.476 11.4208 107.697 12.2239 108.139 12.7544C108.581 13.2702 109.163 13.5281 109.885 13.5281Z" fill="url(#paint7_linear_26_3)"/>
<defs>
<linearGradient id="paint0_linear_26_3" x1="2.70253" y1="-2.2682e-05" x2="114.843" y2="8.19408" gradientUnits="userSpaceOnUse">
<stop stop-color="#42D392"/>
<stop offset="1" stop-color="#647EFF"/>
</linearGradient>
<linearGradient id="paint1_linear_26_3" x1="2.70253" y1="-2.2682e-05" x2="114.843" y2="8.19408" gradientUnits="userSpaceOnUse">
<stop stop-color="#42D392"/>
<stop offset="1" stop-color="#647EFF"/>
</linearGradient>
<linearGradient id="paint2_linear_26_3" x1="2.70253" y1="-2.2682e-05" x2="114.843" y2="8.19408" gradientUnits="userSpaceOnUse">
<stop stop-color="#42D392"/>
<stop offset="1" stop-color="#647EFF"/>
</linearGradient>
<linearGradient id="paint3_linear_26_3" x1="2.70253" y1="-2.2682e-05" x2="114.843" y2="8.19408" gradientUnits="userSpaceOnUse">
<stop stop-color="#42D392"/>
<stop offset="1" stop-color="#647EFF"/>
</linearGradient>
<linearGradient id="paint4_linear_26_3" x1="2.70253" y1="-2.2682e-05" x2="114.843" y2="8.19408" gradientUnits="userSpaceOnUse">
<stop stop-color="#42D392"/>
<stop offset="1" stop-color="#647EFF"/>
</linearGradient>
<linearGradient id="paint5_linear_26_3" x1="2.70253" y1="-2.2682e-05" x2="114.843" y2="8.19408" gradientUnits="userSpaceOnUse">
<stop stop-color="#42D392"/>
<stop offset="1" stop-color="#647EFF"/>
</linearGradient>
<linearGradient id="paint6_linear_26_3" x1="2.70253" y1="-2.2682e-05" x2="114.843" y2="8.19408" gradientUnits="userSpaceOnUse">
<stop stop-color="#42D392"/>
<stop offset="1" stop-color="#647EFF"/>
</linearGradient>
<linearGradient id="paint7_linear_26_3" x1="2.70253" y1="-2.2682e-05" x2="114.843" y2="8.19408" gradientUnits="userSpaceOnUse">
<stop stop-color="#42D392"/>
<stop offset="1" stop-color="#647EFF"/>
</linearGradient>
</defs>
</svg>
