<svg width="162" height="52" viewBox="0 0 162 52" fill="none" xmlns="http://www.w3.org/2000/svg">
<path d="M56.484 18.448C56.8184 18.448 57.1064 18.736 57.348 19.312C56.6047 21.3559 56.2331 23.2698 56.2331 25.0536V26.0012C56.2331 28.0823 56.7627 29.1228 57.8218 29.1228C59.1782 29.1228 60.1073 26.7444 60.609 21.9877C60.609 19.7765 60.8041 18.671 61.1943 18.671L61.6402 18.6152C62.0304 18.6152 62.2627 18.9311 62.337 19.5628V28.9556C62.337 34.8086 61.3522 38.2368 59.3826 39.2402C59.011 39.4446 58.4536 39.6211 57.7103 39.7698C56.0752 39.7698 54.2171 38.8128 52.136 36.899L52.0524 36.5645C52.0524 36.1372 52.3682 35.8677 53 35.7563L55.2019 37.3171C56.0566 37.7816 56.6976 38.0139 57.125 38.0139H57.8775C59.7356 38.0139 60.6647 35.1431 60.6647 29.4015V29.0671H60.4139C59.7078 30.1634 58.8066 30.7115 57.7103 30.7115C56.3539 30.7115 55.397 29.8382 54.8395 28.0916C54.6537 27.4041 54.5608 26.7073 54.5608 26.0012V25.7503C54.8581 20.8821 55.4992 18.448 56.484 18.448Z" fill="#EFC01A"/>
<path d="M66.3814 26.6144C67.1247 26.6329 68.3789 27.9336 70.1441 30.5164L70.1998 30.9902C70.1998 31.5105 68.927 31.91 66.3814 32.1887L66.2978 32.2723V32.3838C66.688 34.0561 67.0968 34.8922 67.5242 34.8922H67.8586C68.4532 34.8922 69.3544 34.2512 70.5622 32.9691H70.7294C71.101 32.9691 71.389 33.2385 71.5934 33.7774C71.5934 34.2233 70.813 34.9944 69.2522 36.0907C68.8434 36.3323 68.351 36.5088 67.775 36.6203C66.2699 36.6203 65.2201 35.2081 64.6255 32.3838C63.7708 32.2537 63.3434 31.9007 63.3434 31.3247C63.3434 30.9159 63.6593 30.6465 64.2911 30.5164V30.6279L64.5698 30.5164V29.8196C64.5698 27.6828 65.1737 26.6144 66.3814 26.6144ZM66.5487 28.6211H66.2978L66.1863 29.6524V30.5164H66.2978C67.3384 30.4792 67.8586 30.3677 67.8586 30.1819C67.3755 29.4573 66.9389 28.937 66.5487 28.6211Z" fill="#EFC01A"/>
<path d="M74.2532 21.263C74.7735 21.4488 75.0336 21.7368 75.0336 22.127L75.3123 32.7461V36.1743C75.3123 36.8061 75.0429 37.122 74.504 37.122H74.1417C73.8073 36.899 73.64 36.6389 73.64 36.3416V33.1085L73.3892 22.0713C73.3892 21.6068 73.6772 21.3373 74.2532 21.263Z" fill="#EFC01A"/>
<path d="M78.9075 21.263C79.4278 21.4488 79.688 21.7368 79.688 22.127L79.9667 32.7461V36.1743C79.9667 36.8061 79.6972 37.122 79.1584 37.122H78.7961C78.4616 36.899 78.2944 36.6389 78.2944 36.3416V33.1085L78.0435 22.0713C78.0435 21.6068 78.3315 21.3373 78.9075 21.263Z" fill="#EFC01A"/>
<path d="M86.4327 26.1127C87.8077 26.1127 88.8482 27.1346 89.5543 29.1786L89.6658 29.7639C89.6658 31.752 88.7367 33.7867 86.8786 35.8677C86.1354 36.5552 85.3828 36.899 84.621 36.899C83.5061 36.899 82.7164 36.2579 82.2519 34.9759C82.0847 34.3813 82.0011 33.861 82.0011 33.415V33.0806C82.0011 30.1448 83.0695 27.915 85.2063 26.3914C85.5779 26.2056 85.9867 26.1127 86.4327 26.1127ZM83.6455 33.3593C83.6455 34.6228 83.9707 35.2546 84.621 35.2546C85.9774 35.2546 87.1016 33.5172 87.9935 30.0426V29.513C87.6776 28.361 87.0923 27.785 86.2376 27.785C85.9031 27.785 85.7359 28.0172 85.7359 28.4818C85.7359 28.7976 85.3643 29.0485 84.621 29.2343C83.9707 30.3306 83.6455 31.7056 83.6455 33.3593Z" fill="#EFC01A"/>
<path d="M98.7885 27.8686C100.071 28.7233 100.712 30.0426 100.712 31.8264C100.712 34.2419 99.9034 35.8863 98.2868 36.7596L97.2277 36.9269C96.5959 36.9269 95.927 36.6203 95.2209 36.0071H95.0258C94.4498 36.7503 93.911 37.122 93.4093 37.122C92.09 37.122 91.3282 35.877 91.1238 33.3872V31.8821C91.2539 29.5223 91.7463 28.3424 92.601 28.3424C93.0655 28.3424 93.335 28.6304 93.4093 29.2064C92.9819 29.9497 92.7682 30.9902 92.7682 32.328V32.8576C92.8426 34.5299 93.0191 35.3661 93.2978 35.3661C93.5765 35.3661 93.8645 34.8829 94.1618 33.9167L94.1061 31.9936C94.1061 30.7115 94.4127 30.0704 95.0258 30.0704C95.7319 30.0704 96.085 30.7672 96.085 32.1608H96.1964L95.9177 33.9167C96.2336 34.8458 96.6703 35.3103 97.2277 35.3103H97.3949C98.2125 35.3103 98.7421 34.437 98.9836 32.6904V31.1296C98.9836 30.535 98.6306 29.801 97.9245 28.9277L97.813 28.6769C97.813 28.2867 98.1382 28.0172 98.7885 27.8686Z" fill="#EFC01A"/>
<path d="M114.991 20.9564C115.753 20.0831 116.571 19.6465 117.444 19.6465C118.318 19.6465 118.838 20.3154 119.005 21.6532V21.7368C119.005 22.4058 118.624 23.8644 117.862 26.1127L119.172 25.834C120.77 25.834 121.699 26.8559 121.959 28.8998V29.3179C121.959 31.7706 120.417 34.0096 117.333 36.035C116.329 36.4252 115.605 36.6203 115.159 36.6203C113.654 36.6203 112.613 35.747 112.037 34.0003C112.074 33.796 112.307 33.5079 112.734 33.1363C112.938 24.7377 113.115 20.5384 113.263 20.5384C113.579 20.2225 113.867 20.0645 114.127 20.0645C114.629 20.2503 114.88 20.5476 114.88 20.9564H114.991ZM114.713 28.6211H114.824C116.348 25.7411 117.156 23.5113 117.249 21.9319V21.2909H116.97C116.58 21.2909 116.06 22.3407 115.41 24.4404C114.945 26.4286 114.713 27.8221 114.713 28.6211ZM115.772 30.3492L115.354 30.5164L114.657 30.4607V30.5164L114.546 30.8787V33.7774L114.462 34.8086L115.075 34.9759C116.655 34.9759 118.215 33.7867 119.758 31.4083C120.185 30.3492 120.399 29.4759 120.399 28.7884C120.399 27.9336 119.99 27.5063 119.172 27.5063H119.061C118.169 27.5063 117.073 28.4539 115.772 30.3492Z" fill="#EFC01A"/>
<path d="M127.532 26.1127C128.907 26.1127 129.948 27.1346 130.654 29.1786L130.766 29.7639C130.766 31.752 129.836 33.7867 127.978 35.8677C127.235 36.5552 126.483 36.899 125.721 36.899C124.606 36.899 123.816 36.2579 123.352 34.9759C123.184 34.3813 123.101 33.861 123.101 33.415V33.0806C123.101 30.1448 124.169 27.915 126.306 26.3914C126.678 26.2056 127.086 26.1127 127.532 26.1127ZM124.745 33.3593C124.745 34.6228 125.07 35.2546 125.721 35.2546C127.077 35.2546 128.201 33.5172 129.093 30.0426V29.513C128.777 28.361 128.192 27.785 127.337 27.785C127.003 27.785 126.836 28.0172 126.836 28.4818C126.836 28.7976 126.464 29.0485 125.721 29.2343C125.07 30.3306 124.745 31.7056 124.745 33.3593Z" fill="#EFC01A"/>
<path d="M136.46 26.1127C137.835 26.1127 138.876 27.1346 139.582 29.1786L139.693 29.7639C139.693 31.752 138.764 33.7867 136.906 35.8677C136.163 36.5552 135.41 36.899 134.648 36.899C133.534 36.899 132.744 36.2579 132.279 34.9759C132.112 34.3813 132.028 33.861 132.028 33.415V33.0806C132.028 30.1448 133.097 27.915 135.234 26.3914C135.605 26.2056 136.014 26.1127 136.46 26.1127ZM133.673 33.3593C133.673 34.6228 133.998 35.2546 134.648 35.2546C136.005 35.2546 137.129 33.5172 138.021 30.0426V29.513C137.705 28.361 137.12 27.785 136.265 27.785C135.93 27.785 135.763 28.0172 135.763 28.4818C135.763 28.7976 135.392 29.0485 134.648 29.2343C133.998 30.3306 133.673 31.7056 133.673 33.3593Z" fill="#EFC01A"/>
<path d="M142.35 21.8762H142.517C142.758 21.8762 142.991 22.0806 143.214 22.4894L143.102 24.3846V25.4438L143.214 30.3213L143.297 30.6H143.381C144.18 29.8568 144.877 28.5468 145.471 26.6701L146.084 26.475C146.605 26.5493 146.865 26.7816 146.865 27.1718C146.865 28.3796 146.001 30.0054 144.273 32.0493V32.2444C146.558 34.9015 148.063 36.2301 148.788 36.2301H148.955L149.652 35.812H149.903C150.293 35.812 150.581 36.0721 150.767 36.5924C150.767 37.187 150.107 37.5958 148.788 37.8188C147.469 37.8188 145.75 36.4809 143.632 33.8052H143.381L143.465 35.3103V36.7596C143.353 37.3357 143.065 37.6237 142.601 37.6237C142.08 37.5122 141.82 37.2242 141.82 36.7596V36.5924L141.709 33.3872C141.504 33.3872 141.365 33.0992 141.291 32.5232L141.653 31.8264L141.486 25.5552V24.3289C141.486 22.6938 141.774 21.8762 142.35 21.8762Z" fill="#EFC01A"/>
<g clip-path="url(#clip0_6_119)">
<mask id="mask0_6_119" style="mask-type:alpha" maskUnits="userSpaceOnUse" x="13" y="8" width="30" height="38">
<path d="M40.7136 10.1422H18.0099C18.0099 10.1422 15.3388 12.0004 15.3388 16.6456C15.3388 21.2909 18.0099 23.149 18.0099 23.149H40.7136C40.7136 23.149 38.0426 21.2909 38.0426 16.6456C38.0426 12.0004 40.7136 10.1422 40.7136 10.1422ZM15.3388 30.5814H38.0426C38.0426 30.5814 40.7136 32.4395 40.7136 37.0848C40.7136 41.7301 38.0426 43.5882 38.0426 43.5882H15.3388C15.3388 43.5882 18.0099 41.7301 18.0099 37.0848C18.0099 32.4395 15.3388 30.5814 15.3388 30.5814Z" fill="white" stroke="white" stroke-width="3.71622" stroke-linecap="round" stroke-linejoin="round"/>
</mask>
<g mask="url(#mask0_6_119)">
<path d="M44.0524 4.56792H12V49.1625H44.0524V4.56792Z" fill="#EFC01A"/>
</g>
</g>
<g clip-path="url(#clip1_6_119)">
<mask id="mask1_6_119" style="mask-type:alpha" maskUnits="userSpaceOnUse" x="13" y="-13" width="30" height="39">
<path d="M40.7136 -10.297H18.0099C18.0099 -10.297 15.3388 -8.43889 15.3388 -3.79362C15.3388 0.851651 18.0099 2.70976 18.0099 2.70976H40.7136C40.7136 2.70976 38.0426 0.851651 38.0426 -3.79362C38.0426 -8.43889 40.7136 -10.297 40.7136 -10.297ZM15.3388 10.1422H38.0426C38.0426 10.1422 40.7136 12.0003 40.7136 16.6456C40.7136 21.2908 38.0426 23.1489 38.0426 23.1489H15.3388C15.3388 23.1489 18.0099 21.2908 18.0099 16.6456C18.0099 12.0003 15.3388 10.1422 15.3388 10.1422Z" fill="white" stroke="white" stroke-width="3.71622" stroke-linecap="round" stroke-linejoin="round"/>
</mask>
<g mask="url(#mask1_6_119)">
<path d="M44.0524 -15.8713H12V28.7233H44.0524V-15.8713Z" fill="#EFC01A"/>
</g>
</g>
<defs>
<clipPath id="clip0_6_119">
<rect width="32.0524" height="24.1554" fill="white" transform="matrix(-1 0 0 1 44.0524 25.0071)"/>
</clipPath>
<clipPath id="clip1_6_119">
<rect width="32.0524" height="24.1554" fill="white" transform="matrix(-1 0 0 1 44.0524 4.56787)"/>
</clipPath>
</defs>
</svg>
