<svg width="99" height="22" viewBox="0 0 99 22" fill="none" xmlns="http://www.w3.org/2000/svg">
<path d="M4.43159 0C4.76605 0 5.05405 0.288006 5.29561 0.864019C4.55236 2.90794 4.18074 4.82179 4.18074 6.60557V7.55321C4.18074 9.63429 4.7103 10.6748 5.76943 10.6748C7.12584 10.6748 8.0549 8.29645 8.55659 3.5397C8.55659 1.32855 8.75169 0.222972 9.14189 0.222972L9.58784 0.167229C9.97804 0.167229 10.2103 0.483107 10.2846 1.11486V10.5076C10.2846 16.3606 9.29983 19.7889 7.33024 20.7922C6.95861 20.9966 6.40118 21.1731 5.65794 21.3218C4.0228 21.3218 2.1647 20.3649 0.0836149 18.451L0 18.1166C0 17.6892 0.315878 17.4198 0.947635 17.3083L3.14949 18.8691C4.00422 19.3336 4.64527 19.5659 5.07264 19.5659H5.82517C7.68328 19.5659 8.61233 16.6951 8.61233 10.9535V10.6191H8.36149C7.65541 11.7154 6.75422 12.2635 5.65794 12.2635C4.30152 12.2635 3.34459 11.3902 2.78716 9.64358C2.60135 8.95608 2.50845 8.25929 2.50845 7.55321V7.30236C2.80574 2.43412 3.44679 0 4.43159 0Z" fill="url(#paint0_linear_26_9)"/>
<path d="M14.3291 8.16638C15.0723 8.18497 16.3265 9.48564 18.0917 12.0684L18.1475 12.5422C18.1475 13.0625 16.8747 13.462 14.3291 13.7407L14.2454 13.8243V13.9358C14.6356 15.6081 15.0444 16.4443 15.4718 16.4443H15.8063C16.4009 16.4443 17.302 15.8032 18.5098 14.5211H18.677C19.0487 14.5211 19.3367 14.7905 19.5411 15.3294C19.5411 15.7753 18.7606 16.5465 17.1998 17.6427C16.7911 17.8843 16.2987 18.0608 15.7226 18.1723C14.2176 18.1723 13.1677 16.7601 12.5731 13.9358C11.7184 13.8057 11.2911 13.4527 11.2911 12.8767C11.2911 12.4679 11.6069 12.1985 12.2387 12.0684V12.1799L12.5174 12.0684V11.3716C12.5174 9.2348 13.1213 8.16638 14.3291 8.16638ZM14.4963 10.1731H14.2454L14.134 11.2044V12.0684H14.2454C15.286 12.0312 15.8063 11.9198 15.8063 11.734C15.3231 11.0093 14.8865 10.489 14.4963 10.1731Z" fill="url(#paint1_linear_26_9)"/>
<path d="M22.2008 2.81503C22.7211 3.00084 22.9812 3.28885 22.9812 3.67905L23.26 14.2981V17.7264C23.26 18.3581 22.9905 18.674 22.4517 18.674H22.0893C21.7549 18.451 21.5877 18.1909 21.5877 17.8936V14.6605L21.3368 3.62331C21.3368 3.15878 21.6248 2.88936 22.2008 2.81503Z" fill="url(#paint2_linear_26_9)"/>
<path d="M26.8552 2.81503C27.3754 3.00084 27.6356 3.28885 27.6356 3.67905L27.9143 14.2981V17.7264C27.9143 18.3581 27.6449 18.674 27.106 18.674H26.7437C26.4092 18.451 26.242 18.1909 26.242 17.8936V14.6605L25.9912 3.62331C25.9912 3.15878 26.2792 2.88936 26.8552 2.81503Z" fill="url(#paint3_linear_26_9)"/>
<path d="M34.3803 7.6647C35.7553 7.6647 36.7958 8.68666 37.5019 10.7306L37.6134 11.3159C37.6134 13.3041 36.6844 15.3387 34.8262 17.4198C34.083 18.1073 33.3305 18.451 32.5686 18.451C31.4538 18.451 30.6641 17.81 30.1996 16.5279C30.0323 15.9333 29.9487 15.413 29.9487 14.9671V14.6326C29.9487 11.6968 31.0171 9.46706 33.1539 7.94341C33.5256 7.7576 33.9344 7.6647 34.3803 7.6647ZM31.5931 14.9113C31.5931 16.1748 31.9183 16.8066 32.5686 16.8066C33.9251 16.8066 35.0492 15.0693 35.9411 11.5946V11.065C35.6252 9.91301 35.0399 9.33699 34.1852 9.33699C33.8507 9.33699 33.6835 9.56926 33.6835 10.0338C33.6835 10.3497 33.3119 10.6005 32.5686 10.7863C31.9183 11.8826 31.5931 13.2576 31.5931 14.9113Z" fill="url(#paint4_linear_26_9)"/>
<path d="M46.7361 9.42061C48.0182 10.2753 48.6593 11.5946 48.6593 13.3784C48.6593 15.7939 47.851 17.4383 46.2344 18.3117L45.1753 18.4789C44.5436 18.4789 43.8746 18.1723 43.1686 17.5591H42.9735C42.3975 18.3024 41.8586 18.674 41.3569 18.674C40.0377 18.674 39.2758 17.4291 39.0714 14.9392V13.4341C39.2015 11.0743 39.6939 9.89443 40.5486 9.89443C41.0132 9.89443 41.2826 10.1824 41.3569 10.7584C40.9295 11.5017 40.7159 12.5422 40.7159 13.8801V14.4096C40.7902 16.0819 40.9667 16.9181 41.2454 16.9181C41.5241 16.9181 41.8121 16.435 42.1094 15.4687L42.0537 13.5456C42.0537 12.2635 42.3603 11.6225 42.9735 11.6225C43.6795 11.6225 44.0326 12.3193 44.0326 13.7128H44.1441L43.8654 15.4687C44.1812 16.3978 44.6179 16.8623 45.1753 16.8623H45.3426C46.1601 16.8623 46.6897 15.989 46.9312 14.2424V12.6816C46.9312 12.087 46.5782 11.353 45.8721 10.4797L45.7606 10.2289C45.7606 9.83868 46.0858 9.56926 46.7361 9.42061Z" fill="url(#paint5_linear_26_9)"/>
<path d="M62.9391 2.50845C63.701 1.63513 64.5185 1.19848 65.3918 1.19848C66.2651 1.19848 66.7854 1.8674 66.9526 3.20524V3.28885C66.9526 3.95777 66.5717 5.41638 65.8099 7.6647L67.1199 7.38598C68.7178 7.38598 69.6469 8.40794 69.907 10.4519V10.8699C69.907 13.3226 68.3648 15.5617 65.2803 17.587C64.277 17.9772 63.5523 18.1723 63.1064 18.1723C61.6013 18.1723 60.5608 17.299 59.9847 15.5524C60.0219 15.348 60.2542 15.06 60.6815 14.6883C60.8859 6.2897 61.0624 2.09037 61.2111 2.09037C61.527 1.77449 61.815 1.61655 62.0751 1.61655C62.5768 1.80236 62.8276 2.09966 62.8276 2.50845H62.9391ZM62.6604 10.1731H62.7719C64.2955 7.29307 65.1038 5.06334 65.1967 3.48395V2.84291H64.918C64.5278 2.84291 64.0075 3.89274 63.3572 5.9924C62.8927 7.98057 62.6604 9.37416 62.6604 10.1731ZM63.7195 11.9012L63.3015 12.0684L62.6047 12.0127V12.0684L62.4932 12.4307V15.3294L62.4096 16.3606L63.0227 16.5279C64.6021 16.5279 66.1629 15.3387 67.7052 12.9603C68.1325 11.9012 68.3462 11.0279 68.3462 10.3404C68.3462 9.48564 67.9374 9.05828 67.1199 9.05828H67.0084C66.1165 9.05828 65.0202 10.0059 63.7195 11.9012Z" fill="url(#paint6_linear_26_9)"/>
<path d="M75.48 7.6647C76.855 7.6647 77.8956 8.68666 78.6017 10.7306L78.7132 11.3159C78.7132 13.3041 77.7841 15.3387 75.926 17.4198C75.1828 18.1073 74.4302 18.451 73.6684 18.451C72.5535 18.451 71.7638 17.81 71.2993 16.5279C71.1321 15.9333 71.0485 15.413 71.0485 14.9671V14.6326C71.0485 11.6968 72.1169 9.46706 74.2537 7.94341C74.6253 7.7576 75.0341 7.6647 75.48 7.6647ZM72.6929 14.9113C72.6929 16.1748 73.0181 16.8066 73.6684 16.8066C75.0248 16.8066 76.149 15.0693 77.0409 11.5946V11.065C76.725 9.91301 76.1397 9.33699 75.2849 9.33699C74.9505 9.33699 74.7833 9.56926 74.7833 10.0338C74.7833 10.3497 74.4116 10.6005 73.6684 10.7863C73.0181 11.8826 72.6929 13.2576 72.6929 14.9113Z" fill="url(#paint7_linear_26_9)"/>
<path d="M84.4077 7.6647C85.7827 7.6647 86.8232 8.68666 87.5293 10.7306L87.6408 11.3159C87.6408 13.3041 86.7117 15.3387 84.8536 17.4198C84.1104 18.1073 83.3578 18.451 82.596 18.451C81.4812 18.451 80.6915 17.81 80.2269 16.5279C80.0597 15.9333 79.9761 15.413 79.9761 14.9671V14.6326C79.9761 11.6968 81.0445 9.46706 83.1813 7.94341C83.553 7.7576 83.9617 7.6647 84.4077 7.6647ZM81.6205 14.9113C81.6205 16.1748 81.9457 16.8066 82.596 16.8066C83.9524 16.8066 85.0766 15.0693 85.9685 11.5946V11.065C85.6526 9.91301 85.0673 9.33699 84.2126 9.33699C83.8781 9.33699 83.7109 9.56926 83.7109 10.0338C83.7109 10.3497 83.3393 10.6005 82.596 10.7863C81.9457 11.8826 81.6205 13.2576 81.6205 14.9113Z" fill="url(#paint8_linear_26_9)"/>
<path d="M90.2973 3.42821H90.4645C90.7061 3.42821 90.9383 3.6326 91.1613 4.04138L91.0498 5.93666V6.99578L91.1613 11.8733L91.2449 12.152H91.3286C92.1275 11.4088 92.8243 10.0988 93.4189 8.22213L94.0321 8.02703C94.5524 8.10135 94.8125 8.33361 94.8125 8.72382C94.8125 9.93159 93.9485 11.5574 92.2204 13.6014V13.7965C94.5059 16.4535 96.011 17.7821 96.7356 17.7821H96.9029L97.5997 17.364H97.8505C98.2407 17.364 98.5287 17.6242 98.7145 18.1444C98.7145 18.739 98.0549 19.1478 96.7356 19.3708C95.4164 19.3708 93.6976 18.0329 91.5794 15.3573H91.3286L91.4122 16.8623V18.3117C91.3007 18.8877 91.0127 19.1757 90.5481 19.1757C90.0279 19.0642 89.7677 18.7762 89.7677 18.3117V18.1444L89.6563 14.9392C89.4519 14.9392 89.3125 14.6512 89.2382 14.0752L89.6005 13.3784L89.4333 7.10726V5.88091C89.4333 4.24578 89.7213 3.42821 90.2973 3.42821Z" fill="url(#paint9_linear_26_9)"/>
<defs>
<linearGradient id="paint0_linear_26_9" x1="2.30714" y1="-2.42289e-05" x2="98.2252" y2="5.60128" gradientUnits="userSpaceOnUse">
<stop stop-color="#42D392"/>
<stop offset="1" stop-color="#647EFF"/>
</linearGradient>
<linearGradient id="paint1_linear_26_9" x1="2.30714" y1="-2.42289e-05" x2="98.2252" y2="5.60128" gradientUnits="userSpaceOnUse">
<stop stop-color="#42D392"/>
<stop offset="1" stop-color="#647EFF"/>
</linearGradient>
<linearGradient id="paint2_linear_26_9" x1="2.30714" y1="-2.42289e-05" x2="98.2252" y2="5.60128" gradientUnits="userSpaceOnUse">
<stop stop-color="#42D392"/>
<stop offset="1" stop-color="#647EFF"/>
</linearGradient>
<linearGradient id="paint3_linear_26_9" x1="2.30714" y1="-2.42289e-05" x2="98.2252" y2="5.60128" gradientUnits="userSpaceOnUse">
<stop stop-color="#42D392"/>
<stop offset="1" stop-color="#647EFF"/>
</linearGradient>
<linearGradient id="paint4_linear_26_9" x1="2.30714" y1="-2.42289e-05" x2="98.2252" y2="5.60128" gradientUnits="userSpaceOnUse">
<stop stop-color="#42D392"/>
<stop offset="1" stop-color="#647EFF"/>
</linearGradient>
<linearGradient id="paint5_linear_26_9" x1="2.30714" y1="-2.42289e-05" x2="98.2252" y2="5.60128" gradientUnits="userSpaceOnUse">
<stop stop-color="#42D392"/>
<stop offset="1" stop-color="#647EFF"/>
</linearGradient>
<linearGradient id="paint6_linear_26_9" x1="2.30714" y1="-2.42289e-05" x2="98.2252" y2="5.60128" gradientUnits="userSpaceOnUse">
<stop stop-color="#42D392"/>
<stop offset="1" stop-color="#647EFF"/>
</linearGradient>
<linearGradient id="paint7_linear_26_9" x1="2.30714" y1="-2.42289e-05" x2="98.2252" y2="5.60128" gradientUnits="userSpaceOnUse">
<stop stop-color="#42D392"/>
<stop offset="1" stop-color="#647EFF"/>
</linearGradient>
<linearGradient id="paint8_linear_26_9" x1="2.30714" y1="-2.42289e-05" x2="98.2252" y2="5.60128" gradientUnits="userSpaceOnUse">
<stop stop-color="#42D392"/>
<stop offset="1" stop-color="#647EFF"/>
</linearGradient>
<linearGradient id="paint9_linear_26_9" x1="2.30714" y1="-2.42289e-05" x2="98.2252" y2="5.60128" gradientUnits="userSpaceOnUse">
<stop stop-color="#42D392"/>
<stop offset="1" stop-color="#647EFF"/>
</linearGradient>
</defs>
</svg>
